<?xml version="1.0" encoding="UTF-8"?>
<svg id="Layer_3" data-name="Layer 3" xmlns="http://www.w3.org/2000/svg" width="346.28" height="146.44" viewBox="0 0 346.28 146.44">
  <defs>
    <style>
      .cls-1 {
        fill: #c3acb1;
        stroke-width: 0px;
      }
    </style>
  </defs>
  <path class="cls-1" d="m28,.68c-2.15,1.23-4.11,3.35-4.11,3.35-1.41,1.53-1.81,2.5-1.98,2.97-.12.34-.67,1.96-.26,3.98.26,1.27.79,2.16,1.21,2.87.56.94,1.15,1.63,1.6,2.11-.37,1.6-.97,3.9-1.89,6.63-.93,2.75-1.39,4.13-2.06,5.19-1.74,2.79-3.13,2.65-6.6,6.58-1.34,1.52-2.03,2.31-2.63,3.61-.39.84-1.51,3.32-.91,6.49.15.79.49,2.54,1.88,4.25,1.77,2.19,4.08,2.88,4.92,3.09-.23.59-.53,1.42-.79,2.45-.35,1.38-.56,2.22-.52,3.35.05,1.21.34,1.45.36,2.8.02.89-.1,1.62-.19,2.09-.54.39-1.33.99-2.2,1.82-1.7,1.62-1.99,2.48-3.96,5.1-1.8,2.41-2.93,3.91-4.78,5.62-.91.84-1.46,1.23-2.28,2.23-1.57,1.91-2.14,3.59-2.28,4.02-.3.94-.62,1.94-.46,3.27.05.43.23,1.5.95,2.61.58.9,1.2,1.34,2.35,2.2,1.16.86,2.27,1.78,3.44,2.62,2.68,1.92,3.05,2.69,5.53,4.7,2.15,1.75,3.86,2.77,6.27,4.21,1.97,1.18,6.4,3.72,13.47,6.56,6.19,2.48,11.02,3.84,17.44,5.64,6.84,1.92,6.95,1.66,11.83,3.17,5.99,1.86,7.19,2.67,14.02,5.08,4.67,1.65,8.71,2.84,16.79,5.21,2.47.73,8.71,2.55,16.94,4.73,4.07,1.08,9.53,2.52,16.66,4.19,5.92,1.39,13.03,3.05,22.35,4.7,3.23.57,8.98,1.39,20.49,3.02,13.33,1.89,2.92.29,18.52,2.35,3.66.48,6.67.89,10.87.89,5.64,0,9.4-.66,10.34-.84,3.4-.64,5.88-1.49,8.4-2.36,2.3-.8,4.78-1.78,9.72-4.09,2.98-1.4,5.73-2.75,12.4-6.2,7.38-3.82,11.07-5.72,13.74-7.16,4.18-2.26,7-3.85,11.32-5.74,4.64-2.03,6.84-2.57,8.41-2.85.99-.18,2.11-.33,3.89-.75,1.77-.42,3.47-.93,5.36-1.61,5.83-2.11,12.77-5.54,12.77-5.54,6.5-3.21,10.89-5.38,16.89-8.91,4.89-2.88,7.33-4.32,10.03-6.49,1.73-1.39,4.61-3.88,9.94-10.31,6.94-8.36,9.07-12.73,11.99-16.32.98-1.2,1.63-2.64,2.49-3.93.15-.23.48-.73.6-1.44.12-.77-.07-1.4-.25-1.94-.5-1.46-1-2.44-1.32-3.12-.88-1.89-.53-1.97-1.55-4.46-.58-1.42-.88-2.15-1.45-2.98-1.19-1.75-2.66-2.56-3.71-3.23-.76-.48-2.56-2.12-6.16-5.37-1.62-1.46-3.9-3.61-6.55-6.43.06-1.36.02-2.97-.25-4.77-.22-1.48-.74-4.08-2.15-7.04-1.54-3.25-3.39-5.34-4.66-6.75-1.46-1.62-2.57-2.52-4.94-4.47-1.91-1.58-4.9-4.06-8.74-7.3C287.12,3.68,32.53-1.9,28,.68Z"/>
</svg>