<?xml version="1.0" encoding="UTF-8"?>
<svg id="Layer_3" data-name="Layer 3" xmlns="http://www.w3.org/2000/svg" width="346.28" height="146.44" viewBox="0 0 346.28 146.44">
  <defs>
    <style>
      .cls-1 {
        fill: #c7abb1;
        stroke-width: 0px;
      }
    </style>
  </defs>
  <path class="cls-1" d="m35.51,11.72c-1.14.65-2.19,1.78-2.19,1.78-.75.81-.96,1.33-1.05,1.58-.06.18-.36,1.04-.14,2.11.14.68.42,1.15.64,1.53.3.5.61.87.85,1.12-.2.85-.51,2.07-1,3.52-.49,1.46-.74,2.19-1.09,2.76-.93,1.48-1.66,1.41-3.51,3.5-.71.81-1.08,1.23-1.4,1.92-.21.44-.8,1.77-.49,3.45.08.42.26,1.35,1,2.26.94,1.16,2.17,1.53,2.61,1.64-.12.31-.28.76-.42,1.3-.19.73-.3,1.18-.28,1.78.02.64.18.77.19,1.49,0,.47-.05.86-.1,1.11-.29.21-.71.53-1.17.97-.9.86-1.06,1.32-2.1,2.71-.96,1.28-1.55,2.08-2.54,2.99-.48.44-.77.65-1.21,1.19-.84,1.02-1.14,1.91-1.21,2.14-.16.5-.33,1.03-.24,1.74.03.23.12.8.51,1.39.31.48.64.71,1.25,1.17.61.46,1.21.95,1.83,1.39,1.43,1.02,1.62,1.43,2.94,2.5,1.15.93,2.05,1.47,3.33,2.24,1.05.63,3.4,1.98,7.16,3.48,3.29,1.32,5.86,2.04,9.27,3,3.64,1.02,3.69.88,6.28,1.69,3.18.99,3.82,1.42,7.45,2.7,2.48.88,4.63,1.51,8.92,2.77,1.31.39,4.63,1.35,9,2.51,2.16.57,5.06,1.34,8.85,2.23,3.15.74,6.93,1.62,11.88,2.49,1.71.3,4.77.74,10.89,1.6,7.09,1.01,1.55.15,9.84,1.25,1.94.26,3.54.47,5.77.47,3,0,5-.35,5.5-.45,1.81-.34,3.12-.79,4.46-1.26,1.22-.42,2.54-.94,5.16-2.17,1.59-.74,3.05-1.46,6.59-3.29,3.92-2.03,5.88-3.04,7.3-3.8,2.22-1.2,3.72-2.05,6.01-3.05,2.47-1.08,3.64-1.36,4.47-1.52.53-.1,1.12-.17,2.07-.4.94-.22,1.85-.49,2.85-.86,3.1-1.12,6.79-2.94,6.79-2.94,3.45-1.7,5.79-2.86,8.98-4.74,2.6-1.53,3.9-2.3,5.33-3.45.92-.74,2.45-2.06,5.28-5.48,3.69-4.44,4.82-6.77,6.37-8.67.52-.64.87-1.4,1.32-2.09.08-.12.26-.39.32-.77.06-.41-.04-.74-.13-1.03-.26-.78-.53-1.3-.7-1.66-.47-1-.28-1.04-.83-2.37-.31-.75-.47-1.14-.77-1.58-.63-.93-1.41-1.36-1.97-1.71-.41-.26-1.36-1.12-3.27-2.85-.86-.78-2.07-1.92-3.48-3.42.03-.72.01-1.58-.13-2.53-.12-.79-.4-2.17-1.14-3.74-.82-1.73-1.8-2.84-2.48-3.59-.78-.86-1.37-1.34-2.62-2.38-1.02-.84-2.6-2.16-4.65-3.88-9.25-.2-144.53-3.17-146.94-1.8Z"/>
</svg>