<svg width="177" height="282" viewBox="0 0 177 282" fill="none" xmlns="http://www.w3.org/2000/svg">
<g clip-path="url(#clip0_309_413)">
<path d="M109.045 281.9C112.53 269.218 114.753 257.784 116.188 248.126C117.077 242.179 118.454 231.59 119.042 218.149C119.587 205.682 119.859 199.435 119.042 193.402C116.518 174.731 108.385 172.41 101.415 151.059C99.5218 145.256 95.1474 131.428 96.18 113.946C97.2127 96.3357 103.294 82.7802 107.611 74.9277" stroke="#231F20" stroke-width="0.5" stroke-miterlimit="10"/>
<path d="M71.4686 279.464C69.4464 275.122 66.8934 268.745 65.2153 260.735C64.4408 257.038 61.7875 243.153 65.2153 224.511C68.2129 208.204 72.0997 208.749 73.9642 194.534C76.0726 178.542 72.7021 166.162 71.8846 163.31C67.0655 146.545 57.2409 135.526 51.4609 130.009" stroke="#231F20" stroke-width="0.5" stroke-miterlimit="10"/>
<path d="M117.465 185.664C119.014 176.422 120.907 168.512 122.714 162.064C127.505 144.984 130.187 135.799 138.132 125.854C144.845 117.457 150.008 115.15 156.046 105.865C163.002 95.2038 165.225 84.3852 166.057 77.1489C167.936 102.87 166.774 123.662 165.225 138.335C164.063 149.268 162.443 159.127 157.724 170.389C154.339 178.457 150.51 187.585 141.474 195.365C134.217 201.613 126.199 204.751 119.501 206.327" stroke="#231F20" stroke-width="0.5" stroke-miterlimit="10"/>
<path d="M64.9712 225.915C64.0389 222.433 62.8772 218.765 61.4716 214.939C59.1338 208.634 56.0932 200.381 50.2128 192.041C45.9531 185.994 36.1142 174.086 16.881 165.818C16.2643 169.401 15.7049 174.788 16.4651 181.222C18.0284 194.276 24.0809 203.189 29.3876 210.769C37.5771 222.519 42.8552 230.085 53.1387 233.667C56.8247 234.957 60.439 235.473 63.7951 235.53" stroke="#231F20" stroke-width="0.5" stroke-miterlimit="10"/>
<path d="M63.0638 227.234C56.1077 224.397 50.9444 220.915 47.5166 218.235C40.3741 212.661 36.2291 206.987 34.006 203.92C30.2913 198.776 27.8244 194.004 26.2324 190.422" stroke="#231F20" stroke-width="0.5" stroke-miterlimit="10"/>
<path d="M119.071 193.674C122.27 191.84 125.511 189.433 128.451 186.266C131.004 183.529 134.016 179.488 139.911 163.769C142.736 156.275 146.351 145.729 149.735 132.689" stroke="#231F20" stroke-width="0.5" stroke-miterlimit="10"/>
<path d="M125.94 53.6917C131.778 53.6917 136.511 48.9635 136.511 43.131C136.511 37.2985 131.778 32.5703 125.94 32.5703C120.103 32.5703 115.37 37.2985 115.37 43.131C115.37 48.9635 120.103 53.6917 125.94 53.6917Z" stroke="#231F20" stroke-width="0.5" stroke-miterlimit="10"/>
<path d="M120.147 34.3043C118.282 30.507 116.575 27.4979 115.328 25.3771C113.334 22.0098 111.599 19.4018 110.164 15.0601C109.548 13.2259 108.658 10.0305 109.634 6.66312C110.136 4.9866 110.838 4.1555 111.326 3.69696C113.133 1.99178 115.471 2.13507 115.715 2.1494C118.081 2.32135 119.516 3.94056 120.104 4.59971C120.477 5.02959 121.38 6.13294 122.427 10.4031C122.958 12.6098 123.13 13.971 123.847 18.8C124.536 23.3997 124.464 22.7406 124.622 23.9585C124.88 25.9073 125.167 28.4579 125.367 31.5101V31.5531C125.367 31.5531 125.382 31.5531 125.367 31.5674C125.396 31.9113 125.425 32.2409 125.453 32.5991" stroke="#231F20" stroke-width="0.5" stroke-miterlimit="10"/>
<path d="M125.353 32.5992C125.368 32.2553 125.382 31.9114 125.368 31.5675C125.382 31.5531 125.368 31.5531 125.368 31.5531C125.382 31.5388 125.382 31.5245 125.368 31.5101C125.425 28.1428 125.353 25.3629 125.267 23.2851C125.109 19.2729 124.823 16.0918 125.554 11.3345C125.855 9.34276 126.515 5.90374 128.824 3.00923C129.986 1.5763 130.932 1.03179 131.535 0.77386C133.787 -0.186201 135.665 0.816847 135.852 0.931482C137.745 1.99185 138.218 4.11258 138.419 4.97234C138.534 5.51685 138.792 6.92112 137.774 11.4635C137.257 13.7992 136.784 15.1891 135.25 20.1327C133.772 24.847 134.016 24.1879 133.614 25.4202C132.912 27.5409 131.936 30.3495 130.631 33.6739" stroke="#231F20" stroke-width="0.5" stroke-miterlimit="10"/>
<path d="M131.319 34.0605C133.126 31.1516 134.532 28.7013 135.55 26.8385C137.487 23.2849 138.892 20.3474 141.99 16.6648C143.31 15.1029 145.662 12.5093 149.176 11.3199C150.94 10.7324 152.044 10.8041 152.704 10.9187C155.171 11.3629 156.275 13.2974 156.39 13.5123C157.48 15.4898 156.806 17.5962 156.533 18.4416C156.347 19.0004 155.845 20.3617 152.589 23.7148C150.925 25.4199 149.792 26.3657 145.891 29.7617C144.256 31.1803 143.439 31.9111 142.951 32.3266C142.937 32.341 142.937 32.3553 142.922 32.3553C142.334 32.8712 142.263 32.9428 141.703 33.4157C140.111 34.7626 138.003 36.4821 135.393 38.4309" stroke="#231F20" stroke-width="0.5" stroke-miterlimit="10"/>
<path d="M136.311 41.0677C140.47 40.8671 143.855 40.5375 146.336 40.2366C147.641 40.0933 146.938 40.1506 151.843 39.5058C156.978 38.818 158.441 38.6604 160.779 38.1445C165.34 37.1415 166.516 36.2817 166.96 35.9235C167.663 35.3646 169.399 33.989 169.571 31.725C169.599 31.4957 169.743 29.2604 167.921 27.5409C167.434 27.068 166.559 26.4088 164.766 25.936C161.18 24.9903 157.781 25.85 155.831 26.4232C151.198 27.7988 148.416 29.461 144.83 31.3668C144.256 31.6677 143.64 31.9829 142.951 32.3268C142.937 32.3412 142.937 32.3555 142.922 32.3555" stroke="#231F20" stroke-width="0.5" stroke-miterlimit="10"/>
<path d="M136.483 43.6611C142.162 43.9764 146.752 44.005 149.965 43.9477C154.741 43.8617 158.556 43.6038 164.149 44.6212C166.516 45.0511 170.546 45.9681 173.816 48.8627C175.451 50.3099 176.01 51.4849 176.283 52.23C177.258 55.0099 175.924 57.2739 175.781 57.5175C174.375 59.7816 171.822 60.3117 170.804 60.5267C170.13 60.6556 168.438 60.9279 163.117 59.5523C160.377 58.8502 158.771 58.234 153.005 56.2136C147.498 54.2791 148.272 54.5944 146.824 54.0642C144.945 53.3764 141.201 51.9578 137.458 50.4245H137.444C136.483 50.0233 135.507 49.6364 134.575 49.2209" stroke="#231F20" stroke-width="0.5" stroke-miterlimit="10"/>
<path d="M140.455 69.7407C141.445 71.2022 142.133 72.1336 143.066 73.2943C146.264 77.2492 147.713 77.9513 148.315 78.2093C149.219 78.6105 151.499 79.5992 153.98 78.6391C154.238 78.5388 156.677 77.5501 157.666 74.8992C157.939 74.1971 158.24 72.9934 157.896 71.0016C157.236 67.0324 154.74 64.1522 153.22 62.533C149.606 58.7215 146.536 56.8443 142.85 54.308C141.373 53.305 139.552 52.001 137.458 50.4248H137.443" stroke="#231F20" stroke-width="0.5" stroke-miterlimit="10"/>
<path d="M126.974 53.649C127.017 55.913 127.074 57.8904 127.117 59.0797C127.16 60.484 127.16 59.7246 127.433 65.0694C127.719 70.6578 127.762 72.2483 128.107 74.8133C128.766 79.7999 129.57 81.1325 129.899 81.6483C130.43 82.4508 131.721 84.4139 134.059 84.8008C134.303 84.8438 136.612 85.1733 138.562 83.3535C139.079 82.8663 139.853 81.9779 140.484 80.0721C141.761 76.2749 141.488 72.449 140.714 70.3999C140.628 70.1706 140.542 69.9557 140.456 69.7407C138.605 65.1697 136.726 62.8913 135.12 59.0654C134.374 57.2886 132.94 54.9243 131.492 52.1157" stroke="#231F20" stroke-width="0.5" stroke-miterlimit="10"/>
<path d="M121.423 52.6743C119.974 55.8554 118.626 58.9219 117.937 60.5124C117.392 61.8021 117.708 61.0999 115.643 66.0149C113.506 71.1734 112.875 72.6207 112.028 75.028C110.379 79.7423 110.365 81.1752 110.379 81.7341C110.379 82.5938 110.451 84.7432 111.871 85.7176C112.014 85.8179 113.434 86.7493 115.514 85.6316C116.073 85.3307 116.977 84.7289 118.196 83.1813C120.648 80.1005 122.082 76.5469 122.398 74.4835C123.201 69.3966 122.828 66.76 123.373 62.6762C123.66 60.4838 123.617 57.2597 123.99 53.5197" stroke="#231F20" stroke-width="0.5" stroke-miterlimit="10"/>
<path d="M116.719 37.9727C112.316 33.9031 108.458 30.937 105.647 28.9309C105.647 28.9309 100.971 25.5778 95.6644 20.1614C93.5561 18.012 92.0788 16.2781 92.2509 14.0858C92.4087 12.0797 93.886 10.3888 95.4206 9.58637C98.5042 7.95284 101.86 9.81564 102.965 10.4318C105.317 11.7358 106.507 13.6702 107.239 14.8166C116.289 29.1172 113.019 23.2278 115.385 27.5839C116.389 29.4324 117.737 31.8827 119.387 34.8632" stroke="#231F20" stroke-width="0.5" stroke-miterlimit="10"/>
<path d="M116.59 48.0605C115.744 48.6337 114.941 49.1496 114.195 49.6368C112.517 50.7401 111.154 51.6285 110.15 52.2877C106.737 54.523 103.567 57.1453 100.053 59.223C98.748 59.9968 96.9265 61.0142 95.4205 63.1206C94.7178 64.095 93.7711 65.4419 93.7138 67.3764C93.6994 67.7346 93.6708 70.2136 95.5353 72.1194C98.1456 74.7703 102.047 73.8676 102.233 73.8246C103.954 73.3947 105.073 72.3916 108.687 67.62C111.742 63.6078 113.779 60.57 115.514 58.1197C116.604 56.5865 118.153 54.4657 120.118 51.9438" stroke="#231F20" stroke-width="0.5" stroke-miterlimit="10"/>
<path d="M115.399 42.9736H115.385C110.766 43.5038 106.679 44.077 103.208 44.6215C102.405 44.7505 98.1738 45.8395 89.6975 48.0319C88.2632 48.4044 86.1692 48.9633 84.7063 50.8261C84.1756 51.4995 82.7557 53.563 83.3581 56.0563C84.0179 58.7215 86.4991 59.8822 86.6569 59.9538C88.7795 60.8995 91.017 60.2404 96.6392 57.7614C100.712 55.956 102.749 55.0675 105.646 53.5056C107.855 52.3163 110.68 50.955 114.194 49.6367C115.055 49.3072 115.973 48.9776 116.934 48.648" stroke="#231F20" stroke-width="0.5" stroke-miterlimit="10"/>
<path d="M115.399 42.9733H115.385C111.197 42.4288 107.554 41.9129 104.556 41.4544C89.3674 39.1617 96.9115 39.5773 88.4781 38.2876C87.4025 38.13 84.4623 37.7001 81.2926 35.866C79.6575 34.9203 78.1086 33.9889 77.1476 32.0831C75.5986 29.0166 76.8751 25.8212 77.1476 25.1477C77.4488 24.4599 78.5675 22.0669 81.1635 20.7773C84.8782 18.9288 88.9084 20.6483 90.9164 21.5081C93.1108 22.4395 93.6414 23.1989 97.6143 25.8785C100.425 27.7843 100.755 27.7843 104.068 29.905C105.976 31.123 108.084 32.47 110.279 34.0318C111.928 35.2068 113.979 36.7831 116.317 38.7748" stroke="#231F20" stroke-width="0.5" stroke-miterlimit="10"/>
<path d="M39.4272 117.4L44.8917 112.728C45.7092 112.026 46.8853 112.428 46.8996 113.416L47.0287 118.775L47.1722 124.794C47.1865 125.625 46.3546 126.341 45.5371 126.198L39.6137 125.123L34.3357 124.178C33.3604 124.006 33.1453 122.788 33.9628 122.085L39.4272 117.414V117.4Z" stroke="#231F20" stroke-width="0.5" stroke-miterlimit="10"/>
<path d="M45.5512 112.399C46.383 108.301 47.2006 104.976 47.8173 102.598C49.7392 95.2468 50.6858 91.5642 51.2164 90.3462C52.5073 87.3944 53.9415 85.0444 53.4395 81.7916C53.2961 80.8602 52.9519 78.8255 51.3742 77.9514C49.3806 76.848 46.8276 78.3383 46.4978 78.5389C44.4468 79.7712 43.4572 81.9206 42.8835 84.0986C42.5679 85.2879 42.3815 86.4773 42.2094 87.5376C41.9942 88.8416 41.9656 89.6584 42.2094 97.5825C42.3385 102.168 42.4102 104.489 42.4962 105.707C42.6683 107.885 42.9408 110.679 43.4715 113.946" stroke="#231F20" stroke-width="0.5" stroke-miterlimit="10"/>
<path d="M42.884 84.0986C41.8801 82.4794 40.3454 80.7169 38.065 79.5706C36.9176 78.9831 34.4076 77.7221 32.6005 78.8398C31.9981 79.2123 31.5965 79.7425 31.324 80.3443C30.822 81.4047 30.736 82.7087 30.6786 83.7117C30.5495 85.7465 31.0372 87.2654 32.0125 90.0596C33.7192 94.9315 34.6658 97.2815 34.6658 97.2815C36.8889 102.798 37.2331 104.031 38.0363 106.065C38.0363 106.065 38.5096 107.283 39.0976 108.659C40.0442 110.851 41.2347 113.302 42.1095 115.093" stroke="#231F20" stroke-width="0.5" stroke-miterlimit="10"/>
<path d="M39.3847 117.428C38.5098 116.454 37.5775 115.35 36.5879 114.118" stroke="#231F20" stroke-width="0.5" stroke-miterlimit="10"/>
<path d="M19.6343 84.8723C19.62 84.3278 19.7061 83.7976 19.8925 83.2674C20.5953 81.3043 22.259 79.8714 22.259 79.8714C22.4598 79.6851 23.9944 78.3954 25.6582 78.0945C27.4797 77.7793 29.545 78.639 31.3234 80.3442" stroke="#231F20" stroke-width="0.5" stroke-miterlimit="10"/>
<path d="M37.62 118.947C37.3188 117.228 36.9603 115.608 36.5874 114.118C35.9706 111.582 35.3109 109.361 34.6655 107.469C33.6902 104.575 34.1635 106.524 28.1683 93.1544C26.6624 89.8013 25.6728 87.523 23.1485 86.0614C22.919 85.9181 21.3987 85.087 19.6346 84.8721C18.5589 84.7288 17.3828 84.8291 16.3502 85.4739C14.8442 86.4196 14.3709 88.0675 13.9837 89.4574C13.7399 90.3602 13.5964 91.2342 13.5391 92.094" stroke="#231F20" stroke-width="0.5" stroke-miterlimit="10"/>
<path d="M9.39449 104.776C9.05028 103.773 8.8208 102.899 8.66303 102.153C8.03196 99.3162 8.17539 97.5967 8.51961 96.2498C8.84948 94.9458 9.38015 92.8394 11.0295 92.123C11.8327 91.7647 12.7076 91.822 13.5395 92.0943C14.7586 92.4525 15.906 93.2263 16.6518 93.7422C18.8605 95.2611 20.0366 97.1095 20.3378 97.5824C23.0628 101.853 26.2899 105.793 28.9145 110.135C30.4635 112.7 32.701 116.311 35.5408 120.71" stroke="#231F20" stroke-width="0.5" stroke-miterlimit="10"/>
<path d="M34.1491 121.913C29.8464 121.827 26.2608 121.297 23.5931 120.753C18.2864 119.692 15.1024 118.317 11.6171 116.769C10.3263 116.196 8.74866 115.451 7.15665 114.348C5.73675 113.402 4.33119 112.17 3.05471 110.579C1.14717 108.157 1.24757 107.011 1.41968 106.438C1.936 104.79 4.21645 104.016 5.85149 103.93C7.21402 103.859 8.40444 104.26 9.39407 104.776C10.355 105.277 11.1152 105.879 11.6171 106.295C15.4609 109.332 19.9788 111.453 23.8799 114.405C26.4329 116.339 30.0185 118.833 34.6798 121.455" stroke="#231F20" stroke-width="0.5" stroke-miterlimit="10"/>
<path d="M7.15687 114.348C5.60789 114.849 4.43181 115.451 3.61429 115.924C1.83583 116.97 1.16174 117.787 0.774491 118.661C0.616724 119.019 -0.0860556 120.753 0.774491 122.501C0.860545 122.687 1.30516 123.719 2.45256 124.306C3.74337 124.937 4.14496 124.808 6.29633 124.894C8.97836 124.994 10.9863 124.908 11.7751 124.894C17.6699 124.779 21.4993 124.335 25.5152 124.006C27.6379 123.834 30.3342 123.647 33.5326 123.547" stroke="#231F20" stroke-width="0.5" stroke-miterlimit="10"/>
</g>
<defs>
<clipPath id="clip0_309_413">
<rect width="177" height="282" fill="white"/>
</clipPath>
</defs>
</svg>
