<?xml version="1.0" encoding="UTF-8"?>
<svg id="Layer_3" data-name="Layer 3" xmlns="http://www.w3.org/2000/svg" width="123.41" height="196.8" viewBox="0 0 123.41 196.8">
  <defs>
    <style>
      .cls-1 {
        stroke-dasharray: 0 10;
      }

      .cls-1, .cls-2 {
        fill: none;
        stroke: #231f20;
        stroke-miterlimit: 10;
        stroke-width: .5px;
      }
    </style>
  </defs>
  <path class="cls-1" d="m76.03,196.73c2.43-8.85,3.98-16.83,4.98-23.57.62-4.15,1.58-11.54,1.99-20.92.38-8.7.57-13.06,0-17.27-1.76-13.03-7.43-14.65-12.29-29.55-1.32-4.05-4.37-13.7-3.65-25.9.72-12.29,4.96-21.75,7.97-27.23"/>
  <path class="cls-1" d="m49.83,195.03c-1.41-3.03-3.19-7.48-4.36-13.07-.54-2.58-2.39-12.27,0-25.28,2.09-11.38,4.8-11,6.1-20.92,1.47-11.16-.88-19.8-1.45-21.79-3.36-11.7-10.21-19.39-14.24-23.24"/>
  <path class="cls-1" d="m81.9,129.57c1.08-6.45,2.4-11.97,3.66-16.47,3.34-11.92,5.21-18.33,10.75-25.27,4.68-5.86,8.28-7.47,12.49-13.95,4.85-7.44,6.4-14.99,6.98-20.04,1.31,17.95.5,32.46-.58,42.7-.81,7.63-1.94,14.51-5.23,22.37-2.36,5.63-5.03,12-11.33,17.43-5.06,4.36-10.65,6.55-15.32,7.65"/>
  <path class="cls-1" d="m45.3,157.66h0c-.65-2.43-1.46-4.99-2.44-7.66-1.63-4.4-3.75-10.16-7.85-15.98-2.97-4.22-9.83-12.53-23.24-18.3-.43,2.5-.82,6.26-.29,10.75,1.09,9.11,5.31,15.33,9.01,20.62,5.71,8.2,9.39,13.48,16.56,15.98,2.57.9,5.09,1.26,7.43,1.3"/>
  <path class="cls-1" d="m43.97,158.58c-4.85-1.98-8.45-4.41-10.84-6.28-4.98-3.89-7.87-7.85-9.42-9.99-2.59-3.59-4.31-6.92-5.42-9.42"/>
  <path class="cls-1" d="m83.02,135.16c2.23-1.28,4.49-2.96,6.54-5.17,1.78-1.91,3.88-4.73,7.99-15.7,1.97-5.23,4.49-12.59,6.85-21.69"/>
  <circle class="cls-2" cx="87.81" cy="30.1" r="7.37"/>
  <path class="cls-2" d="m83.77,23.94c-1.3-2.65-2.49-4.75-3.36-6.23-1.39-2.35-2.6-4.17-3.6-7.2-.43-1.28-1.05-3.51-.37-5.86.35-1.17.84-1.75,1.18-2.07,1.26-1.19,2.89-1.09,3.06-1.08,1.65.12,2.65,1.25,3.06,1.71.26.3.89,1.07,1.62,4.05.37,1.54.49,2.49.99,5.86.48,3.21.43,2.75.54,3.6.18,1.36.38,3.14.52,5.27v.03s.01,0,0,.01c.02.24.04.47.06.72"/>
  <path class="cls-2" d="m87.4,22.75c.01-.24.02-.48.01-.72.01-.01,0-.01,0-.01.01-.01.01-.02,0-.03.04-2.35-.01-4.29-.07-5.74-.11-2.8-.31-5.02.2-8.34.21-1.39.67-3.79,2.28-5.81.81-1,1.47-1.38,1.89-1.56,1.57-.67,2.88.03,3.01.11,1.32.74,1.65,2.22,1.79,2.82.08.38.26,1.36-.45,4.53-.36,1.63-.69,2.6-1.76,6.05-1.03,3.29-.86,2.83-1.14,3.69-.49,1.48-1.17,3.44-2.08,5.76"/>
  <path class="cls-2" d="m91.56,23.77c1.26-2.03,2.24-3.74,2.95-5.04,1.35-2.48,2.33-4.53,4.49-7.1.92-1.09,2.56-2.9,5.01-3.73,1.23-.41,2-.36,2.46-.28,1.72.31,2.49,1.66,2.57,1.81.76,1.38.29,2.85.1,3.44-.13.39-.48,1.34-2.75,3.68-1.16,1.19-1.95,1.85-4.67,4.22-1.14.99-1.71,1.5-2.05,1.79-.01.01-.01.02-.02.02-.41.36-.46.41-.85.74-1.11.94-2.58,2.14-4.4,3.5"/>
  <path class="cls-2" d="m95.04,28.66c2.9-.14,5.26-.37,6.99-.58.91-.1.42-.06,3.84-.51,3.58-.48,4.6-.59,6.23-.95,3.18-.7,4-1.3,4.31-1.55.49-.39,1.7-1.35,1.82-2.93.02-.16.12-1.72-1.15-2.92-.34-.33-.95-.79-2.2-1.12-2.5-.66-4.87-.06-6.23.34-3.23.96-5.17,2.12-7.67,3.45-.4.21-.83.43-1.31.67-.01.01-.01.02-.02.02"/>
  <path class="cls-2" d="m95.16,30.47c3.96.22,7.16.24,9.4.2,3.33-.06,5.99-.24,9.89.47,1.65.3,4.46.94,6.74,2.96,1.14,1.01,1.53,1.83,1.72,2.35.68,1.94-.25,3.52-.35,3.69-.98,1.58-2.76,1.95-3.47,2.1-.47.09-1.65.28-5.36-.68-1.91-.49-3.03-.92-7.05-2.33-3.84-1.35-3.3-1.13-4.31-1.5-1.31-.48-3.92-1.47-6.53-2.54h-.01c-.67-.28-1.35-.55-2-.84"/>
  <path class="cls-2" d="m97.93,48.67c.69,1.02,1.17,1.67,1.82,2.48,2.23,2.76,3.24,3.25,3.66,3.43.63.28,2.22.97,3.95.3.18-.07,1.88-.76,2.57-2.61.19-.49.4-1.33.16-2.72-.46-2.77-2.2-4.78-3.26-5.91-2.52-2.66-4.66-3.97-7.23-5.74-1.03-.7-2.3-1.61-3.76-2.71h-.01"/>
  <path class="cls-2" d="m88.53,37.44c.03,1.58.07,2.96.1,3.79.03.98.03.45.22,4.18.2,3.9.23,5.01.47,6.8.46,3.48,1.02,4.41,1.25,4.77.37.56,1.27,1.93,2.9,2.2.17.03,1.78.26,3.14-1.01.36-.34.9-.96,1.34-2.29.89-2.65.7-5.32.16-6.75-.06-.16-.12-.31-.18-.46-1.29-3.19-2.6-4.78-3.72-7.45-.52-1.24-1.52-2.89-2.53-4.85"/>
  <path class="cls-2" d="m84.66,36.76c-1.01,2.22-1.95,4.36-2.43,5.47-.38.9-.16.41-1.6,3.84-1.49,3.6-1.93,4.61-2.52,6.29-1.15,3.29-1.16,4.29-1.15,4.68,0,.6.05,2.1,1.04,2.78.1.07,1.09.72,2.54-.06.39-.21,1.02-.63,1.87-1.71,1.71-2.15,2.71-4.63,2.93-6.07.56-3.55.3-5.39.68-8.24.2-1.53.17-3.78.43-6.39"/>
  <path class="cls-2" d="m81.38,26.5c-3.07-2.84-5.76-4.91-7.72-6.31,0,0-3.26-2.34-6.96-6.12-1.47-1.5-2.5-2.71-2.38-4.24.11-1.4,1.14-2.58,2.21-3.14,2.15-1.14,4.49.16,5.26.59,1.64.91,2.47,2.26,2.98,3.06,6.31,9.98,4.03,5.87,5.68,8.91.7,1.29,1.64,3,2.79,5.08"/>
  <path class="cls-2" d="m81.29,33.54c-.59.4-1.15.76-1.67,1.1-1.17.77-2.12,1.39-2.82,1.85-2.38,1.56-4.59,3.39-7.04,4.84-.91.54-2.18,1.25-3.23,2.72-.49.68-1.15,1.62-1.19,2.97-.01.25-.03,1.98,1.27,3.31,1.82,1.85,4.54,1.22,4.67,1.19,1.2-.3,1.98-1,4.5-4.33,2.13-2.8,3.55-4.92,4.76-6.63.76-1.07,1.84-2.55,3.21-4.31"/>
  <path class="cls-2" d="m80.46,29.99h-.01c-3.22.37-6.07.77-8.49,1.15-.56.09-3.51.85-9.42,2.38-1,.26-2.46.65-3.48,1.95-.37.47-1.36,1.91-.94,3.65.46,1.86,2.19,2.67,2.3,2.72,1.48.66,3.04.2,6.96-1.53,2.84-1.26,4.26-1.88,6.28-2.97,1.54-.83,3.51-1.78,5.96-2.7.6-.23,1.24-.46,1.91-.69"/>
  <path class="cls-2" d="m80.46,29.99h-.01c-2.92-.38-5.46-.74-7.55-1.06-10.59-1.6-5.33-1.31-11.21-2.21-.75-.11-2.8-.41-5.01-1.69-1.14-.66-2.22-1.31-2.89-2.64-1.08-2.14-.19-4.37,0-4.84.21-.48.99-2.15,2.8-3.05,2.59-1.29,5.4-.09,6.8.51,1.53.65,1.9,1.18,4.67,3.05,1.96,1.33,2.19,1.33,4.5,2.81,1.33.85,2.8,1.79,4.33,2.88,1.15.82,2.58,1.92,4.21,3.31"/>
  <path class="cls-2" d="m27.49,81.93l3.81-3.26c.57-.49,1.39-.21,1.4.48l.09,3.74.1,4.2c.01.58-.57,1.08-1.14.98l-4.13-.75-3.68-.66c-.68-.12-.83-.97-.26-1.46l3.81-3.26Z"/>
  <path class="cls-2" d="m31.76,78.44c.58-2.86,1.15-5.18,1.58-6.84,1.34-5.13,2-7.7,2.37-8.55.9-2.06,1.9-3.7,1.55-5.97-.1-.65-.34-2.07-1.44-2.68-1.39-.77-3.17.27-3.4.41-1.43.86-2.12,2.36-2.52,3.88-.22.83-.35,1.66-.47,2.4-.15.91-.17,1.48,0,7.01.09,3.2.14,4.82.2,5.67.12,1.52.31,3.47.68,5.75"/>
  <path class="cls-2" d="m29.9,58.69c-.7-1.13-1.77-2.36-3.36-3.16-.8-.41-2.55-1.29-3.81-.51-.42.26-.7.63-.89,1.05-.35.74-.41,1.65-.45,2.35-.09,1.42.25,2.48.93,4.43,1.19,3.4,1.85,5.04,1.85,5.04,1.55,3.85,1.79,4.71,2.35,6.13,0,0,.33.85.74,1.81.66,1.53,1.49,3.24,2.1,4.49"/>
  <path class="cls-2" d="m27.46,81.95c-.61-.68-1.26-1.45-1.95-2.31h0"/>
  <path class="cls-2" d="m13.69,59.23c-.01-.38.05-.75.18-1.12.49-1.37,1.65-2.37,1.65-2.37.14-.13,1.21-1.03,2.37-1.24,1.27-.22,2.71.38,3.95,1.57"/>
  <path class="cls-2" d="m26.23,83.01h0c-.21-1.2-.46-2.33-.72-3.37h0c-.43-1.77-.89-3.32-1.34-4.64-.68-2.02-.35-.66-4.53-9.99-1.05-2.34-1.74-3.93-3.5-4.95-.16-.1-1.22-.68-2.45-.83-.75-.1-1.57-.03-2.29.42-1.05.66-1.38,1.81-1.65,2.78-.17.63-.27,1.24-.31,1.84"/>
  <path class="cls-2" d="m6.55,73.12c-.24-.7-.4-1.31-.51-1.83-.44-1.98-.34-3.18-.1-4.12.23-.91.6-2.38,1.75-2.88.56-.25,1.17-.21,1.75-.02.85.25,1.65.79,2.17,1.15,1.54,1.06,2.36,2.35,2.57,2.68,1.9,2.98,4.15,5.73,5.98,8.76,1.08,1.79,2.64,4.31,4.62,7.38"/>
  <path class="cls-2" d="m23.81,85.08c-3-.06-5.5-.43-7.36-.81-3.7-.74-5.92-1.7-8.35-2.78-.9-.4-2-.92-3.11-1.69-.99-.66-1.97-1.52-2.86-2.63-1.33-1.69-1.26-2.49-1.14-2.89.36-1.15,1.95-1.69,3.09-1.75.95-.05,1.78.23,2.47.59.67.35,1.2.77,1.55,1.06,2.68,2.12,5.83,3.6,8.55,5.66,1.78,1.35,4.28,3.09,7.53,4.92"/>
  <path class="cls-2" d="m4.99,79.8c-1.08.35-1.9.77-2.47,1.1-1.24.73-1.71,1.3-1.98,1.91-.11.25-.6,1.46,0,2.68.06.13.37.85,1.17,1.26.9.44,1.18.35,2.68.41,1.87.07,3.27.01,3.82,0,4.11-.08,6.78-.39,9.58-.62,1.48-.12,3.36-.25,5.59-.32"/>
</svg>