<?xml version="1.0" encoding="UTF-8"?>
<svg id="Layer_3" data-name="Layer 3" xmlns="http://www.w3.org/2000/svg" width="86.93" height="145.1" viewBox="0 0 86.93 145.1">
  <defs>
    <style>
      .cls-1 {
        fill: none;
        stroke: #221f20;
        stroke-miterlimit: 10;
        stroke-width: .5px;
      }
    </style>
  </defs>
  <path class="cls-1" d="m.25.25c.01,3.23.02,6.45.04,9.68.03,7.88.06,15.77.09,23.65.16,37.01.31,74.01.47,111.02,13.11.08,26.22.16,39.33.25v-79.37c0-1.14-.01-2.82.02-4.86.03-2.65.04-3.97.13-4.65.15-1.22.68-3.07,2.56-5.25"/>
  <path class="cls-1" d="m38.16.25v47.38c.92.33,1.98.82,3.04,1.59.64.46,1.2.97,1.69,1.5,2.29,2.45,3.05,5.35,3.31,6.54v87.01h40.48V.25H.25"/>
  <path class="cls-1" d="m.29,9.93h86.39"/>
  <path class="cls-1" d="m6.27.25c.36.96.68,2.07.86,3.34.35,2.42.1,4.59-.34,6.34"/>
  <path class="cls-1" d="m10.24.25c.37.96.68,2.07.87,3.34.35,2.43.09,4.59-.35,6.34"/>
  <path class="cls-1" d="m22.79.25c.37.96.69,2.07.87,3.34.35,2.42.1,4.59-.34,6.34"/>
  <path class="cls-1" d="m26.76.25c.37.96.69,2.07.87,3.34.35,2.42.1,4.59-.34,6.34"/>
  <path class="cls-1" d="m60.01,9.93c-.51-1.82-.84-4.14-.46-6.76.15-1.08.41-2.06.71-2.92"/>
  <path class="cls-1" d="m56.04,9.93c-.51-1.82-.84-4.14-.46-6.76.15-1.08.41-2.06.71-2.92"/>
  <path class="cls-1" d="m78.3,9.93c-.51-1.82-.84-4.14-.46-6.76.15-1.08.41-2.06.7-2.92"/>
  <path class="cls-1" d="m74.33,9.93c-.51-1.82-.85-4.14-.47-6.76.16-1.08.42-2.06.71-2.92"/>
  <path class="cls-1" d="m.38,33.58c1.22-.08,2.16-.33,2.74-.53,4.78-1.57,6.88-5.89,7.5-7.18.23-.48.43-.95.59-1.4.62-1.69.88-3.48.9-5.28.02-3.08.05-6.17.07-9.26"/>
  <path class="cls-1" d="m72.84,9.93c.03,3.52.06,7.04.09,10.56.11,1.26.43,3.23,1.47,5.38.63,1.29,2.72,5.61,7.5,7.18.88.3,2.56.72,4.78.5"/>
  <line class="cls-1" x1="2.53" y1="139.44" x2="13.26" y2="139.44"/>
  <line class="cls-1" x1="15.21" y1="139.44" x2="25.94" y2="139.44"/>
  <line class="cls-1" x1="27.81" y1="139.44" x2="38.54" y2="139.44"/>
  <line class="cls-1" x1="48.49" y1="139.44" x2="59.22" y2="139.44"/>
  <line class="cls-1" x1="61.17" y1="139.44" x2="71.9" y2="139.44"/>
  <line class="cls-1" x1="73.76" y1="139.44" x2="84.49" y2="139.44"/>
  <line class="cls-1" x1="36.94" y1="142.57" x2="36.94" y2="126.37"/>
  <line class="cls-1" x1="36.94" y1="123.86" x2="36.94" y2="107.66"/>
  <line class="cls-1" x1="36.94" y1="105.42" x2="36.94" y2="89.22"/>
  <line class="cls-1" x1="36.94" y1="86.91" x2="36.94" y2="70.71"/>
  <path class="cls-1" d="m37.26,66.77c-.04-2.04-.07-4.5-.08-7.34,0-1.06,0-1.99.25-3.21.4-1.87,1.18-3.3,1.77-4.22"/>
  <path class="cls-1" d="m2.94,35.19c1.18-.27,3.2-.89,5.27-2.41,2.07-1.53,3.27-3.27,3.88-4.32"/>
  <path class="cls-1" d="m13.32,25.39c.5-1.27,1.01-2.9,1.32-4.83.39-2.48.32-4.62.15-6.22"/>
  <path class="cls-1" d="m83.57,35.45c-.95-.19-2.12-.51-3.39-1.06-1.49-.64-2.66-1.41-3.52-2.06"/>
  <path class="cls-1" d="m74.53,30.73c-.69-.68-1.5-1.6-2.26-2.79-.94-1.47-1.48-2.86-1.79-3.92"/>
  <path class="cls-1" d="m70.02,21.1c-.11-1.25-.19-2.6-.2-4.05,0-1.4.04-2.71.13-3.92"/>
  <circle class="cls-1" cx="43.07" cy="5.09" r="3.09"/>
</svg>