<svg width="258" height="183" viewBox="0 0 258 183" fill="none" xmlns="http://www.w3.org/2000/svg">
<g clip-path="url(#clip0_348_99)">
<path d="M64.3889 109.024C60.9012 106.318 88.4028 120.137 108.24 140.722C126.412 159.554 138.896 172.286 137.497 176.656C134.542 185.972 147.516 149.949 138.852 129.919C120.991 88.5277 99.0435 75.6401 80.2723 68.5863C41.4635 53.9906 10.8518 74.6419 10.8518 74.6419L1.45508 80.6532C1.45508 80.6532 26.9352 100.062 30.4006 125.86C33.8661 151.657 58.1466 172.996 74.4076 177.765C102.665 186.083 129.3 181.403 127.056 177.854C111.506 152.988 113.194 159.088 101.976 145.69C91.6683 133.379 72.3639 115.212 64.3666 109.002L64.3889 109.024Z" stroke="white" stroke-miterlimit="10"/>
<path d="M123.058 85.6438C123.058 85.6438 137.386 101.903 142.207 114.436C147.027 126.969 156.624 135.886 154.069 147.176C151.514 158.467 155.713 136.418 167.975 112.683C180.238 88.9489 204.363 50.9071 198.92 63.2845C193.455 75.6842 182.904 90.3464 176.039 110.709C169.175 131.072 155.358 172.663 158.712 176.501C162.066 180.338 172.329 175.48 187.48 169.757C202.652 164.034 216.536 158.755 226.866 145.579C237.196 132.381 249.258 107.138 249.258 99.7293C249.258 92.3205 252.102 92.5424 250.613 69.5842C249.103 46.6038 246.104 39.2173 252.457 22.1594C258.833 5.10162 262.076 1.44162 236.463 0.643077C210.849 -0.155468 193.989 4.5249 187.502 7.38635C181.015 10.27 164.754 19.0318 153.847 31.254C142.94 43.4762 136.453 53.0587 131.255 66.7893C126.057 80.5198 123.08 85.6216 123.08 85.6216L123.058 85.6438Z" stroke="white" stroke-miterlimit="10"/>
</g>
<defs>
<clipPath id="clip0_348_99">
<rect width="257" height="183" fill="white" transform="translate(0.5)"/>
</clipPath>
</defs>
</svg>
