<svg width="111" height="144" viewBox="0 0 111 144" fill="none" xmlns="http://www.w3.org/2000/svg">
<g clip-path="url(#clip0_286_324)">
<path d="M1.87512 134.049C1.87512 134.049 11.2507 121.702 17.5012 121.517C23.7516 121.333 32.0242 115.252 32.0242 115.252C32.0242 115.252 39.0099 108.064 38.2746 101.246C37.5393 94.4274 35.8847 88.7146 35.8847 88.7146C35.8847 88.7146 45.628 99.2188 49.4886 98.4817C53.3491 97.7445 68.6075 84.2917 68.6075 84.2917V107.548C68.6075 107.548 74.3064 118.053 80.1891 119.158C86.0719 120.264 101.183 135.928 101.183 135.928C101.183 135.928 105.779 140.167 105.595 144.037" stroke="#F0EEEB" stroke-miterlimit="10"/>
<path d="M68.681 84.2181L71.4017 81.4907L76.5491 70.323C76.5491 70.323 80.2626 61.4037 80.4097 56.5017C80.5935 51.5997 80.4097 39.6581 80.4097 39.6581C80.4097 39.6581 73.1666 35.1247 70.1516 32.2498C67.1367 29.375 56.0331 18.6128 57.5405 14.3742C59.048 10.1357 50.1503 31.5495 48.9738 31.8813C47.7972 32.213 32.1712 52.2631 32.1712 52.2631C32.1712 52.2631 26.8032 55.9857 23.2735 57.976C19.7439 60.0031 27.465 76.8467 27.465 76.8467L35.9582 88.6041" stroke="#F0EEEB" stroke-miterlimit="10"/>
<path d="M36.9878 45.7395H41.3263L45.5178 48.1721" stroke="#F0EEEB" stroke-miterlimit="10"/>
<path d="M57.0994 48.172L62.5041 46.5503C62.5041 46.5503 66.5853 44.818 67.5045 46.1449C68.4236 47.4717 71.1076 48.1352 71.1076 48.1352L74.1593 44.9655" stroke="#F0EEEB" stroke-miterlimit="10"/>
<path d="M42.1719 70.4705C42.4292 70.7653 42.6866 71.0602 42.944 71.355C44.7088 73.2347 47.1722 74.5247 49.7459 74.5984C52.3196 74.6721 54.9668 73.5296 56.4008 71.3919" stroke="#F0EEEB" stroke-miterlimit="10"/>
<path d="M21.1044 120.817C21.1044 120.817 9.19181 114.92 5.77246 98.3712C2.31635 81.8224 -2.83105 65.9002 3.3826 48.1721C9.52271 30.4439 28.7887 5.63917 28.7887 5.63917C28.7887 5.63917 30.2594 4.16489 33.1272 2.80118C37.3922 0.737197 41.4366 0.405485 45.5177 0.479199C54.8566 0.626626 60.7393 0.737197 66.9162 3.68575C69.5635 4.93889 76.9904 8.99315 84.2335 23.6253C89.9692 35.1616 89.8221 41.6852 93.793 68.3696L101.698 115.952C101.698 115.952 106.184 124.908 109.603 123.176C113.059 121.444 106.147 129.036 101.698 129.036C98.3521 129.036 95.7049 129.405 94.1974 129.036" stroke="#F0EEEB" stroke-miterlimit="10"/>
<path d="M32.0609 115.215L45.5177 126.346L51.3637 130.879L63.1659 123.065L74.1593 115.215" stroke="#F0EEEB" stroke-miterlimit="10"/>
</g>
<defs>
<clipPath id="clip0_286_324">
<rect width="111" height="144" fill="white"/>
</clipPath>
</defs>
</svg>
