<svg width="1222" height="839" viewBox="0 0 1222 839" fill="none" xmlns="http://www.w3.org/2000/svg">
<g clip-path="url(#clip0_311_94)">
<path d="M539.14 411.44C547.34 411.6 555.57 412.81 563.63 414.24C573.15 415.92 582.76 418.04 591.8 421.55C595.1 422.83 598.48 424.33 601.29 426.51C605.75 429.98 608.76 435.26 611.13 440.28C616.16 450.92 619.06 463 627.7 471.52C632.15 475.91 637.73 478.4 643.95 478.98C650.61 479.6 657.31 478.32 663.9 477.53C676.3 476.05 689.03 474.99 701.45 476.84C713.64 478.66 725.28 483.58 733.73 492.79C735.89 495.14 737.79 497.71 739.41 500.45C741.19 503.45 742.56 506.67 744.17 509.76C746.79 514.81 750.36 519.13 754.71 522.79C763.23 529.96 773.51 534.55 782.42 541.15C787.18 544.68 791.34 548.88 794.59 553.85C798.15 559.3 800.65 565.35 802.46 571.59C803.32 574.56 804.02 577.58 804.61 580.62C804.92 582.2 807.33 581.53 807.02 579.96C804.6 567.46 800.07 554.86 791.16 545.48C783.34 537.26 772.91 532.33 763.55 526.19C758.93 523.16 754.51 519.78 750.94 515.53C746.69 510.48 744.66 504.19 741.25 498.63C734.7 487.91 724.24 480.4 712.31 476.71C700.38 473.02 687.53 472.94 675.15 473.89C668.72 474.39 662.34 475.26 655.94 476.02C649.12 476.83 641.76 477.34 635.45 474.11C624.63 468.58 620.37 455.98 616.09 445.47C613.74 439.71 611.18 433.98 607.28 429.08C604.66 425.79 601.59 423.36 597.85 421.48C589.52 417.3 580.18 415.02 571.11 413.13C562.04 411.24 553.01 409.83 543.87 409.16C542.3 409.05 540.72 408.96 539.15 408.93C537.58 408.9 537.54 411.4 539.15 411.43L539.14 411.44Z" fill="#D55845"/>
<path d="M389.02 705.37C493.628 705.37 578.43 623.828 578.43 523.24C578.43 422.652 493.628 341.11 389.02 341.11C284.412 341.11 199.61 422.652 199.61 523.24C199.61 623.828 284.412 705.37 389.02 705.37Z" stroke="#3E5C6D" stroke-width="3" stroke-miterlimit="10"/>
<path d="M309.72 361.51C312.69 362.08 315.77 362.49 318.7 363.27C319.91 363.59 320.26 364.24 320.44 365.44C320.64 366.72 320.72 367.99 321.05 369.25C322.41 374.37 325.94 378.66 330.54 381.22C332.82 382.49 335.03 383.56 336.23 386.02C337.28 388.18 336.87 390.28 335.25 392.01C333.27 394.11 330.79 395.96 328.18 397.19C325.57 398.42 322.88 399.13 320.52 400.71C318.16 402.29 316.2 404.63 315.82 407.62C315.63 409.13 315.64 410.63 315.27 412.12C314.87 413.75 314.2 415.24 313.31 416.67C312.03 418.72 315.27 420.61 316.55 418.56C318.19 415.94 319.13 413.02 319.38 409.94C319.49 408.59 319.47 407.29 320.22 406.11C320.91 405.02 321.96 404.2 323.06 403.55C325.64 402.02 328.61 401.3 331.24 399.84C333.87 398.38 336.55 396.33 338.45 394.04C342.35 389.35 340.29 383.05 335.6 379.79C333.18 378.11 330.52 377.12 328.44 374.95C326.65 373.08 325.34 370.77 324.67 368.26C323.9 365.34 324.39 361.83 321.21 360.23C319.7 359.47 317.91 359.29 316.27 358.98L310.72 357.91C308.36 357.46 307.35 361.07 309.72 361.53V361.51Z" fill="#3E5C6D"/>
<path d="M313.19 416.86C309.56 422.46 303.22 425.45 297.79 428.96C291.69 432.9 286.44 437.94 282.56 444.1C280.72 447.02 279.36 450.34 277.09 452.97C274.52 455.94 270.7 457.62 267.3 459.46C263.63 461.44 259.9 463.32 256.17 465.17C253.28 466.6 249.93 468.64 249.3 472.1C248.95 474.03 249.51 476.03 251.17 477.18C252.83 478.33 254.95 478.37 256.81 478.76C258.67 479.15 260.71 479.7 262.02 481.19C263.33 482.68 262.82 484.28 261.96 485.96C260.86 488.1 264.09 490 265.2 487.85C266.04 486.22 266.82 484.51 266.62 482.64C266.44 480.97 265.6 479.45 264.41 478.28C261.64 475.54 257.83 475.32 254.26 474.45C253.65 474.3 253.07 474.18 252.93 473.49C252.81 472.88 253.11 472.22 253.43 471.73C254.27 470.44 255.69 469.63 257.02 468.92C260.68 466.98 264.44 465.22 268.1 463.26C271.56 461.41 275.35 459.67 278.31 457.05C281.02 454.65 282.68 451.36 284.43 448.26C287.96 441.99 292.86 436.7 298.86 432.72C304.86 428.74 312.21 425.24 316.41 418.75C317.73 416.72 314.48 414.84 313.17 416.86H313.19Z" fill="#3E5C6D"/>
<path d="M261.72 486.71C261.29 489.79 262.85 492.04 264.66 494.37C266.47 496.7 268.27 498.68 270.69 500.21C272.9 501.62 275.45 502.6 278.04 503.04C280.23 503.41 282.93 503.73 285.06 502.91C286.89 502.19 288.46 500.97 290.35 500.36C292.67 499.61 295.13 499.58 297.54 499.72C299.29 499.82 301.38 499.88 303.02 500.59C305.02 501.46 306.54 503.34 307.89 504.99C309.59 507.07 311.21 509.17 313.4 510.78C315.2 512.11 318.17 513.22 319.06 515.45C319.43 516.39 320.31 517.05 321.37 516.76C322.26 516.51 323.06 515.4 322.68 514.45C321.75 512.11 320 510.63 317.94 509.29C316.04 508.05 314.34 506.86 312.84 505.13C310.04 501.92 307.53 497.78 303.1 496.7C298.67 495.62 293.45 495.37 289.18 496.81C287.3 497.44 285.58 498.7 283.86 499.39C282.14 500.08 279.36 499.58 277.52 499.11C274.81 498.41 272.26 497.08 270.24 495.13C269.12 494.05 268.15 492.82 267.21 491.58C266.45 490.58 265.16 489.09 265.35 487.72C265.49 486.71 265.1 485.72 264.04 485.41C263.16 485.16 261.87 485.72 261.73 486.72L261.72 486.71Z" fill="#3E5C6D"/>
<path d="M319.2 515.86C319.71 516.64 320.32 517.3 320.98 517.96C321.76 518.75 322.25 519.54 322.7 520.56C323.47 522.29 324.32 523.94 325.45 525.47C327.68 528.47 330.55 531.01 333.91 532.67C335.68 533.54 337.53 534.18 339.45 534.57C341.66 535.02 343.59 535.71 345.62 536.67C348.93 538.24 352.31 539.96 354.92 542.58C358.36 546.03 358.92 550.55 359.09 555.21C359.18 557.62 362.93 557.63 362.84 555.21C362.68 550.89 362.29 546.4 359.83 542.7C357.68 539.46 354.48 537.11 351.11 535.25C349.35 534.28 347.52 533.41 345.68 532.58C343.5 531.6 341.32 531.23 339.03 530.63C335.46 529.68 332.29 527.63 329.8 524.91C328.37 523.34 327.21 521.54 326.33 519.6C325.83 518.49 325.4 517.4 324.63 516.43C323.95 515.56 323.02 514.89 322.42 513.96C321.11 511.94 317.86 513.82 319.18 515.85L319.2 515.86Z" fill="#3E5C6D"/>
<path d="M359.23 554.86C359.23 559.58 358.97 564.3 358.41 568.99C358.13 571.37 357.77 573.75 357.32 576.1C356.93 578.09 356.45 580.12 355.31 581.83C353.3 584.83 349.58 586.26 346.39 587.61C343.2 588.96 339.21 590.5 337.68 594.05C337.28 594.99 337.41 596.05 338.35 596.62C339.14 597.09 340.52 596.88 340.92 595.95C342.36 592.59 346.83 591.51 349.89 590.16C353.47 588.58 357.04 586.53 358.99 582.99C361.16 579.06 361.53 574.09 362.08 569.72C362.7 564.79 362.99 559.83 362.98 554.86C362.98 552.45 359.23 552.44 359.23 554.86Z" fill="#3E5C6D"/>
<path d="M337.61 593.94C335.87 597.02 334.22 600.16 333.81 603.73C333.63 605.32 333.61 606.88 332.99 608.39C332.37 609.9 331.38 611.23 330.32 612.45C328.2 614.89 325.53 617.07 325.22 620.51C325.08 622.06 325.55 623.63 326.58 624.8C326.88 625.14 327.48 625.46 327.51 625.93C327.56 626.64 326.71 627.6 326.33 628.12C325.72 628.94 326.2 630.2 327 630.69C327.95 631.26 328.97 630.83 329.57 630.02C330.55 628.69 331.39 627.15 331.23 625.45C331.14 624.58 330.78 623.81 330.2 623.14C329.8 622.68 329.25 622.35 329.04 621.76C328.58 620.51 329.42 619.13 330.16 618.19C331.2 616.88 332.45 615.76 333.51 614.47C335.72 611.77 337.09 608.96 337.41 605.47C337.57 603.74 337.82 602.12 338.48 600.49C339.14 598.86 340 597.36 340.85 595.86C342.04 593.76 338.8 591.86 337.61 593.97V593.94Z" fill="#3E5C6D"/>
<path d="M326.36 628.35C325.58 629.65 324.07 630.27 322.75 630.89C321.17 631.64 319.57 632.37 318.08 633.29C314.92 635.24 312.97 637.85 311.52 641.23C310.78 642.94 310.28 644.73 311.08 646.51C311.66 647.8 312.75 648.63 313.66 649.67C314.67 650.82 314.01 651.8 313.23 652.93C312.25 654.36 311.29 655.79 311.18 657.57C311.08 659.21 311.89 660.71 313.28 661.57C314.28 662.19 315.98 662.23 316.8 663.07C317.45 663.74 317.28 665.94 316.76 666.67C316.12 667.57 313.81 666.23 313.09 665.79C309.75 663.72 306.67 661.07 303.54 658.7C302.95 658.26 302.26 657.78 301.86 657.15C301.43 656.48 301.41 655.61 301.28 654.84C301 653.15 300.42 651.51 299.62 649.99C298.64 648.13 297.24 646.61 295.83 645.08C294.64 643.78 293.21 642.18 293.39 640.28C293.49 639.26 293.9 638.24 294.21 637.27C294.58 636.1 294.95 634.92 295.32 633.75C296.03 631.48 296.75 629.21 297.46 626.94C298.17 624.67 294.57 623.64 293.84 625.94C293.11 628.24 292.46 630.33 291.77 632.52C291.13 634.56 290.34 636.61 289.87 638.7C288.89 643.08 291.67 646.01 294.38 649.03C295.64 650.44 296.64 652.05 297.2 653.87C297.76 655.69 297.65 657.52 298.64 659.08C299.69 660.73 301.47 661.8 303 662.96C304.81 664.32 306.62 665.68 308.43 667.05C311.15 669.1 315.21 672.11 318.73 670.01C320.3 669.07 320.66 666.98 320.86 665.3C321.06 663.62 320.78 661.82 319.58 660.54C318.45 659.33 316.93 659.2 315.52 658.52C314.11 657.84 315.69 655.96 316.25 655.15C317.32 653.63 318.27 651.91 317.94 649.99C317.67 648.37 316.55 647.24 315.44 646.12C315 645.68 314.46 645.22 314.4 644.56C314.32 643.59 315.08 642.35 315.48 641.51C316.38 639.64 317.57 638.12 319.31 636.95C322.62 634.71 327.43 633.83 329.6 630.23C330.85 628.16 327.61 626.27 326.36 628.34V628.35Z" fill="#3E5C6D"/>
<path d="M297.67 625.49C297.9 623.45 297 621.6 295.99 619.9C294.9 618.07 293.99 616.42 293.71 614.27C293.43 612.12 293.58 609.76 293.64 607.52C293.71 605.04 293.78 602.56 293.85 600.08C293.92 597.6 290.17 597.67 290.1 600.08C289.97 604.75 289.43 609.61 289.95 614.27C290.2 616.47 290.8 618.5 291.91 620.42C292.83 622.01 294.13 623.55 293.91 625.49C293.8 626.5 294.85 627.37 295.79 627.37C296.9 627.37 297.55 626.51 297.67 625.49Z" fill="#3E5C6D"/>
<path d="M293.2 599.51C293.17 597.55 292.45 595.84 291.63 594.1C290.81 592.36 289.94 590.49 289.09 588.69C287.31 584.9 285.53 581.11 283.73 577.32C282.08 573.85 280.7 569.91 278.03 567.08C276.91 565.9 276.54 564.33 275.57 563.03C274.39 561.45 273.11 559.94 271.82 558.45C270.53 556.96 269.4 555.59 267.89 554.49C266.75 553.66 265.62 553.12 265.39 551.62C265.24 550.62 263.98 550.06 263.08 550.31C262.01 550.61 261.61 551.61 261.77 552.62C262.23 555.63 264.84 556.46 266.73 558.38C268.06 559.73 269.29 561.21 270.5 562.66C271.62 564.01 272.82 565.32 273.51 566.95C274.2 568.58 275.45 569.54 276.39 570.97C277.49 572.63 278.26 574.52 279.12 576.31C280.89 580.02 282.64 583.73 284.39 587.45C285.36 589.51 286.32 591.56 287.29 593.62C288.15 595.45 289.42 597.43 289.45 599.5C289.49 601.91 293.24 601.92 293.2 599.5V599.51Z" fill="#3E5C6D"/>
<path d="M265.45 552.12C266.26 543.03 266.85 534.04 266.03 524.93C265.84 522.85 265.66 520.72 265.89 518.63C266.12 516.54 267.49 514.57 267.06 512.57C266.66 510.74 264.91 509.17 263.65 507.88C262.24 506.42 260.73 505.07 259.13 503.82C255.89 501.29 252.27 498.94 248.28 497.81C246.43 497.28 244.51 497.15 242.63 496.77C240.75 496.39 239.39 495.62 237.92 494.33C236.37 492.97 234.56 492.16 232.87 491.01C231.55 490.11 230.44 488.89 229.57 487.57C227.68 484.72 226.63 481.45 225.64 478.2C223.48 471.17 220.59 463.35 212.97 460.78C210.68 460.01 209.7 463.63 211.97 464.4C218 466.44 220.23 473.36 221.91 478.85C222.89 482.05 223.92 485.3 225.58 488.23C227.33 491.33 229.74 493.61 232.83 495.34C234.52 496.29 235.78 497.62 237.35 498.71C238.92 499.8 240.65 500.23 242.42 500.53C244.19 500.83 246.13 501.04 247.92 501.62C249.82 502.24 251.59 503.21 253.27 504.26C256.58 506.33 259.57 508.88 262.17 511.8C262.63 512.32 263.39 512.92 263.34 513.63C263.27 514.59 262.63 515.63 262.44 516.6C262.04 518.6 261.99 520.64 262.11 522.67C262.39 527.45 262.85 532.16 262.73 536.96C262.6 542.02 262.15 547.07 261.71 552.12C261.5 554.52 265.25 554.51 265.46 552.12H265.45Z" fill="#3E5C6D"/>
<path d="M250.46 464.71C253.06 462.82 256.37 462.36 258.94 460.45C260.08 459.6 261.47 459.07 262.69 458.36C263.91 457.65 264.92 456.85 266.03 456.08C267.45 455.09 268.9 454.13 270.16 452.94C271.42 451.75 272.38 450.47 273.35 449.12C275.05 446.76 276.71 444.37 278.42 442.02C280.7 438.89 283.04 435.8 285.7 432.97C286.8 431.8 285.04 430.03 283.93 431.2C279.53 435.89 275.88 441.27 272.16 446.5C270.31 449.1 268.45 451.34 265.81 453.19C263.47 454.83 261.21 456.32 258.7 457.67C257.89 458.11 257.23 458.76 256.43 459.18C255.71 459.56 254.91 459.81 254.15 460.11C252.44 460.78 250.69 461.46 249.19 462.55C247.9 463.49 249.15 465.66 250.45 464.71H250.46Z" fill="#3E5C6D"/>
<path d="M284.17 434.12C285.78 434.12 285.78 431.62 284.17 431.62C282.56 431.62 282.56 434.12 284.17 434.12Z" fill="#3E5C6D"/>
<path d="M285.03 433.71C285.95 432.72 286.72 431.63 287.77 430.76C288.71 429.97 289.57 429 290.62 428.39C291.67 427.78 292.6 426.92 293.7 426.3C294.84 425.65 295.84 424.92 296.83 424.05C298.97 422.18 301.75 420.97 304.22 419.6C305.43 418.92 306.62 418.27 307.57 417.24C308.63 416.1 309.59 414.84 310.59 413.65C311.59 412.46 309.86 410.65 308.82 411.88C307.87 413.02 306.94 414.19 305.95 415.31C304.96 416.43 303.62 417.07 302.32 417.79C299.85 419.17 297.21 420.4 295.06 422.28C294.02 423.19 292.9 423.83 291.72 424.54C290.74 425.13 289.9 425.86 288.93 426.45C287.91 427.08 287.09 428.06 286.17 428.83C285.06 429.76 284.24 430.88 283.26 431.92C282.16 433.09 283.93 434.87 285.03 433.69V433.71Z" fill="#3E5C6D"/>
<path d="M310.6 413.49C311.69 411.91 312.28 410.01 312.34 408.09C312.36 407.44 311.75 406.81 311.09 406.84C310.4 406.87 309.86 407.39 309.84 408.09C309.84 408.31 309.82 408.53 309.8 408.74C309.8 408.79 309.79 408.85 309.78 408.9C309.81 408.72 309.81 408.67 309.8 408.77C309.78 408.86 309.77 408.96 309.75 409.05C309.68 409.45 309.58 409.85 309.45 410.24C309.39 410.42 309.32 410.6 309.25 410.78C309.2 410.91 309.21 410.88 309.28 410.71C309.26 410.76 309.24 410.81 309.21 410.86C309.16 410.96 309.12 411.06 309.07 411.16C308.88 411.53 308.67 411.88 308.44 412.22C308.07 412.76 308.32 413.63 308.89 413.93C309.52 414.27 310.2 414.06 310.6 413.48V413.49Z" fill="#3E5C6D"/>
<path d="M210.93 511.36C209.95 517.39 210.11 526.15 210.75 535.89C210.86 537.54 211.23 542.92 212.47 550.58C213.44 556.55 215.49 568.9 220.35 582.08C223.84 591.53 231.12 606.71 244.3 622.83" stroke="#3E5C6D" stroke-width="3" stroke-miterlimit="10"/>
<path d="M447.19 685.29C454.34 683.52 463.86 679.13 474.2 673.73C475.95 672.82 481.65 669.8 489.38 664.7C495.41 660.72 507.84 652.43 519.66 640.52C528.14 631.98 540.84 616.33 551.37 593.45" stroke="#3E5C6D" stroke-width="3" stroke-miterlimit="10"/>
<path d="M244.2 624.23C245.144 624.23 245.91 623.541 245.91 622.69C245.91 621.839 245.144 621.15 244.2 621.15C243.256 621.15 242.49 621.839 242.49 622.69C242.49 623.541 243.256 624.23 244.2 624.23Z" fill="#3E5C6D"/>
<path d="M210.91 512.97C211.827 512.97 212.57 512.325 212.57 511.53C212.57 510.735 211.827 510.09 210.91 510.09C209.993 510.09 209.25 510.735 209.25 511.53C209.25 512.325 209.993 512.97 210.91 512.97Z" fill="#3E5C6D"/>
<path d="M284.61 508.51C288.54 507.41 293.25 506.49 297.29 507.57C300.91 508.54 303.22 511.65 305.68 514.25C306.31 514.91 306.95 515.61 307.75 516.07C308.55 516.53 309.39 516.63 310.26 516.81C312.3 517.24 313.47 518.4 314.31 520.27C315.1 522.04 315.5 523.99 316.6 525.62C317.7 527.25 319.22 528.3 320.88 529.19C322.3 529.95 323.56 527.79 322.14 527.03C320.06 525.92 318.62 524.61 317.76 522.39C317.09 520.66 316.6 518.83 315.5 517.3C314.33 515.66 312.68 514.76 310.73 514.36C309.59 514.13 308.85 513.89 308 513.05C307.35 512.4 306.73 511.71 306.11 511.03C303.48 508.16 300.66 505.53 296.67 504.9C292.68 504.27 287.99 504.98 283.95 506.11C282.4 506.54 283.06 508.95 284.61 508.52V508.51Z" fill="#3E5C6D"/>
<path d="M270.6 541.94C269.54 545.48 268.67 549.71 271.42 552.74C272.13 553.53 273.03 554.11 273.82 554.81C274.69 555.58 275.4 556.5 276.1 557.42C277.56 559.34 279.03 561.27 280.49 563.19C281.95 565.11 283.39 566.94 284.79 568.85C285.45 569.76 286.06 570.69 286.45 571.75C286.84 572.81 287.14 573.84 287.62 574.84C288.6 576.89 289.99 578.71 291.04 580.73C292.09 582.75 293.08 584.94 294.04 587.07C296.18 591.84 298.09 596.84 297.92 602.15C297.87 603.76 300.37 603.76 300.42 602.15C300.56 597.61 299.31 593.23 297.6 589.07C295.89 584.91 294.17 580.85 291.87 577.11C291.27 576.14 290.63 575.19 290.09 574.19C289.52 573.13 289.21 571.99 288.78 570.87C287.99 568.8 286.61 567.13 285.29 565.39C282.51 561.73 279.85 557.92 276.9 554.4C275.43 552.65 272.89 551.52 272.25 549.19C271.66 547.03 272.39 544.66 273.01 542.6C273.47 541.06 271.06 540.4 270.6 541.94Z" fill="#3E5C6D"/>
<path d="M351.13 551.1C352.45 556.52 352.85 562.26 352.01 567.79C351.64 570.22 350.92 572.55 349.47 574.56C348.28 576.21 346.7 577.58 345.06 578.77C341.54 581.32 337.49 583.14 334.13 585.9C332.18 587.5 331.24 589.69 330.31 591.96C329.38 594.23 328.54 596.78 327.92 599.27C326.76 603.93 326.36 609.38 322.45 612.69C321.22 613.73 323 615.49 324.22 614.46C327.74 611.48 328.8 606.91 329.73 602.6C330.27 600.08 330.9 597.6 331.76 595.17C332.62 592.74 333.49 589.83 335.45 588.06C337.18 586.5 339.36 585.36 341.34 584.15C343.32 582.94 345.14 581.84 346.91 580.5C350.64 577.68 353.33 574.18 354.24 569.52C355.47 563.25 355.06 556.62 353.55 550.44C353.17 548.88 350.76 549.54 351.14 551.1H351.13Z" fill="#3E5C6D"/>
<path d="M300.4 624.81C300.84 627.3 301.33 630.01 300.46 632.47C300.02 633.72 299.2 634.79 298.7 636.02C298.2 637.25 298.08 638.42 298.22 639.67C298.5 642.21 299.79 644.46 301.1 646.6C302.41 648.74 304 651.24 303.61 653.89C303.38 655.46 305.79 656.14 306.02 654.55C306.4 651.98 305.66 649.65 304.46 647.39C303.13 644.91 301.19 642.56 300.75 639.71C300.31 636.86 302.6 634.79 303.17 632.11C303.74 629.43 303.29 626.77 302.83 624.15C302.55 622.57 300.14 623.24 300.42 624.81H300.4Z" fill="#3E5C6D"/>
<path d="M349.94 361.03C354.01 361.94 357.78 359.97 361.63 358.96C365.73 357.89 369.91 357.17 374.14 356.84C376.26 356.67 378.38 356.6 380.51 356.61C382.32 356.62 384.59 356.39 386.3 357.08C386.61 357.21 387.23 357.54 387.22 357.96C387.2 358.51 385.76 359.37 385.39 359.68C383.79 361.02 382.24 362.42 380.73 363.85C377.71 366.72 374.83 369.73 371.96 372.75C369.09 375.77 366.25 378.77 363.73 382.08C362.01 384.35 359.8 389.33 356.24 388.75C352.68 388.17 352.04 383.45 351.68 380.62C351.43 378.66 351.3 376.6 351.88 374.7C352.42 372.92 353.84 371.73 354.86 370.24C355.96 368.62 356.28 366.65 355.36 364.87C354.91 363.99 354.2 363.27 353.51 362.58C353.19 362.26 351.88 361.17 352.12 360.62C352.53 359.69 352.38 358.62 351.45 358.05C350.66 357.57 349.3 357.8 348.88 358.72C347.92 360.87 348.65 362.85 350.18 364.54C350.78 365.2 351.66 365.78 352.04 366.6C352.37 367.3 351.94 367.92 351.53 368.49C350.41 370.05 349.14 371.31 348.46 373.16C347.78 375.01 347.65 377.21 347.8 379.24C348.11 383.26 348.75 388.03 352.07 390.75C355.39 393.47 360.02 392.68 362.92 389.5C364.41 387.87 365.51 385.92 366.84 384.16C368.17 382.4 369.75 380.61 371.3 378.93C374.53 375.42 377.84 371.96 381.23 368.6C382.88 366.97 384.56 365.38 386.29 363.85C387.81 362.51 390.15 361.17 390.78 359.13C391.41 357.09 390.32 355.13 388.62 354.07C386.74 352.9 384.3 352.95 382.17 352.89C376.81 352.73 371.44 353.16 366.17 354.12C363.54 354.6 360.91 355.19 358.36 356C356.01 356.74 353.47 357.98 350.96 357.42C348.61 356.9 347.6 360.51 349.96 361.04L349.94 361.03Z" fill="#3E5C6D"/>
<path d="M361.69 364.16C366.73 363.38 371.43 360.84 376.59 360.81C378.2 360.81 378.2 358.3 376.59 358.31C371.18 358.34 366.3 360.93 361.03 361.75C360.36 361.85 359.99 362.69 360.16 363.29C360.36 364 361.03 364.27 361.7 364.16H361.69Z" fill="#221F20"/>
<path d="M467.15 358.08C460.61 361 454 363.96 448.08 368.04C442.16 372.12 437.57 377.3 433.59 383.25C429.82 388.9 426.53 394.94 421.96 400C419.56 402.65 416.74 404.78 414.05 407.11C411.19 409.58 408.86 412.42 407.45 415.96C406.2 419.11 405.48 423.25 406.73 426.51C407.89 429.52 410.64 431 413.71 431.37C416.78 431.74 419.87 431.01 422.86 430.37C426.46 429.59 430.06 428.79 433.62 427.85C440.72 425.98 447.78 423.57 454.13 419.81C457.14 418.03 459.82 415.79 462.74 413.88C465.51 412.07 468.61 410.63 471.99 411.41C473.82 411.83 475.49 412.67 477.12 413.57C478.32 414.24 480.15 414.97 480.87 416.21C481.64 417.53 480.02 418.95 479.13 419.75C477.8 420.94 476.35 422 475.07 423.25C472.71 425.53 470.83 428.37 470.77 431.75C470.72 434.78 472.23 437.68 475.07 438.93C476.58 439.59 478.17 439.75 479.77 440.03C480.95 440.24 482.43 440.48 483.13 441.58C484.51 443.78 482.37 446.5 480.44 447.42C477.22 448.95 473.34 448.37 469.91 448.19C466.15 448 462.63 448.3 459.26 450.1C457.92 450.82 456.62 451.54 455.05 451.21C453.48 450.88 452.18 449.94 450.92 449.06C448.12 447.1 445.45 445.28 442.04 444.55C434.84 442.99 427.58 445.25 421.36 448.85C418.15 450.71 415.16 452.9 412.16 455.07C409.16 457.24 406.47 459.25 403.82 461.58C401.17 463.91 398.84 466.4 396.91 469.28C394.82 472.4 393.55 475.91 392.57 479.51C391.49 483.5 390.51 487.52 389.49 491.53C388.47 495.54 387.13 499.41 386.83 503.43C386.56 507.12 387.94 510.45 390.79 512.81C393.64 515.17 396.88 516.75 400.13 518.23C407.02 521.38 414.32 523.4 421.85 524.31C425.66 524.77 429.5 524.89 433.33 524.73C434.81 524.67 436.6 524.45 437.95 525.22C439.4 526.04 440.17 528.02 440.84 529.46C442.4 532.79 443.28 536.43 443.5 540.09C443.64 542.49 447.39 542.5 447.25 540.09C447.02 536.27 446.2 532.54 444.72 529.01C443.37 525.79 441.67 522.15 437.97 521.24C436.31 520.83 434.59 520.93 432.9 521C431.05 521.07 429.21 521.07 427.36 521C423.61 520.85 419.89 520.39 416.22 519.62C408.96 518.09 401.84 515.45 395.5 511.57C394.17 510.76 392.82 509.84 391.85 508.59C390.74 507.15 390.45 505.42 390.56 503.64C390.67 501.86 391.18 500.02 391.63 498.26C392.14 496.27 392.65 494.28 393.16 492.28C394.18 488.28 395.16 484.26 396.24 480.28C397.21 476.7 398.53 473.37 400.71 470.35C404.76 464.73 410.75 460.66 416.31 456.67C421.87 452.68 428.31 448.38 435.54 447.85C438.85 447.61 442.27 448.05 445.2 449.71C448.13 451.37 450.36 453.74 453.53 454.7C455.07 455.17 456.77 455.19 458.31 454.68C460.01 454.11 461.46 452.99 463.17 452.46C466.64 451.39 470.38 452.09 473.93 452.17C477.48 452.25 481.03 451.86 483.82 449.74C486.17 447.96 487.58 444.92 487.14 441.97C486.66 438.74 483.95 437.02 480.94 436.47C478.35 435.99 475.06 435.96 474.57 432.72C473.48 425.59 483.94 423.93 484.77 417.6C485.27 413.8 481.65 411.81 478.82 410.25C475.58 408.47 472.08 407.08 468.32 407.58C464.91 408.04 461.93 409.84 459.19 411.81C456.45 413.78 453.52 415.96 450.4 417.64C444.05 421.07 437.09 423.18 430.11 424.9C426.59 425.77 423.04 426.57 419.49 427.28C417.1 427.76 413.93 428.29 411.71 426.97C408.96 425.32 409.81 420.92 410.59 418.39C411.64 414.94 413.87 412.27 416.55 409.93C419.23 407.59 422.08 405.47 424.49 402.83C426.9 400.19 428.83 397.5 430.73 394.65C434.5 388.99 437.8 382.95 442.4 377.9C447 372.85 453.18 368.97 459.44 365.83C462.6 364.24 465.83 362.8 469.05 361.36C469.98 360.94 470.18 359.61 469.72 358.79C469.17 357.83 468.07 357.71 467.15 358.12V358.08Z" fill="#3E5C6D"/>
<path d="M443.95 540.09L443.48 547.47C443.34 549.69 443 552.01 443.13 554.23C443.26 556.45 444.14 558.04 445.85 559.34C447.28 560.43 448.88 561.15 449.9 562.7C450.92 564.25 451.43 565.9 451.94 567.6C452.55 569.64 453.19 571.74 453.38 573.88C453.57 576.02 453.32 578.01 452.21 579.85C451.18 581.55 449.76 582.99 448.8 584.74C446.71 588.51 446.86 592.87 447.76 596.96C448.77 601.5 450.48 605.91 451.93 610.32C453.45 614.94 454.96 619.56 456.48 624.17C457.55 627.43 458.88 630.9 461.87 632.86C465.52 635.26 470.02 633.81 473.45 631.74C476.88 629.67 480.01 626.77 482.68 623.67C485.35 620.57 488.11 617.03 490.3 613.43C491.39 611.63 492.33 609.65 492.71 607.56C493.13 605.23 492.96 602.93 492.62 600.6C492.07 596.82 490.73 592.41 492.53 588.77C493.41 586.98 495.08 585.88 496.63 584.71C498.18 583.54 499.52 582.37 500.79 581.01C505.87 575.52 508.91 568.23 509.16 560.74C509.29 556.67 508.19 552.98 507.4 549.04C506.98 546.94 506.99 544.91 508.09 543.01C509.19 541.11 510.57 539.39 511.79 537.59C516.49 530.7 521.03 523.25 522.61 514.94C523.01 512.85 523.22 510.73 523.23 508.61C523.23 507.81 522.65 506.99 521.85 506.8C520.68 506.52 519.66 506.07 518.67 505.41C516.66 504.07 514.78 507.31 516.78 508.65C518.02 509.48 519.4 510.07 520.86 510.42L519.48 508.61C519.45 516.75 515.88 524.2 511.65 530.97C510.57 532.69 509.45 534.38 508.3 536.05C507.15 537.72 505.76 539.47 504.73 541.31C502.47 545.36 503.66 549.56 504.67 553.78C506.29 560.54 505.1 567.67 501.59 573.65C499.82 576.67 497.49 579.33 494.72 581.47C493.15 582.68 491.49 583.77 490.27 585.36C489.12 586.85 488.42 588.62 488.13 590.48C487.48 594.65 488.73 598.6 489.12 602.72C489.32 604.83 489.21 606.88 488.43 608.87C487.65 610.86 486.42 612.59 485.21 614.29C482.92 617.49 480.54 620.66 477.78 623.47C475.13 626.17 471.85 629.04 468.14 630.09C466.51 630.55 464.8 630.49 463.44 629.38C462.29 628.44 461.54 627 460.98 625.65C459.35 621.75 458.25 617.56 456.93 613.55C455.48 609.14 454 604.75 452.59 600.33C451.42 596.66 450.18 592.53 451.21 588.68C452.24 584.83 455.9 582.37 456.83 578.4C457.76 574.43 456.63 570.14 455.44 566.25C454.34 562.65 452.82 559.46 449.57 557.35C448.11 556.4 446.88 555.75 446.85 553.83C446.81 551.56 447.1 549.25 447.24 546.99L447.68 540.1C447.83 537.69 444.08 537.7 443.93 540.1L443.95 540.09Z" fill="#3E5C6D"/>
<path d="M518.75 506.88C516.25 506.49 513.64 506.02 511.4 504.79C508.93 503.44 507.8 501.33 506.97 498.72C506.14 496.11 505.26 493.68 504.03 491.29C502.8 488.9 501.45 486.78 500.05 484.59C497.27 480.23 494.27 475.8 493.04 470.7C492.41 468.09 492.2 465.15 493.36 462.65C494.38 460.45 496.35 458.97 498.48 457.91C500.77 456.77 503.34 456.11 505.85 455.67C508.64 455.17 511.43 455.28 513.72 457.11C515.63 458.64 517.11 460.75 518.51 462.73C519.91 464.71 521.3 466.82 522.75 468.82C525.56 472.7 528.81 476.49 533.22 478.59C535.76 479.8 538.51 480.27 541.16 481.16C543.81 482.05 545.9 483.81 547.72 485.96C549.63 488.22 551.32 490.66 553.22 492.93C555.26 495.37 557.43 497.7 559.74 499.89C564.38 504.31 569.56 508.18 575.2 511.23C577.32 512.38 579.22 509.14 577.09 507.99C571.78 505.12 566.92 501.53 562.54 497.38C558.23 493.29 554.71 488.67 551 484.06C549.22 481.85 547.15 479.75 544.56 478.5C541.71 477.13 538.55 476.78 535.65 475.58C531.03 473.66 527.83 469.57 525.04 465.59C523.59 463.51 522.2 461.4 520.69 459.36C518.99 457.07 517.17 454.72 514.7 453.22C509.62 450.14 502.49 452 497.42 454.26C495.05 455.31 492.88 456.81 491.3 458.88C489.4 461.36 488.67 464.49 488.82 467.58C489.11 473.25 491.79 478.42 494.72 483.16C496.37 485.82 498.12 488.41 499.68 491.12C501.24 493.83 502.4 496.67 503.36 499.7C504.38 502.9 505.85 505.66 508.73 507.54C511.41 509.29 514.65 510 517.76 510.48C518.77 510.64 519.77 510.22 520.07 509.17C520.32 508.28 519.76 507.02 518.76 506.86L518.75 506.88Z" fill="#3E5C6D"/>
<path d="M513.85 448.44C516.47 448.55 519.04 449.2 521.36 450.43C523.68 451.66 525.23 453.08 525.94 455.64C527.08 459.74 528.99 463.37 532.09 466.34C535.19 469.31 539.18 471.26 543.46 472.29C545.99 472.9 548.39 473.57 550.41 475.3C552.25 476.87 553.7 478.83 555.17 480.73C559.05 485.77 562.93 490.82 566.81 495.86C567.78 497.12 569.95 495.87 568.97 494.6C565.34 489.88 561.71 485.16 558.08 480.44C555.09 476.56 552.22 472.42 547.38 470.76C544.89 469.9 542.25 469.6 539.82 468.54C537.79 467.66 535.89 466.43 534.26 464.94C532.63 463.45 531.26 461.74 530.19 459.81C529.06 457.77 528.71 455.56 527.86 453.43C525.8 448.28 518.9 446.14 513.85 445.92C512.24 445.85 512.24 448.35 513.85 448.42V448.44Z" fill="#3E5C6D"/>
<path d="M499.65 568.81C499.31 564.08 498.97 559.36 498.63 554.63C498.47 552.46 498.24 550.27 498.28 548.09C498.33 545.78 498.89 543.63 499.87 541.53C500.72 539.69 501.69 537.5 503 535.94C503.61 535.21 504.44 534.78 505.2 534.23C505.96 533.68 506.54 533.03 507.08 532.28C508.34 530.49 509.35 528.5 510.46 526.61C511.7 524.5 512.94 522.38 514.17 520.27C514.98 518.88 512.83 517.62 512.01 519.01C510.77 521.12 509.53 523.24 508.3 525.35C507.14 527.33 506.11 529.69 504.6 531.43C503.97 532.16 503.12 532.59 502.35 533.16C501.53 533.77 500.89 534.54 500.34 535.4C499.2 537.2 498.19 539.14 497.35 541.1C495.51 545.38 495.78 549.6 496.1 554.14L497.16 568.81C497.28 570.41 499.78 570.42 499.66 568.81H499.65Z" fill="#3E5C6D"/>
<path d="M480.52 433.1C482.68 431.52 484.85 429.93 487.01 428.35C488.82 427.02 490.68 425.7 491.97 423.81C493.26 421.92 493.66 419.65 493.94 417.44C494.22 415.23 494.36 413.1 493.13 411.24C492.25 409.9 490.08 411.15 490.97 412.5C491.96 414.01 491.64 415.94 491.41 417.63C491.14 419.58 490.69 421.56 489.39 423.09C488.09 424.62 486.48 425.65 484.93 426.79C483.04 428.18 481.14 429.56 479.25 430.95C477.96 431.89 479.21 434.06 480.51 433.11L480.52 433.1Z" fill="#3E5C6D"/>
<path d="M417.46 417.08C421.45 410.64 429.35 408.17 434.12 402.45C436.93 399.08 438.16 394.8 440.32 391.03C442.48 387.26 444.96 384.1 447.94 381.18C451.33 377.85 455.2 375.08 459.41 372.9C460.84 372.16 459.58 370 458.15 370.74C450.66 374.62 444.19 380.39 439.58 387.46C438.41 389.25 437.37 391.12 436.47 393.05C435.45 395.23 434.58 397.49 433.24 399.5C431.09 402.71 427.77 404.93 424.65 407.11C421.14 409.57 417.6 412.11 415.31 415.82C414.46 417.19 416.62 418.45 417.47 417.08H417.46Z" fill="#3E5C6D"/>
<path d="M402.1 490.84C402.65 482.82 406.21 475.26 411.9 469.6C417.83 463.69 425.69 459.29 433.69 456.88C437.88 455.62 443.07 455.15 446.29 458.72C447.37 459.92 449.13 458.15 448.06 456.95C441.7 449.89 430.34 454.85 423.46 458.37C415.38 462.5 407.88 468.46 403.61 476.61C401.3 481.03 399.95 485.85 399.6 490.83C399.49 492.44 401.99 492.43 402.1 490.83V490.84Z" fill="#3E5C6D"/>
<path d="M454.02 537.05C452.44 542.1 450.85 547.6 452.61 552.83C453.36 555.06 454.65 556.99 456.46 558.49C458.43 560.13 460.74 561.39 462.17 563.59C463.51 565.65 464.15 568.06 464.64 570.44C465.19 573.11 465.77 575.88 464.2 578.31C462.83 580.43 461.19 582.21 460.15 584.55C459.11 586.89 458.56 589.27 458.27 591.76C457.53 598.13 459.06 604.5 460.54 610.65C460.92 612.21 463.33 611.55 462.95 609.99C461.63 604.5 460.27 598.9 460.64 593.21C460.8 590.72 461.31 588.21 462.28 585.9C463.25 583.59 464.97 581.71 466.36 579.57C467.75 577.43 467.9 574.83 467.51 572.27C467.16 569.96 466.67 567.6 465.84 565.41C465.01 563.22 463.81 561.22 462.04 559.67C460.17 558.02 457.82 556.84 456.35 554.78C452.72 549.71 454.75 543.09 456.43 537.71C456.91 536.17 454.5 535.51 454.02 537.05Z" fill="#3E5C6D"/>
<path d="M551.37 594.99C552.314 594.99 553.08 594.301 553.08 593.45C553.08 592.599 552.314 591.91 551.37 591.91C550.426 591.91 549.66 592.599 549.66 593.45C549.66 594.301 550.426 594.99 551.37 594.99Z" fill="#3E5C6D"/>
<path d="M766.82 746.88V761.22" stroke="#3E5C6D" stroke-width="2" stroke-miterlimit="10"/>
<path d="M758.65 691.76V694.74C758.65 694.74 758.79 697.59 758.65 698.52C758.52 699.39 757.76 701.03 757.6 701.9C757.4 703.05 757.51 705.41 757.6 706.57C757.7 707.8 758.01 710.25 758.12 711.48C758.29 713.39 758.71 717.21 758.64 719.13C758.57 721.05 757.81 724.62 757.59 726.46C757.37 728.3 756.54 731.75 756.95 733.46C757.09 734.06 757.82 735.1 758.24 735.56C758.88 736.25 760.35 737.43 761.06 738.06C761.77 738.69 763.16 739.95 763.88 740.56L764.88 741.86L766.18 744.2L766.83 745.84V746.89" stroke="#3E5C6D" stroke-width="2" stroke-miterlimit="10"/>
<path d="M752.37 726.49L747.92 722.42L741.25 719.85L731.67 717.8L719.52 715.91H710.11L700.37 717.8L690.28 721.82" stroke="#3E5C6D" stroke-width="2" stroke-miterlimit="10"/>
<path d="M885.5 683.56L886.92 687.32L889.5 690.14L894.35 695.21L897.97 698L902.93 701.62C902.93 701.62 904.57 702.97 904.89 703.58C905.14 704.05 905.02 705.21 905.3 705.66C905.77 706.41 907.45 707.22 908.09 707.82C909.45 709.09 911.83 711.99 913.05 713.4C913.6 714.04 914.48 715.59 915.22 715.98C916.35 716.58 920.29 716.5 920.29 716.5H927.01C927.01 716.5 930.71 716.46 931.86 716.09C933.8 715.47 937.06 712.85 938.89 711.96C940.27 711.28 943.34 710.58 944.57 709.69C945.58 708.95 947.77 705.87 947.77 705.87" stroke="#3E5C6D" stroke-width="2" stroke-miterlimit="10"/>
<path d="M950.17 707.39L954.1 702.54C954.1 702.54 958.79 697.37 960.2 695.51C961.61 693.65 964.69 689.99 965.37 687.76C965.46 687.44 965.37 686.76 965.37 686.41" stroke="#3E5C6D" stroke-width="2" stroke-miterlimit="10"/>
<path d="M954.47 663.23C954.47 664.25 961.86 663.38 962.88 663.3C964.45 663.18 967.58 662.7 969.12 662.39C969.12 662.39 971.69 662.03 972.55 661.98C973.15 661.94 974.4 661.8 974.97 661.98C975.54 662.16 976.41 662.94 976.88 663.28C977.53 663.75 978.82 664.71 979.39 665.27C980.1 665.96 981.32 667.53 981.94 668.3C983.18 669.79 985.45 672.94 986.82 674.32C987.85 675.37 990.64 676.78 991.36 678.07C991.96 679.15 991.85 681.74 992.04 682.95C992.32 684.66 992.8 688.1 993.29 689.76C994.08 692.42 997.61 697.24 997.61 700.02" stroke="#3E5C6D" stroke-width="2" stroke-miterlimit="10"/>
<path d="M993.31 689.76C993.31 690.98 998.07 693.4 998.99 694.19C999.75 694.84 1001.65 695.58 1002.62 695.78C1003.73 696.01 1006.05 695.53 1007.16 695.78C1008.83 696.16 1013.34 697.02 1013.34 698.73" stroke="#3E5C6D" stroke-width="2" stroke-miterlimit="10"/>
<path d="M1000.58 700.02C1000.58 701.15 1003.85 700.96 1004.87 701.45C1006.17 702.08 1008.6 703.68 1009.67 704.63C1010.74 705.58 1013.35 707.53 1013.35 708.95" stroke="#3E5C6D" stroke-width="2" stroke-miterlimit="10"/>
<path d="M993.31 700.02V689.76" stroke="#3E5C6D" stroke-width="2" stroke-miterlimit="10"/>
<path d="M904.9 703.57L906.21 713.81L908.07 718.4C908.07 718.4 909.4 720.46 909.6 721.25C909.96 722.65 909.46 725.6 909.6 727.04C909.8 729.2 910.62 733.49 911.24 735.57C911.71 737.16 912.83 740.32 913.76 741.7C914.68 743.08 917.49 745.27 918.67 746.51C919.85 747.75 922.43 750.41 923.48 751.87C924.65 753.49 925.95 757.53 927.53 758.76C928.75 759.71 933.47 758.96 933.47 760.51" stroke="#3E5C6D" stroke-width="2" stroke-miterlimit="10"/>
<path d="M963.29 670.7V677.16C963.29 678.53 963.44 681.28 963.29 682.64C963.19 683.6 962.82 685.51 962.48 686.41C961.81 688.22 959.96 691.66 958.78 693.19C957.7 694.59 953.62 698.04 953.62 698.04L945.29 704.05L936.51 708.95L929.49 711.32H922.85" stroke="#3E5C6D" stroke-width="2" stroke-miterlimit="10"/>
<path d="M704.43 677.33L705.65 664.91L706.95 652.41L708.63 635.25C708.63 635.25 708.43 622.94 708.63 618.84C708.78 615.83 709.53 609.82 709.79 606.82C710.02 604.21 709.91 598.89 710.62 596.37C711.19 594.35 713.25 590.62 714.42 588.89C715.5 587.29 718.26 584.53 719.53 583.07C721.2 581.15 724.6 577.35 726.18 575.35C727.88 573.2 730.91 568.61 732.59 566.44C734.15 564.42 737.15 560.22 739.13 558.6C740.62 557.38 743.98 555.12 745.9 554.92C747.47 554.75 750.48 556.15 751.95 556.7C753.7 557.35 757.09 558.89 758.72 559.79C760.49 560.76 764.01 562.81 765.49 564.19C766.53 565.16 768.93 567.28 768.93 568.7" stroke="#3E5C6D" stroke-width="2" stroke-miterlimit="10"/>
<path d="M757.07 608.36C757.55 608.84 759.12 608.36 759.8 608.36C760.84 608.36 762.98 608.71 763.96 608.36C764.75 608.08 765.92 606.76 766.57 606.22C768.15 604.92 771.43 602.46 772.86 600.99C773.89 599.93 775.56 597.46 776.54 596.35C778 594.72 780.97 591.48 782.72 590.17C784.1 589.14 787.1 587.27 788.77 586.84C790.44 586.41 793.86 586.69 795.54 586.84C796.84 586.96 799.52 587.15 800.65 587.79C801.4 588.22 802.69 589.57 802.91 590.4C803.08 591.08 802.65 592.52 802.31 593.13C801.63 594.4 799.27 596.24 798.27 597.29C797.46 598.14 795.77 599.79 795.06 600.73C794.23 601.84 793.04 604.38 792.21 605.48C791.47 606.46 789.76 608.19 788.88 609.05C787.8 610.09 785.37 611.87 784.37 612.97C783.1 614.35 780.94 617.42 779.97 619.02C779 620.62 776.76 625.67 776.76 625.67L773.19 632.21L768.91 639.33L765.47 646.45L760.42 652.15L753.59 658.2L750.62 662.12L747.89 665.8L746.7 671.74L745.49 676.16" stroke="#3E5C6D" stroke-width="2" stroke-miterlimit="10"/>
<path d="M717.99 593.87C717.99 592.95 718.73 591.16 719.3 590.43C720.39 589.01 723.62 587.24 725.12 586.27C726.94 585.09 730.71 582.94 732.6 581.87C735.71 580.12 742.1 576.88 745.19 575.1C747.94 573.51 752.95 569.31 756 568.45C758.14 567.85 762.69 568.33 764.91 568.45C766.73 568.55 770.35 569.02 772.16 569.28C774.82 569.67 780.1 570.66 782.73 571.18C784.94 571.62 789.41 572.62 791.4 573.68C793.2 574.63 796.8 577.06 797.69 578.91C798.09 579.74 797.92 581.27 797.65 582.59C797.18 584.88 794.26 585.57 792.83 585.81C791.4 586.05 788.51 586.29 787.08 586.45C786.11 586.56 784.18 586.82 783.21 586.88C781.34 587 777.6 587.09 775.73 587C774.38 586.93 771.67 586.81 770.39 586.4C769.62 586.16 768.35 584.83 767.54 584.86C766.06 584.92 763.79 587.25 762.55 588.07C760.88 589.16 757.5 591.28 755.9 592.47C754.79 593.3 751.95 594.68 751.62 596.04C751.5 596.56 752.28 597.5 752.45 598C752.68 598.68 752.86 600.14 753.16 600.79C753.46 601.44 754.31 602.57 754.83 603.05C755 603.21 755.35 603.5 755.53 603.65C755.79 603.88 756.38 604.28 756.57 604.57C756.71 604.77 756.82 605.27 756.88 605.51C756.96 605.85 757.08 606.9 757.08 606.9L757.33 608.62C757.33 608.22 755.9 608.24 755.53 608.1C755.12 607.95 754.29 607.57 754.02 607.22C753.78 606.9 753.79 606.03 753.64 605.66C753.47 605.21 753.09 604.27 752.7 603.98C752.47 603.81 751.89 603.73 751.62 603.72C751.15 603.7 749.76 603.51 749.76 603.98" stroke="#3E5C6D" stroke-width="2" stroke-miterlimit="10"/>
<path d="M768.11 575.1C768.11 575.87 768.15 577.41 768.11 578.19C768.04 579.86 767.51 583.18 767.51 584.84" stroke="#3E5C6D" stroke-width="2" stroke-miterlimit="10"/>
<path d="M752.44 562.39V570.64" stroke="#3E5C6D" stroke-width="2" stroke-miterlimit="10"/>
<path d="M745.43 569.28V574.03" stroke="#3E5C6D" stroke-width="2" stroke-miterlimit="10"/>
<path d="M714.43 588.88C714.43 585.95 714.89 580.1 715.5 577.24C716.15 574.17 717.9 568.04 719.54 565.36C720.21 564.27 721.93 562.18 723.11 561.68C724.01 561.29 726.05 561.6 727.03 561.68C728.11 561.77 730.27 562.09 731.31 562.39C732.21 562.65 734.75 562.94 734.75 563.87" stroke="#3E5C6D" stroke-width="2" stroke-miterlimit="10"/>
<path d="M707.89 612.99C707.89 611.34 705.42 608.68 704.53 607.29C703.39 605.5 700.49 602.25 699.7 600.28C699.14 598.88 698.71 595.84 698.75 594.34C698.78 593.22 699.06 590.87 699.7 589.94C700.34 589.01 702.39 588.11 703.32 587.57C704.63 586.81 707.32 585.42 708.73 584.84C710.25 584.21 714.99 584.44 714.99 582.8" stroke="#3E5C6D" stroke-width="2" stroke-miterlimit="10"/>
<path d="M797.62 598C797.62 596.78 794.31 595.66 793.38 594.86C792.75 594.32 791.38 593.22 791.13 592.43C791 592.02 791.18 591.11 791.37 590.71C791.63 590.16 792.54 589.29 793.03 588.93C793.89 588.3 796.86 588.15 796.86 587.09" stroke="#3E5C6D" stroke-width="2" stroke-miterlimit="10"/>
<path d="M793.82 586.28C793.82 584.77 797.92 584.35 799.31 583.77C800.2 583.4 802.02 582.77 802.92 582.42C804 582 806.38 581.47 807.22 580.67C807.92 580.01 808.49 578.08 808.88 577.2C809.51 575.77 810.67 572.85 811.25 571.39C811.73 570.18 812.47 567.64 813.15 566.53C814.15 564.91 816.78 562.07 818.24 560.84C819.58 559.72 822.67 558.06 824.16 557.16C826.51 555.76 831.28 553.09 833.64 551.71C835.13 550.84 837.93 548.7 839.56 548.15C840.58 547.81 842.76 547.55 843.82 547.68C845.2 547.85 847.79 548.95 849.04 549.58C850.29 550.21 852.66 552.02 853.9 552.78C854.57 553.19 855.95 553.92 856.63 554.32C858.34 555.32 861.67 557.48 863.38 558.47C865.42 559.65 869.65 561.76 871.68 562.97C872.84 563.66 875.15 565.07 876.18 565.93L878.14 568.16L879.09 570.39" stroke="#3E5C6D" stroke-width="2" stroke-miterlimit="10"/>
<path d="M855.1 575.55C855.1 573.18 848.99 571.9 847.04 570.57C845.82 569.73 843.55 567.8 842.3 567.01C841.43 566.46 839.63 564.87 838.62 565.11C838.02 565.26 837.66 566.72 837.2 567.13C835.89 568.27 832.7 569.83 831.04 570.33C829.93 570.66 827.58 570.74 826.42 570.8C825.71 570.84 824.08 570.3 823.57 570.8C823.21 571.16 823.66 572.32 823.57 572.82C823.36 574 821.91 576.12 821.91 577.32V578.61L815.05 578.97L811.51 579.44L807.22 580.67" stroke="#3E5C6D" stroke-width="2" stroke-miterlimit="10"/>
<path d="M865.65 603.64C865.65 602.32 862.2 601.65 861.03 601.03C859.23 600.08 855.42 598.55 853.68 597.47C851.69 596.24 848.1 593.22 846.26 591.78C844.64 590.52 841.47 587.91 839.82 586.69C838.17 585.47 834.89 582.95 833.07 582.01C831.64 581.27 828.58 580.23 827.02 579.82C825.46 579.41 822.07 578.69 820.38 578.63C818.69 578.57 815.29 578.7 813.74 579.34C812.79 579.74 811.18 581.14 810.54 581.95C809.95 582.7 808.84 584.43 808.88 585.38C808.9 585.96 809.65 586.98 810.07 587.4C810.63 587.97 812.11 588.64 812.8 589.06C813.66 589.58 815.43 590.53 816.23 591.13C817.16 591.83 818.71 593.61 819.66 594.27C821.22 595.35 824.87 596.61 826.41 597.7C827.41 598.42 829.06 600.3 829.97 601.13C831.63 602.67 834.88 605.86 836.72 607.18C837.91 608.02 840.62 609.19 841.81 610.03C843 610.87 845.28 612.72 846.23 613.82C847.37 615.12 849.09 618.15 849.98 619.63C850.82 621.03 853.18 625.32 853.18 625.32L857.44 632.07L863.25 635.86L870.13 641.08L878.54 648.19L890.04 656.73L895.61 661.71L901.66 668.94L908.06 677.24L912.45 682.93C912.45 682.93 914.01 686.79 914.01 688.16" stroke="#3E5C6D" stroke-width="2" stroke-miterlimit="10"/>
<path d="M858.07 599.65C858.07 598.65 859.61 595.13 859.84 594.16C860.07 593.19 859.98 591.31 859.84 590.37C859.73 589.61 859.3 588.1 858.95 587.41C858.51 586.55 857.17 585.12 856.64 584.33C855.71 582.95 853.65 580.24 853.21 578.64C852.96 577.73 853.09 574.26 853.09 573.31" stroke="#3E5C6D" stroke-width="2" stroke-miterlimit="10"/>
<path d="M891.33 658.08C891.33 659.4 889.5 661.58 888.75 662.66C888.2 663.45 886.77 664.8 886.26 665.62C885.49 666.86 884.19 669.53 883.89 670.95C883.59 672.37 883.82 675.13 883.89 676.52C883.96 678.06 883.77 681.31 884.48 682.68C884.92 683.53 887.38 685.17 887.38 685.17L892.89 686.59C892.89 686.59 898.34 688.55 900.24 688.84C902.14 689.13 908.06 688.84 908.06 688.84C908.06 688.84 915.04 688.59 917.19 687.77C919.34 686.95 922.77 684.15 924.42 682.68C926.07 681.21 929.18 677.69 930.47 675.8C931.76 673.91 934.86 667.26 934.86 667.26L936.52 658.85L935.57 652.21L932.19 647.54" stroke="#3E5C6D" stroke-width="2" stroke-miterlimit="10"/>
<path d="M859.84 550.55C859.84 551.25 859.76 552.8 859.25 553.28C858.74 553.76 856.64 553.64 856.64 554.35" stroke="#3E5C6D" stroke-width="2" stroke-miterlimit="10"/>
<path d="M817.67 578.9C817.67 579.91 820.55 580.94 821.27 581.65C821.8 582.17 822.7 583.41 822.92 584.12C823.17 584.95 823.19 586.78 822.92 587.6C822.67 588.38 821.63 589.74 821 590.26C820.37 590.78 817.35 591.29 817.35 592.14" stroke="#3E5C6D" stroke-width="2" stroke-miterlimit="10"/>
<path d="M833.18 600.44C833.18 599.87 833.84 598.8 834.28 598.42C834.72 598.04 836.39 598.27 836.39 597.71" stroke="#3E5C6D" stroke-width="2" stroke-miterlimit="10"/>
<path d="M830.62 596.41C830.62 595.9 832.27 595.73 832.27 595.22" stroke="#3E5C6D" stroke-width="2" stroke-miterlimit="10"/>
<path d="M824.16 557.18C824.16 555.52 824.2 552.18 824.49 550.54C824.67 549.53 825.11 547.45 825.71 546.61C826.39 545.66 828.5 544.48 829.51 543.9C830.6 543.27 833.08 542.57 834.12 541.86C835.1 541.21 837.51 538.61 837.51 538.61L840.22 536.3L844.56 535.35L852.1 537.58" stroke="#3E5C6D" stroke-width="2" stroke-miterlimit="10"/>
<path d="M788.5 603.93C788.5 603.22 790.41 602.85 791.13 602.82C791.73 602.8 793.4 602.97 793.4 603.56" stroke="#3E5C6D" stroke-width="2" stroke-miterlimit="10"/>
<path d="M748.68 593.08C748.68 593.49 748.74 594.38 748.99 594.71C749.43 595.29 751.6 595.27 751.6 596" stroke="#3E5C6D" stroke-width="2" stroke-miterlimit="10"/>
<path d="M712.28 593.17C712.28 592.58 710.8 592.21 710.29 591.91C710.05 591.77 709.5 591.6 709.32 591.4C709.17 591.24 708.93 590.82 709 590.61C709.04 590.48 709.33 590.34 709.46 590.33C709.82 590.32 710.44 590.81 710.76 590.98C711.28 591.25 712.79 591.51 712.79 592.09" stroke="#3E5C6D" stroke-width="2" stroke-miterlimit="10"/>
<path d="M758.65 688.4L754.65 682.21C754.65 682.21 751.55 678.27 750.14 677.44C747.99 676.17 740.46 674.99 740.46 674.99C740.46 674.99 734.19 673.69 732.08 673.57C729.05 673.4 719.96 674.22 719.96 674.22C719.96 674.22 713.15 674.63 710.93 675.12C708.83 675.59 702.8 677.96 702.8 677.96C702.8 677.96 696.32 681.35 694.42 682.86C693.79 683.35 692.51 684.43 692.23 685.18C692.05 685.68 692.23 687.31 692.23 687.31V692.54L693.39 698.99V701.96L692.23 707.77C692.23 707.77 691.44 709.97 691.33 710.74C691.15 711.98 691.33 715.77 691.33 715.77L690.3 721.83V725.7L690.98 726.15C690.98 726.15 692.63 726.3 693.16 726.15C694.11 725.88 695.68 724.56 696.54 724.05C697.63 723.42 699.77 722.04 700.96 721.63C702.33 721.16 705.24 720.89 706.67 720.74C708.26 720.58 713.03 720.42 713.03 720.42L720.84 720.58L728.89 721.31L737.99 723.41C737.99 723.41 745.7 726.28 748.29 727.19C749.37 727.57 751.64 728.09 752.63 728.64C753.54 729.14 756.87 731.83 756.87 731.83" stroke="#3E5C6D" stroke-width="2" stroke-miterlimit="10"/>
<path d="M755.81 690.99C755.81 690.99 754.01 687.71 753.23 686.73C752.45 685.75 749.62 683.24 749.62 683.24C749.62 683.24 744.96 679.85 743.17 679.24C740.44 678.31 731.69 678.08 731.69 678.08C731.69 678.08 722.78 677.91 719.82 678.08C717.13 678.24 711.7 678.6 709.11 679.37C706.76 680.06 700.21 683.5 700.21 683.5L695.44 687.31" stroke="#3E5C6D" stroke-width="2" stroke-miterlimit="10"/>
<path d="M754.8 660.84L756.95 666.76L759.88 671.84L762.19 678.08L766.23 689.48C766.23 689.48 766.83 692.01 767.42 692.59C768.32 693.47 770.92 694.07 772.16 694.29C774.7 694.73 779.9 694.58 782.46 694.29C786.09 693.88 793.14 691.76 796.71 690.99C800.28 690.22 807.53 688.92 811.1 688.09C814.41 687.31 821.02 685.68 824.22 684.55C828.29 683.11 840.03 677.58 840.03 677.58L849.63 673.58L863.74 669.04L873.76 666.5L880.11 665.51C880.11 665.51 880.31 668.28 880.11 669.18C879.86 670.32 878.69 672.39 878.14 673.42C877.03 675.46 874.59 679.45 873.2 681.32C870.64 684.78 864.82 691.14 861.91 694.3C859.48 696.94 851.89 704.6 851.89 704.6L845.4 715.6L835.8 729.57L824.8 750.46" stroke="#3E5C6D" stroke-width="2" stroke-miterlimit="10"/>
<path d="M766.23 689.49L777.09 690.05H783.87L794.45 687.94L802.92 685.68L815.34 680.74L829.03 675.71L838.06 672.28L847.23 669.31L861.32 665.22L870.79 663.24" stroke="#3E5C6D" stroke-width="2" stroke-miterlimit="10"/>
<path d="M880.11 665.5C880.11 664.26 878.41 660.84 878.41 660.84L876.86 656.89L874.46 649.5L873.94 644.3" stroke="#3E5C6D" stroke-width="2" stroke-miterlimit="10"/>
<path d="M965.88 683.56C965.88 682.29 965.94 679.73 965.88 678.46C965.81 677.06 965.95 674.15 965.36 672.88C965.05 672.2 963.85 671.22 963.29 670.71C961.63 669.18 956.26 665.03 956.26 665.03L951.09 659.86L946.24 656.66L942.21 652.32L939.21 649.52L938.07 650.77V655.52L938.59 661.1L937.35 669.37L934.15 676.92L929.5 682.09C929.5 682.09 925.4 687.2 923.61 688.39C922.07 689.42 918.44 690.51 916.65 690.97C914.69 691.48 910.65 692.16 908.62 692.21C906.72 692.25 901.07 691.38 901.07 691.38" stroke="#3E5C6D" stroke-width="2" stroke-miterlimit="10"/>
<path d="M939.21 649.5L936.88 647.54L935.17 646.46H932.65H931.15" stroke="#3E5C6D" stroke-width="2" stroke-miterlimit="10"/>
<path d="M784.39 580.68C784.39 581.27 784.48 582.45 784.39 583.03C784.24 584.02 783.2 585.85 783.2 586.86" stroke="#3E5C6D" stroke-width="2" stroke-miterlimit="10"/>
<path d="M932.18 647.55L929.49 644.76L925.3 640.67L920.33 635.55L915.56 629.5L911.99 621.74C911.99 621.74 908.92 612 907.69 608.82C906.39 605.47 903.21 599 901.82 595.69C900.58 592.74 898.48 586.68 897.07 583.81C895.26 580.13 891.06 573.04 888.69 569.68C887 567.29 883.04 562.95 881.19 560.68C878.36 557.22 872.42 550.5 869.99 546.74C868.99 545.19 867.79 541.59 866.61 540.17C866 539.43 863.59 537.8 863.59 537.8L859.84 536.08H856.52L852.39 536.97C852.39 536.97 850.76 540.71 850.18 541.95C849.37 543.68 846.83 546.9 846.83 548.81" stroke="#3E5C6D" stroke-width="2" stroke-miterlimit="10"/>
<path d="M823.58 570.81L822.63 569.48L822.06 568.04V566.6" stroke="#3E5C6D" stroke-width="2" stroke-miterlimit="10"/>
<path d="M838.62 565.12C838.62 565.12 838.16 563.43 838.14 562.86C838.13 562.41 838.31 561.51 838.38 561.06C838.43 560.77 838.62 560.2 838.62 559.91" stroke="#3E5C6D" stroke-width="2" stroke-miterlimit="10"/>
<path d="M867.6 669.27C873.78 688.84 869.85 709.53 870.97 729.62C871.5 739.18 872.93 749.4 878.01 757.72C882.04 764.33 888.36 769.07 895.52 771.87C902.68 774.67 911.01 775.54 918.79 774.52C927.08 773.43 936.34 770.27 939.78 761.9C941.2 758.44 941.29 754.38 939.38 751.09C937.84 748.43 935.22 746.58 932.37 745.57C926 743.31 919 745.45 915.21 751.07C911.05 757.25 911.4 765.92 915.01 772.26C919.19 779.58 926.89 784.16 934.75 786.59C944.68 789.67 955.3 789.84 965.52 791.42C975.97 793.03 986.48 795.16 997.11 794.34C1016.13 792.88 1032.81 783.33 1050.8 778.02C1063.37 774.31 1077.4 772.48 1090.22 776.03C1096.38 777.74 1102.11 780.84 1106.55 785.49C1108.98 788.04 1110.96 790.98 1112.51 794.13C1114.49 798.16 1115.18 802.59 1116.84 806.73C1118.5 810.87 1121.35 813.92 1125.05 816.42C1128.75 818.92 1132.69 821.11 1136.31 823.79C1143.63 829.21 1150.15 835.78 1155.54 843.12C1158.14 846.66 1160.47 850.38 1162.55 854.25C1163.31 855.67 1165.47 854.41 1164.71 852.99C1156.58 837.86 1144.44 825.37 1129.79 816.46C1126 814.15 1122.15 811.78 1120.02 807.73C1117.89 803.68 1117.41 799.28 1115.71 795.2C1113.2 789.15 1109.19 783.81 1103.94 779.87C1093.84 772.32 1080.46 770.87 1068.25 772.05C1061.88 772.66 1055.58 773.96 1049.46 775.81C1041.29 778.28 1033.42 781.72 1025.42 784.69C1016.45 788.02 1007.2 790.99 997.62 791.8C987.32 792.67 977.14 790.73 967.01 789.14C956.88 787.55 946.99 787.32 937.33 784.74C929.45 782.63 921.5 778.44 917.26 771.19C913.67 765.06 913.53 756.16 918.6 750.76C922.84 746.25 930.55 745.97 935.24 750.02C937.9 752.33 938.85 755.77 938.02 759.18C936.98 763.48 933.77 766.73 929.94 768.74C922.89 772.45 913.88 773.08 906.1 772.02C898.75 771.02 891.46 768.2 885.86 763.25C879.13 757.3 876.08 748.87 874.59 740.22C871.28 721.03 875.19 701.47 872.85 682.2C872.29 677.58 871.38 673.03 869.98 668.59C869.5 667.06 867.08 667.71 867.57 669.25L867.6 669.27Z" fill="#D55845"/>
<path d="M531.71 437.95C531.66 437.62 525.46 434.64 516.14 438.31C509.52 440.92 507.36 432.21 500.11 435.96C496.49 437.83 492.92 437.06 491.14 438.72C483.51 437.41 478 440.35 474.47 441.25C468.69 442.73 464.14 445.35 458.24 448.75C450.84 453.01 451.75 453.55 448.55 454.72C439.24 458.12 429.76 454.24 425.49 452.49C423.89 451.83 419.33 449.17 410.21 443.85C402.96 439.62 401.85 438.83 399.09 438.09C397.69 437.71 386.76 434.92 381.95 440.49C379.56 443.26 381.29 445.09 378.64 448.3C375.56 452.03 372.37 450.6 367.7 454.83C366.5 455.92 362.99 459.1 363.63 462.03C364.13 464.36 367.05 465.58 369.04 466.28C417.54 483.18 447.09 469.21 447.09 469.21C456.9 464.57 453.81 463.71 466.25 456.82C499.72 438.3 531.81 438.68 531.71 437.97V437.95Z" fill="#B4AEAE"/>
<path d="M237.2 417.49C233.64 417.03 230.18 415.37 230.18 415.37C229.4 415 226.66 413.63 222.5 409.7C220.16 407.49 217.04 404.13 213.95 399.42C220.93 396.24 225.43 392.36 228.31 389.29C232.11 385.24 232.54 383.18 237.77 376.46C239.47 374.27 243.78 368.78 249.28 363.73C254.1 359.3 258.97 356.4 268.71 350.59C275.28 346.67 281.64 342.4 288.19 338.46C292.75 335.72 296.82 333.34 296.49 330.97C296.09 328.14 289.88 328.43 289.47 326.05C288.65 321.31 312.44 313.98 324.53 311.06C326.15 310.67 331.3 309.48 337.87 310.24C340.39 310.53 349.61 311.61 350.28 315.25C350.85 318.33 344.61 319.43 338.8 328.04C335.7 332.64 333.9 337.62 333.24 339.49C331.26 345.07 331.8 346.32 329.82 350.27C328.31 353.28 325.72 358.43 321.33 359.34C317.83 360.07 316.54 357.41 311.8 356.59C306.48 355.68 302.05 357.98 297.5 360.43C288.56 365.24 283.06 371.83 281.61 373.61C261.01 398.79 246.62 418.7 237.22 417.48L237.2 417.49Z" fill="#455C6C"/>
<path d="M218.09 427.43C218 425.28 227.92 425.74 239.29 418.45C241.61 416.97 246.58 413.5 256.81 399.88C272.5 379 269.96 374.97 279.51 366.7C289.52 358.02 300.44 355.41 307.48 353.72C321.41 350.39 333.15 351.72 333.29 352.98C333.42 354.14 323.55 354.35 321.39 360.23C320.35 363.07 322 364.79 322.51 369.15C323.35 376.3 319.75 378.98 317.44 387.6C316.47 391.22 312.74 405.08 318.99 411.43C323.63 416.15 331.98 414.88 333.33 414.67C340.27 413.61 341.32 409.7 346.7 409.9C349.24 409.99 350.43 410.91 359.67 417.41C371.31 425.59 373.84 427.23 376.74 426.37C380.11 425.37 380.01 422.17 384.23 420.7C385.47 420.27 388.68 419.43 394.55 421.91C402.31 425.19 406.01 430.61 410.23 434.94C417.43 442.34 429.82 450.42 441.19 450.02C451.14 449.66 452.07 443.1 464.56 438.14C486.43 429.46 509.12 439.42 509.02 440.27C508.95 440.9 496.43 436.52 480.83 441.66C470.54 445.05 468.34 449.47 459.31 453C455.96 454.31 440.91 459.3 425.73 453.56C422.64 452.39 415.37 448.75 400.84 441.48C397.29 439.7 393.36 437.71 389.72 439.28C384.97 441.32 385.58 447.29 381.35 449.62C376.35 452.36 371.72 446.14 362.71 443.67C348.45 439.76 344.43 451.07 323.78 449.54C318.1 449.12 310.29 448.45 303.39 443.12C300.97 441.25 299.71 439.62 294.39 434.88C290.04 431.01 286.32 428.04 283.8 426.09C280.31 427.71 275.27 429.7 268.97 430.98C262.91 432.21 257.79 432.36 250.96 432.13C246.91 431.99 218.26 431.03 218.1 427.38L218.09 427.43Z" fill="#3E5C6D"/>
<path d="M345.31 315.1C348.57 314.56 350.16 317.17 354.94 315.96C357.83 315.23 358.99 313.82 363.38 310.48C370.04 305.42 373.37 302.9 375.88 302.95C379.55 303.04 380.14 306.03 388.94 313.35C394.24 317.77 396.89 319.97 400.7 321.63C408.16 324.87 411.08 322.61 417.06 326.43C420.88 328.87 420.07 330.04 424.72 334C433.4 341.41 440.46 340.96 440.5 343.92C440.55 347.27 431.56 351.02 424.58 352.15C424.46 352.17 424.38 352.18 424.33 352.19C423.61 352.3 413.62 353.74 407.26 349.88C400.98 346.07 403.64 340.38 397.51 336.6C391.82 333.09 384.95 335.17 383.48 335.61C376.27 337.78 375.41 342.53 368.29 347.94C356.53 356.87 345.14 354.35 344.85 357.77C344.53 361.43 357.41 366.24 368.26 368.04C374.36 369.06 388.14 371.18 403.58 365.21C414.57 360.96 422.47 354.75 424.46 356.81C426.04 358.44 421.89 363.75 419.57 368.4C417.14 373.26 414.41 378.7 409.47 382.41C403.24 387.09 400.88 383.47 389.48 387.05C378.84 390.39 376.76 394.85 360.8 400.6C358.43 401.46 356.47 402.08 355.23 402.46C356.24 403.04 357.7 403.93 359.42 405.07C370.12 412.2 379.03 421.83 377.64 424.06C376.92 425.22 374.08 423.28 370.32 425.16C367.73 426.46 367.96 427.94 366.31 428.82C360.95 431.65 352.94 418.92 337.32 415.16C335.35 414.68 333.72 414.47 332.79 414.36C330.8 415.87 325.05 419.79 316.98 419.68C315.3 419.66 307.36 419.54 303.26 415.11C297.27 408.64 299.23 392.72 311.03 377.98C310.36 377.94 308.24 377.74 306.37 376.02C306.26 375.92 303.68 373.49 303.86 370.7C304.08 367.18 308.52 365.65 314 361.73C314 361.73 317.3 359.37 324.73 351.53C338.88 336.59 336.61 316.52 345.29 315.08L345.31 315.1Z" fill="#6A6461"/>
<path d="M383.52 309.48C381 307.68 380.35 305.53 389.1 301.66C396 298.61 395.81 296.65 399.27 296.08C405.32 295.08 412.42 300.11 417.44 299.35C429.71 297.47 428.89 297.59 435.82 299.04C442.31 300.4 447.49 301.57 451.38 303.41C458.05 306.56 461.39 308.14 463.62 311.92C466.91 317.5 464.1 321.47 468.35 329.22C469.33 331.02 470.47 332.42 472.73 335.21C477.64 341.27 480.87 343.73 484.47 347.38C490.64 353.65 495.05 358.13 496.88 365.12C497.12 366.02 499.78 376.8 494.28 384.87C491.47 388.99 489.95 387.39 484.8 393.29C480.41 398.31 479.77 401.46 475.07 404.42C473.51 405.4 469.88 407.68 467.85 406.31C466.36 405.3 466.38 402.78 467.01 395.73C467.66 388.45 468.26 384.17 468.69 380.08C469.62 371.05 470.06 366.48 468.35 363.38C465.78 358.72 460.7 356.59 458.62 355.73C453.42 353.56 452.14 355.28 448.53 353.09C443.51 350.04 444.88 346.04 440.17 343.21C435.48 340.4 433.1 343.74 427.98 340.69C424.29 338.49 424.69 336.24 420.04 333.47C418.7 332.67 417.35 332.07 412.66 330.69C405.75 328.65 402.79 328.21 400.49 327.53C390.2 324.49 386.97 311.96 383.51 309.49L383.52 309.48Z" fill="#C2ACB1"/>
<path d="M355.52 402.87C357.35 393.29 378.92 385.53 386.93 384.75C387.46 388.16 390.4 397.74 392.45 403.03C394.65 408.72 399.15 417.91 407.65 425.93C411.21 429.29 423.02 437.37 436.74 442.44C438.67 443.15 445.85 447.72 445.99 449.23C446.11 450.54 444.01 455.44 436.03 453.26C428.05 451.08 430.35 450.35 428.03 451.08C426.82 451.46 419.19 446.04 412.82 443.11C409.42 441.55 404.59 441.07 399.11 438.07C392.85 434.64 387.74 436.87 383.38 433.87C372.56 426.43 353.53 413.39 355.53 402.87H355.52Z" fill="#C2ACB1"/>
<path d="M387.03 387.58C388.28 385.7 388.56 386.41 399.27 381.32C407.59 377.37 412.64 376.25 414.01 374.38C416.48 370.99 419.02 369.56 419.59 368.43C420.5 366.61 418.58 370.41 420.63 377.01C422.12 381.79 422.14 380.92 423.05 382.61C424.86 385.97 422.62 385.64 422.39 387.5C422.26 388.53 421.72 389.29 418.08 392.37C412.94 396.7 411.75 397.09 410.44 399.33C409.82 400.39 408.27 403.06 409.01 405.55C409.99 408.85 414.47 410.01 417.74 410.95C425.31 413.12 432.49 416.55 439.95 419.06C455.03 424.14 458.44 426.39 462.71 424.11C463.59 423.64 463.21 423.67 470.19 418.19C474.77 414.6 477.06 412.8 477.72 412.52C483.97 409.87 486.89 414.81 494.81 413.1C499.21 412.15 502.31 409.76 505.51 407.28C510.33 403.56 509.98 402.06 515.08 397.65C519.81 393.57 523.25 390.61 528.1 390.39C533.51 390.15 537.69 393.44 540.22 395.43C544.67 398.93 546.81 403.07 547.8 405.02C549.76 408.9 550.54 412.46 550.89 414.82C552.05 420.54 551.4 424.1 549.64 425.26C547.28 426.81 546.71 430.19 541.06 434.31C536 438 536.87 436.09 532.75 437.82C526.53 440.44 523.07 436.23 516.06 438.64C509.69 440.83 510.97 438.31 507.92 437.2C504.92 436.11 502.14 438.18 498.95 437.22C495.93 436.31 494.18 434.8 490.62 435.6C485.51 436.75 482.51 436.03 477.09 435.9C464.32 435.6 457.7 451.33 439.6 448.98C435.85 448.49 433.43 441.62 432.65 441.41C432.65 441.41 423.9 437.58 417.14 433.73C403.91 426.21 380.73 397.02 387.03 387.56V387.58Z" fill="#3E5C6D"/>
<path d="M417.51 370.56C417.57 367.21 421.49 367.42 422.95 360.93C423.77 357.3 425.21 355.81 426.3 353.69C429.14 348.15 441.9 342.31 442.34 342.86C448.48 350.55 447.58 350.69 449.48 351.84C452.37 353.6 464 354.88 468.09 359.69C469.33 361.14 471.11 368.2 470.7 375.34C470.5 378.84 468.7 379.5 467.61 389.64C467.12 394.26 466.04 406.21 467.85 406.31C470.75 406.46 477.62 402.68 479.03 401.02C481.72 397.85 480.29 397.71 487.25 390.77C489.78 387.38 493.04 387.02 494.28 384.87C496.21 381.51 495.28 383.6 496.55 380.24C497.73 377.1 497.01 374.53 497.73 370.47C497.86 369.73 506.22 374.13 507.06 373.46C508.47 372.34 511.14 373.05 512.77 374.23C515.94 376.53 515.23 380.67 516.61 384.27C518.01 387.94 517.29 387.92 528.11 390.39C517.31 395.71 517.86 404.23 516.24 407.41C515.97 407.95 514.67 410.59 512.03 413.11C510.58 414.49 508.96 416.04 506.59 416.46C504.66 416.8 504.1 416.06 499.63 415.02C497.28 414.48 495.08 413.97 492.66 413.96C488.72 413.95 485.71 415.26 484.7 415.72C478.25 418.62 478.65 422.83 473.27 424.83C470.6 425.82 468.32 425.53 463.75 424.96C460.62 424.57 457.03 426.94 450.29 424.44C436.26 419.23 438.12 418.63 432.74 416.39C428.73 414.71 425.52 414.72 421.6 412.24C419.99 411.22 410.9 410.82 408.98 405.53C408.57 404.39 404.75 403.42 415.52 393.21C421.2 387.82 421.24 389.71 421.3 388.02C421.52 381.89 417.36 377.21 417.48 370.55L417.51 370.56Z" fill="#455C6C"/>
<path d="M352.32 320.3C351.42 320.26 352.32 320.23 345.6 318.79C332.05 315.89 329.57 316.27 326.69 313.5C324.1 311 321.97 306.68 322.86 302.61C323.95 297.61 329.13 295.12 330.51 294.52C340.88 290.01 349.5 300.03 358.33 294.9C359.67 294.12 361.32 292.82 364.9 290.96C368.8 288.94 370.75 287.93 372.88 287.7C377.61 287.19 378.44 289.97 384.08 289.57C386.35 289.41 386.52 288.93 389.94 288.65C392.56 288.44 394.63 288.27 396.86 288.82C400.7 289.77 400.25 291.68 404.28 293.3C407.4 294.55 410.35 294.49 415.24 294.38C416.95 294.34 418.2 294.23 419.66 294.1C425.83 293.54 430.45 292.57 430.94 292.47C438.76 290.91 471.6 297.83 489.43 321.63C498.65 333.95 502.75 343.89 502.75 343.89C503.61 345.97 504.84 349.21 507.23 353.53C510.47 359.36 512.46 362.94 516.11 366.01C521.98 370.94 525.35 368.84 533.1 374.84C535.86 376.98 537.98 378.66 539.45 381.78C541.71 386.56 542.1 393.89 538.26 397.43C536.87 398.72 534.65 399.75 532.4 400.08C532.09 400.12 531.05 400.26 529.16 400.08C527.18 399.89 523.59 399.54 520.21 397.32C517.3 395.41 515.8 392.95 514.65 391.05C511.76 386.3 512.58 384.11 509.81 381.77C509.61 381.6 506.34 378.9 503.76 380.01C502.2 380.69 501.98 382.3 500.73 384.82C499.91 386.46 496.92 392.48 492.55 393.45C488.65 394.32 483.61 391.18 483.44 388.29C483.28 385.56 487.58 385.12 490.46 379.51C492.38 375.77 492.4 372.2 492.4 370.98C492.4 369.57 492.22 365.66 489.98 361.7C489.39 360.65 487.88 358.98 484.9 355.68C481.84 352.3 480.32 350.61 479.58 349.91C474.96 345.54 473.38 345.76 471.11 342.39C469.53 340.03 470.24 339.82 468.45 336.87C466.6 333.81 464.94 332.56 461.43 329.09C457.23 324.94 455.13 322.87 454.17 321.31C451.29 316.63 452.84 314.93 449.33 308.02C446.93 303.27 445.17 302.03 444.25 301.5C442.37 300.4 441.71 300.91 437.23 300C431.1 298.74 430.69 299.07 427.18 299.09C423.66 299.11 423.97 298.8 419.56 299.25C415.77 299.64 412.76 298.98 409.4 298.25C403.81 297.03 404.39 296.21 401.66 295.99C399.06 295.78 395.75 302.98 386.83 306.21C381.83 308.02 383.91 306.21 377.7 307.28C359.61 310.39 358.56 320.57 352.3 320.32L352.32 320.3Z" fill="#C5C2C3"/>
<path d="M342.53 357.25C343.52 355.01 347.23 355.38 350.96 354.86C356.53 354.08 360.53 351.53 362.92 350.01C365.88 348.12 368.6 345.36 374.04 339.83C376.54 337.29 377.75 335.9 380.18 334.59C380.97 334.16 384.01 332.6 388.27 332.47C391.05 332.38 394.49 332.27 397.53 334.66C399.74 336.39 401.78 339.47 402.69 342.27C402.88 342.86 403.19 343.95 403.94 345.3C403.94 345.3 404.97 347.13 406.53 348.55C410.6 352.27 427.84 347.39 429.6 351.25C430.41 353.02 428.09 356.97 425.96 357.25C425.28 357.34 424.98 357 424.14 356.86C421.66 356.44 419.44 358.55 418.69 359.21C417.16 360.56 412.33 362.75 402.66 367.14C395.58 370.35 389.51 370.72 383.63 371.08C376.42 371.52 370.65 370.36 359.1 368.06C351.17 366.48 357.3 367.1 345.79 362.72C345.02 362.43 343.14 361.72 342.51 359.94C342.49 359.88 342.01 358.46 342.54 357.27L342.53 357.25Z" fill="#455C6C"/>
<path d="M-3.06 136.02C18.91 143.76 42.15 147.77 65.44 148C88.71 148.23 112.06 144.71 134.17 137.41C143.83 134.22 153.62 130.44 161.82 124.28C169.14 118.78 175.34 111.23 176.52 101.89C177.03 97.88 176.6 93.65 174.7 90.04C172.52 85.88 168.5 83.42 163.98 82.47C158.96 81.41 153.6 81.36 148.49 81.36C143.38 81.36 138.63 81.68 133.77 82.49C124.31 84.07 115.03 87.82 108.29 94.83C101.37 102.03 97.92 111.68 96.24 121.36C94.33 132.32 94.22 143.63 94.29 154.73C94.37 167.19 95.14 179.65 96.59 192.03C98.04 204.41 100.09 216.39 102.83 228.39C105.23 238.94 108.02 249.45 111.92 259.55C118.93 277.69 130.07 294.96 148.22 303.45C167.62 312.52 189.75 310.9 210.57 312.18C221.18 312.83 231.67 314.32 241.73 317.88C251.69 321.41 261.08 326.68 269.27 333.37C273.25 336.62 276.94 340.19 280.33 344.05C281.39 345.26 283.16 343.49 282.1 342.28C268.7 327.05 250.33 316.27 230.46 312.13C210.05 307.88 189 310.36 168.5 306.92C158.56 305.25 148.89 302.02 140.61 296.14C132.97 290.72 126.91 283.35 122.18 275.33C117.45 267.31 113.7 258 110.83 248.82C107.46 238.07 104.89 227.03 102.78 215.97C98.24 192.22 96.28 167.98 96.9 143.81C97.39 124.77 99.11 101.8 117.25 90.89C125.49 85.93 135.28 84.25 144.77 83.92C149.62 83.75 154.5 83.9 159.33 84.32C164.16 84.74 169.28 86 172.04 90.4C176.55 97.6 173.73 107.27 169.09 113.63C163.31 121.54 154.51 126.69 145.65 130.49C135.61 134.8 124.96 137.91 114.32 140.32C103.68 142.73 92.07 144.41 80.79 145.1C58.19 146.49 35.39 144.3 13.5 138.5C8.15 137.08 2.85 135.44 -2.37 133.6C-3.89 133.06 -4.54 135.48 -3.03 136.01L-3.06 136.02Z" fill="#D55845"/>
</g>
<defs>
<clipPath id="clip0_311_94">
<rect width="1221.7" height="838.6" fill="white"/>
</clipPath>
</defs>
</svg>
