<svg width="1222" height="839" viewBox="0 0 1222 839" fill="none" xmlns="http://www.w3.org/2000/svg">
<path d="M539.14 411.44C547.34 411.6 555.57 412.81 563.63 414.24C573.15 415.92 582.76 418.04 591.8 421.55C595.1 422.83 598.48 424.33 601.29 426.51C605.75 429.98 608.76 435.26 611.13 440.28C616.16 450.92 619.06 463 627.7 471.52C632.15 475.91 637.73 478.4 643.95 478.98C650.61 479.6 657.31 478.32 663.9 477.53C676.3 476.05 689.03 474.99 701.45 476.84C713.64 478.66 725.28 483.58 733.73 492.79C735.89 495.14 737.79 497.71 739.41 500.45C741.19 503.45 742.56 506.67 744.17 509.76C746.79 514.81 750.36 519.13 754.71 522.79C763.23 529.96 773.51 534.55 782.42 541.15C787.18 544.68 791.34 548.88 794.59 553.85C798.15 559.3 800.65 565.35 802.46 571.59C803.32 574.56 804.02 577.58 804.61 580.62C804.92 582.2 807.33 581.53 807.02 579.96C804.6 567.46 800.07 554.86 791.16 545.48C783.34 537.26 772.91 532.33 763.55 526.19C758.93 523.16 754.51 519.78 750.94 515.53C746.69 510.48 744.66 504.19 741.25 498.63C734.7 487.91 724.24 480.4 712.31 476.71C700.38 473.02 687.53 472.94 675.15 473.89C668.72 474.39 662.34 475.26 655.94 476.02C649.12 476.83 641.76 477.34 635.45 474.11C624.63 468.58 620.37 455.98 616.09 445.47C613.74 439.71 611.18 433.98 607.28 429.08C604.66 425.79 601.59 423.36 597.85 421.48C589.52 417.3 580.18 415.02 571.11 413.13C562.04 411.24 553.01 409.83 543.87 409.16C542.3 409.05 540.72 408.96 539.15 408.93C537.58 408.9 537.54 411.4 539.15 411.43H539.14V411.44Z" fill="#E74D3C" fill-opacity="0.33"/>
<path d="M763.55 526.19C758.93 523.16 754.51 519.78 750.94 515.53C748.308 512.402 746.527 508.798 744.742 505.187C743.646 502.968 742.548 500.746 741.25 498.63C734.7 487.91 724.24 480.4 712.31 476.71C700.38 473.02 687.53 472.94 675.15 473.89C670.2 474.275 665.279 474.879 660.356 475.484C658.885 475.664 657.413 475.845 655.94 476.02C649.12 476.83 641.76 477.34 635.45 474.11C625.535 469.042 621.128 458.038 617.167 448.145C616.806 447.242 616.448 446.349 616.09 445.47C613.74 439.71 611.18 433.98 607.28 429.08C604.66 425.79 601.59 423.36 597.85 421.48C589.52 417.3 580.18 415.02 571.11 413.13C562.04 411.24 553.01 409.83 543.87 409.16C542.3 409.05 540.72 408.96 539.15 408.93C537.769 408.904 537.572 410.835 538.64 411.32L763.55 526.19ZM763.55 526.19C766.134 527.885 768.8 529.488 771.47 531.094C778.47 535.303 785.499 539.529 791.16 545.48M763.55 526.19L791.16 545.48M543.834 409.659C542.268 409.549 540.698 409.46 539.141 409.43C538.894 409.425 538.74 409.514 538.64 409.631C538.529 409.758 538.459 409.949 538.458 410.161C538.456 410.373 538.522 410.568 538.634 410.703C538.738 410.827 538.899 410.925 539.159 410.93L539.159 410.94C547.396 411.102 555.653 412.317 563.717 413.748C573.248 415.43 582.896 417.556 591.981 421.084C595.29 422.367 598.726 423.888 601.597 426.115L601.597 426.115C606.156 429.662 609.207 435.035 611.582 440.066C611.582 440.066 611.582 440.066 611.582 440.066L611.13 440.28C612.509 443.197 613.728 446.223 614.949 449.254C618.182 457.277 621.429 465.336 627.7 471.52L543.834 409.659ZM543.834 409.659C552.947 410.327 561.954 411.733 571.008 413.619C580.074 415.509 589.358 417.778 597.625 421.927C601.304 423.776 604.316 426.161 606.889 429.391C610.741 434.231 613.278 439.902 615.627 445.659C615.983 446.532 616.339 447.421 616.699 448.321C618.499 452.817 620.406 457.58 622.884 461.906C625.863 467.108 629.694 471.73 635.223 474.555C641.683 477.862 649.187 477.326 655.999 476.516C657.476 476.341 658.951 476.16 660.424 475.979C665.345 475.375 670.251 474.772 675.189 474.388C687.547 473.44 700.323 473.526 712.162 477.188C723.99 480.846 734.344 488.286 740.823 498.891L740.824 498.891C742.109 500.986 743.193 503.18 744.287 505.394C744.633 506.094 744.979 506.796 745.334 507.497C746.803 510.403 748.394 513.281 750.557 515.852C754.172 520.155 758.638 523.567 763.276 526.608C765.625 528.149 768.039 529.613 770.455 531.067C770.708 531.219 770.96 531.37 771.212 531.522C773.378 532.824 775.54 534.125 777.664 535.477C782.405 538.495 786.929 541.758 790.798 545.825C799.614 555.106 804.118 567.598 806.529 580.055L806.53 580.057C806.622 580.523 806.331 580.874 805.915 580.989C805.71 581.046 805.521 581.027 805.388 580.959C805.27 580.899 805.151 580.779 805.101 580.525C804.509 577.473 803.805 574.438 802.94 571.451L802.94 571.451C801.12 565.177 798.602 559.078 795.009 553.577L795.009 553.576C791.722 548.55 787.518 544.308 782.718 540.748L782.718 540.748C778.796 537.843 774.61 535.325 770.448 532.822C769.857 532.467 769.267 532.112 768.677 531.756C763.929 528.888 759.259 525.965 755.032 522.407L754.71 522.79L755.032 522.407C750.728 518.786 747.201 514.517 744.614 509.53L744.613 509.529C744.033 508.415 743.476 507.267 742.916 506.111C741.949 504.117 740.971 502.1 739.84 500.196C739.84 500.195 739.84 500.195 739.84 500.195L739.41 500.45C737.79 497.71 735.89 495.14 733.73 492.79M543.834 409.659L701.45 476.84C713.64 478.66 725.28 483.58 733.73 492.79M733.73 492.79L734.098 492.452C734.098 492.452 734.098 492.452 734.098 492.452L733.73 492.79ZM791.16 545.48C800.07 554.86 804.6 567.46 807.02 579.96C807.33 581.53 804.92 582.2 804.61 580.62L791.16 545.48Z" stroke="#E74D3C" stroke-opacity="0.333333"/>
<path d="M389.02 705.37C493.628 705.37 578.43 623.828 578.43 523.24C578.43 422.652 493.628 341.11 389.02 341.11C284.412 341.11 199.61 422.652 199.61 523.24C199.61 623.828 284.412 705.37 389.02 705.37Z" stroke="#3E5C6D" stroke-width="3" stroke-miterlimit="10"/>
<path d="M309.72 361.51C312.69 362.08 315.77 362.49 318.7 363.27C319.91 363.59 320.26 364.24 320.44 365.44C320.64 366.72 320.72 367.99 321.05 369.25C322.41 374.37 325.94 378.66 330.54 381.22C332.82 382.49 335.03 383.56 336.23 386.02C337.28 388.18 336.87 390.28 335.25 392.01C333.27 394.11 330.79 395.96 328.18 397.19C325.57 398.42 322.88 399.13 320.52 400.71C318.16 402.29 316.2 404.63 315.82 407.62C315.63 409.13 315.64 410.63 315.27 412.12C314.87 413.75 314.2 415.24 313.31 416.67C312.03 418.72 315.27 420.61 316.55 418.56C318.19 415.94 319.13 413.02 319.38 409.94C319.49 408.59 319.47 407.29 320.22 406.11C320.91 405.02 321.96 404.2 323.06 403.55C325.64 402.02 328.61 401.3 331.24 399.84C333.87 398.38 336.55 396.33 338.45 394.04C342.35 389.35 340.29 383.05 335.6 379.79C333.18 378.11 330.52 377.12 328.44 374.95C326.65 373.08 325.34 370.77 324.67 368.26C323.9 365.34 324.39 361.83 321.21 360.23C319.7 359.47 317.91 359.29 316.27 358.98L310.72 357.91C308.36 357.46 307.35 361.07 309.72 361.53V361.51Z" fill="#221F20"/>
<path d="M313.731 416.945L313.61 417.132C311.745 420.009 309.193 422.2 306.45 424.104C304.821 425.235 303.086 426.288 301.383 427.322C300.248 428.011 299.127 428.691 298.062 429.38L298.061 429.38C292.015 433.285 286.82 438.275 282.983 444.366L282.983 444.367C282.344 445.38 281.769 446.435 281.183 447.507C280.933 447.965 280.682 448.426 280.423 448.888C279.565 450.42 278.637 451.943 277.469 453.297L277.468 453.297C275.25 455.861 272.123 457.494 269.202 459.02C268.637 459.316 268.08 459.607 267.538 459.9L267.537 459.9C263.86 461.884 260.124 463.767 256.392 465.618L256.392 465.618C254.957 466.328 253.445 467.172 252.217 468.25C250.994 469.323 250.081 470.605 249.792 472.19C249.468 473.977 249.995 475.757 251.455 476.769C252.205 477.289 253.076 477.569 254.017 477.766C254.488 477.864 254.967 477.94 255.455 478.016L255.471 478.019C255.949 478.094 256.438 478.171 256.913 478.271C258.764 478.659 260.964 479.231 262.396 480.86C263.145 481.712 263.385 482.621 263.302 483.548C263.222 484.446 262.84 485.338 262.405 486.188L262.405 486.189C262.005 486.966 262.365 487.708 263.004 488.082C263.321 488.268 263.67 488.335 263.97 488.273C264.255 488.214 264.543 488.032 264.756 487.621C265.598 485.986 266.305 484.399 266.123 482.694L313.731 416.945ZM313.731 416.945C314.216 416.394 314.944 416.381 315.525 416.719C315.843 416.903 316.074 417.175 316.169 417.468C316.26 417.747 316.244 418.089 315.991 418.477L315.99 418.478C313.94 421.647 311.111 424.101 308.023 426.267C306.479 427.35 304.877 428.357 303.28 429.346C303.026 429.502 302.773 429.659 302.52 429.815C301.181 430.641 299.852 431.462 298.584 432.303C292.517 436.327 287.563 441.676 283.994 448.015C283.796 448.365 283.6 448.717 283.405 449.068C281.851 451.854 280.316 454.606 277.979 456.676L313.731 416.945ZM264.06 478.637L264.058 478.635C262.755 477.346 261.197 476.637 259.496 476.144C258.644 475.897 257.763 475.705 256.862 475.52C256.697 475.486 256.531 475.452 256.365 475.418C255.628 475.268 254.879 475.116 254.142 474.936L254.141 474.936C254.118 474.93 254.094 474.924 254.07 474.918C253.801 474.853 253.46 474.77 253.173 474.608C252.82 474.408 252.542 474.09 252.44 473.589L252.439 473.586C252.279 472.773 252.678 471.967 253.011 471.457C253.931 470.045 255.467 469.182 256.785 468.479L256.786 468.478C258.545 467.546 260.326 466.655 262.103 465.767L262.336 465.65C264.192 464.723 266.041 463.795 267.864 462.819L267.864 462.819C268.487 462.486 269.117 462.158 269.748 461.83C272.66 460.314 275.592 458.788 277.979 456.676L264.06 478.637ZM264.06 478.637C265.182 479.74 265.957 481.157 266.123 482.693L264.06 478.637Z" fill="#3E5C6D" stroke="#3E5C6D"/>
<path d="M262.171 487.177C261.952 489.828 263.326 491.837 265.055 494.063C266.852 496.376 268.61 498.303 270.957 499.787L270.959 499.788C273.112 501.162 275.599 502.118 278.123 502.547C280.323 502.919 282.893 503.208 284.879 502.444C285.669 502.133 286.411 501.724 287.186 501.297C287.271 501.25 287.356 501.203 287.442 501.156C288.299 500.684 289.201 500.205 290.196 499.884C292.607 499.105 295.143 499.08 297.569 499.221C297.711 499.229 297.857 499.237 298.005 499.245C299.642 499.333 301.622 499.44 303.219 500.131L303.219 500.132C305.305 501.039 306.877 502.961 308.189 504.565C308.218 504.601 308.248 504.638 308.277 504.673L308.277 504.674C308.43 504.861 308.582 505.048 308.733 505.233C310.278 507.133 311.759 508.953 313.696 510.377L313.697 510.378C314.125 510.694 314.628 511.001 315.175 511.328C315.24 511.367 315.305 511.406 315.371 511.445C315.854 511.733 316.363 512.036 316.849 512.362C317.947 513.097 319.021 514.003 319.524 515.265L319.525 515.267C319.832 516.046 320.496 516.48 321.236 516.278C321.544 516.191 321.869 515.941 322.076 515.605C322.281 515.272 322.331 514.925 322.216 514.636L322.215 514.635C321.343 512.44 319.699 511.031 317.667 509.709L317.667 509.709C315.762 508.466 314.011 507.244 312.463 505.458M262.171 487.177L312.462 505.458C312.462 505.458 312.463 505.458 312.463 505.458M262.171 487.177L262.225 486.789C262.266 486.497 262.483 486.225 262.838 486.04C263.195 485.855 263.605 485.807 263.902 485.89C264.644 486.109 264.973 486.797 264.855 487.651L262.171 487.177ZM312.463 505.458C311.919 504.835 311.386 504.176 310.853 503.519C310.693 503.321 310.533 503.123 310.372 502.926C309.676 502.072 308.973 501.234 308.223 500.465C306.725 498.928 305.069 497.695 302.982 497.186C298.607 496.119 293.49 495.884 289.34 497.284L289.339 497.284C288.445 497.584 287.58 498.036 286.699 498.516C286.599 498.571 286.499 498.626 286.399 498.681C285.627 499.104 284.837 499.537 284.046 499.854C283.077 500.243 281.858 500.283 280.692 500.183C279.515 500.082 278.331 499.833 277.396 499.594L277.395 499.594C274.612 498.875 271.982 497.507 269.893 495.49M312.463 505.458L269.893 495.49M269.893 495.49C268.743 494.381 267.753 493.124 266.812 491.883L269.893 495.49ZM266.587 491.59C266.667 491.694 266.743 491.791 266.812 491.882L264.855 487.651C264.736 488.507 265.082 489.345 265.493 490.042C265.828 490.611 266.247 491.151 266.587 491.59Z" fill="#3E5C6D" stroke="#3E5C6D"/>
<path d="M322 514.232C321.526 513.5 320.706 513.446 320.065 513.819C319.747 514.003 319.516 514.275 319.421 514.568C319.349 514.791 319.344 515.055 319.475 515.35H319.7V515.709C320.165 516.393 320.717 516.99 321.334 517.606L321.336 517.609C322.167 518.451 322.688 519.295 323.157 520.357C323.92 522.071 324.753 523.684 325.852 525.172C328.041 528.117 330.851 530.601 334.131 532.222C335.864 533.073 337.673 533.699 339.55 534.08L339.55 534.08C341.806 534.539 343.774 535.244 345.834 536.218L345.834 536.218C349.142 537.787 352.596 539.539 355.274 542.227C358.861 545.825 359.419 550.524 359.59 555.191C359.622 556.063 360.294 556.52 361.033 556.521C361.4 556.522 361.739 556.403 361.973 556.196C362.196 555.998 362.358 555.692 362.34 555.229L362.34 555.229C362.18 550.906 361.788 546.548 359.414 542.977L359.413 542.976C357.327 539.832 354.206 537.53 350.868 535.688C349.125 534.727 347.309 533.864 345.475 533.036L322 514.232ZM322 514.232C322.332 514.745 322.748 515.178 323.141 515.571C323.196 515.626 323.25 515.68 323.304 515.733C323.646 516.073 323.963 516.388 324.236 516.738L324.236 516.738L324.238 516.741C324.862 517.527 325.246 518.392 325.671 519.35C325.737 519.499 325.805 519.651 325.874 519.805L325.875 519.807C326.775 521.791 327.963 523.636 329.43 525.247L329.431 525.248C331.979 528.03 335.229 530.136 338.901 531.113L338.903 531.114C339.499 531.27 340.079 531.409 340.648 531.545C342.316 531.945 343.887 532.322 345.474 533.036L322 514.232Z" fill="#3E5C6D" stroke="#3E5C6D"/>
<path d="M357.811 576.196L357.811 576.194C358.264 573.831 358.625 571.44 358.907 569.049C359.469 564.338 359.73 559.598 359.73 554.86C359.73 554.396 359.904 554.083 360.142 553.88C360.39 553.667 360.738 553.548 361.104 553.549C361.471 553.549 361.82 553.669 362.068 553.882C362.307 554.087 362.48 554.4 362.48 554.86L362.48 554.861C362.49 559.811 362.201 564.75 361.584 569.658C361.52 570.167 361.458 570.682 361.396 571.2C360.921 575.182 360.421 579.365 358.552 582.748L358.552 582.749C356.687 586.135 353.252 588.13 349.688 589.703C349.113 589.956 348.49 590.199 347.834 590.455C347.631 590.534 347.425 590.614 347.217 590.696C346.342 591.041 345.433 591.415 344.57 591.856C342.852 592.734 341.249 593.913 340.461 595.753C340.342 596.028 340.061 596.235 339.673 596.322C339.282 596.409 338.875 596.35 338.607 596.191C337.949 595.791 337.803 595.038 338.14 594.247C338.85 592.599 340.14 591.395 341.679 590.428C343.084 589.546 344.658 588.882 346.143 588.257C346.291 588.195 346.439 588.132 346.585 588.07C346.771 587.992 346.96 587.912 347.15 587.832C348.579 587.231 350.118 586.584 351.54 585.773C353.157 584.851 354.661 583.696 355.725 582.108L355.726 582.107C356.927 580.306 357.421 578.187 357.811 576.196Z" fill="#3E5C6D" stroke="#3E5C6D"/>
<path d="M337.157 595.791L338.045 594.216C338.273 593.812 338.576 593.628 338.879 593.571C339.195 593.511 339.553 593.582 339.87 593.768C340.187 593.953 340.431 594.234 340.541 594.548C340.648 594.85 340.642 595.212 340.415 595.613C340.383 595.669 340.352 595.725 340.32 595.781C339.503 597.222 338.666 598.699 338.017 600.302C337.329 602 337.074 603.677 336.912 605.424L336.912 605.424C336.603 608.794 335.284 611.512 333.124 614.153C332.633 614.749 332.1 615.31 331.552 615.886C331.523 615.917 331.494 615.947 331.465 615.978C330.891 616.582 330.304 617.204 329.768 617.879L329.767 617.881C329.384 618.367 328.956 618.991 328.685 619.675C328.414 620.358 328.283 621.149 328.57 621.93C328.712 622.328 328.963 622.62 329.195 622.852C329.3 622.957 329.391 623.042 329.475 623.12C329.6 623.236 329.708 623.337 329.822 623.468C330.342 624.068 330.654 624.743 330.732 625.499C330.873 627.005 330.132 628.415 329.168 629.723C328.665 630.402 327.915 630.654 327.259 630.262C326.976 630.088 326.727 629.759 326.615 629.385C326.504 629.014 326.544 628.669 326.731 628.418L326.734 628.415C326.781 628.351 326.843 628.269 326.915 628.177C327.089 627.951 327.316 627.656 327.502 627.367C327.756 626.972 328.046 626.431 328.009 625.897C327.98 625.458 327.692 625.145 327.49 624.953C327.404 624.872 327.31 624.792 327.23 624.723C327.211 624.706 327.192 624.69 327.174 624.675C327.076 624.59 327.005 624.526 326.955 624.47C326.022 623.41 325.589 621.978 325.718 620.555L325.718 620.555C325.862 618.962 326.55 617.645 327.49 616.407C328.093 615.612 328.766 614.887 329.457 614.144C329.868 613.702 330.285 613.252 330.697 612.778C331.771 611.542 332.802 610.164 333.452 608.58C333.976 607.305 334.098 605.98 334.214 604.721C334.243 604.405 334.272 604.093 334.307 603.787C334.635 600.929 335.785 598.342 337.157 595.791Z" fill="#3E5C6D" stroke="#3E5C6D"/>
<path d="M326.859 628.49L326.789 628.607C326.343 629.351 325.698 629.882 325.02 630.301C324.454 630.65 323.837 630.936 323.273 631.198C323.168 631.247 323.064 631.295 322.964 631.342C322.792 631.424 322.62 631.505 322.449 631.586C321.035 632.254 319.645 632.911 318.343 633.715L318.343 633.716C315.289 635.6 313.398 638.12 311.979 641.427L311.979 641.429C311.248 643.117 310.828 644.731 311.536 646.305C311.794 646.88 312.171 647.364 312.614 647.845C312.804 648.052 313.001 648.253 313.206 648.461C313.241 648.497 313.276 648.533 313.312 648.569C313.551 648.814 313.798 649.069 314.036 649.34C314.036 649.34 314.036 649.341 314.036 649.341L313.66 649.67C314.67 650.82 314.01 651.8 313.23 652.93L326.859 628.49ZM326.859 628.49C327.088 628.168 327.372 628.014 327.657 627.963C327.985 627.905 328.349 627.98 328.666 628.164C328.982 628.349 329.22 628.626 329.323 628.931C329.422 629.222 329.411 629.575 329.172 629.972L329.172 629.972C328.163 631.646 326.525 632.713 324.658 633.653C324.069 633.95 323.475 634.225 322.875 634.503C322.517 634.669 322.157 634.837 321.794 635.01C320.837 635.467 319.889 635.954 319.031 636.535C317.204 637.764 315.961 639.358 315.029 641.293L315.029 641.295C314.967 641.424 314.889 641.578 314.803 641.747C314.641 642.065 314.452 642.437 314.3 642.789C314.064 643.34 313.851 643.988 313.902 644.601L313.902 644.601L313.902 644.605C313.944 645.066 314.153 645.435 314.384 645.731C314.562 645.959 314.78 646.172 314.961 646.35C315.005 646.393 315.047 646.434 315.086 646.473C316.216 647.613 317.207 648.635 317.447 650.072L317.447 650.075C317.74 651.78 316.905 653.35 315.841 654.862L315.839 654.866C315.79 654.936 315.729 655.021 315.659 655.117C315.371 655.514 314.942 656.107 314.689 656.682C314.53 657.043 314.404 657.471 314.466 657.893C314.533 658.357 314.816 658.736 315.303 658.97C315.786 659.204 316.312 659.386 316.796 659.554C317.036 659.637 317.266 659.717 317.475 659.798C318.142 660.055 318.724 660.356 319.215 660.881L319.215 660.882C320.276 662.013 320.554 663.641 320.363 665.241C320.264 666.077 320.129 666.969 319.839 667.761C319.551 668.548 319.126 669.19 318.474 669.581C316.903 670.518 315.19 670.339 313.472 669.625C311.745 668.906 310.098 667.681 308.731 666.651C306.926 665.284 305.12 663.928 303.316 662.572L303.302 662.562C303.302 662.561 303.302 662.561 303.302 662.561C302.981 662.318 302.664 662.089 302.35 661.862C301.879 661.522 301.414 661.186 300.954 660.815C300.206 660.212 299.546 659.572 299.062 658.812C298.619 658.114 298.413 657.343 298.25 656.48C298.21 656.267 298.172 656.046 298.133 655.819C298.019 655.15 297.895 654.429 297.678 653.723C297.093 651.821 296.051 650.15 294.753 648.697L294.752 648.696C294.692 648.63 294.633 648.563 294.574 648.497C291.889 645.508 289.463 642.807 290.358 638.809C290.678 637.384 291.146 635.992 291.62 634.581C291.832 633.949 292.045 633.314 292.247 632.67M317.167 666.96C317.35 666.704 317.477 666.36 317.562 666.014C317.65 665.658 317.704 665.259 317.718 664.866C317.733 664.473 317.708 664.069 317.63 663.707C317.554 663.356 317.416 662.987 317.159 662.722L317.158 662.721C316.644 662.195 315.889 661.947 315.249 661.758C315.144 661.727 315.041 661.697 314.942 661.669C314.38 661.506 313.905 661.369 313.543 661.145L313.543 661.145C312.304 660.378 311.591 659.05 311.679 657.601L313.09 665.79C310.716 664.319 308.474 662.555 306.251 660.806C305.347 660.095 304.445 659.386 303.54 658.7M317.167 666.96L316.76 666.67L317.167 666.96C317.167 666.96 317.167 666.96 317.167 666.96ZM317.167 666.96C316.873 667.374 316.411 667.481 316.008 667.474C315.608 667.467 315.175 667.348 314.781 667.201C313.985 666.906 313.193 666.439 312.829 666.217L312.827 666.215C310.428 664.728 308.15 662.936 305.919 661.181C305.02 660.474 304.128 659.773 303.24 659.1M303.24 659.1C303.24 659.1 303.241 659.101 303.241 659.101L303.54 658.7M303.24 659.1C303.189 659.062 303.136 659.023 303.083 658.983C302.543 658.585 301.858 658.078 301.439 657.419M303.24 659.1C303.239 659.099 303.239 659.099 303.238 659.099L303.54 658.7M303.54 658.7L301.439 657.419M301.439 657.419C301.438 657.419 301.438 657.418 301.438 657.418L301.86 657.15L301.439 657.42C301.439 657.42 301.439 657.419 301.439 657.419ZM292.247 632.67C292.247 632.67 292.247 632.67 292.247 632.67L291.77 632.52L292.247 632.67C292.247 632.67 292.247 632.67 292.247 632.67Z" fill="#3E5C6D" stroke="#3E5C6D"/>
<path d="M293.14 607.506L293.14 607.507C293.13 607.878 293.118 608.254 293.105 608.635C293.042 610.522 292.976 612.503 293.214 614.335C293.509 616.595 294.468 618.322 295.56 620.155C296.566 621.848 297.383 623.571 297.173 625.433C297.123 625.859 296.965 626.223 296.734 626.473C296.511 626.715 296.204 626.87 295.79 626.87C295.465 626.87 295.086 626.714 294.799 626.444C294.514 626.177 294.374 625.853 294.407 625.545C294.532 624.443 294.22 623.473 293.785 622.6C293.568 622.165 293.316 621.747 293.066 621.346C293.003 621.244 292.94 621.144 292.878 621.045C292.692 620.748 292.511 620.461 292.343 620.17C291.272 618.318 290.69 616.356 290.447 614.214C290.075 610.884 290.251 607.468 290.427 604.048C290.495 602.729 290.563 601.41 290.6 600.094C290.625 599.221 291.296 598.753 292.032 598.746C292.398 598.743 292.736 598.859 292.971 599.069C293.196 599.268 293.364 599.583 293.35 600.066L293.245 603.786L293.14 607.506Z" fill="#3E5C6D" stroke="#3E5C6D"/>
<path d="M292.7 599.518L292.7 599.518C292.672 597.675 291.996 596.05 291.178 594.313C290.799 593.509 290.411 592.682 290.02 591.847C289.561 590.867 289.098 589.877 288.638 588.903L288.637 588.903L288.635 588.897C286.856 585.109 285.077 581.322 283.278 577.534C282.916 576.772 282.576 576.01 282.237 575.249C281.781 574.227 281.326 573.205 280.815 572.183C279.94 570.43 278.953 568.787 277.667 567.424C277.052 566.776 276.652 566.03 276.297 565.325C276.252 565.235 276.207 565.146 276.163 565.057C275.853 564.437 275.565 563.859 275.169 563.329C274.001 561.764 272.731 560.266 271.442 558.777C271.335 558.653 271.229 558.53 271.124 558.409C269.956 557.056 268.929 555.866 267.596 554.894L292.7 599.518ZM292.7 599.518C292.706 599.976 292.538 600.283 292.308 600.483C292.066 600.693 291.723 600.812 291.356 600.811C290.989 600.811 290.637 600.691 290.382 600.475C290.137 600.268 289.958 599.952 289.95 599.492C289.933 598.36 289.579 597.277 289.14 596.27C288.919 595.765 288.673 595.27 288.432 594.794C288.389 594.709 288.347 594.625 288.304 594.542C288.107 594.153 287.916 593.777 287.743 593.407L287.742 593.407C287.258 592.378 286.776 591.351 286.293 590.324L286.293 590.322L286.292 590.32C285.809 589.294 285.327 588.267 284.842 587.237C283.092 583.517 281.342 579.806 279.571 576.095L279.571 576.093C279.373 575.683 279.178 575.261 278.981 574.834C278.337 573.441 277.669 571.994 276.807 570.695C276.426 570.115 275.991 569.602 275.583 569.122C275.466 568.984 275.352 568.849 275.241 568.716C274.734 568.105 274.287 567.502 273.971 566.755C273.337 565.258 272.293 564.017 271.309 562.848C271.166 562.677 271.024 562.509 270.885 562.341L270.884 562.34C270.854 562.303 270.824 562.267 270.793 562.231C269.615 560.818 268.4 559.362 267.086 558.029C266.588 557.523 266.047 557.093 265.526 556.696C265.417 556.613 265.31 556.532 265.204 556.452C264.794 556.142 264.405 555.848 264.042 555.532C263.147 554.753 262.47 553.891 262.264 552.544L262.264 552.544L262.264 552.542C262.13 551.696 262.465 551.002 263.214 550.792C263.524 550.706 263.933 550.755 264.284 550.939C264.633 551.122 264.851 551.395 264.896 551.694L264.896 551.694L264.896 551.696C265.126 553.199 266.173 553.914 267.122 554.563C267.284 554.674 267.444 554.783 267.596 554.894L292.7 599.518Z" fill="#3E5C6D" stroke="#3E5C6D"/>
<path d="M264.952 552.076L264.936 552.259C264.782 553.016 264.119 553.415 263.427 553.416C263.058 553.417 262.732 553.299 262.516 553.101C262.314 552.915 262.168 552.622 262.208 552.164L262.208 552.163L262.249 551.699C262.675 546.806 263.103 541.895 263.23 536.973L263.23 536.973C263.322 533.298 263.075 529.668 262.83 526.047C262.753 524.911 262.676 523.776 262.609 522.641L262.609 522.64C262.491 520.637 262.541 518.643 262.93 516.698L262.931 516.696C263.005 516.316 263.158 515.921 263.331 515.474C263.354 515.414 263.378 515.353 263.402 515.291C263.592 514.794 263.798 514.23 263.839 513.666L263.839 513.665C263.877 513.118 263.601 512.664 263.338 512.333C263.201 512.161 263.051 512.001 262.914 511.859C262.882 511.825 262.85 511.793 262.82 511.761C262.717 511.655 262.626 511.561 262.544 511.469L262.543 511.468C259.913 508.513 256.887 505.932 253.535 503.836L253.535 503.836C251.841 502.778 250.031 501.783 248.075 501.145L248.074 501.144C246.65 500.683 245.125 500.448 243.705 500.228C243.294 500.165 242.892 500.103 242.503 500.037C240.753 499.74 239.112 499.325 237.635 498.299C237.021 497.873 236.458 497.411 235.879 496.935C235.737 496.819 235.595 496.702 235.45 496.585C234.724 495.994 233.959 495.401 233.075 494.904L233.074 494.904C230.056 493.214 227.716 490.997 226.015 487.984L226.015 487.984C224.386 485.108 223.369 481.908 222.388 478.704C221.55 475.964 220.558 472.81 219.006 470.084C217.449 467.351 215.302 465 212.131 463.927C211.308 463.647 211.046 462.862 211.242 462.144C211.339 461.789 211.542 461.498 211.799 461.333C212.041 461.177 212.373 461.107 212.81 461.254C220.156 463.732 222.991 471.281 225.162 478.346C226.15 481.591 227.218 484.927 229.153 487.846C230.051 489.208 231.204 490.479 232.588 491.423L232.589 491.423C233.226 491.857 233.886 492.247 234.526 492.625C234.75 492.758 234.972 492.889 235.19 493.02C236.04 493.532 236.849 494.056 237.59 494.706C239.111 496.041 240.548 496.859 242.531 497.26C243.267 497.409 244.012 497.52 244.742 497.63C244.959 497.662 245.176 497.695 245.39 497.728C246.332 497.873 247.249 498.035 248.142 498.291L248.144 498.291C252.041 499.395 255.6 501.698 258.822 504.214C260.405 505.45 261.897 506.785 263.29 508.227L263.292 508.229C263.445 508.386 263.603 508.544 263.762 508.705C264.277 509.222 264.813 509.76 265.292 510.341C265.916 511.099 266.396 511.875 266.571 512.676C266.756 513.538 266.56 514.421 266.246 515.415C266.184 515.611 266.117 515.812 266.048 516.018C265.781 516.819 265.49 517.692 265.393 518.575C265.157 520.723 265.342 522.901 265.532 524.975C266.348 534.038 265.762 542.99 264.952 552.076Z" fill="#3E5C6D" stroke="#3E5C6D"/>
<path d="M250.46 464.71C253.06 462.82 256.37 462.36 258.94 460.45C260.08 459.6 261.47 459.07 262.69 458.36C263.91 457.65 264.92 456.85 266.03 456.08C267.45 455.09 268.9 454.13 270.16 452.94C271.42 451.75 272.38 450.47 273.35 449.12C275.05 446.76 276.71 444.37 278.42 442.02C280.7 438.89 283.04 435.8 285.7 432.97C286.8 431.8 285.04 430.03 283.93 431.2C279.53 435.89 275.88 441.27 272.16 446.5C270.31 449.1 268.45 451.34 265.81 453.19C263.47 454.83 261.21 456.32 258.7 457.67C257.89 458.11 257.23 458.76 256.43 459.18C255.71 459.56 254.91 459.81 254.15 460.11C252.44 460.78 250.69 461.46 249.19 462.55C247.9 463.49 249.15 465.66 250.45 464.71H250.46Z" fill="#3E5C6D"/>
<path d="M284.17 434.12C285.78 434.12 285.78 431.62 284.17 431.62C282.56 431.62 282.56 434.12 284.17 434.12Z" fill="#221F20"/>
<path d="M285.03 433.71C285.95 432.72 286.72 431.63 287.77 430.76C288.71 429.97 289.57 429 290.62 428.39C291.67 427.78 292.6 426.92 293.7 426.3C294.84 425.65 295.84 424.92 296.83 424.05C298.97 422.18 301.75 420.97 304.22 419.6C305.43 418.92 306.62 418.27 307.57 417.24C308.63 416.1 309.59 414.84 310.59 413.65C311.59 412.46 309.86 410.65 308.82 411.88C307.87 413.02 306.94 414.19 305.95 415.31C304.96 416.43 303.62 417.07 302.32 417.79C299.85 419.17 297.21 420.4 295.06 422.28C294.02 423.19 292.9 423.83 291.72 424.54C290.74 425.13 289.9 425.86 288.93 426.45C287.91 427.08 287.09 428.06 286.17 428.83C285.06 429.76 284.24 430.88 283.26 431.92C282.16 433.09 283.93 434.87 285.03 433.69V433.71Z" fill="#221F20"/>
<path d="M310.6 413.49C311.69 411.91 312.28 410.01 312.34 408.09C312.36 407.44 311.75 406.81 311.09 406.84C310.4 406.87 309.86 407.39 309.84 408.09C309.84 408.31 309.82 408.53 309.8 408.74C309.8 408.79 309.79 408.85 309.78 408.9C309.81 408.72 309.81 408.67 309.8 408.77C309.78 408.86 309.77 408.96 309.75 409.05C309.68 409.45 309.58 409.85 309.45 410.24C309.39 410.42 309.32 410.6 309.25 410.78C309.2 410.91 309.21 410.88 309.28 410.71C309.26 410.76 309.24 410.81 309.21 410.86C309.16 410.96 309.12 411.06 309.07 411.16C308.88 411.53 308.67 411.88 308.44 412.22C308.07 412.76 308.32 413.63 308.89 413.93C309.52 414.27 310.2 414.06 310.6 413.48V413.49Z" fill="#221F20"/>
<path d="M210.93 511.36C209.95 517.39 210.11 526.15 210.75 535.89C210.86 537.54 211.23 542.92 212.47 550.58C213.44 556.55 215.49 568.9 220.35 582.08C223.84 591.53 231.12 606.71 244.3 622.83" stroke="#3E5C6D" stroke-width="3" stroke-miterlimit="10"/>
<path d="M447.19 685.29C454.34 683.52 463.86 679.13 474.2 673.73C475.95 672.82 481.65 669.8 489.38 664.7C495.41 660.72 507.84 652.43 519.66 640.52C528.14 631.98 540.84 616.33 551.37 593.45" stroke="#3E5C6D" stroke-width="3" stroke-miterlimit="10"/>
<path d="M245.41 622.69C245.41 623.216 244.919 623.73 244.2 623.73C243.481 623.73 242.99 623.216 242.99 622.69C242.99 622.164 243.481 621.65 244.2 621.65C244.919 621.65 245.41 622.164 245.41 622.69Z" fill="#221F20" stroke="#3E5C6D"/>
<path d="M210.91 510.59C211.623 510.59 212.07 511.071 212.07 511.53C212.07 511.989 211.623 512.47 210.91 512.47C210.197 512.47 209.75 511.989 209.75 511.53C209.75 511.071 210.197 510.59 210.91 510.59Z" fill="#221F20" stroke="#3E5C6D"/>
<path d="M284.475 508.029L284.345 508.065C284.161 508.088 284.021 508.043 283.914 507.971C283.772 507.875 283.655 507.708 283.6 507.505C283.544 507.303 283.56 507.099 283.634 506.942C283.702 506.797 283.833 506.661 284.084 506.592L284.084 506.592L284.085 506.592C288.094 505.47 292.704 504.78 296.592 505.394C300.398 505.995 303.116 508.502 305.741 511.367C305.815 511.448 305.889 511.53 305.964 511.612C306.509 512.211 307.066 512.823 307.647 513.404L307.649 513.406C308.598 514.344 309.448 514.611 310.631 514.85C312.484 515.23 314.012 516.074 315.093 517.59L315.094 517.592C315.895 518.706 316.348 519.969 316.827 521.304C316.976 521.72 317.128 522.143 317.294 522.571L317.294 522.571C318.209 524.933 319.752 526.322 321.905 527.471C322.134 527.594 322.223 527.749 322.252 527.893C322.283 528.052 322.25 528.246 322.143 528.428C321.928 528.796 321.532 528.972 321.116 528.749C319.486 527.875 318.048 526.872 317.015 525.34C316.499 524.576 316.141 523.727 315.808 522.825C315.717 522.578 315.628 522.326 315.537 522.07C315.301 521.406 315.058 520.719 314.767 520.066L314.766 520.065C314.327 519.087 313.788 518.264 313.066 517.626C312.342 516.984 311.458 516.551 310.363 516.321L310.361 516.32C310.201 516.287 310.046 516.257 309.896 516.228C309.185 516.09 308.586 515.974 307.999 515.637C307.319 515.245 306.76 514.658 306.157 514.026C306.119 513.986 306.081 513.946 306.043 513.906C305.668 513.509 305.289 513.093 304.905 512.67C304.061 511.741 303.188 510.781 302.258 509.93C300.888 508.677 299.336 507.601 297.42 507.087L297.419 507.087C293.238 505.969 288.412 506.927 284.475 508.029Z" fill="#3E5C6D" stroke="#3E5C6D"/>
<path d="M271.079 542.083L271.079 542.083C270.552 543.845 270.087 545.73 270.081 547.533C270.075 549.324 270.521 551.006 271.79 552.404L271.792 552.406C272.119 552.77 272.496 553.092 272.903 553.419C273.008 553.503 273.116 553.589 273.226 553.675C273.532 553.918 273.852 554.17 274.151 554.436C274.152 554.436 274.152 554.436 274.152 554.436L273.82 554.81C274.69 555.58 275.4 556.5 276.1 557.42L271.079 542.083ZM271.079 542.083C271.154 541.834 271.293 541.701 271.445 541.631C271.608 541.556 271.815 541.542 272.018 541.597C272.221 541.653 272.384 541.768 272.475 541.907C272.559 542.032 272.605 542.208 272.531 542.456C272.517 542.502 272.504 542.548 272.49 542.594C271.887 544.593 271.147 547.05 271.768 549.322L271.768 549.322C272.128 550.634 273.017 551.58 273.933 552.388C274.201 552.624 274.491 552.864 274.773 553.098C274.961 553.255 275.146 553.408 275.319 553.556C275.767 553.938 276.176 554.316 276.517 554.721C278.531 557.124 280.403 559.655 282.281 562.194C283.145 563.362 284.01 564.532 284.892 565.692C284.892 565.692 284.892 565.692 284.892 565.692L285.29 565.39L271.079 542.083Z" fill="#3E5C6D" stroke="#3E5C6D"/>
<path d="M352.504 567.865C353.323 562.473 352.978 556.892 351.762 551.6L329.241 602.495C328.305 606.832 327.267 611.225 323.897 614.078C323.533 614.385 323.077 614.303 322.769 613.997C322.618 613.846 322.542 613.674 322.536 613.528C322.53 613.4 322.574 613.24 322.773 613.072L322.773 613.072C324.83 611.331 325.946 609.039 326.694 606.635C327.068 605.433 327.352 604.193 327.615 602.972C327.679 602.674 327.741 602.377 327.804 602.083C327.998 601.164 328.188 600.265 328.405 599.391C329.019 596.924 329.852 594.397 330.773 592.15C331.707 589.869 332.608 587.796 334.447 586.287L334.447 586.286C336.096 584.932 337.92 583.804 339.791 582.686C340.029 582.544 340.267 582.402 340.505 582.26C342.14 581.288 343.798 580.302 345.353 579.175L345.354 579.175C347.014 577.97 348.642 576.563 349.876 574.853C351.388 572.756 352.127 570.341 352.504 567.865L352.504 567.865Z" fill="#3E5C6D" stroke="#3E5C6D"/>
<path d="M300.996 625.31C301.401 627.629 301.781 630.235 300.931 632.636C300.696 633.306 300.361 633.92 300.039 634.496C300.014 634.541 299.989 634.586 299.964 634.631C299.664 635.167 299.381 635.673 299.163 636.208C298.698 637.353 298.585 638.438 298.717 639.614L298.717 639.615C298.983 642.031 300.213 644.193 301.526 646.339C301.564 646.401 301.602 646.463 301.641 646.526C302.262 647.539 302.954 648.668 303.454 649.861C303.986 651.132 304.318 652.515 304.105 653.963L300.996 625.31ZM300.996 625.31H301.017L300.912 624.722C300.829 624.253 301.128 623.896 301.548 623.781C301.753 623.724 301.939 623.744 302.066 623.81C302.178 623.867 302.292 623.983 302.338 624.237C302.8 626.87 303.228 629.435 302.681 632.006C302.472 632.99 302.02 633.874 301.539 634.816C301.404 635.081 301.267 635.35 301.132 635.627C300.533 636.856 300.011 638.203 300.256 639.786C300.489 641.299 301.118 642.66 301.836 643.934C302.156 644.504 302.5 645.064 302.836 645.612C302.876 645.677 302.915 645.741 302.955 645.806C303.33 646.419 303.694 647.02 304.019 647.625C305.193 649.837 305.883 652.055 305.525 654.477L305.525 654.478C305.488 654.735 305.379 654.844 305.279 654.897C305.162 654.959 304.983 654.981 304.776 654.923C304.352 654.805 304.035 654.437 304.105 653.963L300.996 625.31Z" fill="#221F20" stroke="#3E5C6D"/>
<path d="M349.94 361.03C354.01 361.94 357.78 359.97 361.63 358.96C365.73 357.89 369.91 357.17 374.14 356.84C376.26 356.67 378.38 356.6 380.51 356.61C382.32 356.62 384.59 356.39 386.3 357.08C386.61 357.21 387.23 357.54 387.22 357.96C387.2 358.51 385.76 359.37 385.39 359.68C383.79 361.02 382.24 362.42 380.73 363.85C377.71 366.72 374.83 369.73 371.96 372.75C369.09 375.77 366.25 378.77 363.73 382.08C362.01 384.35 359.8 389.33 356.24 388.75C352.68 388.17 352.04 383.45 351.68 380.62C351.43 378.66 351.3 376.6 351.88 374.7C352.42 372.92 353.84 371.73 354.86 370.24C355.96 368.62 356.28 366.65 355.36 364.87C354.91 363.99 354.2 363.27 353.51 362.58C353.19 362.26 351.88 361.17 352.12 360.62C352.53 359.69 352.38 358.62 351.45 358.05C350.66 357.57 349.3 357.8 348.88 358.72C347.92 360.87 348.65 362.85 350.18 364.54C350.78 365.2 351.66 365.78 352.04 366.6C352.37 367.3 351.94 367.92 351.53 368.49C350.41 370.05 349.14 371.31 348.46 373.16C347.78 375.01 347.65 377.21 347.8 379.24C348.11 383.26 348.75 388.03 352.07 390.75C355.39 393.47 360.02 392.68 362.92 389.5C364.41 387.87 365.51 385.92 366.84 384.16C368.17 382.4 369.75 380.61 371.3 378.93C374.53 375.42 377.84 371.96 381.23 368.6C382.88 366.97 384.56 365.38 386.29 363.85C387.81 362.51 390.15 361.17 390.78 359.13C391.41 357.09 390.32 355.13 388.62 354.07C386.74 352.9 384.3 352.95 382.17 352.89C376.81 352.73 371.44 353.16 366.17 354.12C363.54 354.6 360.91 355.19 358.36 356C356.01 356.74 353.47 357.98 350.96 357.42C348.61 356.9 347.6 360.51 349.96 361.04H349.94V361.03Z" fill="#221F20"/>
<path d="M361.69 364.16C366.73 363.38 371.43 360.84 376.59 360.81C378.2 360.81 378.2 358.3 376.59 358.31C371.18 358.34 366.3 360.93 361.03 361.75C360.36 361.85 359.99 362.69 360.16 363.29C360.36 364 361.03 364.27 361.7 364.16H361.69Z" fill="#221F20"/>
<path d="M466.65 358.851C460.337 361.672 454.029 364.547 448.364 368.452C442.51 372.486 437.961 377.615 434.006 383.528C432.978 385.068 431.981 386.647 430.979 388.233C428.339 392.413 425.668 396.641 422.331 400.335L422.331 400.336C420.533 402.32 418.493 404.026 416.477 405.712C415.77 406.303 415.067 406.891 414.377 407.488L414.377 407.488C411.559 409.922 409.287 412.7 407.915 416.145C406.684 419.246 406.013 423.242 407.197 426.331C408.269 429.111 410.815 430.517 413.77 430.874C416.573 431.211 419.403 430.602 422.248 429.99C422.417 429.954 422.585 429.917 422.754 429.881C426.354 429.101 429.944 428.304 433.492 427.367L433.493 427.367C440.573 425.502 447.582 423.106 453.875 419.38L453.876 419.38C455.359 418.502 456.766 417.509 458.176 416.489C458.403 416.324 458.631 416.159 458.859 415.993C460.04 415.135 461.232 414.269 462.466 413.462L462.467 413.461C465.259 411.637 468.512 410.094 472.102 410.923C474.004 411.359 475.726 412.229 477.362 413.132L477.364 413.133C477.592 413.261 477.842 413.389 478.112 413.528C478.187 413.567 478.263 413.606 478.341 413.647C478.694 413.83 479.07 414.029 479.434 414.248C480.149 414.681 480.877 415.226 481.302 415.958M466.65 358.851L475.07 423.25C472.71 425.53 470.83 428.37 470.77 431.75M466.65 358.851V358.89L467.354 358.577C468.128 358.232 468.906 358.377 469.285 359.037C469.448 359.327 469.503 359.736 469.418 360.116C469.334 360.493 469.13 360.775 468.845 360.904C468.845 360.904 468.845 360.904 468.844 360.904L468.61 361.009C465.47 362.413 462.31 363.826 459.215 365.383M466.65 358.851L459.215 365.383M481.302 415.958C481.302 415.959 481.302 415.959 481.303 415.959L480.87 416.21L481.302 415.958C481.302 415.958 481.302 415.958 481.302 415.958ZM481.302 415.958C481.833 416.868 481.497 417.776 481.037 418.455C480.596 419.106 479.956 419.681 479.522 420.07C479.502 420.088 479.483 420.105 479.464 420.122L479.464 420.123C478.911 420.617 478.336 421.091 477.771 421.557C477.647 421.659 477.523 421.761 477.4 421.863C476.713 422.432 476.044 422.998 475.419 423.608L475.418 423.61C473.102 425.847 471.327 428.568 471.27 431.759M471.27 431.759C471.27 431.759 471.27 431.758 471.27 431.758L470.77 431.75M471.27 431.759L470.77 431.75M471.27 431.759L470.77 431.75M459.215 365.383C459.216 365.383 459.216 365.383 459.216 365.383L459.44 365.83L459.215 365.383ZM430.73 394.65L430.314 394.373L419.588 427.77C419.588 427.77 419.588 427.77 419.589 427.77M430.73 394.65L430.314 394.373C428.42 397.214 426.506 399.88 424.121 402.493C422.433 404.342 420.54 405.92 418.614 407.527C417.818 408.19 417.016 408.859 416.221 409.553C413.506 411.924 411.2 414.669 410.112 418.244C409.716 419.528 409.291 421.32 409.326 423.02C409.362 424.715 409.861 426.444 411.453 427.399L411.455 427.4C412.678 428.127 414.132 428.328 415.546 428.3C416.963 428.271 418.391 428.011 419.589 427.77M430.73 394.65C428.83 397.5 426.9 400.19 424.49 402.83C422.778 404.705 420.845 406.318 418.907 407.934C418.117 408.593 417.327 409.252 416.55 409.93C413.87 412.27 411.64 414.94 410.59 418.39L468.818 361.464C465.675 362.869 462.524 364.278 459.44 365.83C453.18 368.97 447 372.85 442.4 377.9C439.039 381.589 436.373 385.807 433.71 390.019C432.728 391.572 431.746 393.125 430.73 394.65ZM419.589 427.77C423.146 427.059 426.703 426.257 430.23 425.385C437.223 423.662 444.231 421.54 450.637 418.08C453.468 416.556 456.142 414.626 458.632 412.829C458.918 412.622 459.201 412.418 459.482 412.216C462.209 410.255 465.105 408.519 468.386 408.076C471.983 407.597 475.364 408.922 478.579 410.688C480.007 411.475 481.556 412.331 482.695 413.443C483.815 414.536 484.498 415.836 484.274 417.535L484.274 417.535C484.085 418.977 483.347 420.175 482.307 421.289C481.44 422.218 480.395 423.057 479.318 423.921C479.092 424.103 478.863 424.286 478.635 424.472C476.071 426.555 473.484 428.921 474.076 432.795C474.211 433.692 474.547 434.394 475.036 434.939C475.521 435.48 476.133 435.84 476.785 436.096C477.435 436.35 478.143 436.507 478.834 436.629C479.157 436.687 479.483 436.738 479.8 436.788L479.865 436.798C480.205 436.851 480.533 436.903 480.849 436.962L480.85 436.962C483.755 437.493 486.21 439.115 486.646 442.044L486.646 442.044C487.056 444.794 485.738 447.66 483.518 449.341L483.518 449.342C480.868 451.355 477.465 451.75 473.941 451.67C473.067 451.65 472.178 451.592 471.272 451.532L471.188 451.527C470.313 451.468 469.423 451.409 468.534 451.384C466.699 451.332 464.834 451.424 463.023 451.982L463.022 451.982C462.116 452.263 461.287 452.698 460.502 453.113L460.441 453.146C459.667 453.556 458.935 453.943 458.152 454.206C456.718 454.68 455.125 454.664 453.676 454.222L453.675 454.221C452.167 453.765 450.869 452.969 449.561 452.057C449.225 451.823 448.885 451.579 448.541 451.331C447.565 450.63 446.55 449.9 445.447 449.275C442.404 447.551 438.877 447.107 435.504 447.351L435.504 447.351M419.589 427.77L435.504 447.351M450.634 449.47L450.633 449.47C447.827 447.505 445.233 445.745 441.935 445.039L441.934 445.039C434.903 443.515 427.774 445.716 421.611 449.283C418.593 451.031 415.769 453.076 412.922 455.136C412.766 455.249 412.61 455.362 412.453 455.475C409.456 457.643 406.782 459.642 404.15 461.955C401.524 464.265 399.226 466.723 397.326 469.558C395.279 472.613 394.026 476.064 393.053 479.641C392.28 482.496 391.559 485.364 390.837 488.238C390.551 489.376 390.264 490.514 389.975 491.653C389.715 492.676 389.437 493.681 389.162 494.675C388.343 497.635 387.55 500.502 387.329 503.467C387.07 507 388.387 510.171 391.109 512.425C393.903 514.739 397.09 516.296 400.337 517.775L400.338 517.775C407.18 520.903 414.43 522.91 421.91 523.814C425.691 524.27 429.503 524.389 433.309 524.23L433.31 524.23C433.488 524.223 433.677 524.213 433.872 524.203C434.451 524.172 435.09 524.138 435.71 524.164C436.548 524.199 437.424 524.344 438.198 524.786M450.634 449.47L437.95 525.22M450.634 449.47C450.69 449.509 450.747 449.549 450.803 449.588C451.999 450.425 453.335 451.36 454.947 451.699C456.671 452.062 458.1 451.292 459.376 450.605C459.416 450.584 459.456 450.562 459.496 450.541L450.634 449.47ZM438.198 524.786L437.95 525.22M438.198 524.786C438.197 524.785 438.197 524.785 438.196 524.785L437.95 525.22M438.198 524.786C439.035 525.259 439.644 526.047 440.119 526.854C440.493 527.49 440.806 528.18 441.081 528.785C441.154 528.947 441.225 529.102 441.293 529.248M437.95 525.22C439.244 525.952 439.997 527.608 440.62 528.979C440.695 529.144 440.768 529.305 440.84 529.46M441.293 529.248L440.84 529.46M441.293 529.248C441.293 529.248 441.293 529.249 441.293 529.249L440.84 529.46M441.293 529.248C442.881 532.639 443.776 536.341 443.999 540.06L443.999 540.061C444.05 540.933 444.738 541.393 445.481 541.394C445.849 541.394 446.182 541.276 446.409 541.073C446.623 540.88 446.777 540.58 446.751 540.12C446.524 536.352 445.716 532.678 444.259 529.203C443.584 527.592 442.841 525.929 441.825 524.556C440.815 523.193 439.555 522.145 437.851 521.726L437.85 521.725C436.351 521.355 434.793 521.421 433.172 521.489C433.089 521.493 433.005 521.496 432.921 521.5L432.919 521.5C431.056 521.57 429.204 521.57 427.341 521.5L427.34 521.5C423.562 521.349 419.815 520.885 416.117 520.109L416.117 520.109C408.81 518.569 401.635 515.911 395.24 511.997C393.904 511.183 392.485 510.224 391.455 508.897L391.454 508.895C390.244 507.326 389.947 505.46 390.061 503.609C390.164 501.944 390.605 500.233 391.018 498.632C391.061 498.465 391.104 498.3 391.146 498.136L391.146 498.136C391.656 496.146 392.166 494.156 392.676 492.156C392.971 490.998 393.263 489.837 393.556 488.674C394.272 485.829 394.99 482.978 395.758 480.149L440.84 529.46M435.504 447.351C428.115 447.893 421.568 452.281 416.019 456.264C415.616 456.553 415.21 456.843 414.802 457.134C409.61 460.844 404.114 464.771 400.305 470.057M435.504 447.351L400.305 470.057M400.305 470.057C398.077 473.143 396.737 476.535 395.758 480.149L400.305 470.057ZM475.272 438.472C475.271 438.472 475.271 438.472 475.27 438.472L475.07 438.93L475.272 438.472ZM469.884 448.689C469.884 448.689 469.885 448.689 469.885 448.689L469.91 448.19L469.884 448.689Z" fill="#3E5C6D" stroke="#3E5C6D"/>
<path d="M444.432 540.089L444.45 540.09V540.1V540.6H444.418L443.979 547.501L444.432 540.089ZM444.432 540.089C444.506 539.243 445.187 538.797 445.918 538.796C446.286 538.796 446.618 538.914 446.843 539.117C447.056 539.309 447.209 539.608 447.181 540.069C447.181 540.069 447.181 540.069 447.181 540.069L446.741 546.958L446.741 546.959C446.699 547.635 446.642 548.326 446.585 549.024C446.455 550.614 446.322 552.244 446.35 553.838C446.367 554.926 446.733 555.687 447.311 556.298C447.781 556.794 448.398 557.19 449.006 557.581C449.104 557.644 449.201 557.706 449.297 557.769L449.298 557.769C452.399 559.783 453.873 562.834 454.962 566.396L454.962 566.396C456.155 570.297 457.238 574.464 456.343 578.286C455.904 580.158 454.82 581.689 453.653 583.291C453.618 583.339 453.582 583.388 453.546 583.437C452.43 584.969 451.253 586.582 450.727 588.551C449.653 592.565 450.951 596.836 452.114 600.482L452.114 600.482C453.081 603.516 454.083 606.537 455.084 609.557C455.542 610.94 456 612.323 456.455 613.706L456.455 613.706C456.855 614.921 457.237 616.161 457.622 617.41C458.494 620.243 459.38 623.12 460.518 625.842M444.432 540.089L443.979 547.502C443.936 548.18 443.876 548.855 443.817 549.527C443.677 551.109 443.539 552.67 443.629 554.201C443.75 556.273 444.557 557.729 446.153 558.942L446.153 558.942C446.497 559.205 446.854 559.447 447.22 559.691C447.27 559.724 447.32 559.758 447.37 559.791C447.686 560.001 448.008 560.216 448.321 560.442C449.05 560.969 449.76 561.578 450.318 562.425C451.383 564.044 451.91 565.762 452.419 567.456L452.419 567.457L452.471 567.631C453.063 569.608 453.688 571.699 453.878 573.836C454.074 576.043 453.82 578.149 452.638 580.108L452.638 580.109C452.151 580.912 451.581 581.657 451.031 582.377C450.979 582.445 450.927 582.512 450.876 582.58C450.272 583.372 449.698 584.142 449.238 584.98L449.237 584.982C447.234 588.596 447.359 592.81 448.248 596.852C448.99 600.187 450.11 603.442 451.234 606.709C451.629 607.858 452.025 609.008 452.405 610.164C453.058 612.148 453.709 614.132 454.359 616.115C455.224 618.75 456.087 621.383 456.955 624.013L456.955 624.014C458.029 627.287 459.318 630.589 462.144 632.442L462.145 632.442C465.534 634.671 469.79 633.365 473.192 631.312C476.563 629.277 479.654 626.417 482.301 623.344C484.961 620.255 487.702 616.739 489.872 613.171C490.947 611.397 491.853 609.476 492.218 607.471C492.624 605.22 492.462 602.983 492.125 600.672L492.125 600.672C492.029 600.01 491.904 599.307 491.775 598.584C491.548 597.313 491.31 595.976 491.196 594.676C491.013 592.606 491.123 590.487 492.081 588.549C492.921 586.842 494.432 585.72 495.814 584.695C495.988 584.566 496.16 584.438 496.329 584.311C497.86 583.155 499.177 582.004 500.423 580.67C505.423 575.267 508.414 568.091 508.66 560.723C508.76 557.607 508.126 554.734 507.462 551.724C507.275 550.876 507.086 550.017 506.91 549.138L506.91 549.138C506.478 546.978 506.472 544.807 507.657 542.76C508.387 541.499 509.252 540.297 510.096 539.123C510.536 538.512 510.97 537.909 511.376 537.31L511.377 537.308C516.074 530.423 520.56 523.047 522.119 514.847L522.119 514.846C522.513 512.786 522.72 510.697 522.73 508.609C522.73 508.017 522.286 507.417 521.734 507.286L521.733 507.286C520.505 506.992 519.431 506.518 518.393 505.826C518.008 505.57 517.671 505.552 517.397 505.639C517.108 505.731 516.838 505.959 516.653 506.276C516.281 506.917 516.33 507.746 517.058 508.234C517.662 508.639 518.302 508.984 518.969 509.271C518.976 509.05 518.979 508.829 518.98 508.608L518.985 507.137L519.877 508.307L521.257 510.117L522.109 511.234L520.743 510.906C520.459 510.838 520.177 510.761 519.898 510.675C519.337 518.152 515.963 525.011 512.074 531.235L512.073 531.236C510.989 532.963 509.865 534.659 508.712 536.334C508.353 536.854 507.978 537.374 507.602 537.896C506.742 539.088 505.872 540.293 505.166 541.554C503.121 545.22 504.035 549.013 505.012 553.062C505.06 553.262 505.108 553.463 505.156 553.664C506.808 560.556 505.593 567.817 502.021 573.903C500.219 576.978 497.847 579.686 495.026 581.866L495.025 581.866C494.723 582.099 494.422 582.324 494.125 582.547C492.836 583.513 491.616 584.427 490.667 585.664L490.666 585.665C489.573 587.081 488.903 588.77 488.624 590.557C488.31 592.571 488.453 594.545 488.73 596.55C488.831 597.276 488.951 598.016 489.072 598.764C489.281 600.052 489.494 601.365 489.618 602.673M460.518 625.842C460.518 625.842 460.518 625.842 460.518 625.842L460.98 625.65L460.519 625.843C460.518 625.842 460.518 625.842 460.518 625.842ZM460.518 625.842C461.084 627.206 461.873 628.745 463.123 629.767L463.124 629.767C464.656 631.018 466.555 631.057 468.276 630.571L468.276 630.571C472.123 629.482 475.482 626.525 478.137 623.82M478.137 623.82C480.925 620.981 483.324 617.784 485.616 614.581L485.617 614.58L485.626 614.567C486.828 612.879 488.091 611.104 488.895 609.052C489.714 606.965 489.822 604.829 489.618 602.673M478.137 623.82L477.78 623.47L478.137 623.82C478.137 623.82 478.137 623.82 478.137 623.82ZM489.618 602.673C489.618 602.673 489.618 602.673 489.618 602.673L489.12 602.72L489.618 602.673Z" fill="#3E5C6D" stroke="#3E5C6D"/>
<path d="M518.711 507.38L518.673 507.374C516.178 506.985 513.486 506.506 511.159 505.228C508.526 503.788 507.34 501.534 506.494 498.872C505.667 496.272 504.797 493.873 503.585 491.519C502.368 489.153 501.03 487.051 499.629 484.859L499.628 484.859C499.421 484.534 499.213 484.208 499.003 483.881C496.417 479.845 493.714 475.627 492.554 470.817C491.914 468.166 491.676 465.092 492.906 462.44C493.995 460.092 496.081 458.545 498.257 457.462C500.608 456.292 503.231 455.622 505.763 455.178C508.611 454.667 511.577 454.758 514.032 456.719L514.033 456.72C515.972 458.273 517.472 460.395 518.842 462.333L518.918 462.441C519.52 463.293 520.112 464.156 520.706 465.021C521.511 466.195 522.318 467.372 523.155 468.527L523.155 468.527C525.956 472.394 529.145 476.096 533.435 478.139L533.435 478.139C534.666 478.725 535.957 479.136 537.286 479.514C537.652 479.618 538.024 479.721 538.398 479.824C539.367 480.09 540.353 480.361 541.319 480.686C544.087 481.616 546.248 483.448 548.102 485.637L548.102 485.637C549.066 486.778 549.973 487.963 550.871 489.138L550.936 489.223C551.814 490.372 552.685 491.511 553.603 492.609L553.604 492.609C555.632 495.036 557.789 497.351 560.084 499.527L560.085 499.528C564.696 503.921 569.841 507.763 575.438 510.79L575.438 510.791C576.203 511.205 576.934 510.859 577.307 510.22C577.493 509.903 577.562 509.549 577.501 509.24C577.443 508.946 577.26 508.65 576.853 508.43L576.852 508.43C571.501 505.538 566.606 501.921 562.196 497.743L562.196 497.743C558.463 494.201 555.318 490.263 552.159 486.308C551.644 485.663 551.129 485.018 550.611 484.374L518.711 507.38ZM518.711 507.38H518.75H518.76H518.793M518.711 507.38H518.793M518.793 507.38C519.05 507.46 519.281 507.668 519.441 507.973C519.625 508.325 519.674 508.731 519.589 509.034C519.378 509.77 518.678 510.119 517.838 509.986L517.836 509.986C514.736 509.507 511.588 508.809 509.003 507.121L509.003 507.121C506.261 505.331 504.84 502.697 503.837 499.549C503.836 499.548 503.836 499.548 503.836 499.548L503.36 499.7C502.4 496.67 501.24 493.83 499.68 491.12C498.669 489.363 497.578 487.657 496.486 485.95L518.793 507.38ZM535.459 476.042L535.458 476.042C530.69 474.06 527.418 469.854 524.631 465.877L524.63 465.876C524.154 465.194 523.688 464.513 523.223 463.833C522.26 462.426 521.303 461.029 520.288 459.658C518.583 457.361 516.816 455.09 514.441 453.647L535.459 476.042ZM535.459 476.042C536.809 476.601 538.213 476.979 539.58 477.347C539.718 477.385 539.856 477.422 539.993 477.459C541.502 477.868 542.964 478.288 544.343 478.95C546.833 480.152 548.847 482.184 550.61 484.373L535.459 476.042ZM495.145 482.897C492.222 478.167 489.603 473.09 489.319 467.555C489.174 464.555 489.884 461.55 491.697 459.184L491.697 459.183C493.214 457.197 495.308 455.743 497.623 454.717L497.624 454.717C500.13 453.599 503.13 452.589 506.115 452.234C509.103 451.879 512.03 452.186 514.44 453.647L495.145 482.897Z" fill="#3E5C6D" stroke="#3E5C6D"/>
<path d="M543.577 471.804L543.577 471.804C546.106 472.414 548.615 473.104 550.735 474.92M543.577 471.804L557.684 480.745M543.577 471.804C539.366 470.79 535.46 468.876 532.436 465.979C529.414 463.083 527.543 459.538 526.422 455.506C525.663 452.769 523.988 451.257 521.594 449.988C519.345 448.796 516.873 448.135 514.35 447.966V447.941L513.872 447.92C513.398 447.9 513.143 447.544 513.143 447.118C513.143 446.907 513.211 446.723 513.318 446.604C513.414 446.496 513.568 446.408 513.828 446.42M543.577 471.804L557.684 480.745M550.735 474.92C550.735 474.92 550.735 474.92 550.735 474.92L550.41 475.3L550.735 474.92C550.735 474.92 550.735 474.92 550.735 474.92ZM550.735 474.92C552.456 476.388 553.841 478.187 555.177 479.92C555.307 480.089 555.436 480.257 555.566 480.424L555.566 480.425C557.506 482.945 559.446 485.468 561.386 487.99L561.403 488.012C563.338 490.527 565.272 493.042 567.206 495.555C567.501 495.938 567.989 495.967 568.371 495.746C568.557 495.638 568.666 495.496 568.703 495.369C568.734 495.263 568.732 495.11 568.574 494.905L568.574 494.905L557.684 480.745M557.684 480.745L557.684 480.745C557.46 480.454 557.238 480.164 557.016 479.874C554.239 476.244 551.539 472.715 547.218 471.233L547.217 471.233C546.186 470.876 545.129 470.619 544.047 470.355C543.852 470.307 543.655 470.259 543.458 470.21C542.18 469.895 540.878 469.547 539.621 468.999C537.54 468.097 535.594 466.836 533.923 465.309C532.255 463.784 530.85 462.032 529.753 460.052L529.753 460.052C529.162 458.986 528.78 457.884 528.443 456.803C528.364 456.551 528.289 456.302 528.213 456.055C527.961 455.226 527.716 454.417 527.396 453.615C526.43 451.202 524.315 449.456 521.767 448.28C519.222 447.106 516.3 446.527 513.828 446.42M513.828 446.42L513.85 445.92L513.828 446.42Z" fill="#3E5C6D" stroke="#3E5C6D"/>
<path d="M499.151 568.846L499.162 568.989C499.147 569.164 499.078 569.273 499 569.345C498.889 569.446 498.713 569.514 498.501 569.514C498.07 569.513 497.695 569.25 497.659 568.773C497.659 568.773 497.659 568.773 497.659 568.773L496.599 554.105C496.278 549.551 496.024 545.45 497.809 541.297L497.81 541.297C498.64 539.36 499.637 537.444 500.762 535.668C501.29 534.843 501.891 534.125 502.648 533.562C502.875 533.393 503.092 533.25 503.319 533.099C503.476 532.995 503.639 532.887 503.813 532.765C504.214 532.486 504.623 532.169 504.978 531.758C505.766 530.849 506.421 529.788 507.017 528.724C507.275 528.264 507.517 527.814 507.754 527.372C508.079 526.766 508.395 526.177 508.731 525.603L508.732 525.602C509.962 523.492 511.201 521.373 512.441 519.264C512.574 519.038 512.74 518.946 512.897 518.917C513.068 518.886 513.268 518.923 513.449 519.029C513.63 519.135 513.76 519.291 513.817 519.454C513.869 519.605 513.869 519.793 513.738 520.018C512.508 522.128 511.269 524.247 510.029 526.357L510.029 526.357C509.684 526.944 509.353 527.532 509.024 528.117C508.275 529.449 507.537 530.761 506.673 531.99C506.153 532.711 505.61 533.316 504.907 533.825C504.726 533.956 504.539 534.081 504.345 534.21C504.328 534.221 504.311 534.233 504.293 534.244C504.117 534.361 503.934 534.483 503.755 534.609C503.361 534.887 502.962 535.206 502.617 535.619C501.342 537.137 500.385 539.215 499.581 540.963C499.525 541.084 499.47 541.203 499.416 541.32C498.411 543.474 497.832 545.692 497.78 548.079L497.78 548.081C497.748 549.846 497.89 551.622 498.029 553.361C498.064 553.799 498.099 554.234 498.131 554.666C498.301 557.027 498.471 559.386 498.64 561.744L498.641 561.756L498.642 561.765C498.812 564.124 498.981 566.484 499.151 568.846Z" fill="#3E5C6D" stroke="#3E5C6D"/>
<path d="M480.52 433.1C482.68 431.52 484.85 429.93 487.01 428.35C488.82 427.02 490.68 425.7 491.97 423.81C493.26 421.92 493.66 419.65 493.94 417.44C494.22 415.23 494.36 413.1 493.13 411.24C492.25 409.9 490.08 411.15 490.97 412.5C491.96 414.01 491.64 415.94 491.41 417.63C491.14 419.58 490.69 421.56 489.39 423.09C488.09 424.62 486.48 425.65 484.93 426.79C483.04 428.18 481.14 429.56 479.25 430.95C477.96 431.89 479.21 434.06 480.51 433.11L480.52 433.1Z" fill="#221F20"/>
<path d="M417.46 417.08C421.45 410.64 429.35 408.17 434.12 402.45C436.93 399.08 438.16 394.8 440.32 391.03C442.48 387.26 444.96 384.1 447.94 381.18C451.33 377.85 455.2 375.08 459.41 372.9C460.84 372.16 459.58 370 458.15 370.74C450.66 374.62 444.19 380.39 439.58 387.46C438.41 389.25 437.37 391.12 436.47 393.05C435.45 395.23 434.58 397.49 433.24 399.5C431.09 402.71 427.77 404.93 424.65 407.11C421.14 409.57 417.6 412.11 415.31 415.82C414.46 417.19 416.62 418.45 417.47 417.08H417.46Z" fill="#221F20"/>
<path d="M411.547 469.246C405.777 474.986 402.163 482.654 401.602 490.796L401.601 490.796C401.568 491.271 401.197 491.533 400.766 491.534C400.555 491.534 400.377 491.466 400.265 491.364C400.165 491.274 400.081 491.125 400.099 490.865C400.444 485.952 401.775 481.2 404.053 476.842C408.259 468.815 415.662 462.917 423.688 458.815L423.688 458.815C427.123 457.058 431.626 454.968 436.042 454.185C440.454 453.402 444.672 453.937 447.688 457.284C448.004 457.639 447.929 458.079 447.627 458.382C447.478 458.531 447.302 458.611 447.146 458.619C447.006 458.627 446.837 458.58 446.662 458.386L446.661 458.385C443.225 454.575 437.752 455.137 433.546 456.401L433.546 456.401C425.477 458.832 417.542 463.271 411.547 469.246Z" fill="#3E5C6D" stroke="#3E5C6D"/>
<path d="M454.497 537.199L454.497 537.199C452.91 542.272 451.383 547.617 453.084 552.671L453.084 552.671C453.806 554.817 455.044 556.667 456.779 558.105L456.78 558.106C457.261 558.506 457.765 558.885 458.28 559.268C458.35 559.32 458.42 559.372 458.491 559.424C458.936 559.754 459.388 560.09 459.828 560.438C460.848 561.247 461.831 562.151 462.589 563.318C463.983 565.461 464.638 567.949 465.13 570.339M454.497 537.199L464.64 570.44M454.497 537.199C454.638 536.747 455.043 536.595 455.453 536.707M454.497 537.199L455.453 536.707M465.13 570.339L464.64 570.44M465.13 570.339C465.13 570.339 465.13 570.339 465.13 570.339L464.64 570.44M465.13 570.339C465.138 570.377 465.146 570.416 465.153 570.454C465.689 573.052 466.295 575.989 464.62 578.581L464.62 578.581C464.147 579.313 463.637 580.013 463.139 580.695C462.908 581.012 462.68 581.326 462.459 581.637C461.754 582.63 461.107 583.628 460.607 584.753C459.592 587.036 459.052 589.365 458.767 591.818M464.64 570.44L464.647 570.476C465.195 573.135 465.763 575.891 464.2 578.31C463.735 579.029 463.239 579.71 462.746 580.386C461.786 581.703 460.837 583.004 460.15 584.55C459.11 586.89 458.56 589.27 458.27 591.76M458.767 591.818C458.767 591.818 458.767 591.818 458.767 591.818L458.27 591.76M458.767 591.818L458.27 591.76M458.767 591.818C458.039 598.084 459.542 604.367 461.026 610.533M458.27 591.76C457.53 598.13 459.06 604.5 460.54 610.65M460.54 610.65L461.026 610.532C461.026 610.532 461.026 610.532 461.026 610.533M460.54 610.65L461.026 610.533C461.026 610.533 461.026 610.533 461.026 610.533M460.54 610.65L460.141 593.178M461.026 610.533C461.087 610.784 461.215 610.91 461.349 610.975C461.497 611.047 461.694 611.063 461.898 611.008C462.101 610.952 462.273 610.834 462.377 610.685C462.473 610.547 462.526 610.361 462.464 610.108L462.464 610.107L462.425 609.947C461.121 604.521 459.769 598.9 460.141 593.178M460.141 593.178C460.304 590.643 460.824 588.077 461.819 585.706C462.325 584.501 463.022 583.418 463.754 582.383C464.013 582.017 464.272 581.661 464.53 581.307C465.014 580.644 465.491 579.99 465.941 579.298C467.236 577.304 467.397 574.848 467.016 572.345L467.016 572.345C466.668 570.05 466.184 567.73 465.372 565.587C464.563 563.451 463.403 561.528 461.711 560.046L461.709 560.045C461.072 559.483 460.389 558.985 459.684 558.471C459.374 558.245 459.06 558.017 458.744 557.778C457.728 557.011 456.724 556.164 455.943 555.071M460.141 593.178L455.943 555.071M455.943 555.071C454.035 552.406 453.631 549.35 453.901 546.317C454.17 543.294 455.115 540.243 455.953 537.561M455.943 555.071L455.953 537.561M455.953 537.561C456.03 537.311 455.985 537.137 455.905 537.014M455.953 537.561L455.905 537.014M455.453 536.707C455.656 536.763 455.816 536.878 455.905 537.014M455.453 536.707L455.905 537.014" fill="#3E5C6D" stroke="#3E5C6D"/>
<path d="M551.37 594.99C552.314 594.99 553.08 594.301 553.08 593.45C553.08 592.599 552.314 591.91 551.37 591.91C550.426 591.91 549.66 592.599 549.66 593.45C549.66 594.301 550.426 594.99 551.37 594.99Z" fill="#221F20"/>
<path d="M766.82 746.88V761.22" stroke="#3E5C6D" stroke-width="2" stroke-miterlimit="10"/>
<path d="M758.65 691.76V694.74C758.65 694.74 758.79 697.59 758.65 698.52C758.52 699.39 757.76 701.03 757.6 701.9C757.4 703.05 757.51 705.41 757.6 706.57C757.7 707.8 758.01 710.25 758.12 711.48C758.29 713.39 758.71 717.21 758.64 719.13C758.57 721.05 757.81 724.62 757.59 726.46C757.37 728.3 756.54 731.75 756.95 733.46C757.09 734.06 757.82 735.1 758.24 735.56C758.88 736.25 760.35 737.43 761.06 738.06C761.77 738.69 763.16 739.95 763.88 740.56L764.88 741.86L766.18 744.2L766.83 745.84V746.89" stroke="#3E5C6D" stroke-width="2" stroke-miterlimit="10"/>
<path d="M752.37 726.49L747.92 722.42L741.25 719.85L731.67 717.8L719.52 715.91H710.11L700.37 717.8L690.28 721.82" stroke="#3E5C6D" stroke-width="2" stroke-miterlimit="10"/>
<path d="M885.5 683.56L886.92 687.32L889.5 690.14L894.35 695.21L897.97 698L902.93 701.62C902.93 701.62 904.57 702.97 904.89 703.58C905.14 704.05 905.02 705.21 905.3 705.66C905.77 706.41 907.45 707.22 908.09 707.82C909.45 709.09 911.83 711.99 913.05 713.4C913.6 714.04 914.48 715.59 915.22 715.98C916.35 716.58 920.29 716.5 920.29 716.5H927.01C927.01 716.5 930.71 716.46 931.86 716.09C933.8 715.47 937.06 712.85 938.89 711.96C940.27 711.28 943.34 710.58 944.57 709.69C945.58 708.95 947.77 705.87 947.77 705.87" stroke="#3E5C6D" stroke-width="2" stroke-miterlimit="10"/>
<path d="M950.17 707.39L954.1 702.54C954.1 702.54 958.79 697.37 960.2 695.51C961.61 693.65 964.69 689.99 965.37 687.76C965.46 687.44 965.37 686.76 965.37 686.41" stroke="#3E5C6D" stroke-width="2" stroke-miterlimit="10"/>
<path d="M954.47 663.23C954.47 664.25 961.86 663.38 962.88 663.3C964.45 663.18 967.58 662.7 969.12 662.39C969.12 662.39 971.69 662.03 972.55 661.98C973.15 661.94 974.4 661.8 974.97 661.98C975.54 662.16 976.41 662.94 976.88 663.28C977.53 663.75 978.82 664.71 979.39 665.27C980.1 665.96 981.32 667.53 981.94 668.3C983.18 669.79 985.45 672.94 986.82 674.32C987.85 675.37 990.64 676.78 991.36 678.07C991.96 679.15 991.85 681.74 992.04 682.95C992.32 684.66 992.8 688.1 993.29 689.76C994.08 692.42 997.61 697.24 997.61 700.02" stroke="#3E5C6D" stroke-width="2" stroke-miterlimit="10"/>
<path d="M993.31 689.76C993.31 690.98 998.07 693.4 998.99 694.19C999.75 694.84 1001.65 695.58 1002.62 695.78C1003.73 696.01 1006.05 695.53 1007.16 695.78C1008.83 696.16 1013.34 697.02 1013.34 698.73" stroke="#3E5C6D" stroke-width="2" stroke-miterlimit="10"/>
<path d="M1000.58 700.02C1000.58 701.15 1003.85 700.96 1004.87 701.45C1006.17 702.08 1008.6 703.68 1009.67 704.63C1010.74 705.58 1013.35 707.53 1013.35 708.95" stroke="#3E5C6D" stroke-width="2" stroke-miterlimit="10"/>
<path d="M993.31 700.02V689.76" stroke="#3E5C6D" stroke-width="2" stroke-miterlimit="10"/>
<path d="M904.9 703.57L906.21 713.81L908.07 718.4C908.07 718.4 909.4 720.46 909.6 721.25C909.96 722.65 909.46 725.6 909.6 727.04C909.8 729.2 910.62 733.49 911.24 735.57C911.71 737.16 912.83 740.32 913.76 741.7C914.68 743.08 917.49 745.27 918.67 746.51C919.85 747.75 922.43 750.41 923.48 751.87C924.65 753.49 925.95 757.53 927.53 758.76C928.75 759.71 933.47 758.96 933.47 760.51" stroke="#3E5C6D" stroke-width="2" stroke-miterlimit="10"/>
<path d="M963.29 670.7V677.16C963.29 678.53 963.44 681.28 963.29 682.64C963.19 683.6 962.82 685.51 962.48 686.41C961.81 688.22 959.96 691.66 958.78 693.19C957.7 694.59 953.62 698.04 953.62 698.04L945.29 704.05L936.51 708.95L929.49 711.32H922.85" stroke="#3E5C6D" stroke-width="2" stroke-miterlimit="10"/>
<path d="M704.43 677.33L705.65 664.91L706.95 652.41L708.63 635.25C708.63 635.25 708.43 622.94 708.63 618.84C708.78 615.83 709.53 609.82 709.79 606.82C710.02 604.21 709.91 598.89 710.62 596.37C711.19 594.35 713.25 590.62 714.42 588.89C715.5 587.29 718.26 584.53 719.53 583.07C721.2 581.15 724.6 577.35 726.18 575.35C727.88 573.2 730.91 568.61 732.59 566.44C734.15 564.42 737.15 560.22 739.13 558.6C740.62 557.38 743.98 555.12 745.9 554.92C747.47 554.75 750.48 556.15 751.95 556.7C753.7 557.35 757.09 558.89 758.72 559.79C760.49 560.76 764.01 562.81 765.49 564.19C766.53 565.16 768.93 567.28 768.93 568.7" stroke="#3E5C6D" stroke-width="2" stroke-miterlimit="10"/>
<path d="M757.07 608.36C757.55 608.84 759.12 608.36 759.8 608.36C760.84 608.36 762.98 608.71 763.96 608.36C764.75 608.08 765.92 606.76 766.57 606.22C768.15 604.92 771.43 602.46 772.86 600.99C773.89 599.93 775.56 597.46 776.54 596.35C778 594.72 780.97 591.48 782.72 590.17C784.1 589.14 787.1 587.27 788.77 586.84C790.44 586.41 793.86 586.69 795.54 586.84C796.84 586.96 799.52 587.15 800.65 587.79C801.4 588.22 802.69 589.57 802.91 590.4C803.08 591.08 802.65 592.52 802.31 593.13C801.63 594.4 799.27 596.24 798.27 597.29C797.46 598.14 795.77 599.79 795.06 600.73C794.23 601.84 793.04 604.38 792.21 605.48C791.47 606.46 789.76 608.19 788.88 609.05C787.8 610.09 785.37 611.87 784.37 612.97C783.1 614.35 780.94 617.42 779.97 619.02C779 620.62 776.76 625.67 776.76 625.67L773.19 632.21L768.91 639.33L765.47 646.45L760.42 652.15L753.59 658.2L750.62 662.12L747.89 665.8L746.7 671.74L745.49 676.16" stroke="#3E5C6D" stroke-width="2" stroke-miterlimit="10"/>
<path d="M717.99 593.87C717.99 592.95 718.73 591.16 719.3 590.43C720.39 589.01 723.62 587.24 725.12 586.27C726.94 585.09 730.71 582.94 732.6 581.87C735.71 580.12 742.1 576.88 745.19 575.1C747.94 573.51 752.95 569.31 756 568.45C758.14 567.85 762.69 568.33 764.91 568.45C766.73 568.55 770.35 569.02 772.16 569.28C774.82 569.67 780.1 570.66 782.73 571.18C784.94 571.62 789.41 572.62 791.4 573.68C793.2 574.63 796.8 577.06 797.69 578.91C798.09 579.74 797.92 581.27 797.65 582.59C797.18 584.88 794.26 585.57 792.83 585.81C791.4 586.05 788.51 586.29 787.08 586.45C786.11 586.56 784.18 586.82 783.21 586.88C781.34 587 777.6 587.09 775.73 587C774.38 586.93 771.67 586.81 770.39 586.4C769.62 586.16 768.35 584.83 767.54 584.86C766.06 584.92 763.79 587.25 762.55 588.07C760.88 589.16 757.5 591.28 755.9 592.47C754.79 593.3 751.95 594.68 751.62 596.04C751.5 596.56 752.28 597.5 752.45 598C752.68 598.68 752.86 600.14 753.16 600.79C753.46 601.44 754.31 602.57 754.83 603.05C755 603.21 755.35 603.5 755.53 603.65C755.79 603.88 756.38 604.28 756.57 604.57C756.71 604.77 756.82 605.27 756.88 605.51C756.96 605.85 757.08 606.9 757.08 606.9L757.33 608.62C757.33 608.22 755.9 608.24 755.53 608.1C755.12 607.95 754.29 607.57 754.02 607.22C753.78 606.9 753.79 606.03 753.64 605.66C753.47 605.21 753.09 604.27 752.7 603.98C752.47 603.81 751.89 603.73 751.62 603.72C751.15 603.7 749.76 603.51 749.76 603.98" stroke="#3E5C6D" stroke-width="2" stroke-miterlimit="10"/>
<path d="M768.11 575.1C768.11 575.87 768.15 577.41 768.11 578.19C768.04 579.86 767.51 583.18 767.51 584.84" stroke="#3E5C6D" stroke-width="2" stroke-miterlimit="10"/>
<path d="M752.44 562.39V570.64" stroke="#3E5C6D" stroke-width="2" stroke-miterlimit="10"/>
<path d="M745.43 569.28V574.03" stroke="#3E5C6D" stroke-width="2" stroke-miterlimit="10"/>
<path d="M714.43 588.88C714.43 585.95 714.89 580.1 715.5 577.24C716.15 574.17 717.9 568.04 719.54 565.36C720.21 564.27 721.93 562.18 723.11 561.68C724.01 561.29 726.05 561.6 727.03 561.68C728.11 561.77 730.27 562.09 731.31 562.39C732.21 562.65 734.75 562.94 734.75 563.87" stroke="#3E5C6D" stroke-width="2" stroke-miterlimit="10"/>
<path d="M707.89 612.99C707.89 611.34 705.42 608.68 704.53 607.29C703.39 605.5 700.49 602.25 699.7 600.28C699.14 598.88 698.71 595.84 698.75 594.34C698.78 593.22 699.06 590.87 699.7 589.94C700.34 589.01 702.39 588.11 703.32 587.57C704.63 586.81 707.32 585.42 708.73 584.84C710.25 584.21 714.99 584.44 714.99 582.8" stroke="#3E5C6D" stroke-width="2" stroke-miterlimit="10"/>
<path d="M797.62 598C797.62 596.78 794.31 595.66 793.38 594.86C792.75 594.32 791.38 593.22 791.13 592.43C791 592.02 791.18 591.11 791.37 590.71C791.63 590.16 792.54 589.29 793.03 588.93C793.89 588.3 796.86 588.15 796.86 587.09" stroke="#3E5C6D" stroke-width="2" stroke-miterlimit="10"/>
<path d="M793.82 586.28C793.82 584.77 797.92 584.35 799.31 583.77C800.2 583.4 802.02 582.77 802.92 582.42C804 582 806.38 581.47 807.22 580.67C807.92 580.01 808.49 578.08 808.88 577.2C809.51 575.77 810.67 572.85 811.25 571.39C811.73 570.18 812.47 567.64 813.15 566.53C814.15 564.91 816.78 562.07 818.24 560.84C819.58 559.72 822.67 558.06 824.16 557.16C826.51 555.76 831.28 553.09 833.64 551.71C835.13 550.84 837.93 548.7 839.56 548.15C840.58 547.81 842.76 547.55 843.82 547.68C845.2 547.85 847.79 548.95 849.04 549.58C850.29 550.21 852.66 552.02 853.9 552.78C854.57 553.19 855.95 553.92 856.63 554.32C858.34 555.32 861.67 557.48 863.38 558.47C865.42 559.65 869.65 561.76 871.68 562.97C872.84 563.66 875.15 565.07 876.18 565.93L878.14 568.16L879.09 570.39" stroke="#3E5C6D" stroke-width="2" stroke-miterlimit="10"/>
<path d="M855.1 575.55C855.1 573.18 848.99 571.9 847.04 570.57C845.82 569.73 843.55 567.8 842.3 567.01C841.43 566.46 839.63 564.87 838.62 565.11C838.02 565.26 837.66 566.72 837.2 567.13C835.89 568.27 832.7 569.83 831.04 570.33C829.93 570.66 827.58 570.74 826.42 570.8C825.71 570.84 824.08 570.3 823.57 570.8C823.21 571.16 823.66 572.32 823.57 572.82C823.36 574 821.91 576.12 821.91 577.32V578.61L815.05 578.97L811.51 579.44L807.22 580.67" stroke="#3E5C6D" stroke-width="2" stroke-miterlimit="10"/>
<path d="M865.65 603.64C865.65 602.32 862.2 601.65 861.03 601.03C859.23 600.08 855.42 598.55 853.68 597.47C851.69 596.24 848.1 593.22 846.26 591.78C844.64 590.52 841.47 587.91 839.82 586.69C838.17 585.47 834.89 582.95 833.07 582.01C831.64 581.27 828.58 580.23 827.02 579.82C825.46 579.41 822.07 578.69 820.38 578.63C818.69 578.57 815.29 578.7 813.74 579.34C812.79 579.74 811.18 581.14 810.54 581.95C809.95 582.7 808.84 584.43 808.88 585.38C808.9 585.96 809.65 586.98 810.07 587.4C810.63 587.97 812.11 588.64 812.8 589.06C813.66 589.58 815.43 590.53 816.23 591.13C817.16 591.83 818.71 593.61 819.66 594.27C821.22 595.35 824.87 596.61 826.41 597.7C827.41 598.42 829.06 600.3 829.97 601.13C831.63 602.67 834.88 605.86 836.72 607.18C837.91 608.02 840.62 609.19 841.81 610.03C843 610.87 845.28 612.72 846.23 613.82C847.37 615.12 849.09 618.15 849.98 619.63C850.82 621.03 853.18 625.32 853.18 625.32L857.44 632.07L863.25 635.86L870.13 641.08L878.54 648.19L890.04 656.73L895.61 661.71L901.66 668.94L908.06 677.24L912.45 682.93C912.45 682.93 914.01 686.79 914.01 688.16" stroke="#3E5C6D" stroke-width="2" stroke-miterlimit="10"/>
<path d="M858.07 599.65C858.07 598.65 859.61 595.13 859.84 594.16C860.07 593.19 859.98 591.31 859.84 590.37C859.73 589.61 859.3 588.1 858.95 587.41C858.51 586.55 857.17 585.12 856.64 584.33C855.71 582.95 853.65 580.24 853.21 578.64C852.96 577.73 853.09 574.26 853.09 573.31" stroke="#3E5C6D" stroke-width="2" stroke-miterlimit="10"/>
<path d="M891.33 658.08C891.33 659.4 889.5 661.58 888.75 662.66C888.2 663.45 886.77 664.8 886.26 665.62C885.49 666.86 884.19 669.53 883.89 670.95C883.59 672.37 883.82 675.13 883.89 676.52C883.96 678.06 883.77 681.31 884.48 682.68C884.92 683.53 887.38 685.17 887.38 685.17L892.89 686.59C892.89 686.59 898.34 688.55 900.24 688.84C902.14 689.13 908.06 688.84 908.06 688.84C908.06 688.84 915.04 688.59 917.19 687.77C919.34 686.95 922.77 684.15 924.42 682.68C926.07 681.21 929.18 677.69 930.47 675.8C931.76 673.91 934.86 667.26 934.86 667.26L936.52 658.85L935.57 652.21L932.19 647.54" stroke="#3E5C6D" stroke-width="2" stroke-miterlimit="10"/>
<path d="M859.84 550.55C859.84 551.25 859.76 552.8 859.25 553.28C858.74 553.76 856.64 553.64 856.64 554.35" stroke="#3E5C6D" stroke-width="2" stroke-miterlimit="10"/>
<path d="M817.67 578.9C817.67 579.91 820.55 580.94 821.27 581.65C821.8 582.17 822.7 583.41 822.92 584.12C823.17 584.95 823.19 586.78 822.92 587.6C822.67 588.38 821.63 589.74 821 590.26C820.37 590.78 817.35 591.29 817.35 592.14" stroke="#3E5C6D" stroke-width="2" stroke-miterlimit="10"/>
<path d="M833.18 600.44C833.18 599.87 833.84 598.8 834.28 598.42C834.72 598.04 836.39 598.27 836.39 597.71" stroke="#3E5C6D" stroke-width="2" stroke-miterlimit="10"/>
<path d="M830.62 596.41C830.62 595.9 832.27 595.73 832.27 595.22" stroke="#3E5C6D" stroke-width="2" stroke-miterlimit="10"/>
<path d="M824.16 557.18C824.16 555.52 824.2 552.18 824.49 550.54C824.67 549.53 825.11 547.45 825.71 546.61C826.39 545.66 828.5 544.48 829.51 543.9C830.6 543.27 833.08 542.57 834.12 541.86C835.1 541.21 837.51 538.61 837.51 538.61L840.22 536.3L844.56 535.35L852.1 537.58" stroke="#3E5C6D" stroke-width="2" stroke-miterlimit="10"/>
<path d="M788.5 603.93C788.5 603.22 790.41 602.85 791.13 602.82C791.73 602.8 793.4 602.97 793.4 603.56" stroke="#3E5C6D" stroke-width="2" stroke-miterlimit="10"/>
<path d="M748.68 593.08C748.68 593.49 748.74 594.38 748.99 594.71C749.43 595.29 751.6 595.27 751.6 596" stroke="#3E5C6D" stroke-width="2" stroke-miterlimit="10"/>
<path d="M712.28 593.17C712.28 592.58 710.8 592.21 710.29 591.91C710.05 591.77 709.5 591.6 709.32 591.4C709.17 591.24 708.93 590.82 709 590.61C709.04 590.48 709.33 590.34 709.46 590.33C709.82 590.32 710.44 590.81 710.76 590.98C711.28 591.25 712.79 591.51 712.79 592.09" stroke="#3E5C6D" stroke-width="2" stroke-miterlimit="10"/>
<path d="M758.65 688.4L754.65 682.21C754.65 682.21 751.55 678.27 750.14 677.44C747.99 676.17 740.46 674.99 740.46 674.99C740.46 674.99 734.19 673.69 732.08 673.57C729.05 673.4 719.96 674.22 719.96 674.22C719.96 674.22 713.15 674.63 710.93 675.12C708.83 675.59 702.8 677.96 702.8 677.96C702.8 677.96 696.32 681.35 694.42 682.86C693.79 683.35 692.51 684.43 692.23 685.18C692.05 685.68 692.23 687.31 692.23 687.31V692.54L693.39 698.99V701.96L692.23 707.77C692.23 707.77 691.44 709.97 691.33 710.74C691.15 711.98 691.33 715.77 691.33 715.77L690.3 721.83V725.7L690.98 726.15C690.98 726.15 692.63 726.3 693.16 726.15C694.11 725.88 695.68 724.56 696.54 724.05C697.63 723.42 699.77 722.04 700.96 721.63C702.33 721.16 705.24 720.89 706.67 720.74C708.26 720.58 713.03 720.42 713.03 720.42L720.84 720.58L728.89 721.31L737.99 723.41C737.99 723.41 745.7 726.28 748.29 727.19C749.37 727.57 751.64 728.09 752.63 728.64C753.54 729.14 756.87 731.83 756.87 731.83" stroke="#3E5C6D" stroke-width="2" stroke-miterlimit="10"/>
<path d="M755.81 690.99C755.81 690.99 754.01 687.71 753.23 686.73C752.45 685.75 749.62 683.24 749.62 683.24C749.62 683.24 744.96 679.85 743.17 679.24C740.44 678.31 731.69 678.08 731.69 678.08C731.69 678.08 722.78 677.91 719.82 678.08C717.13 678.24 711.7 678.6 709.11 679.37C706.76 680.06 700.21 683.5 700.21 683.5L695.44 687.31" stroke="#3E5C6D" stroke-width="2" stroke-miterlimit="10"/>
<path d="M754.8 660.84L756.95 666.76L759.88 671.84L762.19 678.08L766.23 689.48C766.23 689.48 766.83 692.01 767.42 692.59C768.32 693.47 770.92 694.07 772.16 694.29C774.7 694.73 779.9 694.58 782.46 694.29C786.09 693.88 793.14 691.76 796.71 690.99C800.28 690.22 807.53 688.92 811.1 688.09C814.41 687.31 821.02 685.68 824.22 684.55C828.29 683.11 840.03 677.58 840.03 677.58L849.63 673.58L863.74 669.04L873.76 666.5L880.11 665.51C880.11 665.51 880.31 668.28 880.11 669.18C879.86 670.32 878.69 672.39 878.14 673.42C877.03 675.46 874.59 679.45 873.2 681.32C870.64 684.78 864.82 691.14 861.91 694.3C859.48 696.94 851.89 704.6 851.89 704.6L845.4 715.6L835.8 729.57L824.8 750.46" stroke="#3E5C6D" stroke-width="2" stroke-miterlimit="10"/>
<path d="M766.23 689.49L777.09 690.05H783.87L794.45 687.94L802.92 685.68L815.34 680.74L829.03 675.71L838.06 672.28L847.23 669.31L861.32 665.22L870.79 663.24" stroke="#3E5C6D" stroke-width="2" stroke-miterlimit="10"/>
<path d="M880.11 665.5C880.11 664.26 878.41 660.84 878.41 660.84L876.86 656.89L874.46 649.5L873.94 644.3" stroke="#3E5C6D" stroke-width="2" stroke-miterlimit="10"/>
<path d="M965.88 683.56C965.88 682.29 965.94 679.73 965.88 678.46C965.81 677.06 965.95 674.15 965.36 672.88C965.05 672.2 963.85 671.22 963.29 670.71C961.63 669.18 956.26 665.03 956.26 665.03L951.09 659.86L946.24 656.66L942.21 652.32L939.21 649.52L938.07 650.77V655.52L938.59 661.1L937.35 669.37L934.15 676.92L929.5 682.09C929.5 682.09 925.4 687.2 923.61 688.39C922.07 689.42 918.44 690.51 916.65 690.97C914.69 691.48 910.65 692.16 908.62 692.21C906.72 692.25 901.07 691.38 901.07 691.38" stroke="#3E5C6D" stroke-width="2" stroke-miterlimit="10"/>
<path d="M939.21 649.5L936.88 647.54L935.17 646.46H932.65H931.15" stroke="#3E5C6D" stroke-width="2" stroke-miterlimit="10"/>
<path d="M784.39 580.68C784.39 581.27 784.48 582.45 784.39 583.03C784.24 584.02 783.2 585.85 783.2 586.86" stroke="#3E5C6D" stroke-width="2" stroke-miterlimit="10"/>
<path d="M932.18 647.55L929.49 644.76L925.3 640.67L920.33 635.55L915.56 629.5L911.99 621.74C911.99 621.74 908.92 612 907.69 608.82C906.39 605.47 903.21 599 901.82 595.69C900.58 592.74 898.48 586.68 897.07 583.81C895.26 580.13 891.06 573.04 888.69 569.68C887 567.29 883.04 562.95 881.19 560.68C878.36 557.22 872.42 550.5 869.99 546.74C868.99 545.19 867.79 541.59 866.61 540.17C866 539.43 863.59 537.8 863.59 537.8L859.84 536.08H856.52L852.39 536.97C852.39 536.97 850.76 540.71 850.18 541.95C849.37 543.68 846.83 546.9 846.83 548.81" stroke="#3E5C6D" stroke-width="2" stroke-miterlimit="10"/>
<path d="M823.58 570.81L822.63 569.48L822.06 568.04V566.6" stroke="#3E5C6D" stroke-width="2" stroke-miterlimit="10"/>
<path d="M838.62 565.12C838.62 565.12 838.16 563.43 838.14 562.86C838.13 562.41 838.31 561.51 838.38 561.06C838.43 560.77 838.62 560.2 838.62 559.91" stroke="#3E5C6D" stroke-width="2" stroke-miterlimit="10"/>
<path d="M500.34 436.404L500.339 436.404C498.485 437.362 496.646 437.654 495.105 437.898L495.013 437.913C494.223 438.038 493.53 438.151 492.926 438.331C492.326 438.509 491.849 438.742 491.481 439.086L491.3 439.255L491.055 439.213C485.214 438.21 480.696 439.738 477.256 440.901C476.284 441.23 475.399 441.529 474.594 441.735C468.891 443.195 464.398 445.778 458.49 449.183L458.489 449.183C454.81 451.302 453.203 452.491 452.118 453.295L452.108 453.303C451 454.124 450.382 454.583 448.722 455.19L448.722 455.19C439.223 458.659 429.584 454.708 425.321 452.961L425.3 452.953L425.299 452.952C424.464 452.608 422.893 451.759 420.423 450.352C417.94 448.938 414.518 446.942 409.961 444.283L409.958 444.282L409.958 444.282C408.97 443.705 408.096 443.193 407.318 442.737C402.36 439.83 401.275 439.193 398.961 438.573L398.959 438.573C398.274 438.387 395.239 437.607 391.792 437.559C388.321 437.51 384.583 438.206 382.328 440.817C381.254 442.063 381.088 443.074 380.898 444.236C380.894 444.261 380.89 444.286 380.886 444.311C380.683 445.549 380.434 446.913 379.026 448.618L379.026 448.618C377.393 450.595 375.712 451.207 373.936 451.848L373.902 451.86C372.159 452.489 370.281 453.167 368.036 455.201L368.034 455.202C367.432 455.748 366.292 456.785 365.379 458.035C364.45 459.307 363.847 460.679 364.119 461.923L364.119 461.925C364.329 462.905 365.058 463.697 366.051 464.348C367.038 464.997 368.218 465.461 369.205 465.808C393.382 474.233 412.821 474.958 426.201 473.585C432.893 472.899 438.072 471.687 441.573 470.649C443.323 470.131 444.654 469.655 445.545 469.311C445.991 469.139 446.326 468.999 446.549 468.903C446.66 468.856 446.743 468.819 446.798 468.794C446.825 468.782 446.846 468.772 446.859 468.766L446.873 468.76L446.876 468.758L446.876 468.758L500.34 436.404ZM500.34 436.404C502.064 435.512 503.446 435.378 504.65 435.604C505.877 435.834 506.964 436.443 508.102 437.135C508.224 437.209 508.348 437.285 508.472 437.361C510.608 438.672 512.947 440.106 516.323 438.775C520.902 436.972 524.699 436.808 527.342 437.126C528.52 437.268 529.468 437.506 530.154 437.736C529.784 437.773 529.348 437.813 528.847 437.859L528.528 437.888C527.848 437.951 527.062 438.024 526.181 438.113C522.654 438.468 517.591 439.067 511.476 440.225C499.247 442.54 482.802 447.09 466.008 456.383L466.008 456.383M500.34 436.404L466.008 456.383M466.008 456.383C459.785 459.829 457.415 461.783 455.394 463.449M466.008 456.383L455.394 463.449M455.394 463.449L455.366 463.473M455.394 463.449L455.366 463.473M455.366 463.473C453.381 465.109 451.736 466.459 446.876 468.758L455.366 463.473Z" fill="#B4AEAE" stroke="#3E5C6D"/>
<path d="M237.2 417.49C233.64 417.03 230.18 415.37 230.18 415.37C229.4 415 226.66 413.63 222.5 409.7C220.16 407.49 217.04 404.13 213.95 399.42C220.93 396.24 225.43 392.36 228.31 389.29C232.11 385.24 232.54 383.18 237.77 376.46C239.47 374.27 243.78 368.78 249.28 363.73C254.1 359.3 258.97 356.4 268.71 350.59C275.28 346.67 281.64 342.4 288.19 338.46C292.75 335.72 296.82 333.34 296.49 330.97C296.09 328.14 289.88 328.43 289.47 326.05C288.65 321.31 312.44 313.98 324.53 311.06C326.15 310.67 331.3 309.48 337.87 310.24C340.39 310.53 349.61 311.61 350.28 315.25C350.85 318.33 344.61 319.43 338.8 328.04C335.7 332.64 333.9 337.62 333.24 339.49C331.26 345.07 331.8 346.32 329.82 350.27C328.31 353.28 325.72 358.43 321.33 359.34C317.83 360.07 316.54 357.41 311.8 356.59C306.48 355.68 302.05 357.98 297.5 360.43C288.56 365.24 283.06 371.83 281.61 373.61C261.01 398.79 246.62 418.7 237.22 417.48H237.2V417.49Z" fill="#455C6C"/>
<path d="M218.09 427.43C218 425.28 227.92 425.74 239.29 418.45C241.61 416.97 246.58 413.5 256.81 399.88C272.5 379 269.96 374.97 279.51 366.7C289.52 358.02 300.44 355.41 307.48 353.72C321.41 350.39 333.15 351.72 333.29 352.98C333.42 354.14 323.55 354.35 321.39 360.23C320.35 363.07 322 364.79 322.51 369.15C323.35 376.3 319.75 378.98 317.44 387.6C316.47 391.22 312.74 405.08 318.99 411.43C323.63 416.15 331.98 414.88 333.33 414.67C340.27 413.61 341.32 409.7 346.7 409.9C349.24 409.99 350.43 410.91 359.67 417.41C371.31 425.59 373.84 427.23 376.74 426.37C380.11 425.37 380.01 422.17 384.23 420.7C385.47 420.27 388.68 419.43 394.55 421.91C402.31 425.19 406.01 430.61 410.23 434.94C417.43 442.34 429.82 450.42 441.19 450.02C451.14 449.66 452.07 443.1 464.56 438.14C486.43 429.46 509.12 439.42 509.02 440.27C508.95 440.9 496.43 436.52 480.83 441.66C470.54 445.05 468.34 449.47 459.31 453C455.96 454.31 440.91 459.3 425.73 453.56C422.64 452.39 415.37 448.75 400.84 441.48C397.29 439.7 393.36 437.71 389.72 439.28C384.97 441.32 385.58 447.29 381.35 449.62C376.35 452.36 371.72 446.14 362.71 443.67C348.45 439.76 344.43 451.07 323.78 449.54C318.1 449.12 310.29 448.45 303.39 443.12C300.97 441.25 299.71 439.62 294.39 434.88C290.04 431.01 286.32 428.04 283.8 426.09C280.31 427.71 275.27 429.7 268.97 430.98C262.91 432.21 257.79 432.36 250.96 432.13C246.91 431.99 218.26 431.03 218.1 427.38V427.43H218.09Z" fill="#455C6C"/>
<path d="M345.31 315.1C348.57 314.56 350.16 317.17 354.94 315.96C357.83 315.23 358.99 313.82 363.38 310.48C370.04 305.42 373.37 302.9 375.88 302.95C379.55 303.04 380.14 306.03 388.94 313.35C394.24 317.77 396.89 319.97 400.7 321.63C408.16 324.87 411.08 322.61 417.06 326.43C420.88 328.87 420.07 330.04 424.72 334C433.4 341.41 440.46 340.96 440.5 343.92C440.55 347.27 431.56 351.02 424.58 352.15C424.46 352.17 424.38 352.18 424.33 352.19C423.61 352.3 413.62 353.74 407.26 349.88C400.98 346.07 403.64 340.38 397.51 336.6C391.82 333.09 384.95 335.17 383.48 335.61C376.27 337.78 375.41 342.53 368.29 347.94C356.53 356.87 345.14 354.35 344.85 357.77C344.53 361.43 357.41 366.24 368.26 368.04C374.36 369.06 388.14 371.18 403.58 365.21C414.57 360.96 422.47 354.75 424.46 356.81C426.04 358.44 421.89 363.75 419.57 368.4C417.14 373.26 414.41 378.7 409.47 382.41C403.24 387.09 400.88 383.47 389.48 387.05C378.84 390.39 376.76 394.85 360.8 400.6C358.43 401.46 356.47 402.08 355.23 402.46C356.24 403.04 357.7 403.93 359.42 405.07C370.12 412.2 379.03 421.83 377.64 424.06C376.92 425.22 374.08 423.28 370.32 425.16C367.73 426.46 367.96 427.94 366.31 428.82C360.95 431.65 352.94 418.92 337.32 415.16C335.35 414.68 333.72 414.47 332.79 414.36C330.8 415.87 325.05 419.79 316.98 419.68C315.3 419.66 307.36 419.54 303.26 415.11C297.27 408.64 299.23 392.72 311.03 377.98C310.36 377.94 308.24 377.74 306.37 376.02C306.26 375.92 303.68 373.49 303.86 370.7C304.08 367.18 308.52 365.65 314 361.73C314 361.73 317.3 359.37 324.73 351.53C338.88 336.59 336.61 316.52 345.29 315.08L345.31 315.1Z" fill="#6A6461"/>
<path d="M383.52 309.48C381 307.68 380.35 305.53 389.1 301.66C396 298.61 395.81 296.65 399.27 296.08C405.32 295.08 412.42 300.11 417.44 299.35C429.71 297.47 428.89 297.59 435.82 299.04C442.31 300.4 447.49 301.57 451.38 303.41C458.05 306.56 461.39 308.14 463.62 311.92C466.91 317.5 464.1 321.47 468.35 329.22C469.33 331.02 470.47 332.42 472.73 335.21C477.64 341.27 480.87 343.73 484.47 347.38C490.64 353.65 495.05 358.13 496.88 365.12C497.12 366.02 499.78 376.8 494.28 384.87C491.47 388.99 489.95 387.39 484.8 393.29C480.41 398.31 479.77 401.46 475.07 404.42C473.51 405.4 469.88 407.68 467.85 406.31C466.36 405.3 466.38 402.78 467.01 395.73C467.66 388.45 468.26 384.17 468.69 380.08C469.62 371.05 470.06 366.48 468.35 363.38C465.78 358.72 460.7 356.59 458.62 355.73C453.42 353.56 452.14 355.28 448.53 353.09C443.51 350.04 444.88 346.04 440.17 343.21C435.48 340.4 433.1 343.74 427.98 340.69C424.29 338.49 424.69 336.24 420.04 333.47C418.7 332.67 417.35 332.07 412.66 330.69C405.75 328.65 402.79 328.21 400.49 327.53C390.2 324.49 386.97 311.96 383.51 309.49H383.52V309.48Z" fill="#C2ACB1"/>
<path d="M355.52 402.87C357.35 393.29 378.92 385.53 386.93 384.75C387.46 388.16 390.4 397.74 392.45 403.03C394.65 408.72 399.15 417.91 407.65 425.93C411.21 429.29 423.02 437.37 436.74 442.44C438.67 443.15 445.85 447.72 445.99 449.23C446.11 450.54 444.01 455.44 436.03 453.26C428.05 451.08 430.35 450.35 428.03 451.08C426.82 451.46 419.19 446.04 412.82 443.11C409.42 441.55 404.59 441.07 399.11 438.07C392.85 434.64 387.74 436.87 383.38 433.87C372.56 426.43 353.53 413.39 355.53 402.87H355.52Z" fill="#C2ACB1"/>
<path d="M387.03 387.58C388.28 385.7 388.56 386.41 399.27 381.32C407.59 377.37 412.64 376.25 414.01 374.38C416.48 370.99 419.02 369.56 419.59 368.43C420.5 366.61 418.58 370.41 420.63 377.01C422.12 381.79 422.14 380.92 423.05 382.61C424.86 385.97 422.62 385.64 422.39 387.5C422.26 388.53 421.72 389.29 418.08 392.37C412.94 396.7 411.75 397.09 410.44 399.33C409.82 400.39 408.27 403.06 409.01 405.55C409.99 408.85 414.47 410.01 417.74 410.95C425.31 413.12 432.49 416.55 439.95 419.06C455.03 424.14 458.44 426.39 462.71 424.11C463.59 423.64 463.21 423.67 470.19 418.19C474.77 414.6 477.06 412.8 477.72 412.52C483.97 409.87 486.89 414.81 494.81 413.1C499.21 412.15 502.31 409.76 505.51 407.28C510.33 403.56 509.98 402.06 515.08 397.65C519.81 393.57 523.25 390.61 528.1 390.39C533.51 390.15 537.69 393.44 540.22 395.43C544.67 398.93 546.81 403.07 547.8 405.02C549.76 408.9 550.54 412.46 550.89 414.82C552.05 420.54 551.4 424.1 549.64 425.26C547.28 426.81 546.71 430.19 541.06 434.31C536 438 536.87 436.09 532.75 437.82C526.53 440.44 523.07 436.23 516.06 438.64C509.69 440.83 510.97 438.31 507.92 437.2C504.92 436.11 502.14 438.18 498.95 437.22C495.93 436.31 494.18 434.8 490.62 435.6C485.51 436.75 482.51 436.03 477.09 435.9C464.32 435.6 457.7 451.33 439.6 448.98C435.85 448.49 433.43 441.62 432.65 441.41C432.65 441.41 423.9 437.58 417.14 433.73C403.91 426.21 380.73 397.02 387.03 387.56V387.58Z" fill="#455C6C"/>
<path d="M417.51 370.56C417.57 367.21 421.49 367.42 422.95 360.93C423.77 357.3 425.21 355.81 426.3 353.69C429.14 348.15 441.9 342.31 442.34 342.86C448.48 350.55 447.58 350.69 449.48 351.84C452.37 353.6 464 354.88 468.09 359.69C469.33 361.14 471.11 368.2 470.7 375.34C470.5 378.84 468.7 379.5 467.61 389.64C467.12 394.26 466.04 406.21 467.85 406.31C470.75 406.46 477.62 402.68 479.03 401.02C481.72 397.85 480.29 397.71 487.25 390.77C489.78 387.38 493.04 387.02 494.28 384.87C496.21 381.51 495.28 383.6 496.55 380.24C497.73 377.1 497.01 374.53 497.73 370.47C497.86 369.73 506.22 374.13 507.06 373.46C508.47 372.34 511.14 373.05 512.77 374.23C515.94 376.53 515.23 380.67 516.61 384.27C518.01 387.94 517.29 387.92 528.11 390.39C517.31 395.71 517.86 404.23 516.24 407.41C515.97 407.95 514.67 410.59 512.03 413.11C510.58 414.49 508.96 416.04 506.59 416.46C504.66 416.8 504.1 416.06 499.63 415.02C497.28 414.48 495.08 413.97 492.66 413.96C488.72 413.95 485.71 415.26 484.7 415.72C478.25 418.62 478.65 422.83 473.27 424.83C470.6 425.82 468.32 425.53 463.75 424.96C460.62 424.57 457.03 426.94 450.29 424.44C436.26 419.23 438.12 418.63 432.74 416.39C428.73 414.71 425.52 414.72 421.6 412.24C419.99 411.22 410.9 410.82 408.98 405.53C408.57 404.39 404.75 403.42 415.52 393.21C421.2 387.82 421.24 389.71 421.3 388.02C421.52 381.89 417.36 377.21 417.48 370.55H417.51V370.56Z" fill="#455C6C"/>
<path d="M352.32 320.3C351.42 320.26 352.32 320.23 345.6 318.79C332.05 315.89 329.57 316.27 326.69 313.5C324.1 311 321.97 306.68 322.86 302.61C323.95 297.61 329.13 295.12 330.51 294.52C340.88 290.01 349.5 300.03 358.33 294.9C359.67 294.12 361.32 292.82 364.9 290.96C368.8 288.94 370.75 287.93 372.88 287.7C377.61 287.19 378.44 289.97 384.08 289.57C386.35 289.41 386.52 288.93 389.94 288.65C392.56 288.44 394.63 288.27 396.86 288.82C400.7 289.77 400.25 291.68 404.28 293.3C407.4 294.55 410.35 294.49 415.24 294.38C416.95 294.34 418.2 294.23 419.66 294.1C425.83 293.54 430.45 292.57 430.94 292.47C438.76 290.91 471.6 297.83 489.43 321.63C498.65 333.95 502.75 343.89 502.75 343.89C503.61 345.97 504.84 349.21 507.23 353.53C510.47 359.36 512.46 362.94 516.11 366.01C521.98 370.94 525.35 368.84 533.1 374.84C535.86 376.98 537.98 378.66 539.45 381.78C541.71 386.56 542.1 393.89 538.26 397.43C536.87 398.72 534.65 399.75 532.4 400.08C532.09 400.12 531.05 400.26 529.16 400.08C527.18 399.89 523.59 399.54 520.21 397.32C517.3 395.41 515.8 392.95 514.65 391.05C511.76 386.3 512.58 384.11 509.81 381.77C509.61 381.6 506.34 378.9 503.76 380.01C502.2 380.69 501.98 382.3 500.73 384.82C499.91 386.46 496.92 392.48 492.55 393.45C488.65 394.32 483.61 391.18 483.44 388.29C483.28 385.56 487.58 385.12 490.46 379.51C492.38 375.77 492.4 372.2 492.4 370.98C492.4 369.57 492.22 365.66 489.98 361.7C489.39 360.65 487.88 358.98 484.9 355.68C481.84 352.3 480.32 350.61 479.58 349.91C474.96 345.54 473.38 345.76 471.11 342.39C469.53 340.03 470.24 339.82 468.45 336.87C466.6 333.81 464.94 332.56 461.43 329.09C457.23 324.94 455.13 322.87 454.17 321.31C451.29 316.63 452.84 314.93 449.33 308.02C446.93 303.27 445.17 302.03 444.25 301.5C442.37 300.4 441.71 300.91 437.23 300C431.1 298.74 430.69 299.07 427.18 299.09C423.66 299.11 423.97 298.8 419.56 299.25C415.77 299.64 412.76 298.98 409.4 298.25C403.81 297.03 404.39 296.21 401.66 295.99C399.06 295.78 395.75 302.98 386.83 306.21C381.83 308.02 383.91 306.21 377.7 307.28C359.61 310.39 358.56 320.57 352.3 320.32L352.32 320.3Z" fill="#C5C2C3"/>
<path d="M342.53 357.25C343.52 355.01 347.23 355.38 350.96 354.86C356.53 354.08 360.53 351.53 362.92 350.01C365.88 348.12 368.6 345.36 374.04 339.83C376.54 337.29 377.75 335.9 380.18 334.59C380.97 334.16 384.01 332.6 388.27 332.47C391.05 332.38 394.49 332.27 397.53 334.66C399.74 336.39 401.78 339.47 402.69 342.27C402.88 342.86 403.19 343.95 403.94 345.3C403.94 345.3 404.97 347.13 406.53 348.55C410.6 352.27 427.84 347.39 429.6 351.25C430.41 353.02 428.09 356.97 425.96 357.25C425.28 357.34 424.98 357 424.14 356.86C421.66 356.44 419.44 358.55 418.69 359.21C417.16 360.56 412.33 362.75 402.66 367.14C395.58 370.35 389.51 370.72 383.63 371.08C376.42 371.52 370.65 370.36 359.1 368.06C351.17 366.48 357.3 367.1 345.79 362.72C345.02 362.43 343.14 361.72 342.51 359.94C342.49 359.88 342.01 358.46 342.54 357.27V357.25H342.53Z" fill="#455C6C"/>
</svg>
