<svg width="349" height="204" viewBox="0 0 349 204" fill="none" xmlns="http://www.w3.org/2000/svg">
<path d="M151.166 178.35C137.716 175.98 126.496 172.94 117.926 170.24C112.356 168.49 102.376 165.32 89.9457 159.7C76.7157 153.72 74.3757 151.14 60.3457 145.51C50.5657 141.58 45.6757 139.61 41.6957 139.02C38.9957 138.62 31.2457 137.7 22.6357 134.56C20.7357 133.87 18.6057 133 17.3657 130.91C16.0957 128.77 16.7957 127.05 16.9657 120.77C16.9757 120.53 16.9757 120.3 16.9757 120.09C16.9757 119.71 16.9957 119.36 16.9957 119.04C17.0057 115.07 16.6157 114.93 16.9657 112.67C17.1357 111.54 17.4457 110.15 18.0457 108.56" stroke="#F0EEEB" stroke-width="1.5" stroke-miterlimit="10"/>
<path d="M16.9757 120.09C17.7157 120.84 18.5957 121.56 19.6357 122.18C25.1457 125.47 30.6957 123.49 31.3857 123.23" stroke="#F0EEEB" stroke-width="1.5" stroke-miterlimit="10"/>
<path d="M16.9957 119.03C15.7557 119.94 14.5057 121.03 13.3257 122.35C11.1557 124.79 11.6757 125.23 8.9457 128.49C5.2257 132.92 3.0557 133.53 1.7557 137.08C1.3157 138.26 0.645703 140.11 1.2257 142.16C1.8457 144.33 3.4457 145.21 7.0157 147.95C11.6757 151.52 10.4957 151.2 14.2057 153.91C14.2057 153.91 18.6557 157.17 23.8457 159.87C36.1457 166.28 52.0657 170.04 52.0657 170.04C70.1857 174.32 64.5057 175.02 96.4257 184.06C107.286 187.14 121.876 191.25 141.476 195.28C153.326 197.72 164.046 199.07 185.486 201.77C195.726 203.06 203.216 203.85 212.476 201.42C217.676 200.05 222.616 197.9 227.736 195.54C228.436 195.23 229.136 194.9 229.836 194.58C235.116 192.14 236.316 191.26 246.136 186.17C256.226 180.93 261.266 178.32 264.376 177.05C271.836 174.01 274.936 173.73 279.986 172.21C282.106 171.57 284.576 170.71 287.866 169.34C291.236 167.92 294.046 166.52 298.446 164.22C299.546 163.65 300.736 163.02 302.066 162.32C312.216 156.99 317.296 154.32 321.176 151.28C327.546 146.28 331.326 141.33 337.196 133.64C341.296 128.28 344.466 123.43 346.776 119.65C347.356 118.7 347.436 117.53 346.966 116.51C346.616 115.74 346.216 114.82 345.796 113.78C344.106 109.55 344.146 108.31 342.926 106.37C341.656 104.36 340.556 104.02 337.426 101.59C335.866 100.37 333.826 98.3799 329.736 94.4099C328.636 93.3399 327.466 92.1799 326.226 90.9199" stroke="#F0EEEB" stroke-width="1.5" stroke-miterlimit="10"/>
<path d="M25.3157 72.3701C25.1457 73.2701 24.9557 74.0901 24.7657 74.8101C24.2457 76.7901 23.7357 78.7801 22.9757 80.7301C22.1557 82.8601 21.0557 84.9601 19.3557 86.9801C16.2057 90.7201 14.2757 90.3501 12.5857 93.7401C12.4057 94.1101 10.1457 98.7901 11.9157 103.21C12.3857 104.41 13.4257 106.24 18.0457 108.56C19.9457 109.51 22.4457 110.55 25.7757 111.66C30.6757 113.3 33.8757 113.94 44.3757 116.06C59.2757 119.07 60.6957 119.38 63.3057 120.12C67.3457 121.25 73.4357 123.19 80.2157 126.2C88.7557 130.01 93.5457 133.37 98.4757 136.35C108.986 142.69 117.626 145.7 130.596 150.21C138.746 153.05 148.936 155.37 168.076 159.57C168.096 159.57 168.116 159.57 168.136 159.58C169.756 159.94 171.446 160.3 173.196 160.69C179.486 162.07 195.626 165.49 207.766 162.6C208.076 162.54 208.386 162.46 208.686 162.38C213.236 161.16 217.146 159 217.146 159C218.006 158.52 218.826 158.02 219.596 157.51" stroke="#F0EEEB" stroke-width="1.5" stroke-miterlimit="10"/>
<path d="M22.9757 80.73C25.8257 83.57 29.2357 86.63 33.2157 89.68C43.2257 97.35 52.2357 101.38 60.2657 104.9C78.0757 112.73 81.5957 110.85 95.4257 118.76C101.796 122.41 102.956 123.89 108.956 126.54C117.846 130.46 123.136 130.65 133.296 133.3C138.606 134.69 146.356 137.03 155.616 141.08" stroke="#F0EEEB" stroke-width="1.5" stroke-miterlimit="10"/>
<path d="M168.076 159.57C168.076 159.57 168.116 159.57 168.136 159.58C187.426 162.64 198.646 162.82 204.816 161.41C208.546 160.57 210.426 159.14 211.136 157.42C212.606 153.88 209.026 148.8 205.786 143.58C205.656 143.36 205.526 143.15 205.396 142.93C199.586 133.44 191.616 128.45 178.906 121.69C164.906 114.25 158.576 111.81 137.676 102.2C115.846 92.16 111.416 89.61 100.196 86.21C88.7457 82.74 78.8257 80.99 75.7057 80.46C64.8557 78.63 59.4257 77.72 51.7157 77.71C40.2257 77.71 35.8357 79.69 29.9757 76.21C28.4657 75.31 26.7357 73.98 25.3157 72.37C23.5057 70.33 22.2057 67.84 22.4857 65.22C22.8657 61.64 26.0457 59.34 28.9857 57.22C31.1757 55.64 34.0657 54.02 44.4757 51.23C52.3257 49.12 52.4757 49.56 59.9657 47.48C67.4057 45.42 67.2457 44.99 72.7057 43.73C78.7557 42.34 80.4857 42.51 84.7057 40.98C89.5557 39.22 90.1757 37.94 93.2657 36.53C93.4857 36.43 93.7057 36.33 93.9457 36.23C102.226 32.82 105.636 37.35 118.186 35.98C121.876 35.58 127.566 34.9 133.676 31.49C137.406 29.4 140.306 26.85 144.676 22.99C149.156 19.04 148.946 18.64 152.916 15.25C153.166 15.03 153.486 14.77 153.866 14.45C155.826 12.82 159.406 9.99 164.166 7C164.436 6.83 164.716 6.65 165.006 6.48C167.486 4.94 170.456 3.27 173.896 1.6C174.306 1.4 174.726 1.2 175.156 1" stroke="#F0EEEB" stroke-width="1.5" stroke-miterlimit="10"/>
<path d="M205.776 143.57H205.786C209.466 146.57 212.256 149.39 214.316 151.69C216.746 154.41 218.046 156.27 219.606 157.51C220.356 158.11 221.166 158.56 222.196 158.91C223.806 159.44 226.896 160.01 237.826 154.9C242.996 152.48 248.036 150.09 254.656 145.28C262.726 139.41 262.286 137.85 269.206 132.99C274.226 129.48 275.626 129.47 282.946 125.84C284.196 125.22 285.606 124.5 287.246 123.64C297.376 118.29 303.956 113.86 309.016 110.42C318.556 103.94 323.366 100.61 325.046 96.3901C325.746 94.6201 326.126 92.7701 326.236 90.9301C326.596 85.0801 324.336 79.1701 321.706 75.2901C320.206 73.0701 317.516 70.7401 312.136 66.0701C307.746 62.2701 304.236 59.6101 301.886 57.8401C291.766 50.2001 286.706 46.3801 283.186 44.0301C277.176 40.0201 275.276 39.6301 249.126 28.2301C232.636 21.0301 224.386 17.4401 220.856 15.7601C213.726 12.3701 208.906 10.3101 199.266 6.19008C192.446 3.27008 190.056 2.35008 186.796 1.74008C182.066 0.850084 177.676 1.00008 173.896 1.60008C173.886 1.60008 173.886 1.61008 173.886 1.61008H173.866" stroke="#F0EEEB" stroke-width="1.5" stroke-miterlimit="10"/>
<path d="M153.866 14.45C156.446 17.07 158.926 20.67 160.066 25.43C161.656 32.11 159.786 37.68 158.796 40.06C158.346 41.15 154.786 49.32 145.916 53.1C138.556 56.23 131.696 54.5699 124.926 52.9399C120.586 51.8899 122.536 51.7399 109.826 47.2099C103.116 44.8199 100.446 44.11 97.4257 41.49C95.6257 39.93 94.2757 38.1999 93.2657 36.5299" stroke="#F0EEEB" stroke-width="1.5" stroke-miterlimit="10"/>
<path d="M165.006 6.47998C166.946 8.43998 168.986 10.97 170.716 14.14C176.536 24.78 174.746 35.07 174.216 37.83C171.616 51.59 161.916 59.12 159.746 60.73C145.836 71.01 130.076 67.48 127.796 66.93" stroke="#F0EEEB" stroke-width="1.5" stroke-miterlimit="10"/>
<path d="M266.126 143.19C268.236 144.12 272.596 146.39 276.126 151.19C277.536 153.1 280.606 157.87 280.876 164.69C280.986 167.59 280.576 170.14 279.986 172.21" stroke="#F0EEEB" stroke-width="1.5" stroke-miterlimit="10"/>
<path d="M282.946 125.84C285.846 126.81 288.966 128.39 291.876 130.94C301.026 138.96 300.906 150.35 300.886 152.69C300.836 157.31 299.716 161.23 298.446 164.22" stroke="#F0EEEB" stroke-width="1.5" stroke-miterlimit="10"/>
<path d="M283.486 140.1C282.036 141.28 282.006 143.33 281.986 144.46C281.976 145.24 281.946 147.15 283.216 148.82C284.676 150.75 287.826 152.32 290.306 151C292.836 149.66 292.896 146.27 292.896 145.95C292.896 142.38 289.786 140.46 289.626 140.36C288.096 139.45 285.276 138.63 283.486 140.09V140.1Z" stroke="#F0EEEB" stroke-width="1.5" stroke-miterlimit="10"/>
<path d="M207.766 162.6C212.676 164.7 216.576 166.94 219.466 168.8C227.996 174.3 229.686 177.77 230.386 179.72C232.036 184.31 231.036 188.5 230.586 190.04C229.956 192.18 228.936 194 227.726 195.54" stroke="#F0EEEB" stroke-width="1.5" stroke-miterlimit="10"/>
</svg>
