<?xml version="1.0" encoding="UTF-8"?>
<svg xmlns="http://www.w3.org/2000/svg" width="624.03" height="687.24" viewBox="0 0 624.03 687.24">
  <defs>
    <style>
      .cls-1 {
        mix-blend-mode: darken;
      }

      .cls-2 {
        isolation: isolate;
      }

      .cls-3 {
        fill: #4a6777;
      }

      .cls-3, .cls-4, .cls-5, .cls-6, .cls-7, .cls-8, .cls-9, .cls-10, .cls-11, .cls-12 {
        stroke-width: 0px;
      }

      .cls-4 {
        fill: #99bcc8;
      }

      .cls-5 {
        fill: #7096a7;
      }

      .cls-6 {
        fill: #c6d8de;
      }

      .cls-7 {
        fill: #c3acb1;
      }

      .cls-8 {
        fill: #a78890;
      }

      .cls-9 {
        fill: #8e6c76;
      }

      .cls-10 {
        fill: #fff;
      }

      .cls-11 {
        fill: #f0eeeb;
      }

      .cls-12 {
        fill: #e9e1e3;
      }
    </style>
  </defs>
  <g class="cls-2">
    <g id="Layer_3" data-name="Layer 3">
      <g class="cls-1">
        <path class="cls-5" d="m395.02,3.12c-6.87-3.82-17.01-4.48-24.43,0-8.7,5.26-7.86,14.09-16.29,44.34-6.27,22.52-7.94,21.93-10.86,36.2-3.59,17.53-3.94,32.41-3.62,42.53,15.57-1.52,39.41-6.53,60.63-23.53,9.05-7.25,18.18-14.77,20.81-27.15,1.02-4.8.69-8.54-9.95-39.82-8.43-24.79-10.59-29.41-16.29-32.58Z"/>
        <path class="cls-4" d="m443.09,89.89c-7.76-5.82,3-27.89-7.44-38.14-5.15-5.06-14.58-6.36-20.67-2.66-11.73,7.12-7.16,30.4-17.36,33.7-3.76,1.22-5.78-1.49-14.06,0-2.68.48-6.53,1.18-9.92,3.55-3.77,2.63-6.8,7.22-9.1,17.74-3.92,17.92-1.38,33.22-.83,36.36,2.95,16.84,5.55,31.62,16.54,40.8,11.41,9.53,19.37,2.59,36.38,14.19,10.6,7.23,9.12,11.02,18.19,15.96,11.16,6.09,29.76,9.27,41.34-.89,9.57-8.4,10.1-22.2,10.75-39.02.34-8.8-.24-18.08-6.62-48.78-2.3-11.07-5.55-25.91-9.92-43.46-16.52,12.7-23.82,13.24-27.29,10.64Z"/>
        <path class="cls-9" d="m465.83,139.78c2.62,4.37,6.02,11.08,8.04,19.75,4.93,21.19-3.1,34.09,5.39,43.07,3.86,4.08,9.62,5.75,16.21,7.66,10.21,2.96,15.97,1.46,18.64,5.55,2.42,3.72-.72,7.42-.96,13.61-.44,11.32,9.31,18.44,16.78,27.44,10.09,12.15,13.14,24.21,18.2,44.28,6.79,26.92.36,32.76,9.54,53.27,2.49,5.55,5.07,9.83,5.42,16.89.61,12.3-6.07,22.67-11.82,29.52-22.88-14.03-39.24-21.69-50.99-26.23-3.3-1.27-9.62-3.6-13.78-9.77-6.18-9.16-3.8-21.13-1.82-27.8-3.99.32-9.68.37-16.28-.99-3.16-.65-13.79-3.1-23.92-10.96-11.54-8.95-16.04-19.97-22.82-36.59-.92-2.24-5.1-12.66-8.24-27.07-1.28-5.88-2.06-10.93-2.55-14.75,18.33-35.63,36.65-71.26,54.98-106.89Z"/>
        <path class="cls-5" d="m366.32,60.61c-2.33-2.28-4.16-1.39-22.65,0-25.1,1.89-23.8.42-27.98,1.65-19,5.57-16.79,27.39-39.97,51.11-19.22,19.66-27.22,11.3-47.97,34.62-4.36,4.91-14.32,16.28-22.65,34.62-9.8,21.56-7.45,30.95-14.66,46.16-5.4,11.4-16.14,25.99-39.97,36.27,4.19,7.04,10.05,18.7,13.32,34.62,2.1,10.2,3.76,18.29,1.33,26.38-3.76,12.53-14.39,15.19-30.65,24.73-8.83,5.18-47.84,28.06-46.64,47.66.65,10.66,13.02,17.54,17.32,19.93,26.14,14.55,40.77-8.86,85.28-9.89,26.86-.62,37.04,7.53,54.63-3.3,10.1-6.22,10.78-11.4,23.98-26.38,33.55-38.06,51.9-30.42,63.96-57.7,7.56-17.11,9.04-39.79,2.67-59.35-6.08-18.67-17.5-28.92-22.65-32.97,11.43-3.62,27.85-11.37,37.31-29.68,7.97-15.42,3.88-24.55,7.99-61,5.28-46.77,16.25-69.43,7.99-77.49Z"/>
        <path class="cls-6" d="m455.29,544.53c9.25,2.75,33.39,9.94,45.54-1.86,3.94-3.83,5.72-8.78,9.02-17.96,3.72-10.36,3.73-15.98,5.47-22.89,3.2-12.7,8.56-15.01,18-30.41,4.45-7.25,19.28-32.87,21.45-65.8.48-7.34.23-13.4-.06-17.41-7.84,1.29-27.31,3.5-37.01-7.77-1.53-1.78-3.49-4.67-6.14-21.01-3.46-21.29-2.61-31.56-7.05-49.28-2.71-10.82-4.34-17.02-8.39-17.89-5.21-1.12-11.72,7.28-24.52,24.13-3.75,4.93-6.77,9.22-8.99,12.45-7.9-9.96-12.93-19.13-16.09-25.82-5.24-11.08-8.33-17.63-8.05-27.12.09-3.16.41-13.98,7.26-23.17,2.32-3.11,3.8-3.91,6.89-8.45,4.58-6.73,7.23-10.64,6.77-14.84-.71-6.52-8.27-7.89-18.51-18.09-5.09-5.07-8.43-9.93-10.35-12.99-8.4,10.16-16.39,13.95-22.25,15.51-3.25.86-3.97.55-16.97,2.74-14.3,2.42-16.9,3.39-18.33,5.71-2.58,4.22,1.38,8.56,2.6,16.08,2.1,12.94-6.46,19.49-11.17,32.97-2.45,6.99-1.33,8.62,2.72,50.9,2.56,26.68,3.83,40.01,3.64,45.25-.85,23.51-5.89,31.45-.51,42.25,5.61,11.26,18.03,16.58,27.87,19.33,9.31-11.94,13.68-11.02,14.78-10.64,5.34,1.83,5.28,15.46,5.22,26.66-.06,12.19-1.48,18.8-2.67,28.85-2.79,23.46-4.18,35.19-.22,44.04,7.55,16.86,27.48,22.79,40.04,26.53Z"/>
        <path class="cls-8" d="m318.24,453.82c3.9,17.01,2.17,21.39,6.6,24.68,6.04,4.5,11.72-1.82,27.39.18,12.72,1.63,13.81,6.41,22.03,5.83,9.22-.66,12.27-7,27.59-20.81,21.47-19.35,34.24-23.78,32.68-31.06-.9-4.22-6-6.48-11.54-8.93-11.37-5.02-18.81-2.29-29.58-4.14-6.54-1.12-15.53-4.14-25.63-12.73,5.97-4.08,14.97-11.55,20.67-23.61,2.89-6.11,5.96-15.57,4.38-37.77-2.75-38.57-14.42-43.93-10.81-66.39,1.53-9.5,6.7-18.64,17.05-36.91,11.71-20.67,19.38-27.54,28.79-48.97,7.96-18.12,7.79-25.33,7.6-28.18-1.19-18.12-14.68-35.83-22.62-34.24-4.38.88-5.35,7.29-14.34,43.68-5.37,21.73-8.08,32.67-9.63,36.12-9.47,21.15-21.15,24.64-36.48,45.15-7.37,9.86-16.59,25-23.04,47.03-32.66-19.1-43.22-20.64-45.99-17.41-3.49,4.07,7.84,12.79,9.3,31.46.51,6.57-3.11,20.44-10.36,47.89-3.32,12.55-5.19,19-1.72,25.35,3.77,6.91,10.26,7.09,13.6,13.78,3.6,7.2.73,16.3-3.39,24.2,7.68-3.65,12.33-2.69,14.84-1.58,6.93,3.08,9.22,12.54,12.62,27.35Z"/>
        <path class="cls-7" d="m445.62,401.52c17.36-8.23,29.53.86,41.95-7.34,15.16-10.01,15.4-35.71,5.08-40.87-8.21-4.11-16.73,7.99-40.68,8.38-16.96.28-25.02-5.59-31.78-1.05-5.79,3.89-1.84,9.51-6.36,22.01-1.01,2.78-5.94,16.46-19.07,25.15-14.22,9.41-23.68,3.46-34.32,11.53-12.02,9.11-3.46,19.38-12.71,35.63-9.12,16.02-21.16,12.58-48.3,34.58-13.17,10.68-8.34,9.86-36.86,37.73-16.81,16.42-25.22,24.63-31.78,30.39-20.8,18.27-30.64,23.87-29.24,32.49.33,2.03,1.07,2.92,16.52,18.86,13.74,14.18,14.76,15.12,16.53,17.82,9.32,14.23,5.85,25.79,8.9,26.2,5.89.78,4.5-44.39,39.41-78.6,20.7-20.28,37.71-20.58,45.76-40.87,7.57-19.08-1.15-34.73,10.17-40.87,8.04-4.36,14.94,2.17,33.05,2.1,23.73-.1,52.33-11.47,57.2-27.25,3.65-11.82-9.19-15.79-7.63-32.49,1.16-12.31,9.69-26.68,24.15-33.53Z"/>
        <path class="cls-8" d="m221.19,621.68c.56-11.89,27.04-10.32,50.78-35.32,16.79-17.68,23.99-39.99,27.42-57.12,24.32-4.6,41.51-13.12,52.81-20.16,12.65-7.88,22.4-16.69,40.62-21.28,10.3-2.59,18.71-4.71,27.42-1.12,15.55,6.41,21.33,26.57,28.44,52.64,10.95,40.18,17.24,63.25,5.08,82.36-10.73,16.85-30.04,21.55-41.64,22.92-6.07-8.3-17-20.42-32.5-22.92-10.82-1.75-18.35,2.07-38.59,10.6-30.31,12.77-45.46,19.15-52.81,20.16-32.56,4.47-67.68-16.9-67.03-30.76Z"/>
        <path class="cls-8" d="m28.11,595.27c-6-4.69,8.4-24.09,7.35-50.97-.74-19-8.84-32.44-16.14-41.19,10.03-19.98,14.33-36,16.4-47.05,2.32-12.37,2.66-22.88,9.57-38.27,3.91-8.7,7.09-15.79,13.46-21.07,11.36-9.42,24.97-6.54,42.39-2.53,26.85,6.17,42.26,9.72,46.13,25.75,3.41,14.14-4.01,30.39-9.22,39.62-7.5,1.59-19.5,5.48-28.76,16.27-6.47,7.53-8.31,14.58-14.17,32.9-8.78,27.43-13.17,41.15-16.4,47.05-14.32,26.15-43.61,44.95-50.6,39.48Z"/>
        <path class="cls-9" d="m163.68,510.26c2.69-4.33,7.1-10.42,13.89-16.18,16.59-14.08,31.74-12.84,35.84-24.49,1.87-5.3.72-11.18-.6-17.92-2.03-10.43-6.01-14.86-3.58-19.11,2.2-3.86,6.92-2.75,12.54-5.38,10.27-4.79,12.14-16.71,16.72-27.48,6.19-14.53,15.52-22.75,31.06-36.43,20.83-18.35,28.97-15.3,43-32.85,3.8-4.75,6.43-9,12.54-12.54,10.66-6.17,22.93-4.97,31.66-2.99-2.01,26.77-1.34,44.81,0,57.34.38,3.52,1.19,10.2-2.39,16.72-5.32,9.69-17.05,13.04-23.89,14.33,2.11,3.41,4.75,8.44,6.57,14.93.87,3.11,3.55,13.68,1.19,26.28-2.68,14.36-10.42,23.39-22.1,37.03-1.57,1.84-8.92,10.33-20.31,19.71-4.64,3.83-8.78,6.83-11.95,9.02h-120.2Z"/>
        <path class="cls-3" d="m205.64,670.19c-3.51-7.44-.01-13.16.55-27.57.59-14.92-2.45-27.07-4.96-34.74,7.78-1.93,24.37-5.9,41.91-8.82,4.45-.74,11.58-1.83,16.54,2.21,3.08,2.5,2.6,4.76,4.96,7.17,6.01,6.14,16.35-1.07,29.78,0,18.8,1.5,21.92,17.52,35.84,14.89,5.22-.99,10.28-4.52,20.4-11.58,8.42-5.88,8.89-7.65,12.68-8.27,9.47-1.55,13,8.46,24.26,9.37,8.34.68,9.59-4.55,22.06-8.27,15.55-4.64,29.4-1.24,34.19,0,12.69,3.28,13.84,9.46,30.33,17.09,9.5,4.4,17.84,6.58,23.16,7.72.81,9.74,1.61,19.48,2.42,29.23-14.5-.19-26.16.49-33.85,1.1-20.57,1.65-29.16,4.14-48.53,3.86-14.18-.2-21.4-.38-27.57-3.86-10.4-5.87-13.67-15.29-22.61-14.89-4.78.22-12.68,3.31-12.68,3.31-.55,3.49-1.1,6.98-1.65,10.48-9.06-2.54-16.78-4.04-22.61-4.96-8.17-1.29-13.04-1.52-14.89,1.1-1.22,1.73-.22,3.4-.55,6.07-.27,2.12-1.65,6.95-12.68,12.75-33.56,17.63-61.76,13.17-61.76,13.17-11.87-1.88-29.11-4.61-34.74-16.54Z"/>
        <path class="cls-12" d="m0,653.76c.54-1.87,2.9-9.2,10.43-13.9,9.09-5.69,18.52-3.04,19.99-2.61-.54-3.79-1.54-9.57-3.48-16.51-2.1-7.52-3.39-9.58-2.61-13.04,1.36-6,7.06-7.71,13.04-13.04,4.43-3.95,9.67-10.47,13.04-21.73,21.2,3.15,38.11,2.71,49.53,1.74,21.2-1.79,39.53-6.73,69.52-4.35,3.72.3,6.76.64,8.69.87-6.18-5.78-6.68-8.31-6.08-9.56,1.5-3.14,10.12,1.46,19.99-2.61,6.26-2.58,6.52-5.97,15.64-12.17,5.23-3.55,9.96-5.71,13.04-6.95.41,2.22.77,5.63,0,9.56-1.65,8.47-6.97,11.36-10.43,17.38-5.62,9.78-2.69,21.44,0,32.15,4.42,17.59,12.19,20.65,9.56,28.68-2.66,8.13-11.63,8-17.38,19.12-3.08,5.95-3.53,11.83-3.48,15.64-13.08-6.49-21.1-5.64-26.07-3.48-4.96,2.15-6.15,5.28-13.9,8.69-5.16,2.27-10.54,4.64-16.51,3.48-9.25-1.8-10.07-10.16-17.38-10.43-4.25-.16-8.34,3.37-16.51,10.43-8.77,7.58-8.8,9.85-13.04,11.3-4.78,1.64-7.58-.29-21.73-5.21-16.4-5.72-24.59-8.57-31.29-9.56-7.14-1.05-11.44-.82-16.51-4.35-4.59-3.2-5.25-6.29-9.56-8.69C11.29,651.73,5.17,652.34,0,653.76Z"/>
        <path class="cls-12" d="m610.81,614.83c-1.94-.13-9.61-.85-15.83-7.19-7.51-7.65-6.97-17.43-6.85-18.96-3.58,1.35-9.02,3.57-15.37,6.95-6.89,3.67-8.63,5.38-12.17,5.36-6.15-.03-9.05-5.23-15.54-9.92-4.81-3.47-12.31-7.19-24.02-8.05-1.49-21.38-5.57-37.79-8.98-48.74-6.32-20.31-15.09-37.16-19.23-66.95-.51-3.7-.84-6.74-1.02-8.67-4.31,7.29-6.68,8.32-8.02,8-3.39-.79-.75-10.2-6.85-18.96-3.87-5.56-7.24-5.08-15.25-12.65-4.6-4.34-7.73-8.5-9.6-11.23,2.08-.88,5.33-1.96,9.33-2.06,8.62-.21,12.59,4.36,19.22,6.44,10.76,3.38,21.52-1.99,31.4-6.93,16.22-8.11,17.54-16.35,25.94-15.52,8.52.85,10.32,9.63,22.42,12.85,6.48,1.72,12.31.89,16.02.02-3.52,14.17-.96,21.81,2.23,26.21,3.17,4.38,6.48,4.87,11.48,11.7,3.33,4.55,6.8,9.29,6.95,15.37.23,9.42-7.75,12.03-6.44,19.22.76,4.19,5.09,7.42,13.74,13.88,9.29,6.93,11.51,6.47,13.84,10.29,2.63,4.32,1.36,7.47-.41,22.34-2.05,17.24-3.07,25.86-2.59,32.61.51,7.2,1.67,11.34-.68,17.06-2.13,5.17-5.02,6.48-6.43,11.21-1.71,5.72.2,11.57,2.71,16.31Z"/>
        <path class="cls-11" d="m194.82,654.95c-3.96-10.31-1.99-15.64-3.48-23.46-1.14-6-2.78-5.37-15.64-25.2-11.53-17.77-13.22-22.91-13.9-25.2-2.83-9.53-2.44-18.02-1.74-23.46,3.48.29,6.95.58,10.43.87,1.66-4.15,4.55-10.23,9.56-16.51,7.47-9.37,11.74-9.28,16.51-17.38,5.61-9.52,1.99-13.53,7.82-19.99,3.96-4.39,6.14-3.1,16.51-9.56,8.83-5.5,13.25-8.25,14.77-12.17,2.79-7.16-3.62-11.65-9.56-30.42-3.15-9.95-5.1-16.13-4.34-24.33.99-10.7,5.48-12.71,7.82-24.33,1.81-8.96.05-12.25-.87-26.07-.87-13.1,0-22.93,1.74-42.58.99-11.22,2.04-22.62,5.21-37.37,1.77-8.23,5.86-27.22,8.69-26.94,2.8.28,5.88,19.67,2.61,39.11-1.84,10.94-4.82,16.69-3.48,27.81.97,8.01,3.58,13.82,5.21,17.38,8.35,18.19,17.95,18.4,26.07,34.76,3.16,6.38,7.8,15.73,6.08,26.94-2.15,14.01-12.04,16.69-13.04,31.29-.09,1.26-.02,1.4,3.48,20.86,3.7,20.55,3.86,21.68,3.48,24.33-1.14,7.96-4.92,14.05-11.3,24.33-2.99,4.82-5.78,8.64-7.82,11.3,10.92-4.67,17-1.57,18.25-.87,10.41,5.8,11.07,25.4,5.21,37.37-1.88,3.85-5.6,8.65-13.04,18.25-2.5,3.22-5.01,6.32-7.82,11.3-3.44,6.09-5.17,9.13-5.21,13.04-.09,7.33,5.28,9.94,3.48,14.77-1.18,3.17-4.54,4.86-6.95,6.08-4.68,2.36-6.44.97-9.56,2.61-5.25,2.74-3.43,8.32-8.69,16.51-4.57,7.12-10.82,10.5-13.9,12.17-4.74,2.56-11.25,6.09-16.51,3.48-1.57-.78-3.68-2.43-6.08-8.69Z"/>
        <path class="cls-6" d="m175.59,271.09c-8.69-4.19-31.37-15.14-45.25-5.43-4.5,3.15-7.05,7.75-11.76,16.29-5.33,9.63-6.23,15.18-9.05,21.72-5.19,12.02-10.85,13.45-22.62,27.15-5.55,6.45-24.28,29.37-31.67,61.54-1.65,7.16-2.37,13.19-2.71,17.19,7.94-.02,27.52.9,35.29,13.57,1.23,2,2.7,5.17,2.71,21.72.02,21.57-2.46,31.57-.9,49.77.95,11.11,1.57,17.5,5.43,19,4.96,1.94,12.73-5.32,28.05-19.91,4.48-4.27,8.16-8.02,10.86-10.86,6.21,11.09,9.71,20.95,11.76,28.05,3.4,11.78,5.41,18.73,3.62,28.05-.6,3.11-2.63,13.74-10.86,21.72-2.79,2.7-4.38,3.25-8.14,7.24-5.59,5.92-8.83,9.35-9.05,13.57-.33,6.55,6.9,9.11,15.38,20.81,4.22,5.82,6.74,11.14,8.14,14.48,9.91-8.69,18.41-11.16,24.43-11.76,3.34-.33,4.01.09,17.19,0,14.5-.1,17.23-.65,19-2.71,3.22-3.75,0-8.67,0-16.29-.01-13.11,9.48-18.21,16.29-30.77,3.53-6.51,2.69-8.3,5.43-50.68,1.73-26.74,2.6-40.11,3.62-45.25,4.59-23.07,10.83-30.11,7.24-41.63-3.74-12.01-15.16-19.25-24.43-23.53-11.1,10.3-15.26,8.69-16.29,8.14-4.98-2.66-2.74-16.11-.9-27.15,2-12.02,4.46-18.33,7.24-28.05,6.5-22.71,9.74-34.07,7.24-43.44-4.77-17.85-23.5-26.88-35.29-32.58Z"/>
        <path class="cls-11" d="m358.96,380.56c-1.18,11.08,8,14.47,8.32,31.13.21,11.16-3.76,17.65-1.31,19.13,2.59,1.57,8.3-4.91,22.1-17.11,14.3-12.64,21.46-18.97,29.47-22.82,10.56-5.07,21.03-6.98,30.3-8.67,7.21-1.32,13.32-1.94,17.71-2.26-4.48-16.43-2.19-22.64.95-25.19,8.15-6.61,25.56,8.59,34.94,1.19,5.49-4.34,5.38-14.2,2.85-20.44-4.75-11.7-20.39-16.48-30.78-13.19-11.35,3.6-13.59,15.94-20.2,14.97-6.9-1.01-5.72-14.61-15.33-19.37-9.6-4.76-22.53,3.01-28.4,6.54-10.29,6.18-10.66,10.46-26.74,27.92-17.99,19.54-23.03,20.16-23.88,28.16Z"/>
        <path class="cls-11" d="m544.12,285.48c1.77-2.01,6.68-8.51-.26-41.85-3.96-19.03-6.06-29.12-13.08-41.41-4.72-8.26-6.95-9.26-11.34-18.49-7.68-16.14-4.05-19.79-10.13-27.06-9.23-11.02-21.75-7.59-25.73-17.79-2.52-6.47,1.46-10.53-2.05-14.82-3.98-4.85-13.79-5.37-20.5-1.23-8.32,5.14-11.11,16.97-7.26,23.08,4.48,7.1,15.37,2.38,20.19,9.34,5.37,7.76-6.19,16.5-1.97,29.96,2.94,9.38,12.44,17.55,20.84,21.48,6.61,3.09,10.52,2.6,12.25,6.09,2.45,4.92-2.61,11.32-8.87,21.08-11.85,18.49-21.21,33.1-17.1,40.12,2.89,4.95,9.16.48,25.07,5.65,16.16,5.25,22.58,14.05,32.37,10.93,4.2-1.34,6.75-4.16,7.57-5.08Z"/>
        <path class="cls-10" d="m145.42,416.27c-5.02-2.94-28.73,17.99-41.25,46.05-6.33,14.18-5.89,21.4-15.35,33.58-8.77,11.29-14.95,12.54-19.19,23.02-4.46,11.03-.67,17.15-1.92,29.74-.94,9.5-4.78,22.86-18.23,38.37,3.61,1.49,9.08,3.95,15.35,7.67,12.9,7.66,13.53,11.36,21.11,14.39,12.06,4.82,24.65,1.11,31.66-.96,13.94-4.11,15.1-9.54,24.94-9.59,10.12-.06,12.8,5.64,22.07,6.72,6.88.8,17.38-.97,31.66-14.39-20.69-11.15-29.44-23.82-33.58-33.58-6.18-14.59-1.35-21.08-7.67-43.17-6.51-22.71-13.57-22.67-17.27-39.33-6.97-31.4,12.76-55.54,7.67-58.52Z"/>
        <path class="cls-7" d="m607.35,590.61c-10.94-17.5-19.31-30.87-34.14-33.33-7.12-1.18-17.73-.17-26.85,4.79-7.52,4.1-8.65,7.96-15.02,9.2-7.23,1.4-10.15-2.74-22.44-7.03-5.93-2.07-20.27-6.89-35.5-3.33-5.08,1.19-14.19,3.32-16.32,9.57-2.14,6.25,5.11,9.56,6.86,19.21.53,2.92,1.13,9.61-15.91,38.36-10.27,17.32-14.03,20.87-12.35,26.07,2.76,8.54,17.18,12.18,27.37,11.98,5.67-.11,13.52-1.49,33.29-14.38,27.21-17.74,26.67-24.47,35.92-25,19.34-1.11,24.11,28.14,48.4,31.4,17.09,2.3,37.52-9.12,42.35-24.71,3.68-11.86-2.87-22.34-15.67-42.8Z"/>
        <path class="cls-5" d="m569.82,408.66c-1.68-1.33-2.99-.81-16.31,0-18.07,1.1-17.13.25-20.15.96-13.68,3.24-12.09,15.94-28.78,29.74-13.84,11.44-19.6,6.57-34.54,20.15-3.14,2.85-10.31,9.47-16.31,20.15-7.05,12.55-5.36,18.01-10.55,26.86-3.89,6.63-11.62,15.12-28.78,21.11,3.02,4.1,7.24,10.88,9.59,20.15,1.51,5.94,2.71,10.64.96,15.35-2.71,7.29-10.36,8.84-22.07,14.39-6.35,3.01-34.44,16.33-33.58,27.74.47,6.2,9.38,10.21,12.47,11.6,18.82,8.46,29.35-5.15,61.4-5.76,19.34-.36,26.67,4.38,39.33-1.92,7.27-3.62,7.76-6.63,17.27-15.35,24.16-22.15,37.37-17.7,46.05-33.58,5.44-9.95,6.51-23.15,1.92-34.54-4.38-10.86-12.6-16.83-16.31-19.19,8.23-2.11,20.05-6.62,26.86-17.27,5.74-8.97,2.79-14.28,5.76-35.5,3.8-27.22,11.7-40.4,5.76-45.09Z"/>
        <path class="cls-10" d="m455.03,455.44c-9.66-7.43-20.29,5.68-43.16,0-11.74-2.91-15.37-7.97-23.81-5.95-4.51,1.08-6.44,3.23-18.6,14.88-11.5,11.02-17.25,16.53-21.58,20.09-8.28,6.81-14.45,11.9-23.81,16.37-14.98,7.16-22.65,5.36-26.79,12.65-2.8,4.93-2.8,11.96,0,17.11,5.97,10.98,20.3,5.47,31.25,16.37,11.19,11.15,9.34,29.99,8.93,34.23-1.84,18.75-13.49,30-11.16,32,3.57,3.06,31.18-23.2,32.74-21.58.83.86-7.26,7.98-11.16,20.83-1.74,5.72-3.72,12.24-.74,15.63,5.38,6.12,26.93,1.91,35.72-11.16,6.92-10.3.46-17.97,7.44-26.79,6.49-8.2,18.08-9.13,34.23-10.42,24.58-1.97,36.72,3.45,40.92-2.98,1.36-2.07,1.24-4.39-3.72-20.09-8.25-26.09-10.15-26.65-10.42-33.48-.53-13.78,7.08-14.48,9.67-32.74,1.06-7.47,3.89-27.4-5.95-34.97Z"/>
        <path class="cls-10" d="m337.99,323.25c-7.07-6.34,2.73-17.8-3.62-33.48-3.83-9.45-8.74-8.63-13.57-20.81-2.6-6.55-1.32-7.13-4.52-19-1.79-6.64-3.93-12.36-8.14-23.53-7.55-20.03-7.91-18.64-9.05-23.53-1.12-4.79-2.1-11.84.9-31.67,3.34-22,6.68-27.33,9.05-41.63,1.68-10.13,2.94-25.14,0-44.34,3.09-.13,11.55-.09,19.91,5.43.79.52,12.65,8.61,14.48,22.62.94,7.17-1.79,7.91-4.53,22.62-2.11,11.37-3.75,20.81,0,30.77,1.51,4.01,4.47,11.86,10.86,13.57,6.26,1.67,12.59-3.39,20.81-9.95,6.27-5.01,10.72-10,13.57-13.57,5.27,4.93,8.68,9.84,10.86,13.57,10.13,17.37,8.09,34.38,7.24,40.72-.85,6.34-1.58,11.23-5.43,15.38-4.55,4.91-9.1,4.06-14.48,8.14-3.72,2.83-6.47,6.98-9.95,19.91-3.97,14.75-3.5,20.88-6.34,38.01-4.28,25.83-8.33,29.86-11.76,31.67-4.76,2.52-12.16,2.8-16.29-.9Z"/>
      </g>
    </g>
  </g>
</svg>