<svg width="142" height="200" viewBox="0 0 142 200" fill="none" xmlns="http://www.w3.org/2000/svg">
<path d="M109.254 46.8975C108.013 54.3551 105.444 61.459 103.23 68.6513C102.019 72.6307 102.58 76.5806 102.698 80.501C102.757 82.0927 102.639 83.7434 102.757 85.3352C103.289 94.7383 103.732 104.141 104.116 113.574C104.44 121.002 104.972 128.46 104.854 135.888C104.706 143.611 105.828 151.157 106.862 158.732C107.068 160.324 107.275 161.091 105.208 161.503C101.724 162.211 98.2691 163.036 94.6962 163.036C80.2571 163.036 65.7883 162.771 51.3492 163.124C43.4652 163.331 35.6993 162.653 27.8744 161.827C27.7563 157.17 28.9965 152.867 29.7642 148.504C30.1186 146.47 30.5024 144.377 30.5615 142.314C30.7682 134.444 30.5615 126.544 30.7977 118.644C31.1816 107.502 31.9198 96.389 32.9828 85.3057C32.9828 85.0404 32.8056 84.7751 32.717 84.5098" stroke="black" stroke-linecap="round" stroke-linejoin="round"/>
<path d="M103.053 82.3581C103.82 82.5055 103.761 83.154 103.85 83.7141C104.322 86.5144 104.618 86.9271 107.334 86.0722C114.332 83.8909 121.242 81.5033 128.299 79.1452C127.325 74.989 125.376 71.5402 123.663 68.1798C120.297 61.6065 117.728 54.7384 114.982 47.9293C113.476 44.1857 110.937 41.8276 107.629 39.8821C100.602 35.7259 92.9245 33.0435 85.4835 29.7716C84.3023 29.241 83.7413 28.0914 82.5602 27.8261C80.7885 27.4134 78.9873 27.325 77.1861 27.7966C71.1033 29.3884 65.0206 29.182 58.8788 28.1503C56.6642 27.7671 54.5086 27.7671 52.3531 29.5947C47.2743 33.9278 40.6305 35.3721 34.6363 37.9956C29.4689 40.2358 24.2425 42.2697 21.4373 47.6934C19.7542 50.9654 18.8093 54.5026 17.7758 57.9514C15.325 66.1754 12.4903 74.2226 8.53357 81.857C8.47452 82.0044 8.53357 82.2108 8.53357 82.7708C13.199 84.5984 18.012 86.4554 22.7956 88.3125C24.2129 88.8725 25.6303 89.521 27.1067 89.9042C29.2622 90.4643 30.591 89.5505 31.1225 87.2513C31.713 84.7163 33.3961 82.6234 33.8686 80C34.6068 75.8733 33.1894 72.1887 31.9492 68.4451C29.8528 62.1371 28.1992 55.7111 27.3724 49.0789" stroke="black" stroke-linecap="round" stroke-linejoin="round"/>
<path d="M81.5267 28.3271C81.7038 33.8393 78.6329 36.4333 72.875 38.7325C67.2942 40.9727 61.6839 40.0294 56.4869 37.1702C53.7113 35.6374 52.5007 33.1319 52.7074 29.9484" stroke="black" stroke-linecap="round" stroke-linejoin="round"/>
<path d="M72.6388 43.1245C68.3277 44.0678 64.0167 43.773 59.7056 43.1245" stroke="black" stroke-linecap="round" stroke-linejoin="round"/>
</svg>
