<?xml version="1.0" encoding="UTF-8"?>
<svg id="Layer_2" data-name="Layer 2" xmlns="http://www.w3.org/2000/svg" width="346.77" height="202.47" viewBox="0 0 346.77 202.47">
  <defs>
    <style>
      .cls-1 {
        fill: none;
        stroke: #f1eeeb;
        stroke-miterlimit: 10;
      }
    </style>
  </defs>
  <path class="cls-1" d="m80.05,94.37c-7.15-1.26-13.11-2.87-17.66-4.31-2.96-.93-8.26-2.61-14.87-5.6-7.03-3.18-8.27-4.55-15.73-7.54-5.2-2.09-7.8-3.14-9.91-3.45-1.43-.21-5.55-.7-10.13-2.37-1.01-.37-2.14-.83-2.8-1.94-.67-1.14-.3-2.05-.21-5.39,0-.13,0-.25,0-.36,0-.2.01-.39.01-.56,0-2.11-.2-2.18-.02-3.39.09-.6.26-1.34.57-2.18"/>
  <path class="cls-1" d="m8.74,63.41c.39.4.86.78,1.41,1.11,2.93,1.75,5.88.7,6.24.56"/>
  <path class="cls-1" d="m8.75,62.84h0c-.66.48-1.32,1.06-1.95,1.76-1.15,1.3-.88,1.53-2.33,3.26-1.98,2.35-3.13,2.68-3.82,4.56-.23.63-.59,1.61-.28,2.7.33,1.15,1.18,1.62,3.08,3.08,2.48,1.9,1.85,1.73,3.82,3.17,0,0,2.36,1.73,5.12,3.17,6.54,3.41,15,5.4,15,5.4,9.63,2.27,6.61,2.65,23.57,7.45,5.77,1.64,13.52,3.82,23.94,5.96,6.3,1.3,11.99,2.01,23.39,3.45,5.44.69,9.42,1.11,14.34-.19,2.76-.73,5.39-1.87,8.11-3.12.37-.16.74-.34,1.12-.51,2.81-1.3,3.44-1.76,8.66-4.47,5.36-2.78,8.04-4.17,9.69-4.85,3.96-1.62,5.61-1.76,8.3-2.57,1.13-.34,2.44-.8,4.19-1.53,1.79-.75,3.28-1.5,5.62-2.72.58-.3,1.22-.64,1.92-1.01,5.39-2.83,8.09-4.25,10.16-5.87,3.39-2.66,5.39-5.29,8.51-9.37,2.18-2.85,3.86-5.42,5.09-7.43.31-.51.35-1.13.1-1.67-.19-.41-.4-.9-.62-1.45-.9-2.25-.88-2.91-1.53-3.94-.67-1.07-1.26-1.25-2.92-2.54-.83-.65-1.91-1.71-4.09-3.82-.58-.57-1.21-1.19-1.87-1.85"/>
  <path class="cls-1" d="m13.17,38.05c-.09.48-.19.91-.29,1.3-.28,1.05-.55,2.11-.95,3.15-.44,1.13-1.02,2.25-1.92,3.32-1.67,1.99-2.7,1.79-3.6,3.59-.1.2-1.3,2.68-.36,5.03.25.64.8,1.61,3.26,2.84,1.01.5,2.34,1.06,4.11,1.65,2.6.87,4.3,1.21,9.88,2.34,7.92,1.6,8.67,1.76,10.06,2.16,2.15.6,5.38,1.63,8.99,3.23,4.54,2.02,7.08,3.81,9.7,5.39,5.59,3.37,10.18,4.97,17.07,7.37,4.33,1.51,9.75,2.74,19.92,4.97.01,0,.02,0,.03,0,.86.19,1.76.38,2.69.59,3.34.73,11.92,2.55,18.37,1.01h0c.16-.03.33-.07.49-.12,2.42-.65,4.5-1.8,4.5-1.8.46-.26.89-.52,1.3-.79"/>
  <path class="cls-1" d="m11.93,42.49c1.51,1.51,3.33,3.14,5.44,4.76,5.32,4.08,10.11,6.22,14.37,8.09,9.46,4.16,11.33,3.16,18.68,7.37,3.39,1.94,4,2.73,7.19,4.13,4.72,2.08,7.54,2.18,12.93,3.59,2.82.74,6.94,1.98,11.86,4.13"/>
  <path class="cls-1" d="m89.04,84.39s.02,0,.03,0c10.25,1.63,16.21,1.72,19.49.97,1.98-.45,2.98-1.21,3.36-2.12.78-1.88-1.12-4.58-2.84-7.35-.07-.12-.14-.23-.21-.35-3.09-5.04-7.32-7.69-14.08-11.29-7.44-3.95-10.8-5.25-21.91-10.36-11.6-5.34-13.95-6.69-19.92-8.5-6.08-1.84-11.36-2.77-13.01-3.06-5.77-.97-8.65-1.46-12.75-1.46-6.11,0-8.44,1.05-11.55-.8-.8-.48-1.72-1.19-2.48-2.04-.96-1.08-1.65-2.41-1.5-3.8.2-1.9,1.89-3.12,3.45-4.25,1.16-.84,2.7-1.7,8.23-3.18,4.17-1.12,4.25-.89,8.23-1.99,3.95-1.09,3.87-1.32,6.77-1.99,3.22-.74,4.13-.65,6.38-1.46,2.58-.94,2.91-1.62,4.55-2.36.12-.05.23-.11.36-.16,4.4-1.81,6.21.6,12.88-.13,1.96-.21,4.98-.57,8.23-2.39,1.98-1.11,3.52-2.47,5.85-4.52,2.38-2.1,2.27-2.31,4.38-4.11.13-.12.3-.26.5-.43,1.04-.87,2.94-2.37,5.47-3.96.14-.09.29-.19.45-.28,1.32-.82,2.9-1.71,4.72-2.59.22-.11.44-.21.67-.32"/>
  <path class="cls-1" d="m109.07,75.88h0c1.96,1.59,3.44,3.09,4.53,4.32,1.29,1.45,1.98,2.43,2.81,3.09.4.32.83.56,1.38.74.86.28,2.5.58,8.31-2.13,2.75-1.29,5.43-2.56,8.94-5.11,4.29-3.12,4.05-3.95,7.73-6.53,2.67-1.87,3.41-1.87,7.3-3.8.66-.33,1.41-.71,2.29-1.17,5.38-2.84,8.88-5.2,11.57-7.03,5.07-3.44,7.63-5.21,8.52-7.46.37-.94.57-1.92.63-2.9.19-3.11-1.01-6.25-2.41-8.31-.8-1.18-2.23-2.42-5.09-4.9-2.33-2.02-4.2-3.43-5.45-4.37-5.38-4.06-8.07-6.09-9.94-7.34-3.19-2.13-4.2-2.34-18.1-8.4-8.76-3.83-13.15-5.73-15.02-6.63-3.79-1.8-6.35-2.9-11.47-5.09-3.62-1.55-4.89-2.04-6.63-2.36-2.51-.47-4.85-.39-6.86-.07,0,0,0,0,0,0h-.01"/>
  <path class="cls-1" d="m81.48,7.27c1.37,1.39,2.69,3.31,3.29,5.83.84,3.55-.15,6.51-.67,7.77-.24.58-2.13,4.92-6.84,6.93-3.91,1.66-7.56.78-11.15-.09-2.31-.56-1.27-.64-8.02-3.04-3.57-1.27-4.98-1.65-6.59-3.04-.96-.83-1.67-1.75-2.21-2.64"/>
  <path class="cls-1" d="m87.4,3.03c1.03,1.04,2.12,2.39,3.03,4.07,3.09,5.65,2.14,11.12,1.86,12.59-1.38,7.31-6.54,11.31-7.69,12.17-7.39,5.46-15.77,3.59-16.98,3.29"/>
  <path class="cls-1" d="m141.14,75.68c1.12.49,3.44,1.7,5.31,4.25.75,1.01,2.38,3.55,2.52,7.17.06,1.54-.16,2.9-.47,4"/>
  <path class="cls-1" d="m150.08,66.46c1.54.52,3.2,1.36,4.75,2.71,4.86,4.26,4.8,10.31,4.79,11.56-.03,2.46-.62,4.54-1.3,6.13"/>
  <path class="cls-1" d="m150.37,74.04c-.77.63-.79,1.72-.8,2.32,0,.41-.02,1.43.65,2.32.78,1.03,2.45,1.86,3.77,1.16,1.35-.71,1.38-2.51,1.38-2.68,0-1.9-1.65-2.92-1.74-2.97-.81-.48-2.31-.92-3.26-.14Z"/>
  <path class="cls-1" d="m110.13,86h0c2.61,1.12,4.68,2.31,6.22,3.29,4.53,2.92,5.43,4.77,5.8,5.8.88,2.44.35,4.67.11,5.48-.33,1.14-.88,2.1-1.52,2.92"/>
</svg>