<svg width="63" height="49" viewBox="0 0 63 49" fill="none" xmlns="http://www.w3.org/2000/svg">
<rect x="0.5" y="1" width="61.39" height="47.24" stroke="black"/>
<path d="M34.3898 24.41C34.3598 23.34 34.0598 21.36 33.1998 20.72C32.3398 20.08 31.0998 19.74 29.9298 20.09C29.5898 20.19 29.2898 20.37 28.9898 20.57C28.6998 20.77 28.5398 21.12 28.4398 21.46C28.0998 22.55 28.0898 23.73 28.3998 24.82C27.1998 24.35 25.8498 24.29 24.6098 24.65C23.2998 25.44 23.1398 27.59 24.3198 28.56C25.1798 29.27 26.3998 29.29 27.5098 29.28C29.8098 29.26 32.0998 29.23 34.3998 29.21C34.9698 29.21 35.5598 29.2 36.0898 28.99C38.0398 28.24 39.6098 25.26 38.4998 24.32C37.1898 23.05 34.9898 24.57 33.8998 24.41" stroke="#231F20" stroke-miterlimit="10"/>
</svg>
