<svg width="817" height="474" viewBox="0 0 817 474" fill="none" xmlns="http://www.w3.org/2000/svg">
<path d="M341.53 123.803C349.73 123.963 357.96 125.173 366.02 126.603C375.54 128.283 385.15 130.403 394.19 133.913C397.49 135.193 400.87 136.693 403.68 138.873C408.14 142.343 411.15 147.623 413.52 152.643C418.55 163.283 421.45 175.363 430.09 183.883C434.54 188.273 440.12 190.763 446.34 191.343C453 191.963 459.7 190.683 466.29 189.893C478.69 188.413 491.42 187.353 503.84 189.203C516.03 191.023 527.67 195.943 536.12 205.153C538.28 207.503 540.18 210.073 541.8 212.813C543.58 215.813 544.95 219.033 546.56 222.123C549.18 227.173 552.75 231.493 557.1 235.153C565.62 242.323 575.9 246.913 584.81 253.513C589.57 257.043 593.73 261.243 596.98 266.213C600.54 271.663 603.04 277.713 604.85 283.953C605.71 286.923 606.41 289.943 607 292.983C607.31 294.563 609.72 293.893 609.41 292.323C606.99 279.823 602.46 267.223 593.55 257.843C585.73 249.623 575.3 244.693 565.94 238.553C561.32 235.523 556.9 232.143 553.33 227.893C549.08 222.843 547.05 216.553 543.64 210.993C537.09 200.273 526.63 192.763 514.7 189.073C502.77 185.383 489.92 185.303 477.54 186.253C471.11 186.753 464.73 187.623 458.33 188.383C451.51 189.193 444.15 189.703 437.84 186.473C427.02 180.943 422.76 168.343 418.48 157.833C416.13 152.073 413.57 146.343 409.67 141.443C407.05 138.153 403.98 135.723 400.24 133.843C391.91 129.663 382.57 127.383 373.5 125.493C364.43 123.603 355.4 122.193 346.26 121.523C344.69 121.413 343.11 121.323 341.54 121.293C339.97 121.263 339.93 123.763 341.54 123.793H341.53V123.803Z" fill="#E74D3C" fill-opacity="0.33"/>
<path d="M565.94 238.553C561.32 235.523 556.9 232.143 553.33 227.893C550.698 224.765 548.917 221.161 547.132 217.55C546.036 215.331 544.938 213.109 543.64 210.993C537.09 200.273 526.63 192.763 514.7 189.073C502.77 185.383 489.92 185.303 477.54 186.253C472.59 186.638 467.669 187.242 462.746 187.846C461.274 188.027 459.803 188.208 458.33 188.383C451.51 189.193 444.15 189.703 437.84 186.473C427.925 181.405 423.518 170.4 419.557 160.507C419.196 159.605 418.838 158.711 418.48 157.833C416.13 152.073 413.57 146.343 409.67 141.443C407.05 138.153 403.98 135.723 400.24 133.843C391.91 129.663 382.57 127.383 373.5 125.493C364.43 123.603 355.4 122.193 346.26 121.523C344.69 121.413 343.11 121.323 341.54 121.293C340.159 121.266 339.962 123.197 341.03 123.683L565.94 238.553ZM565.94 238.553C568.524 240.248 571.19 241.851 573.86 243.456C580.86 247.666 587.889 251.892 593.55 257.843M565.94 238.553L593.55 257.843M346.224 122.021C344.658 121.912 343.088 121.822 341.53 121.793C341.284 121.788 341.13 121.877 341.029 121.993C340.919 122.121 340.849 122.312 340.847 122.524C340.846 122.736 340.912 122.931 341.024 123.065C341.127 123.189 341.289 123.288 341.549 123.293L341.549 123.303C349.786 123.464 358.043 124.68 366.107 126.11C375.638 127.792 385.286 129.919 394.371 133.447C397.679 134.73 401.116 136.251 403.986 138.478L403.987 138.478C408.545 142.025 411.597 147.397 413.972 152.429C413.972 152.429 413.972 152.429 413.972 152.429L413.52 152.643C414.899 155.56 416.118 158.586 417.339 161.616C420.572 169.639 423.819 177.699 430.09 183.883L346.224 122.021ZM346.224 122.021C355.337 122.689 364.344 124.096 373.398 125.982C382.463 127.871 391.748 130.141 400.015 134.289C403.694 136.139 406.706 138.524 409.279 141.754C413.13 146.593 415.668 152.264 418.017 158.021C418.372 158.894 418.729 159.784 419.089 160.684C420.889 165.179 422.796 169.943 425.274 174.269C428.253 179.47 432.084 184.092 437.612 186.918C444.073 190.225 451.577 189.688 458.389 188.879C459.866 188.704 461.341 188.523 462.814 188.342C467.735 187.738 472.641 187.135 477.579 186.751C489.937 185.803 502.712 185.888 514.552 189.55C526.38 193.209 536.734 200.649 543.213 211.253L543.214 211.254C544.499 213.349 545.583 215.543 546.677 217.757C547.023 218.457 547.369 219.158 547.724 219.859C549.192 222.766 550.783 225.643 552.947 228.214C556.562 232.518 561.028 235.929 565.666 238.971C568.015 240.512 570.429 241.975 572.845 243.429C573.097 243.581 573.35 243.733 573.602 243.885C575.768 245.187 577.93 246.487 580.054 247.839C584.795 250.858 589.319 254.12 593.188 258.187C602.004 267.468 606.507 279.961 608.919 292.418L608.919 292.42C609.011 292.885 608.721 293.237 608.304 293.352C608.1 293.408 607.911 293.389 607.778 293.321C607.66 293.261 607.541 293.142 607.491 292.887C606.898 289.836 606.195 286.801 605.33 283.814L605.33 283.813C603.51 277.539 600.992 271.441 597.399 265.939L597.398 265.939C594.112 260.913 589.908 256.671 585.108 253.111L585.108 253.111C581.186 250.206 577 247.688 572.838 245.185C572.247 244.829 571.656 244.474 571.067 244.118C566.319 241.25 561.649 238.328 557.422 234.77L557.1 235.153L557.422 234.77C553.118 231.149 549.591 226.879 547.004 221.892L547.003 221.892C546.423 220.777 545.866 219.629 545.306 218.474C544.339 216.48 543.361 214.463 542.23 212.558C542.23 212.558 542.23 212.558 542.23 212.558L541.8 212.813C540.18 210.073 538.28 207.503 536.12 205.153M346.224 122.021L503.84 189.203C516.03 191.023 527.67 195.943 536.12 205.153M536.12 205.153L536.488 204.815C536.488 204.815 536.488 204.814 536.488 204.814L536.12 205.153ZM593.55 257.843C602.46 267.223 606.99 279.823 609.41 292.323C609.72 293.893 607.31 294.563 607 292.983L593.55 257.843Z" stroke="#E74D3C" stroke-opacity="0.333333"/>
<path d="M191.41 417.733C296.018 417.733 380.82 336.19 380.82 235.603C380.82 135.015 296.018 53.4727 191.41 53.4727C86.8017 53.4727 2 135.015 2 235.603C2 336.19 86.8017 417.733 191.41 417.733Z" stroke="#3E5C6D" stroke-width="3" stroke-miterlimit="10"/>
<path d="M112.11 73.8726C115.08 74.4426 118.16 74.8526 121.09 75.6326C122.3 75.9526 122.65 76.6026 122.83 77.8026C123.03 79.0826 123.11 80.3526 123.44 81.6126C124.8 86.7326 128.33 91.0226 132.93 93.5826C135.21 94.8526 137.42 95.9226 138.62 98.3826C139.67 100.543 139.26 102.643 137.64 104.373C135.66 106.473 133.18 108.323 130.57 109.553C127.96 110.783 125.27 111.493 122.91 113.073C120.55 114.653 118.59 116.993 118.21 119.983C118.02 121.493 118.03 122.993 117.66 124.483C117.26 126.113 116.59 127.603 115.7 129.033C114.42 131.083 117.66 132.973 118.94 130.923C120.58 128.303 121.52 125.383 121.77 122.303C121.88 120.953 121.86 119.653 122.61 118.473C123.3 117.383 124.35 116.563 125.45 115.913C128.03 114.383 131 113.663 133.63 112.203C136.26 110.743 138.94 108.693 140.84 106.403C144.74 101.713 142.68 95.4126 137.99 92.1526C135.57 90.4726 132.91 89.4826 130.83 87.3126C129.04 85.4426 127.73 83.1326 127.06 80.6226C126.29 77.7026 126.78 74.1926 123.6 72.5926C122.09 71.8326 120.3 71.6526 118.66 71.3426L113.11 70.2726C110.75 69.8226 109.74 73.4326 112.11 73.8926V73.8726Z" fill="#221F20"/>
<path d="M116.121 129.307L116 129.495C114.135 132.372 111.583 134.563 108.84 136.467C107.211 137.598 105.476 138.651 103.773 139.685C102.637 140.374 101.517 141.054 100.451 141.743L100.451 141.743C94.4047 145.648 89.2096 150.638 85.373 156.729L85.373 156.729C84.7344 157.743 84.1585 158.797 83.5729 159.87C83.3231 160.328 83.0714 160.789 82.8124 161.251C81.9544 162.782 81.0272 164.305 79.8585 165.659L79.8581 165.66C77.6398 168.223 74.5131 169.857 71.5916 171.383C71.0267 171.678 70.4695 171.969 69.9279 172.262L69.9274 172.263C66.2497 174.247 62.5136 176.13 58.7822 177.981L58.7817 177.981C57.347 178.691 55.8345 179.535 54.6073 180.612C53.3839 181.686 52.4704 182.968 52.1819 184.552C51.8578 186.34 52.3845 188.12 53.8447 189.132C54.5953 189.652 55.4655 189.932 56.4072 190.128C56.878 190.227 57.3571 190.302 57.8452 190.379L57.8605 190.381C58.3394 190.457 58.8281 190.534 59.3026 190.633C61.154 191.022 63.3535 191.594 64.7855 193.223C65.5344 194.074 65.7747 194.984 65.6917 195.911C65.6114 196.808 65.2303 197.7 64.795 198.55L64.7947 198.551C64.3953 199.328 64.7546 200.07 65.394 200.445C65.7111 200.631 66.0596 200.697 66.3601 200.636C66.6449 200.577 66.9332 200.395 67.1457 199.983C67.988 198.349 68.6951 196.761 68.5129 195.056L116.121 129.307ZM116.121 129.307C116.605 128.757 117.334 128.743 117.915 129.081C118.233 129.266 118.464 129.538 118.559 129.831C118.65 130.11 118.633 130.452 118.381 130.84L118.38 130.841C116.33 134.009 113.501 136.463 110.413 138.63C108.869 139.713 107.267 140.72 105.67 141.708C105.416 141.865 105.163 142.021 104.91 142.178C103.571 143.004 102.242 143.824 100.974 144.666C94.9072 148.69 89.9528 154.039 86.3843 160.377C86.1863 160.728 85.9902 161.08 85.7944 161.431C84.2404 164.217 82.7055 166.969 80.3686 169.038L116.121 129.307ZM66.4494 190.999L66.4484 190.998C65.1444 189.708 63.5864 189 61.8857 188.507C61.0335 188.259 60.1526 188.068 59.2517 187.883C59.0868 187.849 58.921 187.815 58.7546 187.781C58.0177 187.631 57.269 187.478 56.5316 187.298L56.5306 187.298C56.5078 187.293 56.4843 187.287 56.4602 187.281C56.191 187.216 55.8495 187.133 55.5626 186.97C55.2101 186.771 54.9315 186.452 54.83 185.952L54.8294 185.949C54.6693 185.136 55.0677 184.33 55.4013 183.819C56.3211 182.407 57.8567 181.545 59.1745 180.842L59.1758 180.841C60.9349 179.908 62.7164 179.018 64.4926 178.13L64.7264 178.013C66.5819 177.085 68.431 176.158 70.2539 175.182L70.2542 175.182C70.8773 174.849 71.507 174.521 72.1376 174.193C75.0502 172.677 77.9823 171.15 80.3685 169.038L66.4494 190.999ZM66.4494 190.999C67.5716 192.102 68.3471 193.52 68.5128 195.056L66.4494 190.999Z" fill="#3E5C6D" stroke="#3E5C6D"/>
<path d="M64.5609 199.539C64.3418 202.191 65.7155 204.2 67.4448 206.426C69.2417 208.739 70.9996 210.666 73.3471 212.15L73.3488 212.151C75.502 213.525 77.9888 214.481 80.5132 214.91C82.7132 215.281 85.2826 215.571 87.2686 214.807C88.0594 214.495 88.8008 214.087 89.5755 213.659C89.6605 213.612 89.7458 213.565 89.8316 213.518C90.6892 213.047 91.5913 212.568 92.5863 212.247C94.9968 211.468 97.5324 211.443 99.9589 211.584C100.101 211.592 100.246 211.599 100.395 211.607C102.032 211.696 104.012 211.803 105.609 212.494L105.609 212.494C107.694 213.401 109.267 215.324 110.578 216.928C110.608 216.964 110.638 217 110.667 217.036L110.667 217.036C110.82 217.223 110.972 217.41 111.123 217.596C112.668 219.495 114.148 221.315 116.086 222.74L116.087 222.741C116.515 223.057 117.018 223.364 117.565 223.691C117.63 223.729 117.695 223.768 117.761 223.808C118.244 224.096 118.753 224.399 119.239 224.725C120.337 225.46 121.411 226.365 121.914 227.627L121.915 227.63C122.222 228.409 122.886 228.842 123.626 228.641C123.934 228.554 124.259 228.303 124.466 227.968C124.671 227.635 124.721 227.287 124.606 226.998L124.605 226.997C123.733 224.803 122.089 223.393 120.057 222.072L120.057 222.071C118.152 220.828 116.401 219.607 114.853 217.821M64.5609 199.539L114.852 217.82C114.852 217.82 114.852 217.821 114.853 217.821M64.5609 199.539L64.6151 199.152C64.656 198.86 64.8726 198.587 65.2279 198.403C65.5849 198.217 65.9952 198.17 66.2915 198.253C67.0338 198.471 67.3631 199.16 67.2446 200.014L64.5609 199.539ZM114.853 217.821C114.309 217.198 113.775 216.539 113.243 215.882C113.083 215.684 112.923 215.486 112.762 215.289C112.066 214.435 111.362 213.597 110.613 212.828C109.115 211.291 107.459 210.057 105.371 209.548C100.997 208.482 95.8797 208.247 91.7297 209.646L91.7288 209.647C90.835 209.946 89.9696 210.399 89.0893 210.879C88.9893 210.934 88.889 210.989 88.7884 211.044C88.0169 211.467 87.2273 211.899 86.436 212.217C85.4666 212.606 84.2474 212.646 83.0823 212.546C81.9046 212.445 80.7204 212.196 79.7861 211.957L79.7848 211.957C77.0017 211.238 74.3721 209.869 72.2828 207.853M114.853 217.821L72.2828 207.853M72.2828 207.853C71.1329 206.744 70.1432 205.487 69.2018 204.245L72.2828 207.853ZM68.9768 203.953C69.0568 204.056 69.1325 204.154 69.2018 204.245L67.2446 200.014C67.126 200.87 67.4722 201.708 67.8828 202.405C68.2175 202.974 68.6364 203.514 68.9768 203.953Z" fill="#3E5C6D" stroke="#3E5C6D"/>
<path d="M124.39 226.594C123.916 225.863 123.096 225.809 122.455 226.181C122.137 226.366 121.906 226.638 121.811 226.931C121.738 227.154 121.734 227.417 121.865 227.713H122.09V228.071C122.555 228.756 123.107 229.353 123.723 229.969L123.726 229.971C124.557 230.813 125.078 231.658 125.547 232.72C126.31 234.434 127.143 236.047 128.242 237.535C130.431 240.479 133.241 242.964 136.521 244.584C138.254 245.436 140.063 246.062 141.939 246.443L141.94 246.443C144.196 246.902 146.164 247.607 148.224 248.581L148.224 248.581C151.532 250.15 154.986 251.901 157.664 254.59C161.251 258.187 161.809 262.887 161.98 267.554C162.012 268.426 162.684 268.883 163.423 268.884C163.79 268.884 164.129 268.766 164.363 268.558C164.586 268.361 164.747 268.055 164.73 267.591L164.73 267.591C164.57 263.268 164.178 258.91 161.804 255.339L161.803 255.339C159.717 252.195 156.596 249.892 153.258 248.05C151.515 247.09 149.699 246.226 147.865 245.399L124.39 226.594ZM124.39 226.594C124.722 227.108 125.138 227.54 125.531 227.934C125.586 227.988 125.64 228.042 125.694 228.095C126.036 228.436 126.353 228.751 126.626 229.101L126.626 229.101L126.628 229.103C127.252 229.889 127.636 230.755 128.061 231.712C128.127 231.862 128.195 232.014 128.264 232.168L128.265 232.169C129.165 234.154 130.353 235.998 131.82 237.609L131.821 237.61C134.368 240.393 137.619 242.499 141.291 243.476L141.293 243.476C141.889 243.632 142.469 243.772 143.038 243.908C144.706 244.308 146.277 244.685 147.864 245.398L124.39 226.594Z" fill="#3E5C6D" stroke="#3E5C6D"/>
<path d="M160.201 288.559L160.201 288.557C160.653 286.194 161.015 283.803 161.296 281.412C161.859 276.701 162.12 271.961 162.12 267.223C162.12 266.759 162.294 266.446 162.532 266.242C162.78 266.029 163.128 265.911 163.494 265.911C163.861 265.912 164.209 266.031 164.458 266.245C164.696 266.45 164.87 266.762 164.87 267.223L164.87 267.224C164.88 272.173 164.591 277.112 163.974 282.02C163.91 282.53 163.848 283.045 163.786 283.563C163.31 287.544 162.81 291.727 160.942 295.111L160.942 295.111C159.077 298.498 155.642 300.492 152.078 302.065C151.503 302.319 150.88 302.562 150.224 302.818C150.021 302.897 149.815 302.977 149.607 303.059C148.732 303.404 147.823 303.778 146.96 304.219C145.242 305.097 143.639 306.276 142.851 308.115C142.732 308.39 142.451 308.598 142.062 308.685C141.672 308.772 141.265 308.712 140.997 308.554C140.339 308.154 140.193 307.4 140.53 306.609C141.24 304.961 142.53 303.758 144.068 302.791C145.473 301.908 147.048 301.245 148.532 300.62C148.681 300.557 148.828 300.495 148.975 300.433C149.161 300.354 149.35 300.275 149.54 300.195C150.969 299.594 152.508 298.947 153.93 298.136C155.547 297.214 157.051 296.059 158.115 294.471L158.116 294.47C159.317 292.669 159.811 290.549 160.201 288.559Z" fill="#3E5C6D" stroke="#3E5C6D"/>
<path d="M139.547 308.154L140.435 306.578C140.663 306.174 140.966 305.991 141.269 305.934C141.585 305.874 141.943 305.945 142.26 306.13C142.577 306.316 142.821 306.596 142.931 306.911C143.038 307.212 143.032 307.575 142.805 307.976C142.773 308.032 142.741 308.088 142.71 308.144C141.893 309.584 141.056 311.061 140.406 312.665C139.719 314.362 139.464 316.039 139.302 317.787L139.302 317.787C138.993 321.157 137.674 323.875 135.514 326.515C135.023 327.112 134.49 327.673 133.942 328.249C133.913 328.28 133.884 328.31 133.855 328.341C133.281 328.944 132.694 329.567 132.158 330.242L132.157 330.243C131.774 330.73 131.346 331.354 131.075 332.037C130.804 332.721 130.673 333.512 130.96 334.293C131.102 334.691 131.353 334.983 131.585 335.215C131.69 335.32 131.781 335.405 131.865 335.482C131.99 335.599 132.098 335.699 132.212 335.83C132.732 336.431 133.044 337.105 133.122 337.862C133.263 339.368 132.522 340.777 131.558 342.085C131.055 342.765 130.304 343.017 129.649 342.625C129.366 342.451 129.117 342.121 129.005 341.748C128.894 341.377 128.934 341.032 129.121 340.781L129.124 340.778C129.171 340.713 129.233 340.632 129.304 340.539C129.478 340.313 129.705 340.018 129.891 339.73C130.146 339.335 130.436 338.793 130.399 338.259C130.37 337.82 130.082 337.507 129.88 337.316C129.794 337.235 129.7 337.154 129.62 337.086C129.6 337.069 129.582 337.053 129.564 337.038C129.465 336.953 129.395 336.889 129.345 336.832C128.412 335.772 127.979 334.341 128.108 332.918L128.108 332.918C128.251 331.325 128.94 330.008 129.879 328.77C130.483 327.974 131.156 327.25 131.847 326.507C132.258 326.064 132.675 325.615 133.087 325.141C134.161 323.905 135.192 322.527 135.842 320.943C136.366 319.668 136.488 318.343 136.604 317.083C136.633 316.767 136.662 316.455 136.697 316.149C137.025 313.291 138.175 310.705 139.547 308.154Z" fill="#3E5C6D" stroke="#3E5C6D"/>
<path d="M129.249 340.853L129.179 340.97C128.733 341.713 128.088 342.245 127.41 342.663C126.844 343.012 126.227 343.299 125.662 343.561C125.557 343.61 125.454 343.657 125.354 343.705C125.182 343.786 125.01 343.868 124.839 343.948C123.425 344.617 122.035 345.274 120.733 346.078L120.732 346.078C117.679 347.963 115.788 350.482 114.369 353.79L114.369 353.791C113.638 355.48 113.218 357.094 113.926 358.668C114.184 359.242 114.561 359.726 115.004 360.208C115.194 360.414 115.391 360.615 115.595 360.823C115.631 360.859 115.666 360.895 115.702 360.932C115.941 361.176 116.188 361.432 116.426 361.703C116.426 361.703 116.426 361.703 116.426 361.703L116.05 362.033C117.06 363.183 116.4 364.163 115.62 365.293L129.249 340.853ZM129.249 340.853C129.478 340.531 129.762 340.377 130.047 340.326C130.375 340.268 130.739 340.342 131.055 340.527C131.372 340.712 131.61 340.988 131.713 341.293C131.812 341.585 131.801 341.938 131.562 342.334L131.562 342.335C130.552 344.009 128.915 345.076 127.048 346.016C126.459 346.312 125.865 346.588 125.265 346.866C124.907 347.032 124.547 347.199 124.183 347.373C123.227 347.829 122.279 348.317 121.421 348.898C119.594 350.126 118.351 351.721 117.419 353.656L117.418 353.658C117.357 353.786 117.279 353.94 117.193 354.109C117.031 354.428 116.841 354.8 116.69 355.152C116.454 355.702 116.241 356.35 116.292 356.964L116.292 356.964L116.292 356.968C116.334 357.428 116.543 357.798 116.774 358.093C116.952 358.322 117.17 358.535 117.351 358.713C117.395 358.756 117.437 358.797 117.476 358.836C118.606 359.976 119.597 360.997 119.837 362.435L119.837 362.437C120.13 364.142 119.295 365.713 118.231 367.225L118.229 367.228C118.18 367.299 118.119 367.383 118.049 367.479C117.761 367.877 117.332 368.47 117.078 369.045C116.92 369.405 116.794 369.833 116.856 370.255C116.923 370.72 117.206 371.098 117.693 371.333C118.176 371.566 118.702 371.749 119.186 371.917C119.426 372 119.656 372.08 119.865 372.161C120.532 372.417 121.114 372.719 121.604 373.244L121.605 373.245C122.666 374.376 122.944 376.003 122.753 377.604C122.654 378.44 122.519 379.332 122.229 380.123C121.941 380.911 121.516 381.553 120.864 381.943C119.293 382.88 117.58 382.702 115.862 381.987C114.134 381.269 112.488 380.044 111.121 379.013C109.315 377.647 107.51 376.29 105.706 374.935L105.692 374.924C105.692 374.924 105.692 374.924 105.691 374.924C105.371 374.681 105.054 374.452 104.74 374.225C104.269 373.884 103.804 373.549 103.344 373.177C102.596 372.575 101.936 371.934 101.452 371.175C101.009 370.477 100.803 369.706 100.64 368.842C100.6 368.63 100.562 368.409 100.523 368.182C100.408 367.513 100.285 366.792 100.068 366.086C99.4826 364.184 98.4408 362.512 97.1427 361.06L97.142 361.059C97.0824 360.992 97.0228 360.926 96.9634 360.86C94.279 357.871 91.8534 355.17 92.7478 351.172C93.0684 349.746 93.5357 348.354 94.0094 346.944C94.2215 346.312 94.4348 345.677 94.6368 345.033M119.557 379.323C119.74 379.067 119.867 378.723 119.952 378.376C120.04 378.021 120.094 377.622 120.108 377.228C120.122 376.836 120.098 376.432 120.02 376.07C119.944 375.719 119.806 375.349 119.549 375.085L119.548 375.083C119.034 374.558 118.279 374.31 117.639 374.121C117.534 374.09 117.431 374.06 117.332 374.031C116.769 373.869 116.295 373.732 115.933 373.508L115.933 373.508C114.694 372.741 113.981 371.413 114.069 369.964L115.48 378.153C113.106 376.681 110.864 374.917 108.641 373.169C107.737 372.457 106.835 371.748 105.93 371.063M119.557 379.323L119.15 379.033L119.557 379.322C119.557 379.323 119.557 379.323 119.557 379.323ZM119.557 379.323C119.263 379.737 118.8 379.844 118.398 379.837C117.998 379.829 117.565 379.71 117.171 379.564C116.375 379.269 115.583 378.802 115.219 378.579L115.216 378.578C112.817 377.091 110.54 375.299 108.309 373.544C107.41 372.837 106.518 372.135 105.63 371.462M105.63 371.462C105.63 371.463 105.63 371.463 105.631 371.464L105.93 371.063M105.63 371.462C105.579 371.425 105.526 371.386 105.472 371.346C104.933 370.947 104.247 370.441 103.828 369.782M105.63 371.462C105.629 371.462 105.629 371.462 105.628 371.461L105.93 371.063M105.93 371.063L103.828 369.782M103.828 369.782C103.828 369.781 103.828 369.781 103.828 369.781L104.25 369.513L103.829 369.783C103.829 369.782 103.829 369.782 103.828 369.782ZM94.6368 345.033C94.6368 345.033 94.6368 345.033 94.6367 345.033L94.1599 344.883L94.6369 345.032C94.6369 345.033 94.6368 345.033 94.6368 345.033Z" fill="#3E5C6D" stroke="#3E5C6D"/>
<path d="M95.5302 319.869L95.5302 319.869C95.5202 320.24 95.5076 320.617 95.4949 320.998C95.4319 322.885 95.3657 324.866 95.6041 326.697C95.8986 328.958 96.8584 330.685 97.9501 332.518C98.9558 334.211 99.7727 335.934 99.5633 337.795C99.5129 338.222 99.3548 338.586 99.1239 338.836C98.9009 339.078 98.5934 339.233 98.18 339.233C97.8546 339.233 97.4756 339.076 97.1884 338.807C96.9039 338.54 96.7637 338.216 96.7969 337.908C96.9216 336.806 96.6103 335.835 96.1748 334.963C95.9576 334.528 95.7055 334.11 95.4561 333.709C95.3928 333.607 95.33 333.507 95.2679 333.408C95.0815 333.111 94.9013 332.824 94.7328 332.532C93.6624 330.681 93.0803 328.719 92.8368 326.577C92.4653 323.247 92.6412 319.831 92.8173 316.41C92.8852 315.092 92.9531 313.772 92.9898 312.457C93.0153 311.583 93.686 311.116 94.4221 311.109C94.7876 311.106 95.1257 311.222 95.3613 311.431C95.5861 311.631 95.7538 311.946 95.7402 312.429L95.6352 316.149L95.5302 319.869Z" fill="#3E5C6D" stroke="#3E5C6D"/>
<path d="M95.0902 311.88L95.09 311.88C95.0618 310.037 94.3862 308.413 93.5677 306.676C93.1888 305.872 92.8011 305.044 92.4101 304.209C91.9513 303.23 91.4877 302.24 91.0278 301.266L91.0274 301.265L91.025 301.26C89.2457 297.472 87.467 293.684 85.6683 289.897C85.3057 289.135 84.9661 288.373 84.6266 287.611C84.1709 286.589 83.7155 285.568 83.2051 284.546C82.3299 282.793 81.3433 281.15 80.0569 279.786C79.4423 279.139 79.0424 278.393 78.6871 277.687C78.6418 277.597 78.5972 277.508 78.5531 277.42C78.2434 276.8 77.955 276.222 77.5592 275.692C76.3907 274.127 75.1206 272.628 73.832 271.14C73.7245 271.016 73.6185 270.893 73.5136 270.771C72.3461 269.418 71.3193 268.228 69.9857 267.257L95.0902 311.88ZM95.0902 311.88C95.0954 312.338 94.9276 312.646 94.6982 312.845C94.4563 313.056 94.1126 313.174 93.7456 313.174C93.379 313.173 93.0265 313.054 92.7716 312.838C92.5266 312.631 92.3475 312.315 92.3399 311.854C92.3233 310.723 91.9689 309.64 91.5295 308.633C91.309 308.127 91.0632 307.633 90.8222 307.157C90.7793 307.072 90.7367 306.988 90.6944 306.904C90.4968 306.515 90.3062 306.14 90.1325 305.77L90.1323 305.77C89.6477 304.74 89.1656 303.714 88.6833 302.687L88.6826 302.685L88.6815 302.683C88.1994 301.656 87.7171 300.629 87.2323 299.6C85.4822 295.879 83.7318 292.168 81.9612 288.457L81.9606 288.456C81.7632 288.045 81.5683 287.623 81.371 287.197C80.7272 285.804 80.0584 284.357 79.1973 283.057C78.8162 282.478 78.381 281.965 77.9729 281.484C77.8561 281.347 77.7415 281.212 77.6311 281.078C77.1242 280.467 76.6766 279.865 76.3604 279.118C75.7266 277.62 74.6826 276.379 73.6993 275.21C73.556 275.04 73.414 274.871 73.2748 274.703L73.2739 274.702C73.2437 274.666 73.2135 274.63 73.1832 274.594C72.0046 273.181 70.7896 271.725 69.4762 270.392C68.9776 269.885 68.4367 269.456 67.9155 269.058C67.807 268.976 67.6998 268.894 67.5941 268.815C67.184 268.504 66.7954 268.211 66.432 267.894C65.5372 267.115 64.86 266.254 64.6542 264.907L64.6542 264.907L64.6538 264.904C64.5198 264.059 64.8549 263.365 65.6043 263.154C65.9139 263.068 66.3231 263.118 66.6742 263.302C67.0229 263.484 67.2406 263.758 67.2855 264.057L67.2855 264.057L67.2858 264.058C67.5162 265.561 68.5626 266.277 69.5118 266.926C69.6741 267.037 69.8335 267.146 69.9856 267.257L95.0902 311.88Z" fill="#3E5C6D" stroke="#3E5C6D"/>
<path d="M67.3418 264.438L67.3255 264.621C67.1722 265.378 66.509 265.778 65.8166 265.779C65.4477 265.779 65.1216 265.661 64.9061 265.463C64.704 265.277 64.5578 264.984 64.5979 264.526L64.5979 264.526L64.6384 264.061C65.065 259.169 65.4932 254.258 65.6197 249.336L65.6197 249.335C65.7115 245.66 65.4652 242.031 65.2195 238.41C65.1425 237.274 65.0654 236.139 64.9989 235.003L64.9989 235.003C64.8805 233 64.9312 231.005 65.3201 229.061L65.3205 229.059C65.3949 228.679 65.5478 228.284 65.7207 227.837C65.744 227.777 65.7677 227.715 65.7916 227.653C65.9821 227.157 66.1874 226.593 66.2285 226.029L66.2286 226.028C66.2671 225.481 65.991 225.027 65.7276 224.695C65.5913 224.524 65.4408 224.364 65.304 224.221C65.2715 224.188 65.2401 224.155 65.2098 224.124C65.1069 224.018 65.016 223.924 64.9343 223.831L64.9332 223.83C62.3028 220.876 59.2767 218.295 55.9249 216.199L55.9248 216.199C54.2312 215.14 52.4214 214.146 50.4649 213.507L50.4639 213.507C49.0403 213.046 47.5146 212.81 46.0952 212.591C45.684 212.528 45.2817 212.466 44.8934 212.4C43.1432 212.103 41.5024 211.688 40.025 210.662C39.4107 210.235 38.8478 209.773 38.269 209.298C38.1274 209.182 37.9848 209.065 37.8403 208.947C37.1134 208.356 36.3487 207.764 35.4648 207.267L35.4641 207.266C32.4464 205.577 30.106 203.36 28.4052 200.347L28.4048 200.346C26.7756 197.47 25.7593 194.271 24.7779 191.066C23.9397 188.327 22.9482 185.173 21.3955 182.447C19.8392 179.714 17.6921 177.362 14.5204 176.289C13.6976 176.01 13.4358 175.225 13.6321 174.507C13.7293 174.152 13.9318 173.861 14.1885 173.696C14.4313 173.54 14.7626 173.469 15.2003 173.617C22.5461 176.094 25.3808 183.644 27.5517 190.709C28.54 193.953 29.6075 197.29 31.5427 200.208C32.4408 201.571 33.594 202.842 34.9781 203.786L34.9785 203.786C35.616 204.22 36.2756 204.61 36.9163 204.988C37.1402 205.12 37.3619 205.251 37.5794 205.382C38.43 205.894 39.2393 206.419 39.98 207.069C41.5012 208.403 42.9381 209.222 44.9208 209.623C45.6566 209.771 46.4018 209.883 47.1318 209.992C47.3493 210.025 47.5655 210.057 47.7797 210.091C48.7217 210.236 49.6386 210.397 50.5321 210.653L50.5336 210.654C54.4307 211.757 57.9898 214.061 61.212 216.577C62.7946 217.813 64.2871 219.148 65.6801 220.59L65.6821 220.592C65.8353 220.749 65.9927 220.907 66.1522 221.067C66.6671 221.584 67.2026 222.122 67.6815 222.703C68.3063 223.461 68.7859 224.238 68.9611 225.039C69.1463 225.901 68.9501 226.784 68.6356 227.778C68.5738 227.973 68.5068 228.175 68.4382 228.38C68.1709 229.182 67.88 230.055 67.7828 230.938C67.5465 233.085 67.7324 235.264 67.9219 237.338C68.7375 246.4 68.1514 255.352 67.3418 264.438Z" fill="#3E5C6D" stroke="#3E5C6D"/>
<path d="M52.8498 177.073C55.4498 175.183 58.7598 174.723 61.3298 172.813C62.4698 171.963 63.8598 171.433 65.0798 170.723C66.2998 170.013 67.3098 169.213 68.4198 168.443C69.8398 167.453 71.2898 166.493 72.5498 165.303C73.8098 164.113 74.7698 162.833 75.7398 161.483C77.4398 159.123 79.0998 156.733 80.8098 154.383C83.0898 151.253 85.4298 148.163 88.0898 145.333C89.1898 144.163 87.4298 142.393 86.3198 143.563C81.9198 148.253 78.2698 153.633 74.5498 158.863C72.6998 161.463 70.8398 163.703 68.1998 165.553C65.8598 167.193 63.5998 168.683 61.0898 170.033C60.2798 170.473 59.6198 171.123 58.8198 171.543C58.0998 171.923 57.2998 172.173 56.5398 172.473C54.8298 173.143 53.0798 173.823 51.5798 174.913C50.2898 175.853 51.5398 178.023 52.8398 177.073H52.8498Z" fill="#3E5C6D"/>
<path d="M86.5598 146.483C88.1698 146.483 88.1698 143.983 86.5598 143.983C84.9498 143.983 84.9498 146.483 86.5598 146.483Z" fill="#221F20"/>
<path d="M87.42 146.073C88.34 145.083 89.11 143.993 90.16 143.123C91.1 142.333 91.96 141.363 93.01 140.753C94.06 140.143 94.99 139.283 96.09 138.663C97.23 138.013 98.23 137.283 99.22 136.413C101.36 134.543 104.14 133.333 106.61 131.963C107.82 131.283 109.01 130.633 109.96 129.603C111.02 128.463 111.98 127.203 112.98 126.013C113.98 124.823 112.25 123.013 111.21 124.243C110.26 125.383 109.33 126.553 108.34 127.673C107.35 128.793 106.01 129.433 104.71 130.153C102.24 131.533 99.6 132.763 97.45 134.643C96.41 135.553 95.29 136.193 94.11 136.903C93.13 137.493 92.29 138.223 91.32 138.813C90.3 139.443 89.48 140.423 88.56 141.193C87.45 142.123 86.63 143.243 85.65 144.283C84.55 145.453 86.32 147.233 87.42 146.053V146.073Z" fill="#221F20"/>
<path d="M112.99 125.853C114.08 124.273 114.67 122.373 114.73 120.453C114.75 119.803 114.14 119.173 113.48 119.203C112.79 119.233 112.25 119.753 112.23 120.453C112.23 120.673 112.21 120.893 112.19 121.103C112.19 121.153 112.18 121.213 112.17 121.263C112.2 121.083 112.2 121.033 112.19 121.133C112.17 121.223 112.16 121.323 112.14 121.413C112.07 121.813 111.97 122.213 111.84 122.603C111.78 122.783 111.71 122.963 111.64 123.143C111.59 123.273 111.6 123.243 111.67 123.073C111.65 123.123 111.63 123.173 111.6 123.223C111.55 123.323 111.51 123.423 111.46 123.523C111.27 123.893 111.06 124.243 110.83 124.583C110.46 125.123 110.71 125.993 111.28 126.293C111.91 126.633 112.59 126.423 112.99 125.843V125.853Z" fill="#221F20"/>
<path d="M13.3198 223.723C12.3398 229.753 12.4998 238.513 13.1398 248.253C13.2498 249.903 13.6198 255.283 14.8598 262.943C15.8298 268.913 17.8798 281.263 22.7398 294.443C26.2298 303.893 33.5098 319.073 46.6898 335.193" stroke="#3E5C6D" stroke-width="3" stroke-miterlimit="10"/>
<path d="M249.58 397.653C256.73 395.883 266.25 391.493 276.59 386.093C278.34 385.183 284.04 382.163 291.77 377.063C297.8 373.083 310.23 364.793 322.05 352.883C330.53 344.343 343.23 328.693 353.76 305.813" stroke="#3E5C6D" stroke-width="3" stroke-miterlimit="10"/>
<path d="M47.7999 335.053C47.7999 335.579 47.3087 336.093 46.5899 336.093C45.8711 336.093 45.3799 335.579 45.3799 335.053C45.3799 334.526 45.8711 334.013 46.5899 334.013C47.3087 334.013 47.7999 334.526 47.7999 335.053Z" fill="#221F20" stroke="#3E5C6D"/>
<path d="M86.8652 220.391L86.7346 220.428C86.5507 220.451 86.4111 220.405 86.3043 220.333C86.1618 220.237 86.0453 220.071 85.9897 219.868C85.9342 219.665 85.9494 219.462 86.0235 219.304C86.0918 219.16 86.2229 219.024 86.4737 218.954L86.4737 218.954L86.4747 218.954C90.4836 217.833 95.0937 217.143 98.982 217.757C102.787 218.357 105.506 220.865 108.131 223.73C108.205 223.811 108.279 223.893 108.354 223.975C108.899 224.573 109.456 225.185 110.036 225.766L110.039 225.768C110.988 226.707 111.838 226.974 113.02 227.213C114.874 227.593 116.401 228.437 117.483 229.953L117.484 229.955C118.285 231.068 118.738 232.332 119.217 233.666C119.366 234.083 119.518 234.506 119.684 234.933L119.684 234.933C120.599 237.295 122.142 238.685 124.295 239.834C124.524 239.957 124.613 240.112 124.642 240.256C124.673 240.414 124.639 240.608 124.533 240.791C124.318 241.159 123.921 241.334 123.506 241.112C121.876 240.238 120.438 239.235 119.404 237.703C118.889 236.939 118.53 236.09 118.198 235.187C118.107 234.941 118.018 234.688 117.927 234.432C117.691 233.768 117.448 233.082 117.157 232.429L117.156 232.428C116.717 231.45 116.177 230.627 115.456 229.988C114.731 229.347 113.847 228.914 112.753 228.683L112.751 228.683C112.591 228.65 112.436 228.62 112.286 228.591C111.575 228.453 110.976 228.337 110.389 227.999C109.709 227.608 109.149 227.021 108.547 226.388C108.509 226.349 108.471 226.309 108.433 226.268C108.057 225.872 107.679 225.456 107.295 225.033C106.451 224.104 105.578 223.144 104.648 222.293C103.278 221.039 101.726 219.963 99.8094 219.45L99.8091 219.45C95.6279 218.332 90.8022 219.289 86.8652 220.391Z" fill="#3E5C6D" stroke="#3E5C6D"/>
<path d="M73.4691 254.446L73.469 254.446C72.9415 256.208 72.4772 258.093 72.4712 259.896C72.4653 261.687 72.9113 263.368 74.1803 264.767L74.1819 264.768C74.509 265.132 74.8858 265.454 75.2931 265.782C75.398 265.866 75.5061 265.951 75.6159 266.038C75.9223 266.28 76.2418 266.533 76.5414 266.798C76.5415 266.798 76.5415 266.798 76.5416 266.798L76.21 267.173C77.08 267.943 77.79 268.863 78.49 269.783L73.4691 254.446ZM73.4691 254.446C73.5435 254.197 73.6833 254.063 73.8346 253.994C73.9976 253.919 74.205 253.904 74.4079 253.96C74.6112 254.016 74.7738 254.131 74.8653 254.269C74.9486 254.395 74.9951 254.571 74.9211 254.819C74.9073 254.865 74.8935 254.911 74.8795 254.957C74.2774 256.955 73.537 259.412 74.1577 261.684L74.1579 261.685C74.5181 262.997 75.4072 263.943 76.323 264.75C76.5913 264.987 76.8809 265.227 77.1627 265.461C77.351 265.617 77.5359 265.771 77.7086 265.918C78.1566 266.301 78.5661 266.678 78.9069 267.084C80.9206 269.487 82.7925 272.017 84.6708 274.556C85.5349 275.725 86.4004 276.895 87.2817 278.055C87.2817 278.055 87.2818 278.055 87.2818 278.055L87.68 277.753L73.4691 254.446Z" fill="#3E5C6D" stroke="#3E5C6D"/>
<path d="M154.894 280.228C155.713 274.835 155.368 269.255 154.152 263.963L131.631 314.857C130.695 319.195 129.657 323.588 126.287 326.441C125.923 326.748 125.467 326.666 125.159 326.359C125.008 326.209 124.932 326.037 124.926 325.891C124.92 325.763 124.964 325.603 125.163 325.435L125.163 325.434C127.22 323.693 128.336 321.402 129.084 318.998C129.457 317.796 129.742 316.556 130.005 315.335C130.069 315.037 130.131 314.74 130.194 314.445C130.388 313.527 130.578 312.628 130.795 311.754C131.409 309.287 132.242 306.76 133.163 304.512C134.097 302.231 134.998 300.159 136.837 298.649L136.837 298.649C138.486 297.295 140.31 296.167 142.181 295.048C142.419 294.907 142.657 294.765 142.895 294.623C144.53 293.651 146.188 292.665 147.743 291.538L147.744 291.537C149.404 290.333 151.031 288.926 152.265 287.215C153.778 285.119 154.517 282.704 154.894 280.228L154.894 280.228Z" fill="#3E5C6D" stroke="#3E5C6D"/>
<path d="M103.386 337.673C103.791 339.991 104.17 342.598 103.321 344.999C103.085 345.669 102.751 346.283 102.429 346.859C102.404 346.904 102.379 346.949 102.354 346.993C102.054 347.53 101.771 348.035 101.553 348.571C101.088 349.715 100.975 350.801 101.107 351.977L101.107 351.978C101.373 354.393 102.603 356.556 103.916 358.702C103.954 358.764 103.992 358.826 104.031 358.889C104.652 359.902 105.344 361.031 105.843 362.223C106.376 363.495 106.707 364.878 106.495 366.325L103.386 337.673ZM103.386 337.673H103.407L103.302 337.085C103.218 336.616 103.518 336.259 103.938 336.143C104.143 336.087 104.328 336.107 104.456 336.173C104.567 336.23 104.682 336.345 104.727 336.6C105.19 339.233 105.617 341.798 105.071 344.369C104.861 345.353 104.41 346.237 103.929 347.179C103.794 347.443 103.657 347.713 103.522 347.99C102.923 349.219 102.401 350.566 102.646 352.149C102.879 353.661 103.508 355.023 104.225 356.297C104.546 356.866 104.89 357.426 105.226 357.975C105.265 358.039 105.305 358.104 105.345 358.168C105.72 358.782 106.084 359.382 106.409 359.988C107.583 362.199 108.273 364.417 107.915 366.84L107.915 366.841C107.878 367.098 107.769 367.207 107.669 367.26C107.552 367.322 107.373 367.344 107.166 367.286C106.742 367.168 106.425 366.8 106.494 366.326L103.386 337.673Z" fill="#221F20" stroke="#3E5C6D"/>
<path d="M152.33 73.3926C156.4 74.3026 160.17 72.3326 164.02 71.3226C168.12 70.2526 172.3 69.5326 176.53 69.2026C178.65 69.0326 180.77 68.9626 182.9 68.9726C184.71 68.9826 186.98 68.7526 188.69 69.4426C189 69.5726 189.62 69.9026 189.61 70.3226C189.59 70.8726 188.15 71.7326 187.78 72.0426C186.18 73.3826 184.63 74.7827 183.12 76.2127C180.1 79.0827 177.22 82.0926 174.35 85.1126C171.48 88.1326 168.64 91.1326 166.12 94.4426C164.4 96.7126 162.19 101.693 158.63 101.113C155.07 100.533 154.43 95.8126 154.07 92.9826C153.82 91.0226 153.69 88.9627 154.27 87.0627C154.81 85.2827 156.23 84.0926 157.25 82.6026C158.35 80.9826 158.67 79.0126 157.75 77.2326C157.3 76.3526 156.59 75.6326 155.9 74.9426C155.58 74.6226 154.27 73.5326 154.51 72.9826C154.92 72.0526 154.77 70.9826 153.84 70.4126C153.05 69.9326 151.69 70.1627 151.27 71.0827C150.31 73.2327 151.04 75.2127 152.57 76.9027C153.17 77.5627 154.05 78.1427 154.43 78.9627C154.76 79.6627 154.33 80.2826 153.92 80.8526C152.8 82.4126 151.53 83.6727 150.85 85.5227C150.17 87.3727 150.04 89.5726 150.19 91.6026C150.5 95.6226 151.14 100.393 154.46 103.113C157.78 105.833 162.41 105.043 165.31 101.863C166.8 100.233 167.9 98.2827 169.23 96.5227C170.56 94.7627 172.14 92.9726 173.69 91.2926C176.92 87.7826 180.23 84.3227 183.62 80.9627C185.27 79.3327 186.95 77.7427 188.68 76.2127C190.2 74.8727 192.54 73.5327 193.17 71.4927C193.8 69.4527 192.71 67.4927 191.01 66.4327C189.13 65.2627 186.69 65.3127 184.56 65.2527C179.2 65.0927 173.83 65.5226 168.56 66.4826C165.93 66.9626 163.3 67.5527 160.75 68.3627C158.4 69.1027 155.86 70.3427 153.35 69.7827C151 69.2627 149.99 72.8727 152.35 73.4027H152.33V73.3926Z" fill="#221F20"/>
<path d="M164.08 76.5226C169.12 75.7426 173.82 73.2026 178.98 73.1726C180.59 73.1726 180.59 70.6626 178.98 70.6726C173.57 70.7026 168.69 73.2926 163.42 74.1126C162.75 74.2126 162.38 75.0526 162.55 75.6526C162.75 76.3626 163.42 76.6326 164.09 76.5226H164.08Z" fill="#221F20"/>
<path d="M269.04 71.2136C262.727 74.0346 256.419 76.9099 250.754 80.8144C244.899 84.8491 240.351 89.9774 236.396 95.8907C235.368 97.4307 234.371 99.0095 233.369 100.595C230.729 104.775 228.058 109.004 224.721 112.698L224.721 112.698C222.923 114.683 220.883 116.389 218.867 118.075C218.16 118.665 217.457 119.254 216.767 119.851L216.767 119.851C213.949 122.285 211.677 125.062 210.305 128.508C209.074 131.609 208.403 135.605 209.587 138.693C210.659 141.474 213.204 142.88 216.16 143.236C218.963 143.574 221.793 142.965 224.638 142.353C224.807 142.316 224.975 142.28 225.144 142.244C228.743 141.464 232.334 140.666 235.882 139.729L235.883 139.729C242.963 137.864 249.972 135.469 256.265 131.742L256.266 131.742C257.749 130.865 259.156 129.872 260.566 128.851C260.793 128.687 261.021 128.521 261.249 128.356C262.429 127.498 263.622 126.632 264.856 125.824L264.856 125.824C267.649 123.999 270.902 122.457 274.492 123.285C276.394 123.722 278.116 124.592 279.752 125.495L279.754 125.496C279.981 125.623 280.232 125.752 280.502 125.891C280.576 125.93 280.653 125.969 280.731 126.009C281.084 126.192 281.46 126.391 281.823 126.611C282.539 127.043 283.267 127.589 283.692 128.321M269.04 71.2136L277.46 135.613C275.1 137.893 273.22 140.733 273.16 144.113M269.04 71.2136V71.2529L269.744 70.9394C270.518 70.5942 271.296 70.7396 271.675 71.3993C271.837 71.6901 271.893 72.0987 271.808 72.4788C271.724 72.8556 271.52 73.1375 271.235 73.2666C271.235 73.2667 271.234 73.2669 271.234 73.267L271 73.3719C267.86 74.776 264.7 76.189 261.605 77.746M269.04 71.2136L261.605 77.746M283.692 128.321C283.692 128.321 283.692 128.321 283.692 128.322L283.26 128.573L283.692 128.321C283.692 128.321 283.692 128.321 283.692 128.321ZM283.692 128.321C284.222 129.23 283.887 130.139 283.426 130.818C282.985 131.469 282.346 132.043 281.912 132.433C281.892 132.451 281.873 132.468 281.854 132.485L281.853 132.485C281.3 132.98 280.726 133.453 280.161 133.919C280.037 134.022 279.913 134.124 279.79 134.225C279.103 134.794 278.434 135.361 277.809 135.97L277.807 135.972C275.492 138.209 273.717 140.931 273.66 144.122M273.66 144.122C273.66 144.121 273.66 144.121 273.66 144.121L273.16 144.113M273.66 144.122L273.16 144.113M273.66 144.122L273.16 144.113M261.605 77.746C261.605 77.7459 261.606 77.7458 261.606 77.7457L261.83 78.1926L261.605 77.746ZM233.12 107.013L232.704 106.735L221.978 140.133C221.978 140.133 221.978 140.133 221.978 140.133M233.12 107.013L232.704 106.736C230.81 109.577 228.896 112.243 226.511 114.856C224.823 116.704 222.93 118.283 221.004 119.889C220.208 120.553 219.406 121.222 218.611 121.916C215.896 124.287 213.59 127.032 212.502 130.606C212.106 131.891 211.681 133.682 211.716 135.383C211.752 137.078 212.251 138.807 213.843 139.761L213.844 139.762C215.068 140.49 216.522 140.691 217.936 140.663C219.353 140.634 220.781 140.373 221.978 140.133M233.12 107.013C231.22 109.863 229.29 112.553 226.88 115.193C225.168 117.068 223.234 118.681 221.297 120.296C220.507 120.955 219.716 121.615 218.94 122.293C216.26 124.633 214.03 127.303 212.98 130.753L271.208 73.8264C268.065 75.2319 264.914 76.6409 261.83 78.1927C255.57 81.3327 249.39 85.2127 244.79 90.2627C241.429 93.9521 238.763 98.1698 236.1 102.382C235.117 103.935 234.136 105.488 233.12 107.013ZM221.978 140.133C225.536 139.421 229.093 138.62 232.62 137.748C239.613 136.025 246.621 133.903 253.027 130.443C255.858 128.919 258.532 126.989 261.022 125.191C261.308 124.985 261.591 124.781 261.872 124.579C264.599 122.618 267.495 120.881 270.776 120.438C274.372 119.96 277.754 121.284 280.969 123.051C282.397 123.838 283.946 124.694 285.085 125.806C286.205 126.899 286.888 128.198 286.664 129.897L286.664 129.898C286.475 131.339 285.737 132.538 284.697 133.652C283.83 134.581 282.785 135.42 281.708 136.284C281.481 136.466 281.253 136.649 281.025 136.835C278.461 138.917 275.874 141.283 276.466 145.157C276.601 146.054 276.937 146.756 277.426 147.302C277.911 147.843 278.523 148.203 279.175 148.458C279.825 148.713 280.533 148.869 281.223 148.992C281.547 149.05 281.873 149.101 282.19 149.15L282.255 149.161C282.595 149.214 282.923 149.266 283.239 149.324L283.24 149.325C286.145 149.855 288.6 151.477 289.035 154.406L289.035 154.406C289.446 157.157 288.128 160.022 285.908 161.704L285.908 161.705C283.258 163.718 279.855 164.112 276.331 164.033C275.456 164.013 274.568 163.955 273.662 163.895L273.577 163.889C272.703 163.831 271.813 163.772 270.924 163.747C269.089 163.695 267.224 163.786 265.413 164.345L265.412 164.345C264.506 164.626 263.677 165.061 262.892 165.476L262.831 165.508C262.057 165.918 261.325 166.306 260.542 166.568C259.108 167.043 257.515 167.027 256.066 166.584L256.065 166.584C254.557 166.127 253.259 165.332 251.951 164.42C251.614 164.185 251.275 163.942 250.931 163.694C249.955 162.992 248.94 162.263 247.836 161.638C244.794 159.914 241.267 159.469 237.894 159.714L237.893 159.714M221.978 140.133L237.893 159.714M253.024 161.833L253.023 161.832C250.216 159.867 247.623 158.108 244.325 157.402L244.324 157.401C237.293 155.878 230.164 158.078 224 161.645C220.983 163.394 218.159 165.438 215.312 167.498C215.156 167.611 215 167.725 214.843 167.838C211.846 170.006 209.172 172.005 206.54 174.318C203.914 176.627 201.616 179.086 199.715 181.921C197.669 184.976 196.416 188.427 195.443 192.004C194.67 194.859 193.949 197.727 193.226 200.601C192.94 201.738 192.654 202.877 192.365 204.016C192.104 205.039 191.827 206.043 191.551 207.038C190.733 209.997 189.94 212.865 189.719 215.83C189.46 219.362 190.777 222.533 193.499 224.788C196.293 227.102 199.48 228.659 202.727 230.138L202.728 230.138C209.57 233.266 216.82 235.272 224.3 236.176C228.081 236.633 231.893 236.752 235.699 236.593L235.7 236.593C235.878 236.586 236.066 236.576 236.261 236.565C236.841 236.535 237.48 236.501 238.1 236.527C238.938 236.562 239.814 236.707 240.588 237.148M253.024 161.833L240.34 237.583M253.024 161.833C253.08 161.872 253.136 161.911 253.193 161.951C254.388 162.788 255.725 163.723 257.337 164.062C259.061 164.424 260.49 163.655 261.766 162.968C261.806 162.946 261.846 162.925 261.886 162.904L253.024 161.833ZM240.588 237.148L240.34 237.583M240.588 237.148C240.587 237.148 240.587 237.148 240.586 237.147L240.34 237.583M240.588 237.148C241.425 237.622 242.034 238.41 242.508 239.217C242.882 239.852 243.196 240.543 243.471 241.148C243.544 241.309 243.615 241.464 243.683 241.611M240.34 237.583C241.634 238.314 242.387 239.97 243.01 241.342C243.085 241.507 243.158 241.668 243.23 241.823M243.683 241.611L243.23 241.823M243.683 241.611C243.683 241.611 243.683 241.611 243.683 241.612L243.23 241.823M243.683 241.611C245.271 245.001 246.166 248.704 246.389 252.423L246.389 252.424C246.44 253.295 247.128 253.755 247.871 253.756C248.239 253.757 248.572 253.639 248.798 253.435C249.012 253.243 249.167 252.943 249.141 252.483C248.914 248.715 248.106 245.04 246.649 241.566C245.973 239.955 245.231 238.291 244.214 236.919C243.205 235.556 241.945 234.507 240.241 234.088L240.24 234.088C238.741 233.718 237.183 233.783 235.562 233.852C235.478 233.855 235.395 233.859 235.311 233.862L235.309 233.862C233.446 233.933 231.594 233.933 229.731 233.862L229.73 233.862C225.952 233.711 222.205 233.248 218.507 232.472L218.507 232.472C211.2 230.932 204.025 228.273 197.63 224.36C196.293 223.546 194.875 222.586 193.845 221.259L193.844 221.258C192.634 219.689 192.337 217.822 192.451 215.972C192.554 214.306 192.995 212.595 193.408 210.995C193.451 210.828 193.494 210.663 193.536 210.499L193.536 210.499C194.046 208.509 194.556 206.519 195.066 204.519C195.361 203.361 195.653 202.199 195.946 201.037C196.662 198.192 197.38 195.341 198.147 192.512L243.23 241.823M237.893 159.714C230.505 160.256 223.958 164.644 218.408 168.626C218.006 168.916 217.6 169.205 217.192 169.497C212 173.207 206.504 177.134 202.695 182.42M237.893 159.714L202.695 182.42M202.695 182.42C200.467 185.505 199.127 188.897 198.147 192.512L202.695 182.42ZM277.661 150.835C277.661 150.835 277.661 150.835 277.66 150.835L277.46 151.293L277.661 150.835ZM272.274 161.052C272.274 161.052 272.274 161.052 272.275 161.052L272.3 160.553L272.274 161.052Z" fill="#3E5C6D" stroke="#3E5C6D"/>
<path d="M246.822 252.452L246.84 252.453V252.463V252.963H246.808L246.369 259.864L246.822 252.452ZM246.822 252.452C246.896 251.606 247.577 251.16 248.308 251.159C248.676 251.158 249.008 251.277 249.233 251.48C249.446 251.671 249.599 251.971 249.571 252.431C249.571 252.431 249.571 252.432 249.571 252.432L249.131 259.321L249.131 259.322C249.089 259.998 249.032 260.688 248.975 261.387C248.845 262.976 248.712 264.606 248.74 266.201C248.757 267.288 249.123 268.05 249.701 268.66C250.171 269.157 250.788 269.553 251.396 269.944C251.494 270.007 251.591 270.069 251.687 270.132L251.688 270.132C254.789 272.146 256.263 275.197 257.352 278.759L257.352 278.759C258.545 282.66 259.628 286.827 258.733 290.649C258.294 292.521 257.21 294.052 256.043 295.653C256.008 295.702 255.972 295.751 255.936 295.8C254.82 297.332 253.643 298.945 253.117 300.913C252.043 304.927 253.341 309.199 254.503 312.845L254.503 312.845C255.471 315.878 256.473 318.9 257.473 321.92C257.932 323.303 258.39 324.685 258.845 326.069L258.845 326.069C259.245 327.284 259.627 328.524 260.012 329.773C260.884 332.605 261.77 335.482 262.908 338.204M246.822 252.452L246.369 259.864C246.326 260.543 246.266 261.218 246.207 261.889C246.067 263.472 245.929 265.032 246.019 266.563C246.14 268.635 246.947 270.092 248.542 271.305L248.543 271.305C248.887 271.567 249.244 271.809 249.61 272.054C249.66 272.087 249.71 272.12 249.76 272.154C250.076 272.364 250.398 272.579 250.711 272.805C251.44 273.331 252.15 273.941 252.707 274.788C253.773 276.407 254.3 278.124 254.809 279.819L254.809 279.819L254.861 279.994C255.453 281.971 256.078 284.061 256.268 286.198C256.464 288.406 256.21 290.512 255.028 292.471L255.027 292.472C254.541 293.275 253.971 294.02 253.42 294.74C253.369 294.808 253.317 294.875 253.266 294.942C252.662 295.734 252.088 296.505 251.628 297.343L251.627 297.345C249.624 300.958 249.749 305.173 250.638 309.214C251.38 312.55 252.5 315.804 253.624 319.072C254.019 320.22 254.415 321.371 254.795 322.526C255.448 324.511 256.099 326.495 256.749 328.478C257.613 331.113 258.477 333.745 259.345 336.376L259.345 336.377C260.419 339.65 261.708 342.952 264.534 344.805L264.534 344.805C267.924 347.033 272.18 345.727 275.581 343.675C278.953 341.64 282.044 338.78 284.691 335.706C287.351 332.618 290.092 329.101 292.262 325.534C293.337 323.759 294.243 321.839 294.608 319.833C295.013 317.582 294.852 315.345 294.515 313.035L294.515 313.035C294.419 312.373 294.293 311.67 294.165 310.946C293.938 309.675 293.7 308.338 293.585 307.039C293.403 304.968 293.513 302.85 294.471 300.912C295.311 299.204 296.822 298.083 298.204 297.058C298.378 296.928 298.55 296.801 298.719 296.674C300.25 295.518 301.567 294.367 302.813 293.033C307.813 287.63 310.804 280.454 311.05 273.086C311.149 269.97 310.516 267.097 309.852 264.086C309.665 263.238 309.476 262.379 309.3 261.501L309.299 261.501C308.867 259.341 308.861 257.17 310.047 255.122C310.777 253.862 311.642 252.66 312.486 251.486C312.926 250.875 313.36 250.272 313.766 249.672L313.767 249.671C318.464 242.785 322.95 235.409 324.509 227.209L324.509 227.209C324.903 225.149 325.11 223.06 325.12 220.972C325.119 220.379 324.676 219.78 324.124 219.649L324.123 219.649C322.895 219.355 321.821 218.881 320.782 218.189C320.398 217.932 320.061 217.914 319.787 218.002C319.498 218.094 319.228 218.321 319.043 218.639C318.67 219.28 318.72 220.109 319.448 220.597C320.052 221.002 320.692 221.347 321.359 221.633C321.365 221.413 321.369 221.192 321.37 220.971L321.375 219.499L322.267 220.67L323.647 222.48L324.499 223.596L323.133 223.269C322.849 223.201 322.567 223.124 322.288 223.038C321.727 230.515 318.353 237.374 314.464 243.598L314.463 243.599C313.379 245.325 312.255 247.021 311.102 248.696C310.743 249.217 310.368 249.736 309.992 250.258C309.132 251.45 308.262 252.655 307.556 253.917C305.511 257.583 306.425 261.375 307.401 265.425C307.45 265.625 307.498 265.825 307.546 266.026C309.198 272.918 307.983 280.18 304.411 286.266C302.609 289.34 300.237 292.049 297.415 294.228L297.415 294.229C297.113 294.461 296.812 294.687 296.515 294.91C295.226 295.875 294.006 296.79 293.056 298.027L293.056 298.028C291.963 299.444 291.292 301.132 291.014 302.92C290.7 304.934 290.843 306.907 291.12 308.913C291.221 309.639 291.341 310.379 291.462 311.127C291.671 312.415 291.884 313.728 292.008 315.036M262.908 338.204C262.908 338.204 262.908 338.204 262.908 338.204L263.37 338.013L262.908 338.206C262.908 338.205 262.908 338.205 262.908 338.204ZM262.908 338.204C263.474 339.569 264.262 341.107 265.513 342.13L265.514 342.13C267.045 343.38 268.945 343.419 270.666 342.934L270.666 342.934C274.513 341.845 277.872 338.888 280.527 336.183M280.527 336.183C283.315 333.344 285.714 330.147 288.006 326.944L288.007 326.943L288.016 326.93C289.218 325.242 290.481 323.467 291.285 321.415C292.104 319.328 292.212 317.192 292.008 315.036M280.527 336.183L280.17 335.833L280.526 336.183C280.527 336.183 280.527 336.183 280.527 336.183ZM292.008 315.036C292.008 315.036 292.008 315.035 292.008 315.035L291.51 315.083L292.008 315.036Z" fill="#3E5C6D" stroke="#3E5C6D"/>
<path d="M321.101 219.743L321.063 219.737C318.568 219.348 315.876 218.868 313.549 217.591C310.916 216.151 309.73 213.896 308.883 211.234C308.057 208.635 307.187 206.235 305.975 203.881C304.758 201.515 303.42 199.414 302.019 197.222L302.018 197.221C301.811 196.897 301.602 196.571 301.393 196.244C298.807 192.207 296.104 187.989 294.944 183.18C294.304 180.529 294.066 177.454 295.296 174.802C296.385 172.454 298.471 170.908 300.647 169.825C302.998 168.655 305.621 167.984 308.153 167.54C311.001 167.03 313.967 167.12 316.422 169.082L316.422 169.082C318.361 170.636 319.862 172.758 321.232 174.696L321.308 174.804C321.91 175.656 322.502 176.519 323.096 177.384C323.901 178.558 324.708 179.735 325.545 180.889L325.545 180.889C328.346 184.757 331.535 188.458 335.825 190.501L335.825 190.501C337.056 191.088 338.346 191.499 339.675 191.877C340.042 191.981 340.414 192.083 340.788 192.186C341.757 192.453 342.743 192.724 343.709 193.049C346.477 193.978 348.638 195.81 350.492 198L350.492 198C351.456 199.141 352.363 200.325 353.261 201.5L353.326 201.586C354.204 202.735 355.075 203.874 355.993 204.972L355.993 204.972C358.022 207.398 360.179 209.714 362.474 211.89L362.475 211.891C367.086 216.283 372.231 220.126 377.828 223.153L377.828 223.153C378.593 223.568 379.323 223.222 379.697 222.583C379.883 222.265 379.952 221.912 379.891 221.603C379.833 221.308 379.65 221.013 379.242 220.793L379.242 220.793C373.891 217.9 368.996 214.284 364.586 210.106L364.586 210.105C360.853 206.564 357.708 202.626 354.549 198.671C354.034 198.026 353.519 197.38 353.001 196.736L321.101 219.743ZM321.101 219.743H321.14H321.15H321.183M321.101 219.743H321.183M321.183 219.743C321.44 219.822 321.671 220.03 321.831 220.336C322.015 220.688 322.064 221.094 321.979 221.396C321.768 222.133 321.067 222.482 320.228 222.349L320.226 222.349C317.126 221.87 313.978 221.172 311.393 219.484L311.393 219.484C308.651 217.694 307.23 215.059 306.226 211.911C306.226 211.911 306.226 211.911 306.226 211.911L305.75 212.063C304.79 209.033 303.63 206.193 302.07 203.483C301.059 201.726 299.968 200.02 298.876 198.312L321.183 219.743ZM337.849 188.405L337.848 188.404C333.08 186.423 329.808 182.216 327.02 178.24L327.02 178.239C326.544 177.557 326.078 176.875 325.613 176.196C324.65 174.789 323.693 173.392 322.678 172.02C320.973 169.724 319.205 167.452 316.83 166.01L337.849 188.405ZM337.849 188.405C339.199 188.963 340.602 189.342 341.97 189.71C342.108 189.747 342.246 189.784 342.383 189.822C343.892 190.23 345.354 190.65 346.733 191.313C349.223 192.515 351.237 194.547 353 196.736L337.849 188.405ZM297.535 195.26C294.611 190.53 291.993 185.453 291.709 179.918C291.564 176.918 292.274 173.913 294.087 171.547L294.087 171.546C295.604 169.559 297.698 168.105 300.012 167.08L300.013 167.079C302.52 165.962 305.52 164.951 308.505 164.597C311.493 164.242 314.42 164.549 316.83 166.01L297.535 195.26Z" fill="#3E5C6D" stroke="#3E5C6D"/>
<path d="M345.967 184.167L345.967 184.167C348.496 184.776 351.005 185.467 353.125 187.283M345.967 184.167L360.074 193.108M345.967 184.167C341.755 183.153 337.85 181.239 334.826 178.342C331.803 175.446 329.933 171.901 328.812 167.869C328.053 165.132 326.377 163.62 323.984 162.351C321.735 161.159 319.263 160.497 316.74 160.329V160.304L316.262 160.283C315.788 160.263 315.532 159.907 315.532 159.48C315.532 159.269 315.601 159.086 315.707 158.967C315.804 158.859 315.958 158.771 316.218 158.782M345.967 184.167L360.074 193.108M353.125 187.283C353.125 187.283 353.125 187.283 353.125 187.283L352.8 187.663L353.125 187.282C353.125 187.282 353.125 187.282 353.125 187.283ZM353.125 187.283C354.846 188.751 356.231 190.55 357.567 192.283C357.697 192.452 357.826 192.62 357.955 192.787L357.956 192.788C359.896 195.308 361.836 197.83 363.776 200.353L363.793 200.375C365.728 202.89 367.662 205.405 369.596 207.918C369.891 208.301 370.379 208.33 370.76 208.109C370.946 208.001 371.055 207.859 371.092 207.732C371.124 207.626 371.122 207.473 370.964 207.268L370.964 207.267L360.074 193.108M360.074 193.108L360.074 193.107C359.85 192.817 359.628 192.526 359.406 192.236C356.629 188.607 353.929 185.078 349.608 183.596L349.607 183.595C348.576 183.239 347.519 182.981 346.437 182.718C346.241 182.67 346.045 182.622 345.848 182.573C344.57 182.258 343.267 181.909 342.011 181.361C339.93 180.459 337.984 179.199 336.313 177.672C334.645 176.147 333.24 174.395 332.143 172.415L332.143 172.415C331.552 171.349 331.17 170.247 330.833 169.165C330.754 168.914 330.679 168.665 330.603 168.418C330.351 167.588 330.106 166.78 329.786 165.978C328.82 163.565 326.704 161.819 324.157 160.643C321.612 159.469 318.69 158.89 316.218 158.782M316.218 158.782L316.24 158.283L316.218 158.782Z" fill="#3E5C6D" stroke="#3E5C6D"/>
<path d="M301.541 281.208L301.551 281.352C301.537 281.527 301.468 281.636 301.389 281.708C301.279 281.809 301.103 281.877 300.891 281.876C300.46 281.875 300.085 281.613 300.048 281.136C300.048 281.136 300.048 281.135 300.048 281.135L298.989 266.467C298.668 261.914 298.414 257.813 300.199 253.66L300.199 253.66C301.029 251.723 302.027 249.807 303.152 248.031C303.68 247.205 304.281 246.487 305.038 245.924C305.265 245.756 305.482 245.612 305.709 245.462C305.866 245.357 306.029 245.249 306.203 245.128C306.604 244.849 307.013 244.531 307.367 244.12C308.156 243.211 308.811 242.151 309.407 241.087C309.665 240.627 309.907 240.176 310.144 239.735C310.469 239.129 310.785 238.54 311.121 237.965L311.122 237.964C312.351 235.855 313.591 233.736 314.831 231.627C314.964 231.4 315.13 231.308 315.287 231.279C315.458 231.248 315.658 231.286 315.839 231.392C316.02 231.498 316.15 231.653 316.207 231.817C316.258 231.967 316.259 232.156 316.128 232.381C314.898 234.49 313.658 236.61 312.419 238.719L312.419 238.719C312.074 239.307 311.743 239.895 311.414 240.479C310.665 241.812 309.927 243.124 309.063 244.353C308.543 245.074 307.999 245.679 307.297 246.188C307.116 246.319 306.929 246.444 306.735 246.573C306.718 246.584 306.7 246.595 306.683 246.607C306.507 246.724 306.324 246.845 306.145 246.972C305.751 247.25 305.351 247.569 305.007 247.982C303.732 249.5 302.775 251.577 301.97 253.326C301.915 253.446 301.86 253.565 301.806 253.682C300.801 255.837 300.222 258.054 300.17 260.442L300.17 260.443C300.138 262.209 300.28 263.985 300.419 265.723C300.454 266.161 300.489 266.597 300.521 267.029C300.691 269.39 300.861 271.748 301.03 274.107L301.031 274.118L301.032 274.127C301.202 276.487 301.371 278.846 301.541 281.208Z" fill="#3E5C6D" stroke="#3E5C6D"/>
<path d="M282.91 145.463C285.07 143.883 287.24 142.293 289.4 140.713C291.21 139.383 293.07 138.063 294.36 136.173C295.65 134.283 296.05 132.013 296.33 129.803C296.61 127.593 296.75 125.463 295.52 123.603C294.64 122.263 292.47 123.513 293.36 124.863C294.35 126.373 294.03 128.303 293.8 129.993C293.53 131.943 293.08 133.923 291.78 135.453C290.48 136.983 288.87 138.013 287.32 139.153C285.43 140.543 283.53 141.923 281.64 143.313C280.35 144.253 281.6 146.423 282.9 145.473L282.91 145.463Z" fill="#221F20"/>
<path d="M219.85 129.443C223.84 123.003 231.74 120.533 236.51 114.813C239.32 111.443 240.55 107.163 242.71 103.393C244.87 99.6226 247.35 96.4626 250.33 93.5426C253.72 90.2126 257.59 87.4426 261.8 85.2626C263.23 84.5226 261.97 82.3626 260.54 83.1026C253.05 86.9826 246.58 92.7526 241.97 99.8226C240.8 101.613 239.76 103.483 238.86 105.413C237.84 107.593 236.97 109.853 235.63 111.863C233.48 115.073 230.16 117.293 227.04 119.473C223.53 121.933 219.99 124.473 217.7 128.183C216.85 129.553 219.01 130.813 219.86 129.443H219.85Z" fill="#221F20"/>
<path d="M213.937 181.609C208.167 187.349 204.553 195.017 203.992 203.158L203.991 203.158C203.958 203.634 203.587 203.896 203.156 203.896C202.945 203.897 202.767 203.829 202.655 203.727C202.555 203.637 202.471 203.488 202.489 203.227C202.834 198.315 204.165 193.562 206.443 189.204C210.648 181.178 218.052 175.28 226.077 171.178L226.078 171.178C229.512 169.42 234.016 167.331 238.432 166.548C242.844 165.765 247.062 166.3 250.078 169.647C250.394 170.002 250.319 170.442 250.017 170.745C249.868 170.894 249.692 170.974 249.536 170.982C249.396 170.989 249.227 170.943 249.052 170.748L249.051 170.748C245.615 166.938 240.141 167.499 235.936 168.764L235.936 168.764C227.867 171.195 219.932 175.634 213.937 181.609Z" fill="#3E5C6D" stroke="#3E5C6D"/>
<path d="M256.887 249.561L256.887 249.562C255.3 254.635 253.773 259.98 255.474 265.033L255.474 265.033C256.196 267.179 257.434 269.03 259.169 270.468L259.17 270.468C259.651 270.869 260.155 271.248 260.67 271.631C260.74 271.682 260.81 271.734 260.881 271.787C261.326 272.117 261.778 272.452 262.218 272.801C263.238 273.61 264.221 274.514 264.979 275.68C266.373 277.823 267.028 280.312 267.52 282.702M256.887 249.561L267.03 282.803M256.887 249.561C257.028 249.11 257.433 248.958 257.843 249.07M256.887 249.561L257.843 249.07M267.52 282.702L267.03 282.803M267.52 282.702C267.52 282.702 267.52 282.702 267.52 282.702L267.03 282.803M267.52 282.702C267.527 282.74 267.535 282.778 267.543 282.817C268.079 285.414 268.685 288.352 267.01 290.944L267.01 290.944C266.537 291.675 266.027 292.375 265.529 293.058C265.298 293.375 265.07 293.688 264.849 293.999C264.144 294.993 263.497 295.991 262.997 297.116C261.982 299.399 261.442 301.727 261.157 304.181M267.03 282.803L267.037 282.839C267.585 285.498 268.153 288.254 266.59 290.673C266.125 291.392 265.629 292.072 265.136 292.749C264.176 294.065 263.227 295.367 262.54 296.913C261.5 299.253 260.95 301.633 260.66 304.123M261.157 304.181C261.157 304.18 261.157 304.18 261.157 304.18L260.66 304.123M261.157 304.181L260.66 304.123M261.157 304.181C260.429 310.447 261.932 316.73 263.416 322.895M260.66 304.123C259.92 310.493 261.45 316.863 262.93 323.013M262.93 323.013L263.416 322.894C263.416 322.895 263.416 322.895 263.416 322.895M262.93 323.013L263.416 322.896C263.416 322.896 263.416 322.896 263.416 322.895M262.93 323.013L262.531 305.541M263.416 322.895C263.477 323.146 263.605 323.272 263.739 323.337C263.887 323.409 264.084 323.426 264.288 323.37C264.491 323.315 264.663 323.197 264.766 323.048C264.862 322.91 264.916 322.723 264.854 322.471L264.854 322.47L264.815 322.309C263.51 316.883 262.159 311.263 262.531 305.541M262.531 305.541C262.694 303.006 263.213 300.44 264.209 298.069C264.715 296.864 265.412 295.781 266.144 294.745C266.402 294.38 266.662 294.023 266.92 293.67C267.404 293.006 267.881 292.352 268.331 291.66C269.625 289.667 269.787 287.211 269.406 284.708L269.406 284.708C269.058 282.413 268.574 280.092 267.762 277.95C266.953 275.814 265.793 273.891 264.1 272.409L264.099 272.408C263.462 271.846 262.779 271.348 262.074 270.834C261.764 270.608 261.45 270.379 261.134 270.14C260.118 269.374 259.114 268.527 258.333 267.434M262.531 305.541L258.333 267.434M258.333 267.434C256.425 264.769 256.02 261.713 256.291 258.68C256.56 255.656 257.505 252.606 258.343 249.924M258.333 267.434L258.343 249.924M258.343 249.924C258.42 249.674 258.375 249.5 258.295 249.376M258.343 249.924L258.295 249.376M257.843 249.07C258.046 249.125 258.206 249.24 258.295 249.376M257.843 249.07L258.295 249.376" fill="#3E5C6D" stroke="#3E5C6D"/>
<path d="M353.76 307.353C354.704 307.353 355.47 306.663 355.47 305.813C355.47 304.962 354.704 304.273 353.76 304.273C352.815 304.273 352.05 304.962 352.05 305.813C352.05 306.663 352.815 307.353 353.76 307.353Z" fill="#221F20"/>
<path d="M569.21 459.243V473.583" stroke="#3E5C6D" stroke-width="2" stroke-miterlimit="10"/>
<path d="M561.04 404.123V407.103C561.04 407.103 561.18 409.953 561.04 410.883C560.91 411.753 560.15 413.393 559.99 414.263C559.79 415.413 559.9 417.773 559.99 418.933C560.09 420.163 560.4 422.613 560.51 423.843C560.68 425.753 561.1 429.573 561.03 431.493C560.96 433.413 560.2 436.983 559.98 438.823C559.76 440.663 558.93 444.113 559.34 445.823C559.48 446.423 560.21 447.463 560.63 447.923C561.27 448.613 562.74 449.793 563.45 450.423C564.16 451.053 565.55 452.313 566.27 452.923L567.27 454.223L568.57 456.563L569.22 458.203V459.253" stroke="#3E5C6D" stroke-width="2" stroke-miterlimit="10"/>
<path d="M554.76 438.853L550.31 434.783L543.64 432.213L534.06 430.163L521.91 428.273H512.5L502.76 430.163L492.67 434.183" stroke="#3E5C6D" stroke-width="2" stroke-miterlimit="10"/>
<path d="M687.89 395.923L689.31 399.683L691.89 402.503L696.74 407.573L700.36 410.363L705.32 413.983C705.32 413.983 706.96 415.333 707.28 415.943C707.53 416.413 707.41 417.573 707.69 418.023C708.16 418.773 709.84 419.583 710.48 420.183C711.84 421.453 714.22 424.353 715.44 425.763C715.99 426.403 716.87 427.953 717.61 428.343C718.74 428.943 722.68 428.863 722.68 428.863H729.4C729.4 428.863 733.1 428.823 734.25 428.453C736.19 427.833 739.45 425.213 741.28 424.323C742.66 423.643 745.73 422.943 746.96 422.053C747.97 421.313 750.16 418.233 750.16 418.233" stroke="#3E5C6D" stroke-width="2" stroke-miterlimit="10"/>
<path d="M752.56 419.753L756.49 414.903C756.49 414.903 761.18 409.733 762.59 407.873C764 406.013 767.08 402.353 767.76 400.123C767.85 399.803 767.76 399.123 767.76 398.773" stroke="#3E5C6D" stroke-width="2" stroke-miterlimit="10"/>
<path d="M756.86 375.593C756.86 376.613 764.25 375.743 765.27 375.663C766.84 375.543 769.97 375.063 771.51 374.753C771.51 374.753 774.08 374.393 774.94 374.343C775.54 374.303 776.79 374.163 777.36 374.343C777.93 374.523 778.8 375.303 779.27 375.643C779.92 376.113 781.21 377.073 781.78 377.633C782.49 378.323 783.71 379.893 784.33 380.663C785.57 382.153 787.84 385.303 789.21 386.683C790.24 387.733 793.03 389.143 793.75 390.433C794.35 391.513 794.24 394.103 794.43 395.313C794.71 397.023 795.19 400.463 795.68 402.123C796.47 404.783 800 409.603 800 412.383" stroke="#3E5C6D" stroke-width="2" stroke-miterlimit="10"/>
<path d="M795.7 402.123C795.7 403.343 800.46 405.763 801.38 406.553C802.14 407.203 804.04 407.943 805.01 408.143C806.12 408.373 808.44 407.893 809.55 408.143C811.22 408.523 815.73 409.383 815.73 411.093" stroke="#3E5C6D" stroke-width="2" stroke-miterlimit="10"/>
<path d="M802.97 412.383C802.97 413.513 806.24 413.323 807.26 413.813C808.56 414.443 810.99 416.043 812.06 416.993C813.13 417.943 815.74 419.893 815.74 421.313" stroke="#3E5C6D" stroke-width="2" stroke-miterlimit="10"/>
<path d="M795.7 412.383V402.123" stroke="#3E5C6D" stroke-width="2" stroke-miterlimit="10"/>
<path d="M707.29 415.933L708.6 426.173L710.46 430.763C710.46 430.763 711.79 432.823 711.99 433.613C712.35 435.013 711.85 437.963 711.99 439.403C712.19 441.563 713.01 445.853 713.63 447.933C714.1 449.523 715.22 452.683 716.15 454.063C717.07 455.443 719.88 457.633 721.06 458.873C722.24 460.113 724.82 462.773 725.87 464.233C727.04 465.853 728.34 469.893 729.92 471.123C731.14 472.073 735.86 471.323 735.86 472.873" stroke="#3E5C6D" stroke-width="2" stroke-miterlimit="10"/>
<path d="M765.68 383.063V389.523C765.68 390.893 765.83 393.643 765.68 395.003C765.58 395.963 765.21 397.873 764.87 398.773C764.2 400.583 762.35 404.023 761.17 405.553C760.09 406.953 756.01 410.403 756.01 410.403L747.68 416.413L738.9 421.313L731.88 423.683H725.24" stroke="#3E5C6D" stroke-width="2" stroke-miterlimit="10"/>
<path d="M506.82 389.693L508.04 377.273L509.34 364.773L511.02 347.613C511.02 347.613 510.82 335.303 511.02 331.203C511.17 328.193 511.92 322.183 512.18 319.183C512.41 316.573 512.3 311.253 513.01 308.733C513.58 306.713 515.64 302.983 516.81 301.253C517.89 299.653 520.65 296.893 521.92 295.433C523.59 293.513 526.99 289.713 528.57 287.713C530.27 285.563 533.3 280.973 534.98 278.803C536.54 276.783 539.54 272.583 541.52 270.963C543.01 269.743 546.37 267.483 548.29 267.283C549.86 267.113 552.87 268.513 554.34 269.063C556.09 269.713 559.48 271.253 561.11 272.153C562.88 273.123 566.4 275.173 567.88 276.553C568.92 277.523 571.32 279.643 571.32 281.063" stroke="#3E5C6D" stroke-width="2" stroke-miterlimit="10"/>
<path d="M559.46 320.723C559.94 321.203 561.51 320.723 562.19 320.723C563.23 320.723 565.37 321.073 566.35 320.723C567.14 320.443 568.31 319.123 568.96 318.583C570.54 317.283 573.82 314.823 575.25 313.353C576.28 312.293 577.95 309.823 578.93 308.713C580.39 307.083 583.36 303.843 585.11 302.533C586.49 301.503 589.49 299.633 591.16 299.203C592.83 298.773 596.25 299.053 597.93 299.203C599.23 299.323 601.91 299.513 603.04 300.153C603.79 300.583 605.08 301.933 605.3 302.763C605.47 303.443 605.04 304.883 604.7 305.493C604.02 306.763 601.66 308.603 600.66 309.653C599.85 310.503 598.16 312.153 597.45 313.093C596.62 314.203 595.43 316.743 594.6 317.843C593.86 318.823 592.15 320.553 591.27 321.413C590.19 322.453 587.76 324.233 586.76 325.333C585.49 326.713 583.33 329.783 582.36 331.383C581.39 332.983 579.15 338.033 579.15 338.033L575.58 344.573L571.3 351.693L567.86 358.813L562.81 364.513L555.98 370.563L553.01 374.483L550.28 378.163L549.09 384.103L547.88 388.523" stroke="#3E5C6D" stroke-width="2" stroke-miterlimit="10"/>
<path d="M520.38 306.233C520.38 305.313 521.12 303.523 521.69 302.793C522.78 301.373 526.01 299.603 527.51 298.633C529.33 297.453 533.1 295.303 534.99 294.233C538.1 292.483 544.49 289.243 547.58 287.463C550.33 285.873 555.34 281.673 558.39 280.813C560.53 280.213 565.08 280.693 567.3 280.813C569.12 280.913 572.74 281.383 574.55 281.643C577.21 282.033 582.49 283.023 585.12 283.543C587.33 283.983 591.8 284.983 593.79 286.043C595.59 286.993 599.19 289.423 600.08 291.273C600.48 292.103 600.31 293.633 600.04 294.953C599.57 297.243 596.65 297.933 595.22 298.173C593.79 298.413 590.9 298.653 589.47 298.813C588.5 298.923 586.57 299.183 585.6 299.243C583.73 299.363 579.99 299.453 578.12 299.363C576.77 299.293 574.06 299.173 572.78 298.763C572.01 298.523 570.74 297.193 569.93 297.223C568.45 297.283 566.18 299.613 564.94 300.433C563.27 301.523 559.89 303.643 558.29 304.833C557.18 305.663 554.34 307.043 554.01 308.403C553.89 308.923 554.67 309.863 554.84 310.363C555.07 311.043 555.25 312.503 555.55 313.153C555.85 313.803 556.7 314.933 557.22 315.413C557.39 315.573 557.74 315.863 557.92 316.013C558.18 316.243 558.77 316.643 558.96 316.933C559.1 317.133 559.21 317.633 559.27 317.873C559.35 318.213 559.47 319.263 559.47 319.263L559.72 320.983C559.72 320.583 558.29 320.603 557.92 320.463C557.51 320.313 556.68 319.933 556.41 319.583C556.17 319.263 556.18 318.393 556.03 318.023C555.86 317.573 555.48 316.633 555.09 316.343C554.86 316.173 554.28 316.093 554.01 316.083C553.54 316.063 552.15 315.873 552.15 316.343" stroke="#3E5C6D" stroke-width="2" stroke-miterlimit="10"/>
<path d="M570.5 287.463C570.5 288.233 570.54 289.773 570.5 290.553C570.43 292.223 569.9 295.543 569.9 297.203" stroke="#3E5C6D" stroke-width="2" stroke-miterlimit="10"/>
<path d="M554.83 274.753V283.003" stroke="#3E5C6D" stroke-width="2" stroke-miterlimit="10"/>
<path d="M547.82 281.643V286.393" stroke="#3E5C6D" stroke-width="2" stroke-miterlimit="10"/>
<path d="M516.82 301.243C516.82 298.313 517.28 292.463 517.89 289.603C518.54 286.533 520.29 280.403 521.93 277.723C522.6 276.633 524.32 274.543 525.5 274.043C526.4 273.653 528.44 273.963 529.42 274.043C530.5 274.133 532.66 274.453 533.7 274.753C534.6 275.013 537.14 275.303 537.14 276.233" stroke="#3E5C6D" stroke-width="2" stroke-miterlimit="10"/>
<path d="M510.28 325.353C510.28 323.703 507.81 321.043 506.92 319.653C505.78 317.863 502.88 314.613 502.09 312.643C501.53 311.243 501.1 308.203 501.14 306.703C501.17 305.583 501.45 303.233 502.09 302.303C502.73 301.373 504.78 300.473 505.71 299.933C507.02 299.173 509.71 297.783 511.12 297.203C512.64 296.573 517.38 296.803 517.38 295.163" stroke="#3E5C6D" stroke-width="2" stroke-miterlimit="10"/>
<path d="M600.01 310.363C600.01 309.143 596.7 308.023 595.77 307.223C595.14 306.683 593.77 305.583 593.52 304.793C593.39 304.383 593.57 303.473 593.76 303.073C594.02 302.523 594.93 301.653 595.42 301.293C596.28 300.663 599.25 300.513 599.25 299.453" stroke="#3E5C6D" stroke-width="2" stroke-miterlimit="10"/>
<path d="M596.21 298.643C596.21 297.133 600.31 296.713 601.7 296.133C602.59 295.763 604.41 295.133 605.31 294.783C606.39 294.363 608.77 293.833 609.61 293.033C610.31 292.373 610.88 290.443 611.27 289.563C611.9 288.133 613.06 285.213 613.64 283.753C614.12 282.543 614.86 280.003 615.54 278.893C616.54 277.273 619.17 274.433 620.63 273.203C621.97 272.083 625.06 270.423 626.55 269.523C628.9 268.123 633.67 265.453 636.03 264.073C637.52 263.203 640.32 261.063 641.95 260.513C642.97 260.173 645.15 259.913 646.21 260.043C647.59 260.213 650.18 261.313 651.43 261.943C652.68 262.573 655.05 264.383 656.29 265.143C656.96 265.553 658.34 266.283 659.02 266.683C660.73 267.683 664.06 269.843 665.77 270.833C667.81 272.013 672.04 274.123 674.07 275.333C675.23 276.023 677.54 277.433 678.57 278.293L680.53 280.523L681.48 282.753" stroke="#3E5C6D" stroke-width="2" stroke-miterlimit="10"/>
<path d="M657.49 287.913C657.49 285.543 651.38 284.263 649.43 282.933C648.21 282.093 645.94 280.163 644.69 279.373C643.82 278.823 642.02 277.233 641.01 277.473C640.41 277.623 640.05 279.083 639.59 279.493C638.28 280.633 635.09 282.193 633.43 282.693C632.32 283.023 629.97 283.103 628.81 283.163C628.1 283.203 626.47 282.663 625.96 283.163C625.6 283.523 626.05 284.683 625.96 285.183C625.75 286.363 624.3 288.483 624.3 289.683V290.973L617.44 291.333L613.9 291.803L609.61 293.033" stroke="#3E5C6D" stroke-width="2" stroke-miterlimit="10"/>
<path d="M668.04 316.003C668.04 314.683 664.59 314.013 663.42 313.393C661.62 312.443 657.81 310.913 656.07 309.833C654.08 308.603 650.49 305.583 648.65 304.143C647.03 302.883 643.86 300.273 642.21 299.053C640.56 297.833 637.28 295.313 635.46 294.373C634.03 293.633 630.97 292.593 629.41 292.183C627.85 291.773 624.46 291.053 622.77 290.993C621.08 290.933 617.68 291.063 616.13 291.703C615.18 292.103 613.57 293.503 612.93 294.313C612.34 295.063 611.23 296.793 611.27 297.743C611.29 298.323 612.04 299.343 612.46 299.763C613.02 300.333 614.5 301.003 615.19 301.423C616.05 301.943 617.82 302.893 618.62 303.493C619.55 304.193 621.1 305.973 622.05 306.633C623.61 307.713 627.26 308.973 628.8 310.063C629.8 310.783 631.45 312.663 632.36 313.493C634.02 315.033 637.27 318.223 639.11 319.543C640.3 320.383 643.01 321.553 644.2 322.393C645.39 323.233 647.67 325.083 648.62 326.183C649.76 327.483 651.48 330.513 652.37 331.993C653.21 333.393 655.57 337.683 655.57 337.683L659.83 344.433L665.64 348.223L672.52 353.443L680.93 360.553L692.43 369.093L698 374.073L704.05 381.303L710.45 389.603L714.84 395.293C714.84 395.293 716.4 399.153 716.4 400.523" stroke="#3E5C6D" stroke-width="2" stroke-miterlimit="10"/>
<path d="M660.46 312.013C660.46 311.013 662 307.493 662.23 306.523C662.46 305.553 662.37 303.673 662.23 302.733C662.12 301.973 661.69 300.463 661.34 299.773C660.9 298.913 659.56 297.483 659.03 296.693C658.1 295.313 656.04 292.603 655.6 291.003C655.35 290.093 655.48 286.623 655.48 285.673" stroke="#3E5C6D" stroke-width="2" stroke-miterlimit="10"/>
<path d="M693.72 370.443C693.72 371.763 691.89 373.943 691.14 375.023C690.59 375.813 689.16 377.163 688.65 377.983C687.88 379.223 686.58 381.893 686.28 383.313C685.98 384.733 686.21 387.493 686.28 388.883C686.35 390.423 686.16 393.673 686.87 395.043C687.31 395.893 689.77 397.533 689.77 397.533L695.28 398.953C695.28 398.953 700.73 400.913 702.63 401.203C704.53 401.493 710.45 401.203 710.45 401.203C710.45 401.203 717.43 400.953 719.58 400.133C721.73 399.313 725.16 396.513 726.81 395.043C728.46 393.573 731.57 390.053 732.86 388.163C734.15 386.273 737.25 379.623 737.25 379.623L738.91 371.213L737.96 364.573L734.58 359.903" stroke="#3E5C6D" stroke-width="2" stroke-miterlimit="10"/>
<path d="M662.23 262.913C662.23 263.613 662.15 265.163 661.64 265.643C661.13 266.123 659.03 266.003 659.03 266.713" stroke="#3E5C6D" stroke-width="2" stroke-miterlimit="10"/>
<path d="M620.06 291.263C620.06 292.273 622.94 293.303 623.66 294.013C624.19 294.533 625.09 295.773 625.31 296.483C625.56 297.313 625.58 299.143 625.31 299.963C625.06 300.743 624.02 302.103 623.39 302.623C622.76 303.143 619.74 303.653 619.74 304.503" stroke="#3E5C6D" stroke-width="2" stroke-miterlimit="10"/>
<path d="M635.57 312.803C635.57 312.233 636.23 311.163 636.67 310.783C637.11 310.403 638.78 310.633 638.78 310.073" stroke="#3E5C6D" stroke-width="2" stroke-miterlimit="10"/>
<path d="M633.01 308.773C633.01 308.263 634.66 308.093 634.66 307.583" stroke="#3E5C6D" stroke-width="2" stroke-miterlimit="10"/>
<path d="M626.55 269.543C626.55 267.883 626.59 264.543 626.88 262.903C627.06 261.893 627.5 259.813 628.1 258.973C628.78 258.023 630.89 256.843 631.9 256.263C632.99 255.633 635.47 254.933 636.51 254.223C637.49 253.573 639.9 250.973 639.9 250.973L642.61 248.663L646.95 247.713L654.49 249.943" stroke="#3E5C6D" stroke-width="2" stroke-miterlimit="10"/>
<path d="M590.89 316.293C590.89 315.583 592.8 315.213 593.52 315.183C594.12 315.163 595.79 315.333 595.79 315.923" stroke="#3E5C6D" stroke-width="2" stroke-miterlimit="10"/>
<path d="M551.07 305.443C551.07 305.853 551.13 306.743 551.38 307.073C551.82 307.653 553.99 307.633 553.99 308.363" stroke="#3E5C6D" stroke-width="2" stroke-miterlimit="10"/>
<path d="M514.67 305.533C514.67 304.943 513.19 304.573 512.68 304.273C512.44 304.133 511.89 303.963 511.71 303.763C511.56 303.603 511.32 303.183 511.39 302.973C511.43 302.843 511.72 302.703 511.85 302.693C512.21 302.683 512.83 303.173 513.15 303.343C513.67 303.613 515.18 303.873 515.18 304.453" stroke="#3E5C6D" stroke-width="2" stroke-miterlimit="10"/>
<path d="M561.04 400.763L557.04 394.573C557.04 394.573 553.94 390.633 552.53 389.803C550.38 388.533 542.85 387.353 542.85 387.353C542.85 387.353 536.58 386.053 534.47 385.933C531.44 385.763 522.35 386.583 522.35 386.583C522.35 386.583 515.54 386.993 513.32 387.483C511.22 387.953 505.19 390.323 505.19 390.323C505.19 390.323 498.71 393.713 496.81 395.223C496.18 395.713 494.9 396.793 494.62 397.543C494.44 398.043 494.62 399.673 494.62 399.673V404.903L495.78 411.353V414.323L494.62 420.133C494.62 420.133 493.83 422.333 493.72 423.103C493.54 424.343 493.72 428.133 493.72 428.133L492.69 434.193V438.063L493.37 438.513C493.37 438.513 495.02 438.663 495.55 438.513C496.5 438.243 498.07 436.923 498.93 436.413C500.02 435.783 502.16 434.403 503.35 433.993C504.72 433.523 507.63 433.253 509.06 433.103C510.65 432.943 515.42 432.783 515.42 432.783L523.23 432.943L531.28 433.673L540.38 435.773C540.38 435.773 548.09 438.643 550.68 439.553C551.76 439.933 554.03 440.453 555.02 441.003C555.93 441.503 559.26 444.193 559.26 444.193" stroke="#3E5C6D" stroke-width="2" stroke-miterlimit="10"/>
<path d="M558.2 403.353C558.2 403.353 556.4 400.073 555.62 399.093C554.84 398.113 552.01 395.603 552.01 395.603C552.01 395.603 547.35 392.213 545.56 391.603C542.83 390.673 534.08 390.443 534.08 390.443C534.08 390.443 525.17 390.273 522.21 390.443C519.52 390.603 514.09 390.963 511.5 391.733C509.15 392.423 502.6 395.863 502.6 395.863L497.83 399.673" stroke="#3E5C6D" stroke-width="2" stroke-miterlimit="10"/>
<path d="M557.19 373.203L559.34 379.123L562.27 384.203L564.58 390.443L568.62 401.843C568.62 401.843 569.22 404.373 569.81 404.953C570.71 405.833 573.31 406.433 574.55 406.653C577.09 407.093 582.29 406.943 584.85 406.653C588.48 406.243 595.53 404.123 599.1 403.353C602.67 402.583 609.92 401.283 613.49 400.453C616.8 399.673 623.41 398.043 626.61 396.913C630.68 395.473 642.42 389.943 642.42 389.943L652.02 385.943L666.13 381.403L676.15 378.863L682.5 377.873C682.5 377.873 682.7 380.643 682.5 381.543C682.25 382.683 681.08 384.753 680.53 385.783C679.42 387.823 676.98 391.813 675.59 393.683C673.03 397.143 667.21 403.503 664.3 406.663C661.87 409.303 654.28 416.963 654.28 416.963L647.79 427.963L638.19 441.933L627.19 462.823" stroke="#3E5C6D" stroke-width="2" stroke-miterlimit="10"/>
<path d="M568.62 401.853L579.48 402.413H586.26L596.84 400.303L605.31 398.043L617.73 393.103L631.42 388.073L640.45 384.643L649.62 381.673L663.71 377.583L673.18 375.603" stroke="#3E5C6D" stroke-width="2" stroke-miterlimit="10"/>
<path d="M682.5 377.863C682.5 376.623 680.8 373.203 680.8 373.203L679.25 369.253L676.85 361.863L676.33 356.663" stroke="#3E5C6D" stroke-width="2" stroke-miterlimit="10"/>
<path d="M768.27 395.923C768.27 394.653 768.33 392.093 768.27 390.823C768.2 389.423 768.34 386.513 767.75 385.243C767.44 384.563 766.24 383.583 765.68 383.073C764.02 381.543 758.65 377.393 758.65 377.393L753.48 372.223L748.63 369.023L744.6 364.683L741.6 361.883L740.46 363.133V367.883L740.98 373.463L739.74 381.733L736.54 389.283L731.89 394.453C731.89 394.453 727.79 399.563 726 400.753C724.46 401.783 720.83 402.873 719.04 403.333C717.08 403.843 713.04 404.523 711.01 404.573C709.11 404.613 703.46 403.743 703.46 403.743" stroke="#3E5C6D" stroke-width="2" stroke-miterlimit="10"/>
<path d="M741.6 361.863L739.27 359.903L737.56 358.823H735.04H733.54" stroke="#3E5C6D" stroke-width="2" stroke-miterlimit="10"/>
<path d="M586.78 293.043C586.78 293.633 586.87 294.813 586.78 295.393C586.63 296.383 585.59 298.213 585.59 299.223" stroke="#3E5C6D" stroke-width="2" stroke-miterlimit="10"/>
<path d="M734.57 359.913L731.88 357.123L727.69 353.033L722.72 347.913L717.95 341.863L714.38 334.103C714.38 334.103 711.31 324.363 710.08 321.183C708.78 317.833 705.6 311.363 704.21 308.053C702.97 305.103 700.87 299.043 699.46 296.173C697.65 292.493 693.45 285.403 691.08 282.043C689.39 279.653 685.43 275.313 683.58 273.043C680.75 269.583 674.81 262.863 672.38 259.103C671.38 257.553 670.18 253.953 669 252.533C668.39 251.793 665.98 250.163 665.98 250.163L662.23 248.443H658.91L654.78 249.333C654.78 249.333 653.15 253.073 652.57 254.313C651.76 256.043 649.22 259.263 649.22 261.173" stroke="#3E5C6D" stroke-width="2" stroke-miterlimit="10"/>
<path d="M625.97 283.173L625.02 281.843L624.45 280.403V278.963" stroke="#3E5C6D" stroke-width="2" stroke-miterlimit="10"/>
<path d="M641.01 277.483C641.01 277.483 640.55 275.793 640.53 275.223C640.52 274.773 640.7 273.873 640.77 273.423C640.82 273.133 641.01 272.563 641.01 272.273" stroke="#3E5C6D" stroke-width="2" stroke-miterlimit="10"/>
<path d="M302.73 148.767L302.729 148.767C300.875 149.725 299.036 150.016 297.495 150.261L297.403 150.275C296.613 150.401 295.92 150.514 295.316 150.693C294.716 150.871 294.239 151.105 293.871 151.448L293.69 151.617L293.445 151.575C287.604 150.573 283.086 152.1 279.646 153.264C278.674 153.592 277.789 153.892 276.983 154.097C271.28 155.558 266.788 158.141 260.88 161.546L260.879 161.546C257.2 163.664 255.593 164.853 254.508 165.658L254.497 165.666C253.39 166.487 252.772 166.945 251.112 167.552L251.111 167.552C241.613 171.021 231.974 167.071 227.711 165.324L227.69 165.315L227.689 165.315C226.854 164.97 225.283 164.122 222.812 162.715C220.33 161.301 216.908 159.305 212.35 156.646L212.348 156.645L212.348 156.645C211.36 156.068 210.486 155.556 209.708 155.1C204.75 152.192 203.664 151.556 201.35 150.936L201.349 150.935C200.664 150.749 197.629 149.969 194.182 149.921C190.711 149.873 186.973 150.569 184.718 153.179C183.644 154.425 183.478 155.437 183.288 156.598C183.284 156.623 183.28 156.648 183.276 156.674C183.073 157.912 182.824 159.275 181.416 160.981L181.415 160.981C179.783 162.958 178.102 163.57 176.326 164.21L176.292 164.223C174.549 164.852 172.671 165.53 170.426 167.563L170.424 167.564C169.822 168.111 168.682 169.147 167.769 170.398C166.84 171.669 166.237 173.041 166.508 174.286L166.509 174.288C166.719 175.267 167.448 176.059 168.441 176.711C169.428 177.36 170.607 177.823 171.595 178.171C195.772 186.595 215.21 187.321 228.591 185.948C235.283 185.261 240.462 184.05 243.963 183.012C245.713 182.493 247.044 182.018 247.935 181.674C248.381 181.501 248.716 181.362 248.939 181.266C249.05 181.218 249.133 181.181 249.188 181.157C249.215 181.144 249.235 181.135 249.249 181.129L249.263 181.122L249.266 181.121L249.266 181.121L302.73 148.767ZM302.73 148.767C304.454 147.875 305.836 147.741 307.04 147.966C308.267 148.196 309.354 148.806 310.491 149.497C310.614 149.572 310.737 149.648 310.861 149.724C312.998 151.035 315.337 152.469 318.713 151.138C323.292 149.335 327.088 149.171 329.731 149.489C330.91 149.631 331.858 149.868 332.544 150.099C332.174 150.135 331.738 150.176 331.237 150.222L330.918 150.251C330.237 150.314 329.452 150.387 328.571 150.476C325.044 150.83 319.981 151.43 313.866 152.588C301.636 154.903 285.192 159.452 268.398 168.745L268.398 168.745M302.73 148.767L268.398 168.745M268.398 168.745C262.175 172.192 259.805 174.146 257.784 175.812M268.398 168.745L257.784 175.812M257.784 175.812L257.756 175.836M257.784 175.812L257.756 175.836M257.756 175.836C255.771 177.472 254.126 178.822 249.266 181.121L257.756 175.836Z" fill="#B4AEAE" stroke="#3E5C6D"/>
<path d="M39.5898 129.853C36.0298 129.393 32.5698 127.733 32.5698 127.733C31.7898 127.363 29.0498 125.993 24.8898 122.063C22.5498 119.853 19.4298 116.493 16.3398 111.783C23.3198 108.603 27.8198 104.723 30.6998 101.653C34.4998 97.6027 34.9299 95.5427 40.1599 88.8227C41.8599 86.6327 46.1698 81.1427 51.6698 76.0927C56.4898 71.6627 61.3598 68.7627 71.0998 62.9527C77.6698 59.0327 84.0298 54.7627 90.5798 50.8227C95.1398 48.0827 99.2098 45.7027 98.8798 43.3327C98.4798 40.5027 92.2698 40.7927 91.8598 38.4127C91.0398 33.6727 114.83 26.3427 126.92 23.4227C128.54 23.0327 133.69 21.8427 140.26 22.6027C142.78 22.8927 152 23.9727 152.67 27.6127C153.24 30.6927 147 31.7927 141.19 40.4027C138.09 45.0027 136.29 49.9827 135.63 51.8527C133.65 57.4327 134.19 58.6827 132.21 62.6327C130.7 65.6427 128.11 70.7927 123.72 71.7027C120.22 72.4327 118.93 69.7727 114.19 68.9527C108.87 68.0427 104.44 70.3427 99.8898 72.7927C90.9498 77.6027 85.4498 84.1927 83.9998 85.9727C63.3998 111.153 49.0098 131.063 39.6098 129.843H39.5898V129.853Z" fill="#455C6C"/>
<path d="M20.4799 139.793C20.3899 137.643 30.3099 138.103 41.6799 130.813C43.9999 129.333 48.9699 125.863 59.1999 112.243C74.8899 91.3627 72.3499 87.3327 81.8999 79.0627C91.9099 70.3827 102.83 67.7727 109.87 66.0827C123.8 62.7527 135.54 64.0827 135.68 65.3427C135.81 66.5027 125.94 66.7127 123.78 72.5927C122.74 75.4327 124.39 77.1527 124.9 81.5127C125.74 88.6627 122.14 91.3427 119.83 99.9627C118.86 103.583 115.13 117.443 121.38 123.793C126.02 128.513 134.37 127.243 135.72 127.033C142.66 125.973 143.71 122.063 149.09 122.263C151.63 122.353 152.82 123.273 162.06 129.773C173.7 137.953 176.23 139.593 179.13 138.733C182.5 137.733 182.4 134.533 186.62 133.063C187.86 132.633 191.07 131.793 196.94 134.273C204.7 137.553 208.4 142.973 212.62 147.303C219.82 154.703 232.21 162.783 243.58 162.383C253.53 162.023 254.46 155.463 266.95 150.503C288.82 141.823 311.51 151.783 311.41 152.633C311.34 153.263 298.82 148.883 283.22 154.023C272.93 157.413 270.73 161.833 261.7 165.363C258.35 166.673 243.3 171.663 228.12 165.923C225.03 164.753 217.76 161.113 203.23 153.843C199.68 152.063 195.75 150.073 192.11 151.643C187.36 153.683 187.97 159.653 183.74 161.983C178.74 164.723 174.11 158.503 165.1 156.033C150.84 152.123 146.82 163.433 126.17 161.903C120.49 161.483 112.68 160.813 105.78 155.483C103.36 153.613 102.1 151.983 96.7799 147.243C92.4299 143.373 88.7098 140.403 86.1898 138.453C82.6998 140.073 77.6599 142.063 71.3599 143.343C65.2999 144.573 60.1799 144.723 53.3499 144.493C49.2999 144.353 20.6499 143.393 20.4899 139.743V139.793H20.4799Z" fill="#455C6C"/>
<path d="M147.7 27.4627C150.96 26.9227 152.55 29.5327 157.33 28.3227C160.22 27.5927 161.38 26.1827 165.77 22.8427C172.43 17.7827 175.76 15.2627 178.27 15.3127C181.94 15.4027 182.53 18.3927 191.33 25.7127C196.63 30.1327 199.28 32.3327 203.09 33.9927C210.55 37.2327 213.47 34.9727 219.45 38.7927C223.27 41.2327 222.46 42.4027 227.11 46.3627C235.79 53.7727 242.85 53.3227 242.89 56.2827C242.94 59.6327 233.95 63.3827 226.97 64.5127C226.85 64.5327 226.77 64.5427 226.72 64.5527C226 64.6627 216.01 66.1027 209.65 62.2427C203.37 58.4327 206.03 52.7427 199.9 48.9627C194.21 45.4527 187.34 47.5327 185.87 47.9727C178.66 50.1427 177.8 54.8927 170.68 60.3027C158.92 69.2327 147.53 66.7127 147.24 70.1327C146.92 73.7927 159.8 78.6027 170.65 80.4027C176.75 81.4227 190.53 83.5427 205.97 77.5727C216.96 73.3227 224.86 67.1127 226.85 69.1727C228.43 70.8027 224.28 76.1127 221.96 80.7627C219.53 85.6227 216.8 91.0627 211.86 94.7727C205.63 99.4527 203.27 95.8327 191.87 99.4127C181.23 102.753 179.15 107.213 163.19 112.963C160.82 113.823 158.86 114.443 157.62 114.823C158.63 115.403 160.09 116.293 161.81 117.433C172.51 124.563 181.42 134.193 180.03 136.423C179.31 137.583 176.47 135.643 172.71 137.523C170.12 138.823 170.35 140.303 168.7 141.183C163.34 144.013 155.33 131.283 139.71 127.523C137.74 127.043 136.11 126.833 135.18 126.723C133.19 128.233 127.44 132.153 119.37 132.043C117.69 132.023 109.75 131.903 105.65 127.473C99.66 121.003 101.62 105.083 113.42 90.3427C112.75 90.3027 110.63 90.1027 108.76 88.3827C108.65 88.2827 106.07 85.8527 106.25 83.0627C106.47 79.5427 110.91 78.0127 116.39 74.0927C116.39 74.0927 119.69 71.7327 127.12 63.8927C141.27 48.9527 139 28.8827 147.68 27.4427L147.7 27.4627Z" fill="#6A6461"/>
<path d="M185.91 21.8427C183.39 20.0427 182.74 17.8927 191.49 14.0227C198.39 10.9727 198.2 9.01265 201.66 8.44265C207.71 7.44265 214.81 12.4727 219.83 11.7127C232.1 9.83267 231.28 9.95267 238.21 11.4027C244.7 12.7627 249.88 13.9327 253.77 15.7727C260.44 18.9227 263.78 20.5027 266.01 24.2827C269.3 29.8627 266.49 33.8327 270.74 41.5827C271.72 43.3827 272.86 44.7827 275.12 47.5727C280.03 53.6327 283.26 56.0927 286.86 59.7427C293.03 66.0127 297.44 70.4927 299.27 77.4827C299.51 78.3827 302.17 89.1627 296.67 97.2327C293.86 101.353 292.34 99.7527 287.19 105.653C282.8 110.673 282.16 113.823 277.46 116.783C275.9 117.763 272.27 120.043 270.24 118.673C268.75 117.663 268.77 115.143 269.4 108.093C270.05 100.813 270.65 96.5326 271.08 92.4426C272.01 83.4127 272.45 78.8427 270.74 75.7427C268.17 71.0827 263.09 68.9527 261.01 68.0927C255.81 65.9227 254.53 67.6427 250.92 65.4527C245.9 62.4027 247.27 58.4027 242.56 55.5727C237.87 52.7627 235.49 56.1027 230.37 53.0527C226.68 50.8527 227.08 48.6027 222.43 45.8327C221.09 45.0327 219.74 44.4327 215.05 43.0527C208.14 41.0127 205.18 40.5727 202.88 39.8927C192.59 36.8527 189.36 24.3227 185.9 21.8527H185.91V21.8427Z" fill="#C2ACB1"/>
<path d="M157.91 115.233C159.74 105.653 181.31 97.8927 189.32 97.1127C189.85 100.523 192.79 110.103 194.84 115.393C197.04 121.083 201.54 130.273 210.04 138.293C213.6 141.653 225.41 149.733 239.13 154.803C241.06 155.513 248.24 160.083 248.38 161.593C248.5 162.903 246.4 167.803 238.42 165.623C230.44 163.443 232.74 162.713 230.42 163.443C229.21 163.823 221.58 158.403 215.21 155.473C211.81 153.913 206.98 153.433 201.5 150.433C195.24 147.003 190.13 149.233 185.77 146.233C174.95 138.793 155.92 125.753 157.92 115.233H157.91Z" fill="#C2ACB1"/>
<path d="M189.42 99.9427C190.67 98.0627 190.95 98.7727 201.66 93.6827C209.98 89.7327 215.03 88.6127 216.4 86.7427C218.87 83.3527 221.41 81.9227 221.98 80.7927C222.89 78.9727 220.97 82.7727 223.02 89.3727C224.51 94.1527 224.53 93.2827 225.44 94.9727C227.25 98.3327 225.01 98.0027 224.78 99.8627C224.65 100.893 224.11 101.653 220.47 104.733C215.33 109.063 214.14 109.453 212.83 111.693C212.21 112.753 210.66 115.423 211.4 117.913C212.38 121.213 216.86 122.373 220.13 123.313C227.7 125.483 234.88 128.913 242.34 131.423C257.42 136.503 260.83 138.753 265.1 136.473C265.98 136.003 265.6 136.033 272.58 130.553C277.16 126.963 279.45 125.163 280.11 124.883C286.36 122.233 289.28 127.173 297.2 125.463C301.6 124.513 304.7 122.123 307.9 119.643C312.72 115.923 312.37 114.423 317.47 110.013C322.2 105.933 325.64 102.973 330.49 102.753C335.9 102.513 340.08 105.803 342.61 107.793C347.06 111.293 349.2 115.433 350.19 117.383C352.15 121.263 352.93 124.823 353.28 127.183C354.44 132.903 353.79 136.463 352.03 137.623C349.67 139.173 349.1 142.553 343.45 146.673C338.39 150.363 339.26 148.453 335.14 150.183C328.92 152.803 325.46 148.593 318.45 151.003C312.08 153.193 313.36 150.673 310.31 149.563C307.31 148.473 304.53 150.543 301.34 149.583C298.32 148.673 296.57 147.163 293.01 147.963C287.9 149.113 284.9 148.393 279.48 148.263C266.71 147.963 260.09 163.693 241.99 161.343C238.24 160.853 235.82 153.983 235.04 153.773C235.04 153.773 226.29 149.943 219.53 146.093C206.3 138.573 183.12 109.383 189.42 99.9227V99.9427Z" fill="#455C6C"/>
<path d="M219.9 82.9226C219.96 79.5726 223.88 79.7826 225.34 73.2926C226.16 69.6626 227.6 68.1726 228.69 66.0526C231.53 60.5126 244.29 54.6726 244.73 55.2226C250.87 62.9126 249.97 63.0526 251.87 64.2026C254.76 65.9626 266.39 67.2426 270.48 72.0526C271.72 73.5026 273.5 80.5626 273.09 87.7026C272.89 91.2026 271.09 91.8626 270 102.003C269.51 106.623 268.43 118.573 270.24 118.673C273.14 118.823 280.01 115.043 281.42 113.383C284.11 110.213 282.68 110.073 289.64 103.133C292.17 99.7426 295.43 99.3826 296.67 97.2326C298.6 93.8726 297.67 95.9626 298.94 92.6026C300.12 89.4626 299.4 86.8926 300.12 82.8326C300.25 82.0926 308.61 86.4926 309.45 85.8226C310.86 84.7026 313.53 85.4126 315.16 86.5926C318.33 88.8926 317.62 93.0326 319 96.6326C320.4 100.303 319.68 100.283 330.5 102.753C319.7 108.073 320.25 116.593 318.63 119.773C318.36 120.313 317.06 122.953 314.42 125.473C312.97 126.853 311.35 128.403 308.98 128.823C307.05 129.163 306.49 128.423 302.02 127.383C299.67 126.843 297.47 126.333 295.05 126.323C291.11 126.313 288.1 127.623 287.09 128.083C280.64 130.983 281.04 135.193 275.66 137.193C272.99 138.183 270.71 137.893 266.14 137.323C263.01 136.933 259.42 139.303 252.68 136.803C238.65 131.593 240.51 130.993 235.13 128.753C231.12 127.073 227.91 127.083 223.99 124.603C222.38 123.583 213.29 123.183 211.37 117.893C210.96 116.753 207.14 115.783 217.91 105.573C223.59 100.183 223.63 102.073 223.69 100.383C223.91 94.2526 219.75 89.5726 219.87 82.9126H219.9V82.9226Z" fill="#455C6C"/>
<path d="M154.71 32.6627C153.81 32.6227 154.71 32.5927 147.99 31.1527C134.44 28.2527 131.96 28.6327 129.08 25.8627C126.49 23.3627 124.36 19.0427 125.25 14.9727C126.34 9.97269 131.52 7.48269 132.9 6.88269C143.27 2.37269 151.89 12.3927 160.72 7.2627C162.06 6.4827 163.71 5.18269 167.29 3.32269C171.19 1.30269 173.14 0.292715 175.27 0.0627145C180 -0.447285 180.83 2.33271 186.47 1.93271C188.74 1.77271 188.91 1.2927 192.33 1.0127C194.95 0.802696 197.02 0.63271 199.25 1.18271C203.09 2.13271 202.64 4.04269 206.67 5.66269C209.79 6.91269 212.74 6.85271 217.63 6.74271C219.34 6.70271 220.59 6.59271 222.05 6.46271C228.22 5.90271 232.84 4.9327 233.33 4.8327C241.15 3.2727 273.99 10.1927 291.82 33.9927C301.04 46.3127 305.14 56.2527 305.14 56.2527C306 58.3327 307.23 61.5727 309.62 65.8927C312.86 71.7227 314.85 75.3027 318.5 78.3727C324.37 83.3027 327.74 81.2027 335.49 87.2027C338.25 89.3427 340.37 91.0227 341.84 94.1427C344.1 98.9227 344.49 106.253 340.65 109.793C339.26 111.083 337.04 112.113 334.79 112.443C334.48 112.483 333.44 112.623 331.55 112.443C329.57 112.253 325.98 111.903 322.6 109.683C319.69 107.773 318.19 105.313 317.04 103.413C314.15 98.6627 314.97 96.4727 312.2 94.1327C312 93.9627 308.73 91.2627 306.15 92.3727C304.59 93.0527 304.37 94.6627 303.12 97.1827C302.3 98.8227 299.31 104.843 294.94 105.813C291.04 106.683 286 103.543 285.83 100.653C285.67 97.9227 289.97 97.4827 292.85 91.8727C294.77 88.1327 294.79 84.5627 294.79 83.3427C294.79 81.9327 294.61 78.0227 292.37 74.0627C291.78 73.0127 290.27 71.3427 287.29 68.0427C284.23 64.6627 282.71 62.9727 281.97 62.2727C277.35 57.9027 275.77 58.1227 273.5 54.7527C271.92 52.3927 272.63 52.1827 270.84 49.2327C268.99 46.1727 267.33 44.9227 263.82 41.4527C259.62 37.3027 257.52 35.2327 256.56 33.6727C253.68 28.9927 255.23 27.2927 251.72 20.3827C249.32 15.6327 247.56 14.3927 246.64 13.8627C244.76 12.7627 244.1 13.2727 239.62 12.3627C233.49 11.1027 233.08 11.4327 229.57 11.4527C226.05 11.4727 226.36 11.1627 221.95 11.6127C218.16 12.0027 215.15 11.3427 211.79 10.6127C206.2 9.3927 206.78 8.57269 204.05 8.35269C201.45 8.14269 198.14 15.3427 189.22 18.5727C184.22 20.3827 186.3 18.5727 180.09 19.6427C162 22.7527 160.95 32.9327 154.69 32.6827L154.71 32.6627Z" fill="#C5C2C3"/>
<path d="M144.92 69.6126C145.91 67.3726 149.62 67.7426 153.35 67.2226C158.92 66.4426 162.92 63.8926 165.31 62.3726C168.27 60.4826 170.99 57.7226 176.43 52.1926C178.93 49.6526 180.14 48.2626 182.57 46.9526C183.36 46.5226 186.4 44.9626 190.66 44.8326C193.44 44.7426 196.88 44.6326 199.92 47.0226C202.13 48.7526 204.17 51.8326 205.08 54.6326C205.27 55.2226 205.58 56.3126 206.33 57.6626C206.33 57.6626 207.36 59.4926 208.92 60.9126C212.99 64.6326 230.23 59.7526 231.99 63.6126C232.8 65.3826 230.48 69.3326 228.35 69.6126C227.67 69.7026 227.37 69.3626 226.53 69.2226C224.05 68.8026 221.83 70.9126 221.08 71.5726C219.55 72.9226 214.72 75.1127 205.05 79.5027C197.97 82.7127 191.9 83.0826 186.02 83.4426C178.81 83.8826 173.04 82.7226 161.49 80.4226C153.56 78.8426 159.69 79.4626 148.18 75.0826C147.41 74.7926 145.53 74.0826 144.9 72.3026C144.88 72.2426 144.4 70.8226 144.93 69.6326V69.6126H144.92Z" fill="#455C6C"/>
</svg>
