<svg width="322" height="185" viewBox="0 0 322 185" fill="none" xmlns="http://www.w3.org/2000/svg">
<g clip-path="url(#clip0_348_109)">
<path d="M291.154 174.259C289.943 171.745 288.916 169.162 288.025 166.534C308.096 151.862 320.929 129.511 320.929 104.464C320.929 60.2878 281.061 24.4762 231.877 24.4762C208.152 24.4762 186.597 32.8177 170.636 46.4156C156.387 19.3113 125.699 0.571289 90.1233 0.571289C40.9389 0.571289 1.0708 36.3829 1.0708 80.5589C1.0708 103.161 11.5059 123.547 28.2889 138.081C27.2157 142.058 25.8 145.943 23.9961 149.645C23.2198 151.268 22.3521 152.891 21.0505 154.148C19.3151 155.839 16.9632 156.73 14.6798 157.576C16.3924 159.678 19.4521 159.952 22.1466 159.792C30.8235 159.267 39.272 155.679 45.7797 149.897C58.8408 156.661 73.9797 160.524 90.1233 160.524C113.848 160.524 135.403 152.182 151.364 138.584C165.635 165.666 196.324 184.406 231.899 184.406C246.102 184.406 259.506 181.412 271.402 176.11C277.59 180.909 285.194 183.903 293.026 184.36C295.72 184.52 298.78 184.246 300.493 182.143C298.209 181.298 295.857 180.406 294.122 178.715C292.843 177.458 291.953 175.836 291.176 174.213L291.154 174.259Z" stroke="white" stroke-width="2" stroke-miterlimit="10"/>
<path d="M64.5035 76.1935C67.3788 76.1935 69.7097 73.9015 69.7097 71.0743C69.7097 68.247 67.3788 65.9551 64.5035 65.9551C61.6282 65.9551 59.2974 68.247 59.2974 71.0743C59.2974 73.9015 61.6282 76.1935 64.5035 76.1935Z" stroke="white" stroke-miterlimit="10"/>
<path d="M90.1231 76.1935C92.9984 76.1935 95.3293 73.9015 95.3293 71.0743C95.3293 68.247 92.9984 65.9551 90.1231 65.9551C87.2479 65.9551 84.917 68.247 84.917 71.0743C84.917 73.9015 87.2479 76.1935 90.1231 76.1935Z" stroke="white" stroke-miterlimit="10"/>
<path d="M115.743 76.1935C118.619 76.1935 120.949 73.9015 120.949 71.0743C120.949 68.247 118.619 65.9551 115.743 65.9551C112.868 65.9551 110.537 68.247 110.537 71.0743C110.537 73.9015 112.868 76.1935 115.743 76.1935Z" stroke="white" stroke-miterlimit="10"/>
<path d="M206.28 109.561C209.155 109.561 211.486 107.269 211.486 104.441C211.486 101.614 209.155 99.3223 206.28 99.3223C203.405 99.3223 201.074 101.614 201.074 104.441C201.074 107.269 203.405 109.561 206.28 109.561Z" stroke="white" stroke-miterlimit="10"/>
<path d="M231.877 109.561C234.752 109.561 237.083 107.269 237.083 104.441C237.083 101.614 234.752 99.3223 231.877 99.3223C229.001 99.3223 226.67 101.614 226.67 104.441C226.67 107.269 229.001 109.561 231.877 109.561Z" stroke="white" stroke-miterlimit="10"/>
<path d="M257.496 109.561C260.371 109.561 262.702 107.269 262.702 104.441C262.702 101.614 260.371 99.3223 257.496 99.3223C254.621 99.3223 252.29 101.614 252.29 104.441C252.29 107.269 254.621 109.561 257.496 109.561Z" stroke="white" stroke-miterlimit="10"/>
<path d="M51.0087 27.1962C51.8307 25.1622 53.9086 24.1567 55.5755 22.9454C61.6265 18.8089 68.568 16.2036 75.8292 14.9467C95.3523 11.6329 116.108 15.3123 133.005 25.7336C136.522 27.9504 139.856 30.4186 142.915 33.1382L142.778 33.321C123.027 18.7632 97.2018 12.9356 73.0891 17.3463C66.0106 18.4204 59.3659 21.3914 53.3149 25.1622C52.5157 25.7336 51.5795 26.3506 51.2142 27.2191L50.9858 27.1734L51.0087 27.1962Z" fill="white"/>
<path d="M181.802 157.621C189.816 169.322 205.184 171.836 218.108 174.601V174.716C204.91 173.276 188.446 170.419 181.802 157.621Z" fill="white"/>
</g>
<defs>
<clipPath id="clip0_348_109">
<rect width="321" height="185" fill="white" transform="translate(0.5)"/>
</clipPath>
</defs>
</svg>
