<svg width="423" height="203" viewBox="0 0 423 203" fill="none" xmlns="http://www.w3.org/2000/svg">
<path d="M37.2249 201.991C87.7195 201.664 138.173 197.13 188.044 188.436C205.499 185.398 223.411 187.174 241.531 187.034C293.106 186.66 344.141 196.756 394.885 186.38C405.317 184.23 412.174 173.153 417.41 162.823C422.647 152.494 424.06 138.799 418.158 128.89C410.387 115.756 390.521 115.336 382.293 128.096C388.568 116.878 386.158 101.875 380.506 90.2366C372.942 74.719 359.144 62.2863 343.435 60.9776C327.725 59.6689 311.101 71.681 308.317 89.0681C305.74 53.8732 288.784 17.5566 259.36 5.26408C243.692 -1.27946 225.697 -0.251178 210.694 8.06846C195.691 16.3881 184.013 31.8121 179.109 49.7601C174.953 64.857 178.319 80.3745 178.942 96.1725C176.158 96.7801 178.942 96.1725 176.158 96.7801C175.909 80.8887 159.202 66.8668 146.111 60.7907C133.019 54.7145 116.021 60.37 109.414 74.4386C106.463 80.7017 105.632 87.8996 105.008 94.9573C103.969 107.11 103.886 120.664 110.827 130.012C103.595 118.514 89.756 115.523 77.2881 114.541C69.1425 113.887 60.7475 113.747 53.0174 116.644C45.2874 119.542 38.1392 125.992 35.895 134.826C33.6508 143.66 37.6405 154.55 45.4536 157.261C37.2249 154.316 28.248 153.008 19.8946 155.625C11.5411 158.243 3.97734 165.16 1.65001 174.555C-0.677314 183.949 3.39551 195.307 11.458 198.719C20.8505 202.692 27.0428 201.944 37.1417 201.944L37.2249 201.991Z" stroke="#3E5C6D" stroke-miterlimit="10"/>
</svg>
