<svg width="408" height="390" viewBox="0 0 408 390" fill="none" xmlns="http://www.w3.org/2000/svg">
<path d="M34.1205 110.694V110.563C54.7769 94.2791 75.4334 77.9763 96.0712 61.6921V113.068C117.214 96.6722 138.375 80.2759 159.517 63.8983V113.629C180.847 96.6909 202.176 79.7524 223.524 62.8139L223.244 111.161L369.877 111.554C370.213 195.742 370.531 279.948 370.868 364.136C370.961 366.51 370.793 369.838 369.522 373.54C366.549 382.14 359.745 386.515 357.427 387.861C334.191 387.823 310.955 387.786 287.718 387.73V376.381C285.999 376.381 284.297 376.381 282.578 376.363C282.54 380.308 282.503 384.271 282.465 388.216L267.567 388.104C267.529 384.028 267.492 379.971 267.454 375.895L263.342 376.008C263.304 380.233 263.267 384.458 263.23 388.683L248.2 388.571C248.275 384.346 248.35 380.121 248.443 375.895C246.873 375.821 245.321 375.746 243.751 375.652V388.571H228.852V375.652L224.384 375.54C224.347 379.765 224.31 383.991 224.272 388.216H210.065L210.177 375.185L204.775 375.297V388.44H189.745V375.409C188.306 375.447 186.847 375.484 185.408 375.521V388.665L171.444 388.795C171.407 384.514 171.388 380.251 171.35 375.97H166.621C166.658 380.177 166.677 384.383 166.714 388.609C161.518 388.646 156.302 388.665 151.105 388.702C151.143 384.458 151.161 380.214 151.199 375.97H146.675C146.619 380.139 146.544 384.327 146.488 388.496C141.889 388.459 137.291 388.44 132.711 388.403C132.655 384.196 132.58 379.99 132.524 375.764C130.954 375.821 129.383 375.895 127.794 375.951C127.832 380.195 127.85 384.439 127.888 388.683C122.971 388.627 118.41 388.552 113.494 388.496C113.4 384.215 113.382 380.233 113.195 375.764C111.886 375.802 110.204 375.746 108.895 375.764C108.932 379.971 108.951 384.178 108.988 388.403C103.979 388.366 98.9687 388.347 93.9588 388.309V375.671H89.1358V388.403H74.48V375.671C72.835 375.727 71.2086 375.802 69.5636 375.858V388.197C64.7406 388.16 59.9177 388.141 55.0947 388.104C55.0573 383.991 55.0386 379.878 55.0013 375.764C53.4497 375.727 51.9168 375.708 50.3652 375.671V388.01C38.5509 387.992 26.7178 387.973 14.9034 387.954C13.6135 387.711 12.1741 387.3 10.6412 386.645C5.36964 384.346 2.35997 380.326 0.995339 378.139C0.771015 357.517 0.565388 336.896 0.341064 316.274C92.6503 316.181 184.959 316.068 277.269 315.975C278.502 315.919 280.185 315.638 281.643 314.517C284.69 312.198 284.858 307.73 284.914 305.786C285.101 298.775 285.513 265.945 285.643 220.944C285.344 218.887 284.634 216.045 282.727 213.297C282.727 213.297 279.661 208.866 273.268 206.38C265.454 203.332 236.03 199.687 195.727 197.649C194.605 198.023 192.942 198.752 191.353 200.191C188.1 203.145 187.483 206.997 187.352 208.193C168.341 208.118 149.329 208.044 130.318 207.969C129.551 208.343 128.299 209.109 127.346 210.474C126.074 212.325 126 214.307 125.981 215.26C125.906 218.775 125.738 231.937 125.757 249.941H39.8033C36.4759 249.53 35.2234 248.52 35.3542 245.548C34.9243 201.145 34.5504 154.929 34.1205 110.545" stroke="#3E5C6D" stroke-width="0.5" stroke-miterlimit="10"/>
<path d="M64.8715 128.044H73.0032V146.964L64.8715 146.572V128.044Z" stroke="#3E5C6D" stroke-width="0.5" stroke-miterlimit="10"/>
<path d="M127.103 128.044H135.234V146.964L127.103 146.572V128.044Z" stroke="#3E5C6D" stroke-width="0.5" stroke-miterlimit="10"/>
<path d="M188.997 128.044H197.129V146.964L188.997 146.572V128.044Z" stroke="#3E5C6D" stroke-width="0.5" stroke-miterlimit="10"/>
<path d="M78.873 254.297H84.4063V262.748H88.332V266.468H83.6025V306.683L82.537 306.665L82.5931 313.806L80.7237 313.75V306.739H78.873V267.945H73.8818V262.299H78.9665L78.873 254.297Z" fill="#3E5C6D" stroke="#3E5C6D" stroke-miterlimit="10"/>
<path d="M90.6127 267.684C92.2646 267.684 93.6037 266.344 93.6037 264.692C93.6037 263.04 92.2646 261.701 90.6127 261.701C88.9608 261.701 87.6217 263.04 87.6217 264.692C87.6217 266.344 88.9608 267.684 90.6127 267.684Z" fill="#3E5C6D" stroke="#3E5C6D" stroke-miterlimit="10"/>
<path d="M328.134 274.713C337.736 274.713 345.519 266.929 345.519 257.326C345.519 247.723 337.736 239.939 328.134 239.939C318.532 239.939 310.749 247.723 310.749 257.326C310.749 266.929 318.532 274.713 328.134 274.713Z" stroke="#3E5C6D" stroke-width="0.5" stroke-miterlimit="10"/>
<path d="M328.134 282.865C341.648 282.865 352.604 271.908 352.604 258.392C352.604 244.876 341.648 233.919 328.134 233.919C314.62 233.919 303.664 244.876 303.664 258.392C303.664 271.908 314.62 282.865 328.134 282.865Z" stroke="#3E5C6D" stroke-width="0.5" stroke-miterlimit="10"/>
<path d="M332.172 304.758H323.554V325.323H332.172V304.758Z" stroke="#3E5C6D" stroke-width="0.5" stroke-miterlimit="10"/>
<path d="M383.187 245.716H373.017V274.713H383.187V245.716Z" stroke="#3E5C6D" stroke-width="0.5" stroke-miterlimit="10"/>
<path d="M407.19 237.602H385.411V243.323H407.19V237.602Z" stroke="#3E5C6D" stroke-width="0.5" stroke-miterlimit="10"/>
<path d="M407.19 245.716H385.411V251.437H407.19V245.716Z" stroke="#3E5C6D" stroke-width="0.5" stroke-miterlimit="10"/>
<path d="M407.19 253.811H385.411V259.532H407.19V253.811Z" stroke="#3E5C6D" stroke-width="0.5" stroke-miterlimit="10"/>
<path d="M407.19 261.925H385.411V267.646H407.19V261.925Z" stroke="#3E5C6D" stroke-width="0.5" stroke-miterlimit="10"/>
<path d="M407.19 269.777H385.411V275.498H407.19V269.777Z" stroke="#3E5C6D" stroke-width="0.5" stroke-miterlimit="10"/>
<path d="M407.19 277.63H385.411V283.351H407.19V277.63Z" stroke="#3E5C6D" stroke-width="0.5" stroke-miterlimit="10"/>
<path d="M403.899 291.483H385.411V286.006H407.19L403.899 291.483Z" stroke="#3E5C6D" stroke-width="0.5" stroke-miterlimit="10"/>
<path d="M407.19 235.209H385.411V229.581H404.759L407.19 235.209Z" stroke="#3E5C6D" stroke-width="0.5" stroke-miterlimit="10"/>
<path d="M162.901 211.334C162.938 220.701 162.976 230.067 163.013 239.415C162.378 238.387 161.742 237.284 161.144 236.106C158.302 230.535 157.012 225.132 156.452 220.682C156.489 217.56 156.526 214.456 156.545 211.334H162.901Z" stroke="#3E5C6D" stroke-width="0.5" stroke-miterlimit="10"/>
<path d="M173.22 211.334C173.22 214.456 173.276 217.56 173.313 220.682C172.752 225.132 171.463 230.535 168.621 236.106C168.023 237.284 167.387 238.387 166.752 239.415C166.789 230.067 166.827 220.701 166.864 211.334H173.22Z" stroke="#3E5C6D" stroke-width="0.5" stroke-miterlimit="10"/>
<path d="M220.683 208.361C223.076 208.23 225.618 212.157 226.628 214.475C227.3 216.027 227.674 219.71 227.768 220.439C228.684 227.88 224.646 245.379 221.188 247.024C219.823 247.679 218.645 243.603 216.57 236.947C215.094 232.236 214.084 228.964 214.084 224.72C214.084 217.373 217.187 208.548 220.683 208.361Z" stroke="#3E5C6D" stroke-width="0.5" stroke-miterlimit="10"/>
<path d="M221.113 227.581C224.355 227.581 226.983 225.07 226.983 221.972C226.983 218.874 224.355 216.363 221.113 216.363C217.871 216.363 215.243 218.874 215.243 221.972C215.243 225.07 217.871 227.581 221.113 227.581Z" stroke="#3E5C6D" stroke-width="0.5" stroke-miterlimit="10"/>
<path d="M237.115 209.483C238.479 208.53 240.779 209.577 240.891 209.745C244.349 214.419 247.284 233.713 239.321 243.996C235.264 249.249 231.002 254.017 230.46 253.643C230.179 253.437 231.077 251.829 234.759 244.65C236.984 240.331 238.087 238.163 238.274 237.751C243.433 226.366 233.245 212.175 237.096 209.483H237.115Z" stroke="#3E5C6D" stroke-width="0.5" stroke-miterlimit="10"/>
<path d="M194.437 285.949C194.923 286.566 195.634 287.426 196.55 288.417C196.998 288.903 202.176 294.4 206.046 295.896C211.224 297.877 218.571 294.381 224.515 288.324" stroke="#3E5C6D" stroke-width="0.5" stroke-miterlimit="10"/>
<path d="M313.254 13.2886L318.469 33.3119" stroke="#3E5C6D" stroke-width="0.75" stroke-miterlimit="10"/>
<path d="M317.385 13.2886L323.348 37.3128" stroke="#3E5C6D" stroke-width="0.5" stroke-miterlimit="10"/>
<path d="M321.853 13.2886L327.33 37.3128" stroke="#3E5C6D" stroke-width="0.75" stroke-miterlimit="10"/>
<path d="M325.667 13.2886L329.48 32.0966" stroke="#3E5C6D" stroke-width="0.5" stroke-miterlimit="10"/>
<path d="M329.48 13.2886L332.172 26.4131" stroke="#3E5C6D" stroke-width="0.5" stroke-miterlimit="10"/>
<path d="M333.78 13.2886L335.35 21.6269" stroke="#3E5C6D" stroke-width="0.75" stroke-miterlimit="10"/>
<path d="M337.593 13.2886L338.397 15.9247" stroke="#3E5C6D" stroke-width="0.5" stroke-miterlimit="10"/>
<path d="M311.833 21.627L313.254 29.5727" stroke="#3E5C6D" stroke-width="0.5" stroke-miterlimit="10"/>
<path d="M327.573 41.1829L343.014 13.2886" stroke="#3E5C6D" stroke-width="0.5" stroke-miterlimit="10"/>
<path d="M330.826 44.2861L348.099 13.3818" stroke="#3E5C6D" stroke-width="0.5" stroke-miterlimit="10"/>
<path d="M334.565 47.5392L350.024 17.9062" stroke="#3E5C6D" stroke-width="0.5" stroke-miterlimit="10"/>
<path d="M337.593 50.0634L350.024 26.4131" stroke="#3E5C6D" stroke-width="0.75" stroke-miterlimit="10"/>
<path d="M340.92 52.8676L350.024 34.3586" stroke="#3E5C6D" stroke-width="0.5" stroke-miterlimit="10"/>
<path d="M344.771 55.7469L350.903 43.6133" stroke="#3E5C6D" stroke-width="0.5" stroke-miterlimit="10"/>
<path d="M347.837 59.7104L350.903 52.8677" stroke="#3E5C6D" stroke-width="0.5" stroke-miterlimit="10"/>
<path d="M350.024 62.9074L351.763 59.7852" stroke="#3E5C6D" stroke-width="0.5" stroke-miterlimit="10"/>
<path d="M311.833 32.7134L351.763 66.5343" stroke="#3E5C6D" stroke-width="0.75" stroke-miterlimit="10"/>
<path d="M311.179 38.2288L352.174 73.1153" stroke="#3E5C6D" stroke-width="0.5" stroke-miterlimit="10"/>
<path d="M311.179 43.6133L352.174 79.2103" stroke="#3E5C6D" stroke-width="0.75" stroke-miterlimit="10"/>
<path d="M311.179 48.7358L352.174 84.7441" stroke="#3E5C6D" stroke-width="0.5" stroke-miterlimit="10"/>
<path d="M310.693 53.9707L352.66 92.2786" stroke="#3E5C6D" stroke-width="0.75" stroke-miterlimit="10"/>
<path d="M310.693 59.2429L352.66 98.8595" stroke="#3E5C6D" stroke-width="0.5" stroke-miterlimit="10"/>
<path d="M310.693 64.3657L347.837 100.486" stroke="#3E5C6D" stroke-width="0.75" stroke-miterlimit="10"/>
<path d="M310.338 68.0674L312.955 79.4532" stroke="#3E5C6D" stroke-width="0.5" stroke-miterlimit="10"/>
<path d="M313.59 70.124L315.179 76.1628" stroke="#3E5C6D" stroke-width="0.5" stroke-miterlimit="10"/>
<path d="M310.693 83.0055L309.403 74.1624" stroke="#3E5C6D" stroke-width="0.5" stroke-miterlimit="10"/>
<path d="M309.403 90.6335L318.469 76.1628" stroke="#3E5C6D" stroke-width="0.5" stroke-miterlimit="10"/>
<path d="M308.524 99.4951L321.853 79.4531" stroke="#3E5C6D" stroke-width="0.75" stroke-miterlimit="10"/>
<path d="M312.955 100.486L325.666 83.0054" stroke="#3E5C6D" stroke-width="0.5" stroke-miterlimit="10"/>
<path d="M318.039 100.449L328.284 86.1465" stroke="#3E5C6D" stroke-width="0.5" stroke-miterlimit="10"/>
<path d="M324.096 100.449L332.022 89.6985" stroke="#3E5C6D" stroke-width="0.75" stroke-miterlimit="10"/>
<path d="M330.153 100.486L335.294 93.3069" stroke="#3E5C6D" stroke-width="0.5" stroke-miterlimit="10"/>
<path d="M335.294 100.486L338.64 95.7935" stroke="#3E5C6D" stroke-width="0.5" stroke-miterlimit="10"/>
<path d="M340.229 100.486L342.098 98.28" stroke="#3E5C6D" stroke-width="0.75" stroke-miterlimit="10"/>
<path d="M251.752 86.1464L296.074 46.7168" stroke="#3E5C6D" stroke-width="0.75" stroke-miterlimit="10"/>
<path d="M251.752 73.1339L295.14 34.3586" stroke="#3E5C6D" stroke-width="0.75" stroke-miterlimit="10"/>
<path d="M252.668 52.8676L294.205 13.3818" stroke="#3E5C6D" stroke-width="0.75" stroke-miterlimit="10"/>
<path d="M256.406 13.3818L268.875 32.0964" stroke="#3E5C6D" stroke-width="0.75" stroke-miterlimit="10"/>
<path d="M272.595 13.3818L279.306 22.6924" stroke="#3E5C6D" stroke-width="0.75" stroke-miterlimit="10"/>
<path d="M253.976 32.7134V46.7166" stroke="#3E5C6D" stroke-width="0.75" stroke-miterlimit="10"/>
<path d="M266.277 77.0789L260.874 100.486" stroke="#3E5C6D" stroke-width="0.75" stroke-miterlimit="10"/>
<path d="M272.595 84.7441L268.875 100.449" stroke="#3E5C6D" stroke-width="0.75" stroke-miterlimit="10"/>
<path d="M256.407 86.1465L252.668 100.449" stroke="#3E5C6D" stroke-width="0.75" stroke-miterlimit="10"/>
<path d="M273.904 70.124L290.111 99.3831" stroke="#3E5C6D" stroke-width="0.75" stroke-miterlimit="10"/>
<path d="M284.148 62.9075L297.364 88.7826" stroke="#3E5C6D" stroke-width="0.75" stroke-miterlimit="10"/>
<path d="M290.765 56.2891L296.074 66.7401" stroke="#3E5C6D" stroke-width="0.75" stroke-miterlimit="10"/>
<path d="M262.631 13.3818L273.436 28.8433" stroke="#3E5C6D" stroke-width="0.5" stroke-miterlimit="10"/>
<path d="M253.976 16.8782L265.529 35.4432" stroke="#3E5C6D" stroke-width="0.5" stroke-miterlimit="10"/>
<path d="M253.976 24.8237L261.959 38.2287" stroke="#3E5C6D" stroke-width="0.5" stroke-miterlimit="10"/>
<path d="M267.548 13.2886L276.371 26.1514" stroke="#3E5C6D" stroke-width="0.5" stroke-miterlimit="10"/>
<path d="M277.605 13.2886L282.522 19.72" stroke="#3E5C6D" stroke-width="0.5" stroke-miterlimit="10"/>
<path d="M282.521 13.2886L285.419 16.8782" stroke="#3E5C6D" stroke-width="0.5" stroke-miterlimit="10"/>
<path d="M287.214 13.2886L288.111 14.2047" stroke="#3E5C6D" stroke-width="0.5" stroke-miterlimit="10"/>
<path d="M256.818 37.3127V44.9407" stroke="#3E5C6D" stroke-width="0.5" stroke-miterlimit="10"/>
<path d="M259.267 39.7244V41.9118" stroke="#3E5C6D" stroke-width="0.5" stroke-miterlimit="10"/>
<path d="M252.668 59.2431L294.205 19.8508" stroke="#3E5C6D" stroke-width="0.5" stroke-miterlimit="10"/>
<path d="M252.668 62.9074L294.205 23.2908" stroke="#3E5C6D" stroke-width="0.5" stroke-miterlimit="10"/>
<path d="M251.752 66.74L294.205 27.2356" stroke="#3E5C6D" stroke-width="0.5" stroke-miterlimit="10"/>
<path d="M251.752 79.4533L295.14 40.8276" stroke="#3E5C6D" stroke-width="0.5" stroke-miterlimit="10"/>
<path d="M260.874 81.6594L256.967 100.112" stroke="#3E5C6D" stroke-width="0.5" stroke-miterlimit="10"/>
<path d="M270.202 79.4531L265.249 100.112" stroke="#3E5C6D" stroke-width="0.5" stroke-miterlimit="10"/>
<path d="M275.175 88.7825L272.969 100.112" stroke="#3E5C6D" stroke-width="0.5" stroke-miterlimit="10"/>
<path d="M277.904 94.4473L277.063 100.112" stroke="#3E5C6D" stroke-width="0.5" stroke-miterlimit="10"/>
<path d="M280.54 98.2053L280.129 100.112" stroke="#3E5C6D" stroke-width="0.5" stroke-miterlimit="10"/>
<path d="M270.745 73.564L284.765 100.112" stroke="#3E5C6D" stroke-width="0.5" stroke-miterlimit="10"/>
<path d="M277.493 67.8618L294.205 100.112" stroke="#3E5C6D" stroke-width="0.5" stroke-miterlimit="10"/>
<path d="M280.54 65.3752L297.663 98.2052" stroke="#3E5C6D" stroke-width="0.5" stroke-miterlimit="10"/>
<path d="M288.242 59.2429L296.673 78.1071" stroke="#3E5C6D" stroke-width="0.5" stroke-miterlimit="10"/>
<path d="M294.205 53.7463L296.074 57.6725" stroke="#3E5C6D" stroke-width="0.5" stroke-miterlimit="10"/>
<path d="M283.98 0.799561H266.277V10.241H283.98V0.799561Z" stroke="#3E5C6D" stroke-width="0.5" stroke-miterlimit="10"/>
<path d="M340.902 0.799561H323.348V10.241H340.902V0.799561Z" stroke="#3E5C6D" stroke-width="0.5" stroke-miterlimit="10"/>
<path d="M284.765 103.234H260.874V108.226H284.765V103.234Z" stroke="#3E5C6D" stroke-width="0.5" stroke-miterlimit="10"/>
<path d="M343.014 103.234H315.852V108.226H343.014V103.234Z" stroke="#3E5C6D" stroke-width="0.5" stroke-miterlimit="10"/>
<path d="M219.325 283.007C215.791 281.844 212.556 279.993 209.585 277.79C211.792 278.781 214.103 279.785 216.429 280.481C219.354 281.356 222.356 281.763 225.272 281.031L225.304 281.024L225.333 281.012C226.938 280.382 227.795 279.392 228.857 278.162L228.864 278.154L228.871 278.145C231.307 275.061 232.92 271.772 234.224 267.919L234.224 267.917C239.94 250.841 252.911 235.443 269.366 227.931C273.072 226.542 276.89 225.563 280.722 225.45C272.844 227.486 265.814 231.933 260.061 237.615C253.679 243.53 248.099 250.293 243.736 257.811C242.161 260.222 240.782 263.354 239.373 266.568L239.327 266.672C237.923 269.876 236.48 273.167 234.757 276.008C233.014 278.882 231.016 281.244 228.541 282.582C226.088 283.908 223.11 284.259 219.326 283.007L219.325 283.007Z" fill="#3E5C6D" stroke="#3E5C6D"/>
<path d="M243.273 275.264C241.321 279.809 237.816 284.31 233.373 286.54C238.7 282.693 241.502 275.955 243.054 269.786C244.707 264.791 246.618 260.155 249.174 255.485C255.515 245.393 265.65 237.2 276.951 233.232C272.493 235.77 268.382 238.719 264.602 242.086C258.241 247.51 252.685 253.492 249.221 261.307L247.096 265.894C246.336 267.377 245.736 268.922 245.15 270.485C245.064 270.715 244.978 270.944 244.893 271.174C244.39 272.523 243.884 273.884 243.275 275.259L243.275 275.259L243.273 275.264Z" fill="#3E5C6D" stroke="#3E5C6D"/>
<path d="M197.168 293.874C198.24 294.525 199.364 295.111 200.514 295.657C199.148 295.254 197.772 294.772 196.511 294.169C194.149 293.038 192.301 291.533 191.647 289.405C191.705 289.457 191.762 289.508 191.82 289.559C193.544 291.093 195.139 292.511 197.149 293.862L197.159 293.868L197.168 293.874Z" fill="#3E5C6D" stroke="#3E5C6D"/>
<path d="M204.733 300.909C199.091 299.429 193.508 297.134 189.106 293.374C199.781 299.01 212.494 300.92 224.099 297.894L224.112 297.891L224.124 297.887C234.325 294.651 241.663 285.973 246.218 276.749C247.392 274.4 248.293 271.944 249.151 269.482C249.303 269.047 249.453 268.612 249.603 268.178C250.305 266.143 251.006 264.115 251.839 262.12C256.764 250.559 267.434 242.166 278.769 237.632C270.763 242.898 263.427 248.984 258.293 256.726C255.682 260.435 253.915 264.623 252.172 268.75C251.87 269.467 251.568 270.183 251.262 270.894C249.187 275.721 246.942 280.359 243.191 284.119L243.181 284.13L243.171 284.141C233.586 294.939 219.544 304.721 204.733 300.909Z" fill="#3E5C6D" stroke="#3E5C6D"/>
<path d="M206.654 306.132C199.574 305.186 192.352 302.928 186.756 298.521C195.544 302.768 205.244 303.921 214.634 304.471L214.634 304.472L214.643 304.472C222.531 304.794 230.529 302.809 236.775 297.762L236.785 297.753L236.794 297.745C246.763 288.793 252.854 277.161 258.074 265.055C260.54 260.216 263.251 255.347 267.281 251.774L267.286 251.77C270.601 248.757 274.344 246.434 278.26 244.517C274.817 247.176 271.462 249.936 268.686 253.146C266.028 256.156 264.08 259.522 262.361 262.996C261.544 264.646 260.777 266.326 260.01 268.003L259.89 268.266C259.083 270.033 258.273 271.797 257.399 273.535L257.397 273.54C252.973 282.557 245.594 291.722 236.658 298.123C227.721 304.524 217.273 308.131 206.681 306.136L206.667 306.133L206.654 306.132Z" fill="#3E5C6D" stroke="#3E5C6D"/>
<path d="M196.48 308.638C192.09 307.206 187.788 305.13 184.398 302.075C193.035 306.945 202.963 308.336 212.643 308.734L212.644 308.734C219.068 308.978 226.117 308.759 232.281 306.153L232.299 306.145L232.316 306.136C235.875 304.291 239.323 302.087 242.435 299.578C250.138 293.601 254.462 285.282 258.795 276.947C259.344 275.89 259.894 274.832 260.451 273.779C261.312 272.318 262.154 270.787 263.009 269.233C264.808 265.962 266.663 262.59 268.866 259.56C271.439 256.021 274.442 253.018 278.294 251.29C275.897 252.95 273.968 255.116 272.326 257.505C270.249 260.526 268.61 263.933 267.062 267.153C266.931 267.425 266.8 267.696 266.67 267.966C265.954 269.371 265.246 270.798 264.533 272.233C262.218 276.895 259.856 281.65 257.052 286.062C253.391 291.823 249.003 296.949 243.05 300.437L243.039 300.444L243.028 300.451C229.425 309.372 212.295 314.015 196.486 308.64L196.486 308.64L196.48 308.638Z" fill="#3E5C6D" stroke="#3E5C6D"/>
<path d="M193.465 311.202C189.719 310.24 186.35 308.623 183.917 305.812C187.581 308.454 191.754 310.03 196.095 311.084C198.91 311.767 201.812 312.233 204.701 312.626C200.996 312.437 197.078 312.13 193.465 311.202Z" fill="#3E5C6D" stroke="#3E5C6D"/>
<path d="M242.058 306.899C240.501 307.89 238.86 308.724 237.16 309.413C238.833 308.65 240.44 307.757 241.958 306.722L241.958 306.722L241.967 306.716C244.284 305.061 246.308 303.019 248.302 301.008C248.82 300.485 249.336 299.965 249.854 299.454C257.668 292.24 263.83 282.857 268.573 273.5L268.575 273.496C268.969 272.704 269.352 271.908 269.734 271.114C270.753 268.993 271.77 266.879 272.989 264.851C271.918 266.846 271.032 268.953 270.151 271.05C269.777 271.938 269.404 272.825 269.018 273.702C264.419 283.44 258.306 292.852 250.282 299.895L250.271 299.904L250.261 299.914C247.703 302.434 245.06 304.909 242.058 306.899Z" fill="#3E5C6D" stroke="#3E5C6D"/>
<path d="M254.634 303.453C253.394 304.959 252.063 306.44 250.621 307.782C251.962 306.331 253.188 304.775 254.342 303.203L254.342 303.203L254.349 303.193C256.397 300.257 258.736 297.559 261.09 294.845C261.294 294.61 261.497 294.376 261.701 294.141C264.252 291.195 266.788 288.206 268.904 284.891L268.904 284.891L268.908 284.885C270.213 282.778 271.29 280.519 272.357 278.282C272.412 278.167 272.466 278.053 272.521 277.939C273.607 275.662 274.695 273.415 276.029 271.322C275.461 272.427 274.943 273.554 274.448 274.689C274.038 275.627 273.646 276.568 273.254 277.507C272.141 280.175 271.037 282.819 269.587 285.318C267.518 288.643 265.005 291.629 262.391 294.563C261.757 295.275 261.115 295.985 260.473 296.696C258.478 298.905 256.474 301.123 254.634 303.453Z" fill="#3E5C6D" stroke="#3E5C6D"/>
<path d="M258.894 306.763C258.34 307.216 257.819 307.724 257.317 308.248C257.767 307.672 258.238 307.121 258.77 306.615L258.773 306.612C266.665 298.976 273.12 289.964 278.122 280.225C274.051 290.483 267.514 299.845 258.898 306.761L258.894 306.763Z" fill="#3E5C6D" stroke="#3E5C6D"/>
<path d="M272.739 301.172C270.397 304.692 267.31 307.677 263.8 310.025C266.924 307.269 269.77 304.224 272.043 300.692C273.183 298.941 274.155 297.008 275.118 295.092C275.541 294.25 275.962 293.412 276.395 292.594C277.043 291.369 277.723 290.18 278.484 289.063C277.859 290.372 277.304 291.696 276.756 293.011C276.727 293.08 276.699 293.148 276.67 293.217C275.528 295.959 274.405 298.655 272.739 301.172Z" fill="#3E5C6D" stroke="#3E5C6D"/>
<path d="M281.018 295.803C279.05 302.196 276.086 308.259 270.382 311.436C272.794 309.329 274.948 307.056 276.597 304.114C277.654 302.408 278.549 300.629 279.433 298.874C279.528 298.685 279.623 298.496 279.718 298.308C280.143 297.465 280.571 296.627 281.018 295.803Z" fill="#3E5C6D" stroke="#3E5C6D"/>
<path d="M281.1 305.772C281.27 305.47 281.443 305.171 281.62 304.879C281.273 306.402 280.755 307.883 279.995 309.148C279.134 310.579 277.97 311.727 276.384 312.356C277.446 311.113 278.509 309.863 279.454 308.678L279.473 308.654L279.489 308.628C279.856 308.033 280.213 307.381 280.57 306.729C280.746 306.408 280.922 306.086 281.1 305.772Z" fill="#3E5C6D" stroke="#3E5C6D"/>
<path d="M185.321 314.298L185.312 314.295L185.303 314.293C184.946 314.205 184.619 313.935 184.171 313.549C184.161 313.54 184.15 313.531 184.139 313.521C183.996 313.398 183.839 313.262 183.667 313.132C183.724 313.125 183.782 313.116 183.841 313.104C184.577 313.024 185.237 313.129 185.779 313.409C186.202 313.627 186.571 313.961 186.857 314.431C186.274 314.5 185.785 314.43 185.321 314.298ZM181.574 312.232C181.72 312.363 181.88 312.507 182.059 312.64C181.598 312.711 181.272 312.742 180.973 312.681C180.72 312.629 180.453 312.501 180.141 312.173C180.644 311.959 181.1 311.984 181.486 312.154C181.515 312.179 181.544 312.206 181.574 312.232Z" fill="#3E5C6D" stroke="#3E5C6D"/>
</svg>
