<svg width="2436" height="1125" viewBox="0 0 2436 1125" fill="none" xmlns="http://www.w3.org/2000/svg">
<g clip-path="url(#clip0_311_66)">
<path d="M-0.520466 876.11C96.1895 888.56 203.16 901.21 293.04 854.02C311.41 844.38 329.58 831.71 340.25 813.42C345.98 803.59 354.81 781.36 341.03 775.18C309.74 761.15 277.52 793.87 279.89 824.4C283.43 869.93 330.04 891.78 369.67 897.35C422.04 904.71 478.179 902.81 529.159 888.35C579 874.22 626.19 849.94 677.81 842.42C705.909 838.33 733.89 840.8 760.58 850.62C784.18 859.3 805.93 872.13 828.27 883.5C869.44 904.46 910.049 913.88 956.219 907.84C1001.68 901.9 1045.02 886.12 1089.6 876.11C1138.3 865.18 1186.43 863.6 1231.43 888.03C1253.39 899.95 1273.94 914.37 1297.9 922.17C1322.98 930.34 1349.6 932.35 1375.81 932.9C1466.05 934.8 1572.02 935.64 1636.88 862.28C1666.46 828.82 1684.58 787.23 1702.96 747.04C1707.64 736.8 1712.35 726.56 1717.28 716.44C1723.16 704.38 1735.7 670.72 1754.21 687.19C1763.7 695.64 1771.43 706.94 1779.63 716.61C1789.67 728.44 1799.7 740.27 1809.74 752.1C1863.09 814.98 1942.19 917.46 2034.52 860.81C2057.27 846.85 2077.32 829.87 2103.36 822.06C2130.2 814.01 2158.62 813.74 2186.4 813.99C2247.57 814.53 2308.73 815.42 2369.9 816.13C2399.4 816.48 2428.91 816.82 2458.41 817.17C2460.02 817.19 2460.02 814.69 2458.41 814.67C2401.04 814 2343.67 813.32 2286.3 812.65C2257.62 812.31 2228.93 811.98 2200.25 811.64C2176.08 811.36 2151.72 810.76 2127.73 814.26C2104.3 817.68 2083.22 825.62 2063.39 838.53C2043 851.81 2023.72 867.79 1999.44 873.31C1950.38 884.46 1904.99 850.95 1871.99 818.61C1834.68 782.05 1802.5 739.7 1768.74 699.91C1760.66 690.39 1747.37 670.87 1733.36 683.04C1726.78 688.76 1723.08 699.27 1719.28 706.82C1714.22 716.85 1709.44 727.03 1704.73 737.23C1686.51 776.76 1669.48 817.9 1642.1 852.21C1612.21 889.65 1570.99 911.86 1524.49 921.64C1477.38 931.56 1428.15 931.2 1380.22 930.48C1353.46 930.08 1326.35 928.4 1300.64 920.4C1275.32 912.52 1254 897.18 1230.84 884.85C1152.18 842.97 1068.33 881.88 988.71 899.47C943.22 909.52 898.28 911.37 854.59 893.09C812.52 875.49 774.599 846.53 728.56 839.62C682.65 832.73 637.539 847.81 594.93 863.23C544.659 881.42 496.41 897.13 442.34 898.28C392.96 899.34 323.78 900.51 293.14 853.89C279.32 832.87 277.37 804.87 297.04 786.9C305.06 779.57 315.82 774.75 326.77 774.68C331.23 774.65 339 775.37 342.52 778.68C348.26 784.09 344.7 796.73 342.5 802.89C333.87 827.02 309.97 842.72 288.16 853.71C265.97 864.89 242.19 872.56 217.86 877.45C169.25 887.21 119.05 885.95 69.9095 881.59C46.3795 879.5 22.9195 876.6 -0.510466 873.59C-2.10047 873.39 -2.09047 875.89 -0.510466 876.09L-0.520466 876.11Z" fill="#D55845"/>
</g>
<rect x="0.5" y="0.5" width="2435" height="1124" stroke="black"/>
<defs>
<clipPath id="clip0_311_66">
<rect width="2436" height="1125" fill="white"/>
</clipPath>
</defs>
</svg>
