<?xml version="1.0" encoding="UTF-8"?>
<svg id="Layer_2" data-name="Layer 2" xmlns="http://www.w3.org/2000/svg" width="403.64" height="390.57" viewBox="0 0 403.64 390.57">
  <defs>
    <style>
      .cls-1 {
        fill: #455c6c;
        stroke-width: 0px;
      }

      .cls-2 {
        fill: none;
        stroke: #221f20;
        stroke-miterlimit: 10;
        stroke-width: .5px;
      }
    </style>
  </defs>
  <path class="cls-2" d="m4.73,125.25c-.33-17.18-.66-34.35-.98-51.53,15.38,2.29,28.32,4.49,38.07,6.24,18.4,3.29,27.87,5,40.7,8.21,14.3,3.57,25.8,7.25,31.84,9.19,20.51,6.59,24.67,9.24,36.76,11.82,12.46,2.66,22.92,3.02,29.54,2.95,2.2.9,5.46,2.14,9.52,3.28,5.42,1.53,8.13,2.29,11.16,1.97,3.56-.38,3.96-1.7,11.82-5.91,4.18-2.24,8.39-4.46,14.11-6.24,3.2-.99,6.55-2.03,11.16-2.3,4.31-.25,4.97.45,9.52,0,4.26-.42,7.75-1.44,9.52-1.97,4.14-1.23,4.76-1.92,7.88-2.63,3.28-.74,5.65-1.56,8.21-.66.69.24,1.51.54,2.18,1.32,1.81,2.1.74,5.54.39,6.7-1.37,4.42-4.97,6.75-5.93,7.35-2.96,1.86-5.78,2.16-8.51,2.45-4.34.46-5.33-.4-10.18-.13,0,0-3.91.22-7.99,1.29-6.45,1.69-10.83,4.92-13.15,6.57-6.57,4.67-1.82.35-30.93,18.04-5.99,3.64-10.77,6.61-16.75,11.21-2.63,2.03-4.75,3.8-6.19,5.03-5.24-.77-13.7-2.03-24.1-3.61-39.45-5.99-43.45-7.02-69.07-10.74-24.23-3.52-24.7-3.19-33.64-5.01-19.45-3.97-34.91-9.14-44.96-12.91Z"/>
  <path class="cls-2" d="m262.72,99.1c.14.8.37,1.63.72,2.48.5,1.23,1.09,2.65,2.53,3.46.81.47,2,.8,4.66.27,1.42-.28,3.58-.88,6.07-2.26"/>
  <path class="cls-2" d="m270.37,112.93c.36.66.67,1.4.9,2.22.06.22.11.45.16.68.22,1.11.73,3.69-.67,5.99-.86,1.4-2.14,2.23-3.53,2.77-1.31.5-2.7.75-3.93.96-.28.05-.56.09-.83.12h-.03c-1.86.23-3.42.08-5.03-.18-.43-.06-.86-.14-1.3-.21l-.36-.06h-.01c-3.02-.51-4.72-.85-5.88-2.33-1.37-1.74-1.16-3.97-1.07-4.93.09-.89.3-1.69.59-2.39"/>
  <path class="cls-2" d="m257.54,125.35s-.08.1-.13.14"/>
  <path class="cls-2" d="m267.23,124.59c.49.39.98.86,1.45,1.4.5.56.98,1.21,1.41,1.96.47.81,1.74,3.09,1.6,6.12-.08,1.82-.64,3.18-1.2,4.53-.31.76-.65,1.44-.99,2.05"/>
  <path class="cls-2" d="m256.5,148.04c-1.08-.38-1.83-.67-2.4-.94-.72-.34-1.15-.64-1.58-1.05-.6-.56-1.83-1.71-2-3.59-.01-.08-.12-1.53.59-2.87.22-.4.5-.79.88-1.13.97-.89,2.12-1.03,4.05-.98.46,0,.97.03,1.54.05.77.04,4.18.22,8.92,1.87,1.34.47,2.3.88,3,1.25,1.16.62,1.62,1.12,1.93,1.54.93,1.29,1.15,2.69,1.19,3.6"/>
  <path class="cls-2" d="m251.11,139.59c-1.87-.03-4.31-.39-6.85-1.66-.61-.3-1.37-.66-2.15-1.12-1.41-.84-2.91-2.04-3.71-3.94-.28-.68-.84-2.07-.4-3.59.61-2.07,2.67-3.05,3.87-3.6.7-.32,1.39-.56,2.06-.73,2.8-.75,5.24-.42,5.93-.33,1.7.22,3.66.42,5.88.6h.01c.57.04,1.17.09,1.79.13,1.52.12,3.16.22,4.9.32h.03"/>
  <path class="cls-2" d="m185.47,113.93c-2.44-2.36-4.71-4.04-6.58-5.25-3.51-2.28-5.83-3.04-8.73-5.82-3.74-3.59-5.56-7.78-6.52-10.74,2.02-1.4,4.87-3.27,8.43-5.21,4.79-2.63,8.6-4.17,11.74-5.42,10.67-4.27,16.01-6.4,18.86-6.62.88-.07,3.22-.17,4.91-1.81.42-.4.88-1.14,1.81-2.61,1.69-2.69,1.67-3.05,2.41-3.71,1-.89,1.79-.87,3.91-1.5,0,0,2.6-.78,5.62-2.31,2.07-1.05,3.2-2.24,6.52-5.92,4.48-4.97,6.72-7.45,7.42-8.32,6.2-7.75,6.18-9.48,10.43-14.85,5.09-6.44,10.21-10.4,15.95-14.85,8.58-6.64,8.5-4.7,13.65-9.53,2.65-2.49,4.59-4.8,7.92-5.12,2.25-.21,5.67.43,7.63,2.61.04.05.86,1.17,2.5,3.41,1.15,1.57,1.41,1.92,1.91,2.51,1.35,1.59,2.18,2.53,3.51,2.91.81.23.85-.02,2.21.1s3.37.29,4.61,1.51c1.31,1.27.55,2.48,2.01,4.41.78,1.03,1.64,1.54,2.41,2.01,0,0,2.78,1.69,8.63,5.81,4.34,3.07,6.51,4.6,6.82,6.73.14.97,0,2.3.6,4.61.19.75.43,1.49.8,2.41,1.18,2.96,2.44,4.83,3.11,6.02,1.46,2.58,1.77,4.91,2.21,8.12.75,5.52-.16,10.26-1.11,13.45,1.51-.42,3.8-.9,6.63-.91,2.77,0,4.64-.01,6.01,1.21,1.5,1.32,1.56,3.35,1.61,6.52.03,2.19.05,6.73-2.41,11.94-1.07,2.28-2.28,4.75-5.01,6.72-1.45,1.04-2.85,1.6-3.82,1.9-.88,1.75-2.55,4.37-5.54,5.91-2.66,1.37-5.25,1.41-10.41,1.18-3.89-.17-6.47-.99-10.61,0-1.47.35-1.36.51-4.52,1.57-1.02.35-3.98,1.32-9.04,2.56-7.01,1.7-8.89,1.51-13.55,2.75-3.28.87-6.33,1.83-9.14,2.84"/>
  <path class="cls-2" d="m176.56,157.45c-1.29,2.35-2.87,4.88-4.8,7.48-3.78,5.07-6.73,7.48-15.66,15.91-11.04,10.42-9.43,9.48-15.91,15.41-15.17,13.87-15.2,10.96-23.86,19.89-7.31,7.53-11.02,13.45-20.88,24.35-3.35,3.71-5.02,5.56-7.21,7.71-3.39,3.34-4.51,4.04-6.71,6.71-1.28,1.55-2.51,3.43-4.97,7.21-2.57,3.94-3.85,5.91-4.72,7.7-2.46,5.09-1.19,5.77-2.98,9.45-3.06,6.27-8.06,7.02-13.67,14.66-1.01,1.37-2,2.91-2.74,4.97-.98,2.74-.39,3.27-1.24,5.97-.42,1.34-1.51,4.8-4.48,7.21-2.25,1.83-3.53,1.39-4.72,2.98-1.51,2.03-1.07,4.92-.5,6.96-.82.52-2.03,1.39-3.23,2.73-1.05,1.19-1.8,2.03-1.74,2.99.11,1.65,2.58,2.74,3.73,3.23,10.63,4.47,16.16,4.72,16.16,4.72,11.99.55,23.66,4.04,35.54,5.72,14.92,2.1,16.91,2.32,20.13,2.48,3.72.19,7.85.25,17.15.75,4.94.26,8.55.5,13.18,1.74,4.05,1.08,6.43,2.27,8.2,2.98,8.57,3.43,17.27,1.35,23.61.25,26-4.53,43.63,1.86,64.63.74,1.48-.07,5.63-.33,10.93.75,3.48.71,5.48,1.59,7.46,2.24,6.79,2.22,11.56,1.15,18.39.99,8.91-.21,7.3,1.46,22.37,2.74,12.44,1.05,20.93,1.76,29.83-.5,1.73-.44,5.44-1.49,10.94-2.49,4.45-.8,4.91-.63,10.19-1.49,6.89-1.12,10.33-1.67,14.41-3.23,2.36-.9,5.81-2.46,9.7-5.22"/>
  <path class="cls-2" d="m256.5,148.04c1.33-.57,2.87-1.1,4.61-1.49.31-.07,1.2-.26,2.5-.44,1.92-.27,6.77-.79,12.79.43,4.34.88,7.27,2.25,11.43,4.23,4.05,1.92,9.43,4.48,15.16,8.94,1.7,1.33,3.68,3.01,15.41,16.66,10.52,12.23,8.75,10.66,11.44,13.42,7.3,7.49,10.5,8.93,13.17,14.91,1.03,2.31,1.16,3.45,3.48,8.95,2.59,6.13,3.82,8,4.97,9.44,2.22,2.79,2.98,2.55,4.72,4.98,2.24,3.1,2.88,6.14,3.48,9.19,1.67,8.36,2.84,15.06,2.99,15.91,1.55,8.81,3.46,8.66,6.46,19.14,2.73,9.52,1.22,9.84,4.23,24.85,1.65,8.27,3.38,14.52,5.21,21.13,1.4,5.05,3.37,12.12,6.47,21.13,2.75,8.01,5.3,14.39,8.2,24.85.25.91,1.86,6.94,1.24,14.67-.31,3.87-.53,6.15-2.23,7.46-3.47,2.64-10.2-.95-15.42-3.73-3.2-1.71-6.56-3.55-9.19-7.21-1.03-1.44-1.23-2.14-2.49-3.48-2.64-2.81-5.14-3.27-7.95-4.72-4.6-2.38-7.55-6.13-8.95-8.45-1.14-1.9-1.86-3.86-2.28-5.76"/>
  <path class="cls-2" d="m256.04,137.48c1.11.56,2.42,1.5,3.33,3.03.48.81,1.42,2.4.83,3.95-.68,1.81-2.98,2.32-3.79,2.5-.8.18-1.58.21-2.31.14"/>
  <path class="cls-2" d="m240.34,135.53h.01c.98.2,2.02.31,3.15.28,2.13-.06,5.57-.15,6.83-2.51.87-1.62.4-3.74-.53-5.09-1.21-1.74-3.14-2.14-4.93-2.5-.87-.18-1.71-.25-2.5-.25"/>
  <path class="cls-2" d="m250,123.06h0c1.27.16,2.7.14,4.19-.24,1.15-.28,4.09-1.01,4.48-2.88.26-1.24-.7-2.39-1.44-3.26-.39-.47-.81-.88-1.25-1.24"/>
  <path class="cls-2" d="m66.94,301.84c-1.56,3.36-4.19,7.89-8.57,12.13-4.16,4.02-8.09,6.03-8.99,6.48-.95.48-2.25,1.06-5.23,2.09-3.27,1.12-7.84,2.53-13.59,3.76"/>
  <path class="cls-2" d="m124.63,218.64c-5.32,4.78-9.41,9.34-12.4,13.03-2.09,2.57-5.61,6.95-9.3,13.34-1.47,2.53-4.07,7.3-6.51,13.65-1.66,4.31-5.26,13.85-6.2,26.36-.47,6.27.12,7.89-.62,17.68-.38,4.97-.87,9.04-1.24,11.78"/>
  <path class="cls-2" d="m224.98,131.59c-6.41,3.13-11.22,6.39-14.5,8.87-5.62,4.25-10.68,9.18-11.04,9.52-5.6,5.47-6.39,7.36-10.6,9.74-3.25,1.84-4.37,1.61-7.57,3.9-2.71,1.94-3.54,3.26-6.92,6.49-1.65,1.57-4.11,3.8-7.36,6.28"/>
  <path class="cls-2" d="m210.91,156.69c-6.2,2.05-10.55,4.66-13.42,6.71-2.33,1.67-2.93,2.43-9.52,7.57-4.29,3.35-4.65,3.51-6.71,5.19-2.45,2.01-5.88,5-9.74,9.09"/>
  <path class="cls-2" d="m229.3,139.59c-3.69,3.75-6.63,7.17-8.87,9.95-2.35,2.91-4.94,6.15-7.79,10.82-1.92,3.14-3.34,5.92-4.33,8.01"/>
  <path class="cls-2" d="m234.5,139.16c.53,3.37,1.32,6,1.95,7.79,1.56,4.45,2.63,5.11,3.03,8.44.25,2.1-.01,3.16.87,4.76,1.09,1.98,2.21,1.64,3.25,3.46,1.22,2.14,0,3.19,1.08,6.71.3.96.76,2.44,1.95,3.9,1.73,2.12,3.15,1.93,4.54,3.68.67.84,1.15,1.91,1.51,5.19.28,2.52.47,6.14,0,10.6"/>
  <path class="cls-2" d="m257,159.07c.74,1.54,2.16,3.89,4.76,5.63,1.94,1.29,3.74,1.72,4.76,1.95,8.19,1.85,12.28,2.78,14.28,3.03,4.71.59,11.38,3.67,19.69,14.93"/>
  <path class="cls-2" d="m326.03,249.74c3.36-2.74,7.35-6.5,11.25-11.47,4.3-5.47,7.17-10.73,9.09-14.93"/>
  <path class="cls-2" d="m341.4,269.86c3.2-1.86,7.2-4.68,11.04-8.87,1.85-2.02,3.34-4.01,4.54-5.84"/>
  <path class="cls-2" d="m376.23,340.37c3.66,4.48,5.38,8.61,6.25,11.29,1.16,3.6,1.5,6.81,1.92,10.81.37,3.47.46,6.38.48,8.41"/>
  <path class="cls-2" d="m266.91,341.33c4.89-.86,8.62-2.15,11.05-3.12,6.33-2.54,7.6-4.44,12.25-5.05,1.76-.23,2.82-.11,10.33.96,3.18.46,7.07,1.02,11.53,1.68"/>
  <path class="cls-2" d="m272.5,114.71c3.16,1.7,6.48,4.09,9.45,7.46,2.1,2.39,3.62,4.81,4.73,6.97"/>
  <path class="cls-2" d="m294.56,120.33c.38-.55.89-1.43,1.18-2.63.39-1.61.17-2.97,0-3.68"/>
  <path class="cls-2" d="m270.62,138.29c1.57.11,2.6-.26,3.31-.74.81-.56,1.42-1.43,2.76-1.71,1.26-.26,2.29.18,2.89.39,4.09,1.45,8.83-.59,9.59-.92,1.45-.62,4.15-1.78,5.66-4.46,1.25-2.24.66-3.71,2.36-5.66.99-1.13,1.62-1.12,3.55-2.36,1.28-.83,2.09-1.54,5.91-5.39,3.52-3.54,5.27-5.31,5.65-5.78,1.17-1.44,2.64-3.52,3.99-6.36"/>
  <path class="cls-2" d="m289.96,92.25c-1.91.36-4,.85-6.22,1.51-2.43.72-4.62,1.53-6.55,2.35"/>
  <path class="cls-2" d="m315.16,98.46c-5.2-2.66-7.28-6.14-8.07-7.73-1.03-2.09-1.25-5.76-1.68-13.11-.15-2.63-.17-4.41.5-6.55.81-2.56,2.03-3.78,3.02-5.38,1.39-2.22,2.74-5.75,2.35-11.43"/>
  <path class="cls-2" d="m308.94,84.85c-.03-3.17.62-5.54,1.18-7.06,1.03-2.81,2.66-4.94,5.88-9.07,2.72-3.5,2.88-3.29,3.7-4.54,1.65-2.52,3.23-6.73,2.18-13.95"/>
  <path class="cls-2" d="m327.49,104.77c-1.5-2.01-2.78-4.49-3.2-7.4-.28-1.95-.08-3.52.24-5.3,1.11-6.32,1.67-9.48,4.67-15.88.67-1.41,1.31-3.12,1.83-5.17.32-1.22.6-2.56.82-4.04v-.04s.01-.03.01-.04c.28-1.86.49-3.93.57-6.26v-.02"/>
  <path class="cls-2" d="m343.71,71.26c-.82.73-1.38,1.44-1.78,2.04-1.14,1.73-1.26,3.05-2.53,8.06-.62,2.48-1.38,4.91-2.02,7.38-.73,2.82-2.28,6.9-5.62,13.03h0"/>
  <path class="cls-2" d="m268.51,89.59c4.58-4.72,8.38-8.46,11.03-11.03,3.09-2.99,6.01-6.17,9.22-9.02,3.17-2.81,5.18-4.33,7.02-7.42,1.59-2.68,2.28-5.25,2.61-7.02"/>
  <path class="cls-2" d="m243.85,90.19c2.94-1.5,6.96-3.65,11.63-6.42,4.72-2.8,9.21-5.47,13.84-9.02,4.14-3.18,9.74-8.12,15.44-15.44"/>
  <path class="cls-2" d="m263.5,68.53c3.84-5.67,6.4-10.59,8.02-14.04,2.65-5.63,2.45-6.55,6.42-15.24,3.21-7.03,4.82-10.55,6.22-12.43.72-.97,2.34-3.03,3.61-6.22.81-2.02,1.2-3.8,1.4-5.01"/>
  <path class="cls-2" d="m280.34,43.67c4.89-2.81,9.06-4.64,12.03-5.82,3.23-1.27,5.13-1.79,7.62-3.41,3.58-2.32,5.84-5.25,7.22-7.42"/>
  <path class="cls-2" d="m185.9,103.02c4.33-3.96,8.12-6.66,10.83-8.42,2.83-1.84,4.68-2.78,7.62-5.21,2.88-2.38,3.26-3.26,6.22-6.02.33-.31,4.6-4.26,9.63-7.42,4.85-3.05,7.64-3.63,12.23-5.61,7.25-3.13,12.01-6.75,17.65-11.03,4.72-3.59,11.65-8.93,18.45-17.85,2.8-3.68,4.84-6.99,6.22-9.42"/>
  <path class="cls-2" d="m232.82,90.99c3.11-4.21,6.82-8.77,11.23-13.44,4.86-5.15,9.64-9.46,14.04-13.03"/>
  <path class="cls-2" d="m189.51,107.23c2.97-.82,6.21-1.87,9.63-3.21,4.97-1.95,5.97-3.26,10.43-4.81,5-1.74,9.03-2.12,10.03-2.21,2.86-.24,7.22-.28,12.43,1"/>
  <path class="cls-2" d="m218.18,82.17c4.75-.6,9.49-1.2,14.24-1.8"/>
  <path class="cls-2" d="m176.56,84.61c-.83.85-1.6,1.67-2.35,2.45-1.52,1.61-3.39,3.61-6.56,4.56-1.4.41-2.76.53-4,.49h-.01"/>
  <path class="cls-2" d="m188.42,125.96c.13,2.5.12,5.37-.2,8.53-.45,4.52-1.39,8.4-2.38,11.51"/>
  <path class="cls-2" d="m192.98,123.58c-.12,1.41-.13,3.53.6,5.95,1.25,4.18,3.93,6.71,5.16,7.74"/>
  <path class="cls-2" d="m198.94,120.8c1,.43,2.77,1.35,4.37,3.18,1.38,1.58,2.05,3.18,2.38,4.17"/>
  <path class="cls-2" d="m229.1,114.64c.63.08,1.89.31,3.18,1.19,1.21.83,1.87,1.83,2.18,2.38"/>
  <g>
    <path class="cls-1" d="m140.9,236.96c-.38-1.39-1.04-2.48-1.98-3.26-.94-.78-2.12-1.17-3.56-1.17-1.1,0-2.05.23-2.84.68s-1.44,1.06-1.94,1.82c-.5.76-.88,1.61-1.12,2.56-.24.95-.36,1.9-.36,2.86s.11,1.94.34,2.88c.23.94.59,1.78,1.1,2.52s1.15,1.34,1.94,1.78,1.75.67,2.88.67c1.61,0,2.9-.44,3.87-1.33.97-.89,1.59-2.11,1.85-3.67h2.3c-.19,1.03-.5,1.97-.92,2.83-.42.85-.96,1.58-1.62,2.2-.66.61-1.45,1.09-2.36,1.42-.91.34-1.96.5-3.13.5-1.49,0-2.77-.25-3.85-.76-1.08-.5-1.97-1.19-2.66-2.07-.7-.88-1.21-1.91-1.55-3.11s-.5-2.48-.5-3.85c0-1.29.19-2.54.56-3.73.37-1.19.92-2.24,1.64-3.15.72-.91,1.61-1.64,2.68-2.18,1.07-.54,2.3-.81,3.69-.81,2.16,0,3.91.52,5.24,1.55s2.17,2.64,2.5,4.82h-2.2Z"/>
    <path class="cls-1" d="m156.28,238.87c.41-.05.89-.12,1.46-.21.56-.1,1.03-.23,1.39-.4s.58-.45.67-.85c.08-.4.13-.76.13-1.1,0-1.1-.35-2.01-1.06-2.72-.71-.71-1.9-1.06-3.58-1.06-.74,0-1.43.07-2.05.2-.62.13-1.17.36-1.64.68-.47.32-.85.76-1.15,1.3-.3.54-.5,1.22-.59,2.03h-2.2c.07-1.1.32-2.05.76-2.83.43-.78.99-1.42,1.67-1.91.68-.49,1.48-.85,2.38-1.08.9-.23,1.85-.34,2.86-.34.94,0,1.82.1,2.65.31s1.55.53,2.16.97c.61.45,1.09,1.04,1.44,1.78.35.74.52,1.66.52,2.74v10.15c0,.84.15,1.38.45,1.6.3.23.91.17,1.82-.16v1.69c-.17.05-.41.12-.74.22-.32.1-.64.14-.95.14-.34,0-.66-.04-.97-.11-.36-.05-.65-.16-.86-.34-.22-.18-.39-.4-.52-.65s-.22-.53-.27-.83c-.05-.3-.07-.62-.07-.95-.91,1.01-1.96,1.78-3.13,2.3-1.18.53-2.45.79-3.82.79-.82,0-1.6-.11-2.36-.32-.76-.22-1.42-.55-2-1.01-.58-.46-1.03-1.01-1.37-1.67-.34-.66-.5-1.45-.5-2.36,0-3.17,2.17-5.04,6.52-5.62l2.99-.4Zm3.64,1.08c-.91.38-1.84.64-2.77.76-.94.12-1.87.22-2.81.29-1.66.12-2.95.49-3.87,1.12-.92.62-1.39,1.57-1.39,2.84,0,.58.11,1.07.34,1.49s.53.77.9,1.04c.37.28.8.48,1.3.61.49.13.99.2,1.49.2.86,0,1.7-.11,2.52-.32.82-.22,1.54-.55,2.18-.99.64-.44,1.15-1.01,1.53-1.69.38-.68.58-1.49.58-2.43v-2.92Z"/>
    <path class="cls-1" d="m168.8,249.74v-3.17h2.63v3.17h-2.63Z"/>
    <path class="cls-1" d="m200.88,230.59c-.26-1.3-.79-2.33-1.58-3.11-.79-.78-1.87-1.17-3.24-1.17-1.56,0-2.79.37-3.69,1.12-.9.74-1.59,1.69-2.07,2.83-.48,1.14-.8,2.38-.97,3.73-.17,1.34-.3,2.62-.4,3.82.36-.48.74-.96,1.13-1.44.4-.48.85-.91,1.35-1.28.5-.37,1.09-.67,1.76-.9s1.48-.34,2.41-.34c2.57,0,4.55.73,5.96,2.18s2.11,3.45,2.11,5.99-.71,4.58-2.12,6.05-3.42,2.2-6.01,2.2c-1.27,0-2.45-.21-3.53-.63-1.08-.42-2.02-1.11-2.81-2.07s-1.42-2.21-1.87-3.76c-.46-1.55-.68-3.44-.68-5.67,0-1.51.13-3.08.4-4.7.26-1.62.74-3.1,1.42-4.45.68-1.34,1.62-2.45,2.81-3.31,1.19-.87,2.72-1.3,4.59-1.3,2.02,0,3.7.53,5.04,1.58,1.34,1.06,2.14,2.61,2.38,4.64h-2.38Zm-5.36,5.18c-.89,0-1.69.17-2.39.5-.71.34-1.31.79-1.8,1.37-.49.58-.87,1.24-1.13,2-.26.76-.4,1.57-.4,2.43,0,.72.1,1.45.31,2.18.2.73.54,1.4,1.01,2s1.06,1.09,1.78,1.48c.72.38,1.61.58,2.66.58s1.99-.19,2.72-.56c.73-.37,1.33-.86,1.78-1.48.46-.61.79-1.3.99-2.05.2-.76.31-1.52.31-2.29,0-1.97-.47-3.49-1.42-4.55-.95-1.07-2.42-1.6-4.41-1.6Z"/>
    <path class="cls-1" d="m220.9,230.59c-.26-1.3-.79-2.33-1.58-3.11-.79-.78-1.87-1.17-3.24-1.17-1.56,0-2.79.37-3.69,1.12-.9.74-1.59,1.69-2.07,2.83-.48,1.14-.8,2.38-.97,3.73-.17,1.34-.3,2.62-.4,3.82.36-.48.74-.96,1.13-1.44.4-.48.85-.91,1.35-1.28.5-.37,1.09-.67,1.76-.9s1.48-.34,2.41-.34c2.57,0,4.55.73,5.96,2.18s2.11,3.45,2.11,5.99-.71,4.58-2.12,6.05-3.42,2.2-6.01,2.2c-1.27,0-2.45-.21-3.53-.63-1.08-.42-2.02-1.11-2.81-2.07s-1.42-2.21-1.87-3.76c-.46-1.55-.68-3.44-.68-5.67,0-1.51.13-3.08.4-4.7.26-1.62.74-3.1,1.42-4.45.68-1.34,1.62-2.45,2.81-3.31,1.19-.87,2.72-1.3,4.59-1.3,2.02,0,3.7.53,5.04,1.58,1.34,1.06,2.14,2.61,2.38,4.64h-2.38Zm-5.36,5.18c-.89,0-1.69.17-2.39.5-.71.34-1.31.79-1.8,1.37-.49.58-.87,1.24-1.13,2-.26.76-.4,1.57-.4,2.43,0,.72.1,1.45.31,2.18.2.73.54,1.4,1.01,2s1.06,1.09,1.78,1.48c.72.38,1.61.58,2.66.58s1.99-.19,2.72-.56c.73-.37,1.33-.86,1.78-1.48.46-.61.79-1.3.99-2.05.2-.76.31-1.52.31-2.29,0-1.97-.47-3.49-1.42-4.55-.95-1.07-2.42-1.6-4.41-1.6Z"/>
    <path class="cls-1" d="m227.3,224.61h16.16v2.16c-1.82,2.06-3.37,4.18-4.64,6.35-1.27,2.17-2.32,4.28-3.13,6.34-.82,2.05-1.42,3.97-1.82,5.74-.4,1.78-.63,3.29-.7,4.54h-2.52c.12-1.82.49-3.76,1.1-5.81.61-2.05,1.37-4.09,2.29-6.1.91-2.02,1.94-3.97,3.1-5.85,1.15-1.88,2.34-3.57,3.56-5.06h-13.39v-2.3Z"/>
    <path class="cls-1" d="m264.35,249.81c-.26.05-.61.13-1.04.25-.43.12-.91.18-1.44.18-1.08,0-1.9-.27-2.47-.81s-.85-1.51-.85-2.9v-13.64h-2.63v-1.8h2.63v-5.18h2.16v5.18h3.49v1.8h-3.49v12.78c0,.46.01.85.04,1.19.02.34.1.61.22.83.12.22.31.37.56.47s.61.14,1.06.14c.29,0,.58-.02.88-.07.3-.05.59-.11.88-.18v1.76Z"/>
    <path class="cls-1" d="m275.22,250.24c-1.2-.02-2.32-.24-3.37-.65s-1.96-1.02-2.74-1.84c-.78-.82-1.4-1.84-1.85-3.06-.46-1.22-.68-2.65-.68-4.28,0-1.37.18-2.65.54-3.83.36-1.19.9-2.23,1.62-3.11.72-.89,1.62-1.59,2.7-2.11,1.08-.52,2.34-.77,3.78-.77s2.74.26,3.82.77c1.08.52,1.98,1.21,2.7,2.09.72.88,1.25,1.91,1.6,3.12.35,1.2.52,2.48.52,3.85,0,1.49-.2,2.83-.61,4.03-.41,1.2-.99,2.23-1.75,3.1s-1.67,1.53-2.74,2c-1.07.47-2.25.7-3.55.7Zm6.34-9.83c0-1.1-.12-2.14-.36-3.1-.24-.96-.61-1.79-1.12-2.5-.5-.71-1.15-1.27-1.94-1.67-.79-.41-1.76-.61-2.92-.61s-2.09.22-2.9.67c-.8.45-1.46,1.03-1.96,1.76-.5.73-.88,1.57-1.12,2.52-.24.95-.36,1.93-.36,2.93,0,1.15.14,2.21.41,3.19.28.97.68,1.81,1.21,2.5.53.7,1.19,1.24,1.98,1.62s1.7.58,2.74.58c1.13,0,2.09-.22,2.9-.67s1.46-1.04,1.96-1.78c.5-.74.88-1.58,1.12-2.52.24-.94.36-1.91.36-2.92Z"/>
    <path class="cls-1" d="m289.98,249.74h-2.16v-18.65h2.16v2.59c.86-.91,1.76-1.66,2.68-2.23.92-.58,2.03-.86,3.33-.86,1.15,0,2.22.2,3.2.59.98.4,1.81,1.09,2.48,2.07.46.67.73,1.36.81,2.07.08.71.13,1.45.13,2.21v12.21h-2.16v-12.17c0-1.68-.37-2.94-1.12-3.78-.74-.84-1.98-1.26-3.71-1.26-.67,0-1.28.1-1.84.31-.55.2-1.05.47-1.49.81-.44.34-.82.72-1.13,1.15-.31.43-.55.89-.72,1.37-.22.6-.35,1.18-.4,1.73-.05.55-.07,1.15-.07,1.8v10.04Z"/>
    <path class="cls-1" d="m309.1,243.91c.34,1.61.94,2.74,1.82,3.4.88.66,2.13.99,3.76.99.79,0,1.48-.1,2.05-.29.58-.19,1.05-.45,1.42-.77.37-.32.65-.69.85-1.1.19-.41.29-.84.29-1.3,0-.91-.29-1.59-.88-2.03-.59-.44-1.33-.79-2.21-1.04-.89-.25-1.85-.47-2.88-.65-1.03-.18-1.99-.45-2.88-.81-.89-.36-1.63-.88-2.21-1.55-.59-.67-.88-1.62-.88-2.84,0-1.56.57-2.84,1.71-3.83,1.14-1,2.75-1.49,4.84-1.49s3.65.45,4.91,1.35c1.26.9,2.02,2.41,2.29,4.52h-2.2c-.19-1.44-.74-2.45-1.64-3.04s-2.03-.88-3.4-.88-2.41.29-3.13.88c-.72.59-1.08,1.36-1.08,2.32,0,.84.29,1.48.88,1.93.59.44,1.33.8,2.21,1.08.89.28,1.85.52,2.88.74,1.03.21,1.99.52,2.88.92.89.4,1.63.93,2.21,1.6.59.67.88,1.61.88,2.81,0,.89-.19,1.67-.58,2.36-.38.68-.91,1.25-1.58,1.71-.67.46-1.47.8-2.39,1.03-.92.23-1.94.34-3.04.34s-2.08-.16-2.93-.49c-.85-.32-1.58-.77-2.18-1.35-.6-.58-1.07-1.25-1.4-2.02-.34-.77-.53-1.6-.58-2.48h2.2Z"/>
  </g>
  <g>
    <path class="cls-1" d="m146.34,285.58h-1.26v-10.88h1.26v1.51c.5-.53,1.03-.97,1.56-1.3s1.19-.5,1.94-.5c.67,0,1.29.12,1.87.35.57.23,1.06.63,1.45,1.21.27.39.42.79.47,1.21.05.41.07.84.07,1.29v7.12h-1.26v-7.1c0-.98-.22-1.71-.65-2.21-.43-.49-1.16-.73-2.16-.73-.39,0-.75.06-1.07.18s-.61.28-.87.47c-.26.2-.48.42-.66.67-.18.25-.32.52-.42.8-.13.35-.2.69-.23,1.01-.03.32-.04.67-.04,1.05v5.86Z"/>
    <path class="cls-1" d="m156.67,288.52c.17.03.34.06.51.08s.35.04.54.04c.35,0,.64-.11.86-.33s.41-.49.56-.81c.15-.31.27-.64.37-.99.1-.34.21-.63.34-.87l-4.22-10.95h1.41l3.49,9.34,3.49-9.34h1.37l-4.05,10.73c-.25.69-.49,1.3-.72,1.85-.23.55-.48,1.01-.74,1.4-.26.38-.55.68-.86.88-.32.2-.69.3-1.12.3-.22,0-.44-.01-.64-.04-.2-.03-.39-.06-.56-.11v-1.2Z"/>
    <path class="cls-1" d="m174.5,289.87h-1.26v-15.16h1.26v1.91h.04c.18-.35.42-.67.7-.95s.6-.51.95-.69c.34-.18.7-.32,1.06-.42.36-.1.72-.15,1.07-.15.88,0,1.63.15,2.25.44s1.12.7,1.52,1.21c.4.51.69,1.12.87,1.82.18.7.27,1.45.27,2.25,0,.76-.1,1.48-.29,2.18s-.49,1.31-.89,1.84c-.4.52-.9.94-1.51,1.26-.61.32-1.33.47-2.15.47-.77,0-1.51-.17-2.22-.51s-1.26-.85-1.67-1.52v6.03Zm0-9.68c0,.62.08,1.2.25,1.75s.41,1.04.72,1.45c.31.41.7.74,1.15.99.46.25.97.37,1.54.37.64,0,1.21-.13,1.69-.39s.88-.61,1.19-1.06.53-.97.67-1.56.2-1.24.17-1.92c0-.69-.09-1.29-.28-1.82-.19-.53-.45-.97-.79-1.33-.34-.36-.73-.64-1.18-.83-.45-.19-.94-.28-1.47-.28-.59,0-1.11.12-1.58.36-.46.24-.85.56-1.16.98-.31.41-.54.9-.7,1.47-.16.57-.24,1.18-.24,1.84Z"/>
    <path class="cls-1" d="m187.24,285.58h-1.26v-10.88h1.26v2.04h.04c.35-.87.8-1.47,1.35-1.82.55-.34,1.28-.51,2.19-.51v1.36c-.71-.01-1.3.1-1.76.34-.46.24-.83.56-1.1.97-.27.41-.46.88-.57,1.44-.11.55-.16,1.13-.16,1.73v5.33Z"/>
    <path class="cls-1" d="m197.24,285.88c-.7-.01-1.35-.14-1.96-.38-.61-.24-1.14-.59-1.6-1.07-.46-.48-.82-1.07-1.08-1.79-.27-.71-.4-1.55-.4-2.5,0-.8.11-1.54.32-2.24s.53-1.3.95-1.82.94-.93,1.57-1.23c.63-.3,1.37-.45,2.21-.45s1.6.15,2.23.45,1.16.71,1.58,1.22c.42.51.73,1.12.93,1.82.2.7.3,1.45.3,2.25,0,.87-.12,1.65-.36,2.35-.24.7-.58,1.3-1.02,1.81-.44.5-.97.89-1.6,1.17-.62.27-1.31.41-2.07.41Zm3.7-5.73c0-.64-.07-1.25-.21-1.81s-.36-1.05-.65-1.46c-.29-.41-.67-.74-1.13-.98-.46-.24-1.03-.36-1.7-.36s-1.22.13-1.69.39-.85.6-1.14,1.03c-.29.43-.51.92-.65,1.47-.14.55-.21,1.12-.21,1.71,0,.67.08,1.29.24,1.86.16.57.4,1.05.7,1.46.31.41.69.72,1.16.95.46.22.99.34,1.6.34.66,0,1.22-.13,1.69-.39.47-.26.85-.61,1.14-1.04.29-.43.51-.92.65-1.47s.21-1.11.21-1.7Z"/>
    <path class="cls-1" d="m212.99,270.46h1.26v15.12h-1.26v-1.91h-.04c-.18.36-.42.68-.7.96-.29.27-.6.5-.95.68-.34.18-.7.32-1.06.42s-.72.15-1.07.15c-.88,0-1.63-.15-2.25-.44s-1.12-.7-1.52-1.21c-.4-.51-.69-1.12-.87-1.82s-.27-1.45-.27-2.25c0-.76.1-1.48.29-2.18.2-.7.49-1.31.89-1.84.4-.53.9-.95,1.51-1.26.61-.31,1.33-.47,2.15-.47.77,0,1.51.17,2.22.51.71.34,1.26.85,1.67,1.52v-5.99Zm0,9.64c0-.62-.08-1.2-.25-1.75-.17-.55-.41-1.04-.72-1.45-.31-.41-.7-.74-1.16-.99-.46-.24-.97-.37-1.54-.37-.66,0-1.23.13-1.7.39s-.87.61-1.18,1.06c-.31.45-.53.97-.67,1.56-.14.59-.2,1.24-.17,1.92,0,.69.09,1.29.28,1.82.19.53.45.97.79,1.33s.73.64,1.18.83c.45.19.94.28,1.47.28.59,0,1.11-.12,1.58-.36s.85-.56,1.15-.98c.31-.41.54-.9.7-1.47.16-.57.24-1.18.24-1.84Z"/>
    <path class="cls-1" d="m224.79,274.7h1.26v10.88h-1.26v-1.51c-.17.2-.36.4-.57.61s-.45.4-.72.58c-.27.18-.59.32-.96.44-.36.12-.79.18-1.26.18-.73,0-1.34-.1-1.83-.3s-.88-.49-1.19-.85c-.3-.36-.52-.79-.65-1.27-.13-.48-.2-1.01-.2-1.58v-7.16h1.26v7.14c0,.94.22,1.66.65,2.15.43.5,1.15.75,2.14.75.52,0,.98-.1,1.4-.3s.76-.49,1.04-.85.5-.8.65-1.3c.15-.5.23-1.06.23-1.66v-5.92Z"/>
    <path class="cls-1" d="m236.8,278.13c-.22-.81-.61-1.45-1.16-1.9s-1.24-.68-2.08-.68c-.64,0-1.2.13-1.66.4-.46.27-.84.62-1.13,1.06-.29.44-.51.94-.65,1.49-.14.55-.21,1.11-.21,1.67s.07,1.13.2,1.68c.13.55.35,1.04.64,1.47.29.43.67.78,1.13,1.04.46.26,1.02.39,1.68.39.94,0,1.69-.26,2.26-.78.57-.52.93-1.23,1.08-2.14h1.34c-.11.6-.29,1.15-.54,1.65s-.56.92-.95,1.28c-.38.36-.84.63-1.38.83-.53.2-1.14.29-1.83.29-.87,0-1.62-.15-2.25-.44s-1.15-.7-1.55-1.21c-.41-.51-.71-1.12-.9-1.82s-.29-1.45-.29-2.25c0-.76.11-1.48.33-2.17s.54-1.31.96-1.84c.42-.53.94-.96,1.56-1.27.62-.31,1.34-.47,2.15-.47,1.26,0,2.28.3,3.06.9.78.6,1.26,1.54,1.46,2.81h-1.28Z"/>
    <path class="cls-1" d="m241.55,280.44c0,.59.08,1.14.23,1.67.15.52.38.98.68,1.37.3.38.68.69,1.14.92.46.23.99.35,1.6.35.83,0,1.53-.22,2.12-.65s.98-1.05,1.18-1.85h1.41c-.15.52-.36,1-.61,1.44-.25.44-.57.83-.95,1.15-.38.33-.83.58-1.34.77s-1.12.27-1.81.27c-.87,0-1.62-.15-2.25-.44s-1.15-.7-1.55-1.21c-.41-.51-.71-1.11-.9-1.81-.2-.69-.29-1.44-.29-2.24s.12-1.55.35-2.25c.23-.7.56-1.31.99-1.84.43-.53.95-.94,1.56-1.24s1.32-.45,2.1-.45c1.5,0,2.67.51,3.53,1.54.85,1.03,1.27,2.52,1.26,4.48h-8.44Zm7.1-1.05c0-.53-.07-1.03-.22-1.5-.15-.47-.36-.88-.65-1.22-.29-.34-.65-.62-1.08-.82-.43-.2-.93-.3-1.49-.3s-1.05.1-1.48.31c-.43.21-.79.49-1.09.84-.3.35-.54.76-.72,1.22-.18.46-.3.95-.36,1.47h7.1Z"/>
    <path class="cls-1" d="m253.77,285.58h-1.26v-10.88h1.26v2.04h.04c.35-.87.8-1.47,1.35-1.82.55-.34,1.28-.51,2.19-.51v1.36c-.71-.01-1.3.1-1.76.34-.46.24-.83.56-1.1.97-.27.41-.46.88-.57,1.44-.1.55-.16,1.13-.16,1.73v5.33Z"/>
    <path class="cls-1" d="m260.22,280.44c0,.59.08,1.14.23,1.67.15.52.38.98.68,1.37.3.38.68.69,1.14.92.46.23.99.35,1.6.35.83,0,1.53-.22,2.12-.65s.98-1.05,1.18-1.85h1.41c-.15.52-.36,1-.61,1.44-.25.44-.57.83-.95,1.15-.38.33-.83.58-1.34.77s-1.12.27-1.81.27c-.87,0-1.62-.15-2.25-.44s-1.15-.7-1.55-1.21c-.41-.51-.71-1.11-.9-1.81-.2-.69-.29-1.44-.29-2.24s.12-1.55.35-2.25c.23-.7.56-1.31.99-1.84.43-.53.95-.94,1.56-1.24s1.32-.45,2.1-.45c1.5,0,2.67.51,3.53,1.54.85,1.03,1.27,2.52,1.26,4.48h-8.44Zm7.1-1.05c0-.53-.07-1.03-.22-1.5-.15-.47-.36-.88-.65-1.22-.29-.34-.65-.62-1.08-.82-.43-.2-.93-.3-1.49-.3s-1.05.1-1.48.31c-.43.21-.79.49-1.09.84-.3.35-.54.76-.72,1.22-.18.46-.3.95-.36,1.47h7.1Z"/>
    <path class="cls-1" d="m274.94,285.62c-.15.03-.36.08-.61.15s-.53.11-.84.11c-.63,0-1.11-.16-1.44-.47s-.49-.88-.49-1.69v-7.96h-1.53v-1.05h1.53v-3.02h1.26v3.02h2.04v1.05h-2.04v7.46c0,.27,0,.5.02.69.01.2.06.36.13.48s.18.22.33.27c.15.06.35.08.62.08.17,0,.34-.01.51-.04.17-.03.35-.06.51-.11v1.03Z"/>
    <path class="cls-1" d="m286.62,285.62c-.15.03-.36.08-.61.15s-.53.11-.84.11c-.63,0-1.11-.16-1.44-.47s-.49-.88-.49-1.69v-7.96h-1.53v-1.05h1.53v-3.02h1.26v3.02h2.04v1.05h-2.04v7.46c0,.27,0,.5.02.69.01.2.06.36.13.48s.18.22.33.27c.15.06.35.08.62.08.17,0,.34-.01.51-.04.17-.03.35-.06.51-.11v1.03Z"/>
    <path class="cls-1" d="m288.61,286.06l-.76-.61,1.22-1.43c-.39-.52-.68-1.11-.85-1.76-.18-.66-.26-1.36-.26-2.1,0-.8.1-1.54.31-2.24.21-.69.53-1.3.95-1.83.42-.53.95-.94,1.58-1.24s1.37-.45,2.21-.45c.67,0,1.28.09,1.82.28.54.19,1.01.47,1.42.83l1.09-1.3.73.65-1.15,1.36c.38.5.66,1.09.85,1.76.19.67.28,1.39.28,2.16,0,.84-.11,1.61-.34,2.31-.22.7-.55,1.3-.98,1.81-.43.5-.96.9-1.59,1.18-.63.28-1.34.42-2.14.42s-1.45-.12-1.98-.37c-.54-.24-.96-.51-1.27-.79l-1.13,1.34Zm6.8-9.58c-.2-.22-.49-.44-.88-.64-.39-.2-.9-.3-1.53-.3s-1.22.13-1.69.39c-.47.26-.85.61-1.14,1.04-.29.43-.51.93-.65,1.48-.14.55-.21,1.12-.21,1.71,0,.66.06,1.22.19,1.69s.28.84.46,1.12l5.46-6.49Zm-4.89,7.31c.32.32.7.56,1.14.71.44.15.89.23,1.33.23.66,0,1.22-.13,1.69-.39.47-.26.85-.6,1.14-1.03.29-.43.51-.91.65-1.46.14-.55.21-1.11.21-1.7,0-.53-.05-1.05-.14-1.55-.09-.5-.26-.96-.51-1.36l-5.52,6.55Z"/>
    <path class="cls-1" d="m301.9,274.7v12.33c0,.46-.02.87-.06,1.22-.04.35-.14.65-.28.89-.15.24-.36.43-.65.55-.29.12-.68.18-1.19.18-.31,0-.58-.03-.82-.08v-1.11c.36.04.66.04.88.01.22-.04.4-.12.53-.24s.21-.29.26-.5.07-.46.07-.73v-12.5h1.26Zm.06-2.37h-1.39v-1.87h1.39v1.87Z"/>
  </g>
</svg>