<svg width="2436" height="1475" viewBox="0 0 2436 1475" fill="none" xmlns="http://www.w3.org/2000/svg">
<g clip-path="url(#clip0_311_74)">
<path d="M1047.23 -5.62999C1131.1 26.06 1212.94 63.05 1292.09 105.17C1369.23 146.23 1444.82 191.64 1515.66 242.89C1575.52 286.19 1636.79 340.29 1662.82 411.54C1690.32 486.83 1663.34 568.86 1611.22 626.66C1557.46 686.28 1477.37 721.85 1396.77 716.72L1397.98 718.3C1411.79 628.28 1515.42 585.62 1597.16 602.05C1644.13 611.49 1682.3 641.25 1706.19 682.47C1732.26 727.45 1739.53 781.7 1732.32 832.73C1728.66 858.62 1721.27 884.05 1710.28 907.79C1697.93 934.46 1680.56 957.48 1661.68 979.84C1641.97 1003.18 1621.46 1026.26 1607.36 1053.59C1595.72 1076.14 1588.22 1100.71 1584.74 1125.82C1577.62 1177.16 1587.17 1230.97 1612.4 1276.33C1636.45 1319.56 1674.72 1350.64 1717.19 1374.76C1759.37 1398.71 1804.65 1416.43 1848.1 1437.84C1891.55 1459.25 1932.15 1483.42 1960.91 1521.38C1967.9 1530.61 1973.93 1540.48 1979.1 1550.84C1979.82 1552.28 1981.98 1551.01 1981.26 1549.58C1936.97 1460.86 1833.4 1430.43 1750.7 1389.6C1705.25 1367.16 1660.09 1339.89 1629.54 1298.43C1596.12 1253.07 1581.19 1195.21 1585.75 1139.28C1588.08 1110.72 1595.62 1082.47 1608.5 1056.85C1623.19 1027.63 1645.21 1003.34 1666.08 978.48C1684.14 956.97 1700.59 934.65 1712.43 909.06C1723.22 885.76 1730.61 860.9 1734.41 835.51C1748.21 743.36 1710.65 633.18 1613.96 603.71C1537.99 580.56 1436.42 610.25 1403.84 687.86C1399.83 697.42 1397.13 707.4 1395.56 717.64C1395.43 718.47 1395.89 719.17 1396.77 719.22C1468.24 723.77 1539.38 696.52 1592.41 648.94C1647.58 599.44 1686.24 523.32 1674.79 447.91C1663.34 372.5 1606.91 312.12 1549.84 265.87C1517.31 239.51 1482.35 216.2 1447.23 193.48C1408.36 168.33 1368.65 144.48 1328.2 121.96C1238.11 71.81 1144.34 28.38 1047.89 -8.05999C1046.38 -8.62999 1045.73 -6.20999 1047.23 -5.64999V-5.62999Z" fill="#D55845"/>
</g>
<rect x="0.5" y="0.5" width="2435" height="1473.58" stroke="black"/>
<defs>
<clipPath id="clip0_311_74">
<rect width="2436" height="1474.58" fill="white"/>
</clipPath>
</defs>
</svg>
