<svg width="2436" height="1125" viewBox="0 0 2436 1125" fill="none" xmlns="http://www.w3.org/2000/svg">
<g clip-path="url(#clip0_311_46)">
<path d="M82.9647 967.811L88.1478 962.628C91.3227 959.453 96.4704 959.453 99.6453 962.628L178.983 1041.97C182.158 1045.14 182.158 1050.29 178.983 1053.46L173.8 1058.65C170.625 1061.82 165.477 1061.82 162.302 1058.65L82.9647 979.309C79.7897 976.134 79.7897 970.986 82.9647 967.811Z" stroke="black"/>
<path d="M176.397 882.271L181.213 877.456C184.388 874.281 189.535 874.281 192.71 877.456L272.048 956.793C275.223 959.968 275.223 965.116 272.048 968.291L267.232 973.106C264.057 976.281 258.91 976.281 255.735 973.106L176.397 893.769C173.222 890.594 173.222 885.446 176.397 882.271Z" stroke="black"/>
<path d="M111 973.28L182.5 900.58" stroke="#664438" stroke-miterlimit="10"/>
<path d="M172.88 1035.16L244.54 962.62" stroke="#664438" stroke-miterlimit="10"/>
<path d="M113.7 969.76C120.08 978.42 128.42 985.21 136.74 991.92C146 999.4 155.19 1006.96 164.58 1014.27C169.72 1018.27 174.93 1022.19 180.27 1025.9C181.59 1026.82 182.85 1024.65 181.53 1023.74C172.08 1017.17 163.08 1009.99 154.12 1002.76C145.42 995.74 136.49 988.91 128.12 981.5C123.65 977.54 119.41 973.3 115.86 968.49C114.92 967.21 112.74 968.45 113.7 969.75V969.76Z" fill="#D55845"/>
<path d="M122.42 963.25C128.8 971.91 137.14 978.7 145.46 985.41C154.72 992.89 163.91 1000.45 173.3 1007.76C178.44 1011.76 183.65 1015.68 188.99 1019.39C190.31 1020.31 191.57 1018.14 190.25 1017.23C180.8 1010.66 171.8 1003.48 162.84 996.25C153.88 989.02 145.21 982.4 136.84 974.99C132.37 971.03 128.13 966.79 124.58 961.98C123.64 960.7 121.46 961.94 122.42 963.24V963.25Z" fill="#D55845"/>
<path d="M174.57 909.71C180.95 918.37 189.29 925.16 197.61 931.87C206.87 939.35 216.06 946.91 225.45 954.22C230.59 958.22 235.8 962.14 241.14 965.85C242.46 966.77 243.72 964.6 242.4 963.69C232.95 957.12 223.95 949.94 214.99 942.71C206.03 935.48 197.36 928.86 188.99 921.45C184.52 917.49 180.28 913.25 176.73 908.44C175.79 907.16 173.61 908.4 174.57 909.7V909.71Z" fill="#D55845"/>
<path d="M161.07 923.11C167.45 931.77 175.79 938.56 184.11 945.27C193.37 952.75 202.56 960.31 211.95 967.62C217.09 971.62 222.3 975.54 227.64 979.25C228.96 980.17 230.22 978 228.9 977.09C219.45 970.52 210.45 963.34 201.49 956.11C192.79 949.09 183.86 942.26 175.49 934.85C171.02 930.89 166.78 926.65 163.23 921.84C162.29 920.56 160.11 921.8 161.07 923.1V923.11Z" fill="#D55845"/>
<path d="M177.71 906.12C179.08 911.24 182.52 915.3 185.77 919.35C189.36 923.84 192.06 928.78 194.82 933.8C197.58 938.82 200.96 943.89 205.13 948.22C209.19 952.44 213.63 956.34 218.02 960.21C223.08 964.67 228.36 968.91 234.22 972.28C235.62 973.08 236.88 970.92 235.48 970.12C230.39 967.2 225.76 963.62 221.33 959.79C216.9 955.96 212.61 952.12 208.48 948.05C204.35 943.98 200.93 939.54 198.07 934.49C195.27 929.55 192.79 924.41 189.34 919.87C185.89 915.33 181.64 911.09 180.13 905.45C179.71 903.9 177.3 904.56 177.72 906.11L177.71 906.12Z" fill="#D55845"/>
<path d="M156.77 927.21C160.86 931.82 165.46 935.91 170.05 940C174.35 943.83 178.65 947.66 183.05 951.38C191.66 958.67 200.63 965.62 210.39 971.31C215.9 974.52 221.67 977.29 227.65 979.51C229.16 980.07 229.81 977.65 228.31 977.1C207.12 969.25 189.74 954.2 173.1 939.37C168.08 934.9 163 930.47 158.54 925.43C157.47 924.22 155.71 926 156.77 927.2V927.21Z" fill="#D55845"/>
<path d="M117.7 967.55C126.14 975.56 136.91 980.61 147.23 985.74C158.18 991.18 169.31 996.29 180.7 1000.73C187.18 1003.25 193.75 1005.55 200.41 1007.55C201.95 1008.02 202.61 1005.6 201.07 1005.14C189.5 1001.65 178.21 997.29 167.16 992.39C156.34 987.59 145.59 982.44 135.21 976.75C129.58 973.67 124.14 970.21 119.46 965.78C118.29 964.67 116.52 966.44 117.69 967.55H117.7Z" fill="#D55845"/>
<path d="M131.67 954.5C145.69 972.31 161.87 988.41 179.92 1002.13C184.9 1005.92 190.03 1009.52 195.28 1012.92C196.63 1013.8 197.89 1011.63 196.54 1010.76C177.88 998.66 160.92 984.05 145.98 967.58C141.62 962.78 137.44 957.82 133.43 952.72C132.44 951.46 130.68 953.24 131.66 954.49L131.67 954.5Z" fill="#D55845"/>
<path d="M142.77 941.7C157.9 960.12 174.11 979.09 197.38 987.07C203.66 989.22 210.27 990.43 216.92 990.46C218.53 990.46 218.53 987.97 216.92 987.96C205.35 987.9 194.17 984.09 184.28 978.23C174.07 972.18 165.39 963.98 157.49 955.21C153.02 950.25 148.78 945.09 144.55 939.94C143.53 938.7 141.77 940.47 142.78 941.71L142.77 941.7Z" fill="#D55845"/>
<path d="M136.22 948.21C143.93 957.33 152.28 965.9 161.24 973.79C165.54 977.58 169.98 981.21 174.54 984.68C179.1 988.15 183.92 991.7 189.01 994.57C194.51 997.66 200.51 999.93 206.88 1000.13C208.49 1000.18 208.49 997.68 206.88 997.63C195.62 997.27 185.87 990.09 177.21 983.59C168.04 976.71 159.39 969.14 151.32 961C146.68 956.33 142.24 951.46 137.99 946.43C136.95 945.2 135.19 946.98 136.22 948.2V948.21Z" fill="#D55845"/>
<path d="M151.12 932.28C170.44 947.3 191.35 961.4 215.09 968.26C221.71 970.17 228.5 971.46 235.37 972.05C236.97 972.19 236.96 969.69 235.37 969.55C211.23 967.46 189.14 956.17 169.44 942.67C163.79 938.8 158.29 934.72 152.89 930.51C151.63 929.53 149.85 931.29 151.12 932.28Z" fill="#D55845"/>
<path d="M125.81 960.32C145.22 975.81 168.2 986.69 192.5 991.85C199.39 993.31 206.37 994.31 213.39 994.85C214.99 994.97 214.99 992.47 213.39 992.35C189.14 990.47 165.41 982.83 144.55 970.33C138.64 966.79 132.96 962.85 127.58 958.56C126.33 957.57 124.55 959.32 125.81 960.33V960.32Z" fill="#D55845"/>
<path d="M150.8 931.73C155 943.32 163.53 952.8 172.36 961.15C181.41 969.71 191.84 977.15 203.92 980.66C210.81 982.66 218.03 983.29 225.13 982.22C226.72 981.98 226.04 979.57 224.47 979.81C212.31 981.65 199.98 977.86 189.65 971.54C179.32 965.22 170.68 956.89 163.2 947.83C159.05 942.8 155.44 937.23 153.21 931.07C152.67 929.57 150.25 930.22 150.8 931.73Z" fill="#D55845"/>
<path d="M7.33004 898.47C23.99 904.03 41.17 907.91 58.6 910.07C62.66 910.57 66.85 911.25 70.95 911.12C74.4 911.01 77.94 910.01 80.24 907.28C84.14 902.64 83.65 895.42 80.28 890.65C78.2 887.7 75.32 885.46 72.16 883.75C69.21 882.16 65.8 880.58 62.44 880.14C59.08 879.7 55.94 881.19 55.52 884.82C55.32 886.53 55.7 888.29 56.05 889.96C56.43 891.76 56.91 893.54 57.5 895.28C62.27 909.48 73.09 920.88 85.97 928.19C92.85 932.09 100.32 934.94 107.96 936.95C115.6 938.96 123.53 939.58 130.88 942.36C132.76 943.07 134.55 943.98 136.25 945.06C137.61 945.93 138.87 943.76 137.51 942.9C131.34 938.97 124.06 937.78 117 936.42C109.82 935.04 102.75 933.12 95.98 930.31C83.05 924.94 71.37 916.16 64.2 903.97C62.49 901.06 61.05 898 59.96 894.8C59.41 893.18 58.95 891.54 58.58 889.87C58.23 888.31 57.78 886.59 58.01 884.98C58.93 878.52 72.13 886.35 74.55 888.24C79.13 891.81 82.17 897.97 79.59 903.66C76.47 910.56 67.15 908.54 61.2 907.86C45.09 906.02 29.15 902.65 13.66 897.86C11.77 897.27 9.88004 896.66 8.00004 896.04C6.47004 895.53 5.81004 897.94 7.34004 898.45L7.33004 898.47Z" fill="#D55845"/>
<path d="M224.42 983.3C290.97 1009.05 359.98 1030.36 431.2 1037.91C466.67 1041.67 502.6 1041.89 537.99 1037.2C553.95 1035.09 570.02 1032.25 585.51 1027.78C598.3 1024.09 611.42 1018.64 620.24 1008.25C626.62 1000.74 629.56 990.71 628.25 980.92C627.38 974.45 622.38 961.51 614.26 960.74C606.73 960.03 597.86 972.97 595.14 978.6C590.7 987.78 589.42 998.42 591.02 1008.45C595.34 1035.7 620.71 1053.08 644.21 1063.32C673.96 1076.29 706.62 1082.79 739.03 1083.16C771.44 1083.53 806.26 1076.97 837.5 1064.14C868.16 1051.55 896.45 1034.1 925.25 1017.88C985.88 983.74 1051 961.78 1119.53 950.09C1188.35 938.35 1258.4 935.91 1328.1 936.28C1362.65 936.46 1397.21 937.29 1431.74 938.3C1466.27 939.31 1504.18 941.21 1538.86 951.61C1573.48 962 1603.16 982.47 1633.38 1001.6C1665.04 1021.64 1697.15 1040.96 1729.56 1059.76C1794.41 1097.38 1860.45 1132.89 1926.69 1167.98C1943.01 1176.62 1959.33 1185.24 1975.66 1193.85C1977.08 1194.6 1978.35 1192.44 1976.92 1191.69C1852.94 1126.27 1730 1059.73 1611.52 984.69C1584.15 967.36 1556.19 952.52 1524.41 945.2C1493.54 938.08 1461.71 936.65 1430.16 935.74C1365.72 933.89 1301.14 932.37 1236.72 935.45C1174.05 938.45 1111.25 945.93 1050.69 962.8C1020.85 971.11 991.64 981.73 963.62 994.96C934.22 1008.85 906.67 1026.15 878.14 1041.66C849.2 1057.4 819.06 1070.69 786.5 1076.65C752.68 1082.84 717.53 1081.87 684.1 1073.88C654.39 1066.78 619.3 1054.64 601.49 1028.03C593.74 1016.46 590.99 1002.28 594.22 988.69C596.4 979.53 608.54 956.03 619.64 967.43C630.64 978.73 626.51 998.01 616.73 1008.41C606.11 1019.7 590.11 1024.28 575.51 1027.76C541.9 1035.77 507.26 1038.85 472.75 1038.09C404.27 1036.57 336.86 1020.18 272.31 998.13C256.45 992.71 240.73 986.91 225.1 980.86C223.6 980.28 222.95 982.7 224.44 983.27L224.42 983.3Z" fill="#D55845"/>
</g>
<rect x="0.5" y="0.5" width="2435" height="1124" stroke="black"/>
<defs>
<clipPath id="clip0_311_46">
<rect width="2436" height="1125" fill="white"/>
</clipPath>
</defs>
</svg>
