<svg width="2436" height="1475" viewBox="0 0 2436 1475" fill="none" xmlns="http://www.w3.org/2000/svg">
<g clip-path="url(#clip0_311_79)">
<path d="M1775.33 -1.26007C1762.5 28.3199 1759.06 60.7999 1764.24 92.5499C1769.58 125.27 1783.5 156.3 1802.24 183.5C1821.57 211.55 1846.19 235.97 1874.27 255.24C1905.96 276.99 1942.26 290.91 1979.48 299.9C2063.45 320.19 2150.98 314.77 2236.38 309.61C2247.12 308.96 2257.87 308.2 2268.62 307.73C2279.49 307.26 2290.57 307.27 2301.19 309.93C2322.12 315.17 2336.52 331.79 2348.36 348.83C2372.07 382.93 2385.95 422.49 2398.88 461.62C2421.22 529.23 2445.23 606.8 2509.23 646.89C2516.38 651.37 2523.92 655.16 2531.74 658.33C2533.23 658.93 2533.88 656.52 2532.4 655.92C2461.66 627.26 2430.61 549.64 2408.37 482.46C2395.77 444.39 2383.98 405.63 2364.58 370.33C2355.38 353.58 2344.53 336.54 2330.41 323.48C2323.57 317.16 2315.73 312 2306.88 308.99C2297.19 305.69 2286.8 304.91 2276.63 305C2255.55 305.18 2234.4 307.26 2213.35 308.47C2192.06 309.7 2170.75 310.77 2149.43 311.34C2106.45 312.48 2063.22 311.61 2020.63 305.3C1980.57 299.36 1940.23 288.76 1904.08 270.15C1873.46 254.39 1846.01 232.51 1823.37 206.59C1780.29 157.29 1752.38 88.8799 1769.45 23.2699C1771.52 15.3099 1774.23 7.52993 1777.5 -0.0100741C1778.13 -1.47007 1775.98 -2.75007 1775.34 -1.27007L1775.33 -1.26007Z" fill="#D55845"/>
<path d="M2427.23 1046.19C2370.11 1021.21 2310.42 995.52 2246.79 997.68C2204.34 999.12 2163.53 1012.55 2125.99 1031.85C2086.24 1052.28 2049.9 1078.7 2014.37 1105.63C1978.84 1132.56 1942.33 1161.78 1904.2 1186.91C1868.08 1210.72 1829.3 1231.67 1787.12 1242.35C1765.93 1247.72 1744.08 1250.35 1722.22 1249.76C1708.86 1249.4 1693.95 1247.04 1687.63 1233.72C1683.09 1224.15 1684.14 1212.33 1688.54 1202.91C1700.44 1177.48 1731.81 1179.79 1749.95 1197.14C1772.42 1218.62 1768.56 1251.98 1752.72 1276.17C1734.98 1303.27 1704.51 1317.91 1675.58 1330.05C1651.9 1339.99 1628.01 1349.41 1604.27 1359.21C1557.43 1378.54 1510.63 1399.01 1467.78 1426.29C1427.49 1451.94 1390.66 1484.31 1366.37 1525.92C1360.5 1535.97 1355.46 1546.46 1351.14 1557.27C1350.54 1558.76 1352.96 1559.41 1353.55 1557.93C1372.79 1509.76 1408.15 1471.15 1449.96 1441.29C1493.17 1410.44 1541.85 1388.06 1590.62 1367.57C1615.16 1357.26 1639.89 1347.44 1664.51 1337.32C1691.86 1326.07 1720.42 1314.55 1741.81 1293.4C1760.68 1274.73 1773.85 1246.21 1766.42 1219.48C1760.31 1197.5 1737.88 1178.8 1714.4 1181.23C1694.66 1183.27 1681.78 1201.7 1682.23 1220.86C1682.44 1229.67 1685.72 1238.54 1692.67 1244.24C1702.38 1252.2 1716.18 1252.32 1728.1 1252.33C1771.78 1252.37 1814.01 1239.41 1852.77 1219.92C1894 1199.18 1931.53 1171.84 1968.19 1144.02C2005.62 1115.63 2042.36 1086.17 2081.81 1060.57C2119.38 1036.19 2159.93 1015.14 2203.98 1005.56C2228.53 1000.22 2253.78 998.71 2278.79 1001.29C2313 1004.82 2346.04 1015.45 2377.89 1028.03C2394.07 1034.42 2410.03 1041.37 2425.97 1048.34C2427.43 1048.98 2428.7 1046.83 2427.23 1046.18V1046.19Z" fill="#D55845"/>
</g>
<rect x="0.5" y="0.5" width="2435" height="1473.58" stroke="black"/>
<defs>
<clipPath id="clip0_311_79">
<rect width="2436" height="1474.58" fill="white"/>
</clipPath>
</defs>
</svg>
