<svg width="2436" height="1475" viewBox="0 0 2436 1475" fill="none" xmlns="http://www.w3.org/2000/svg">
<g clip-path="url(#clip0_311_70)">
<path d="M-25.6101 490.03C230.79 431.43 490.86 373.78 755.08 371.42C885.71 370.26 1016.87 383.38 1143.14 417.75C1241.73 444.59 1367.09 484.4 1415.41 583.97C1420.08 593.59 1428.47 609.7 1428.08 620.84C1427.64 633.36 1410.53 640.38 1399.97 642.1C1378.83 645.56 1355.36 636.23 1341.32 620.27C1323.05 599.49 1325.18 569.94 1339.09 547.33C1355.07 521.36 1384.29 504.19 1414.47 501.44C1477.4 495.7 1536.73 537.61 1581.01 577.8C1624.66 617.41 1660.35 665.65 1685.37 719.02C1706.21 763.46 1719.09 811.17 1739.57 855.79C1756.77 893.27 1780.31 931.01 1818.32 950.15C1901.25 991.9 1978.46 923.46 2041.36 876.9C2079.16 848.92 2120.18 820.93 2167.73 813.84C2231.92 804.28 2294.04 832.45 2353.68 851.77C2399.64 866.66 2443.9 875.21 2491.45 862.63C2527.19 853.18 2565.47 832.74 2581.6 797.67C2588.6 782.44 2589.97 766.07 2587.11 749.68C2586.83 748.1 2584.42 748.77 2584.7 750.34C2593.62 801.36 2553.21 837.83 2509.26 854.35C2487.05 862.69 2463.2 866.96 2439.48 866.88C2410.98 866.79 2383.48 858.72 2356.55 850.08C2297.74 831.22 2237.31 803.63 2174.05 810.55C2126.94 815.7 2085.98 841.37 2048.45 868.62C2010.98 895.83 1975.14 927.32 1932.64 946.61C1886.8 967.41 1834.61 965.26 1795.17 931.75C1757.68 899.89 1738.69 850.76 1721.94 805.92C1703.14 755.61 1685.44 705.98 1655.54 660.86C1623.98 613.23 1583.29 571.31 1536.06 539.08C1492.3 509.21 1433.23 483.92 1381.15 507.77C1344.24 524.67 1308.72 572.22 1332.82 612.92C1348.99 640.23 1392.01 656.63 1419.75 636.91C1423.71 634.1 1430.14 629 1431.25 624.12C1432.11 620.37 1428.93 613.42 1427.85 609.61C1425.89 602.74 1423.46 596.01 1420.63 589.45C1411.64 568.57 1398.35 549.76 1382.7 533.35C1347.25 496.16 1300.72 470.67 1253.56 451.45C1133.78 402.65 1002.1 379.89 873.51 371.95C603.59 355.28 334.5 406.99 72.2799 465.34C39.3899 472.66 6.5399 480.13 -26.3001 487.63C-27.8701 487.99 -27.2001 490.4 -25.6401 490.04L-25.6101 490.03Z" fill="#D55845"/>
</g>
<rect x="0.5" y="0.5" width="2435" height="1473.58" stroke="black"/>
<defs>
<clipPath id="clip0_311_70">
<rect width="2436" height="1474.58" fill="white"/>
</clipPath>
</defs>
</svg>
