<svg width="2436" height="1475" viewBox="0 0 2436 1475" fill="none" xmlns="http://www.w3.org/2000/svg">
<g clip-path="url(#clip0_311_84)">
<path d="M2448.73 999C2401.53 1040.74 2348.42 1075.58 2291.48 1102.54C2234.31 1129.61 2173.36 1148.71 2110.96 1159.03C2079.68 1164.2 2048.03 1167.13 2016.34 1167.75C1988.47 1168.29 1960.09 1166.94 1933.29 1158.61C1907.68 1150.65 1883.46 1135.19 1871.34 1110.47C1859.89 1087.12 1861.05 1058.77 1871.37 1035.25C1882.21 1010.56 1903.03 992.17 1929.17 985.23C1955.5 978.24 1984.54 982.6 2008.12 996.06C2064.37 1028.15 2073.05 1103.34 2063.75 1161.32C2053.75 1223.64 2020.83 1279.05 1973.36 1320.16C1929.37 1358.26 1875.85 1383.84 1821.48 1403.46C1764.3 1424.1 1705.01 1437.83 1646.74 1454.95C1587.97 1472.22 1529.26 1492.91 1477.56 1526.41C1465.23 1534.4 1453.39 1543.11 1442.1 1552.5C1440.86 1553.53 1442.64 1555.29 1443.87 1554.27C1494.46 1512.22 1555.61 1486.28 1617.75 1466.43C1678.54 1447.01 1740.98 1433.2 1801.53 1413.02C1857.65 1394.32 1913.18 1370.33 1960.31 1334.01C2007.44 1297.69 2046.63 1244.33 2061.75 1183.53C2075.93 1126.49 2074.64 1051.5 2028.79 1008.23C1991.03 972.59 1924.44 967.9 1887.19 1006.86C1870.06 1024.77 1860.56 1049.73 1860.7 1074.45C1860.84 1100.1 1872.12 1123.77 1892 1140C1912.76 1156.96 1939.45 1164.59 1965.63 1167.99C1995.92 1171.93 2026.96 1170.65 2057.31 1168.15C2121.69 1162.85 2185.24 1148.15 2245.51 1124.93C2306.03 1101.61 2363.29 1069.77 2414.74 1030.26C2427 1020.84 2438.92 1011 2450.51 1000.75C2451.72 999.68 2449.94 997.92 2448.74 998.98L2448.73 999Z" fill="#D55845"/>
</g>
<rect x="0.5" y="0.5" width="2435" height="1473.58" stroke="black"/>
<defs>
<clipPath id="clip0_311_84">
<rect width="2436" height="1474.58" fill="white"/>
</clipPath>
</defs>
</svg>
