<svg width="2436" height="1475" viewBox="0 0 2436 1475" fill="none" xmlns="http://www.w3.org/2000/svg">
<g clip-path="url(#clip0_311_76)">
<path d="M-4.8199 1182.09C111.93 1151.3 239.28 1165.63 346.42 1221.32C372.83 1235.05 397.17 1251.77 421.5 1268.82C444.38 1284.86 467.69 1300.83 493.66 1311.51C521.44 1322.94 550.7 1326.03 580.44 1322.42C612.3 1318.55 642.96 1308.52 673.76 1299.96C736.89 1282.43 801.33 1278.34 865.47 1293.49C928.65 1308.41 983.04 1341.53 1033.86 1380.89C1081.8 1418.02 1127.62 1457.34 1178.76 1490.17C1228.92 1522.37 1282.13 1549.79 1337.38 1572.15C1448.68 1617.21 1568.4 1641.69 1688.5 1643.06C1703.25 1643.23 1718.01 1643.02 1732.75 1642.51C1734.35 1642.45 1734.36 1639.95 1732.75 1640.01C1610.37 1644.25 1487.62 1624.54 1372.48 1582.93C1314.78 1562.08 1259.04 1535.76 1206.35 1504.31C1152.32 1472.06 1103.68 1433.29 1054.64 1394.1C1007.63 1356.53 958.53 1321.05 901.14 1301.22C843.96 1281.46 781.82 1276.16 722.14 1286.15C657.11 1297.04 592.33 1332 525.05 1318.55C466.3 1306.8 421.5 1262.2 371.55 1232.44C271.93 1173.1 150.91 1150.99 36.6601 1170.47C22.4701 1172.89 8.4301 1175.99 -5.4899 1179.66C-7.0399 1180.07 -6.3899 1182.48 -4.8299 1182.07L-4.8199 1182.09Z" fill="#D55845"/>
<path d="M1952.21 1537.88C2008.59 1491.82 2078.5 1468.18 2142.14 1434.49C2173.14 1418.08 2202.86 1398.99 2228.18 1374.54C2252.39 1351.17 2272.33 1323.72 2288.71 1294.4C2322.77 1233.43 2342.05 1165.53 2360.99 1098.72C2379.93 1031.91 2397.91 971.09 2429.47 912.3C2459.36 856.63 2501.01 805.09 2558.69 776.76C2565.75 773.29 2572.98 770.22 2580.35 767.5C2581.85 766.95 2581.2 764.53 2579.69 765.09C2520.18 787.06 2474.67 832.92 2441.74 886.03C2407.2 941.74 2385.45 1004.13 2367.46 1066.83C2348.06 1134.44 2330.56 1203.32 2300.06 1267.02C2285.13 1298.19 2266.97 1327.97 2244.2 1354.07C2220.86 1380.82 2192.89 1402.46 2162.35 1420.4C2100.13 1456.94 2030.21 1479.28 1970.78 1520.76C1963.81 1525.62 1957.03 1530.75 1950.45 1536.13C1949.2 1537.15 1950.98 1538.91 1952.22 1537.9L1952.21 1537.88Z" fill="#D55845"/>
</g>
<rect x="0.5" y="0.5" width="2435" height="1473.58" stroke="black"/>
<defs>
<clipPath id="clip0_311_76">
<rect width="2436" height="1474.58" fill="white"/>
</clipPath>
</defs>
</svg>
