<svg width="2436" height="1476" viewBox="0 0 2436 1476" fill="none" xmlns="http://www.w3.org/2000/svg">
<g clip-path="url(#clip0_311_72)">
<path d="M559.68 -40.83C541.56 44.74 510.25 127.16 468.15 203.79C425.93 280.61 373.15 351.53 312.37 414.66C281.66 446.56 249 477.03 213.94 504.11C177.33 532.39 136.91 557.39 92.32 570.77C51.76 582.94 6.51999 585.47 -32.88 567.96C-66.69 552.93 -95.93 525.86 -112.29 492.55C-120.31 476.22 -125.1 458.14 -124.78 439.88C-124.62 431 -123.24 422.16 -120.63 413.66C-119.32 409.39 -117.97 404.21 -115.48 400.5C-112.54 396.12 -106.33 394.97 -101.48 393.36C-62.92 380.57 -21.53 378.12 18.52 384.19C99.35 396.45 174.64 441.01 228.88 501.52C289.59 569.25 326.48 655.02 351.13 741.64C363.53 785.21 373.03 829.55 381.23 874.08C390.76 925.81 398.61 977.91 402.72 1030.37C410.33 1127.4 405.05 1227.12 372.34 1319.51C344.81 1397.26 298.51 1470.22 233.13 1521.48C217.11 1534.04 200.04 1545.16 182.1 1554.79C180.68 1555.55 181.94 1557.71 183.36 1556.95C257.8 1516.99 314.5 1450.82 351.46 1375.58C393.61 1289.78 409 1194.16 408.26 1099.17C407.46 995.96 390.32 891.98 366.66 791.7C345.32 701.27 314.06 611.15 259.12 535.27C209.94 467.34 140.36 414.21 59.31 390.65C21.04 379.53 -19.47 375.44 -59.05 380.93C-69.43 382.37 -79.71 384.46 -89.82 387.21C-94.35 388.44 -98.84 389.81 -103.29 391.31C-106.7 392.46 -113.22 393.54 -115.93 396.02C-120.5 400.22 -122.99 412.09 -124.43 417.85C-126.38 425.68 -127.34 433.77 -127.32 441.84C-127.17 513.13 -58.44 574.97 9.64999 581.97C103.29 591.6 187.9 532.47 254.49 473.56C322.24 413.62 382.2 344.77 431.77 269.09C481.17 193.66 520.23 111.29 545.7 24.73C552 3.31999 557.44 -18.34 562.06 -40.17C562.39 -41.74 559.98 -42.41 559.65 -40.83H559.68Z" fill="#D55845"/>
</g>
<rect x="0.5" y="1" width="2435" height="1473.58" stroke="black"/>
<defs>
<clipPath id="clip0_311_72">
<rect y="0.5" width="2436" height="1474.58" fill="white"/>
</clipPath>
</defs>
</svg>
