<svg width="2436" height="1475" viewBox="0 0 2436 1475" fill="none" xmlns="http://www.w3.org/2000/svg">
<g clip-path="url(#clip0_311_86)">
<path d="M408.18 21.1801C399.02 167.39 370.43 312.18 323.37 450.91C299.58 521.05 271.11 589.59 238.14 655.92C222.34 687.71 205.77 719.27 187.5 749.72C170.34 778.3 150.52 806.41 123.68 826.72C99.9298 844.69 71.4798 854.67 41.5198 852.34C12.8198 850.11 -15.4102 836.29 -28.4702 809.55C-43.3602 779.06 -39.0702 740.07 -38.1802 707.08C-37.3402 675.82 -35.1802 644.5 -29.6402 613.69C-18.9402 554.18 6.26979 494.68 58.3298 460.11C109.09 426.4 174.19 423.93 231.41 440.54C363.82 478.99 430.51 610.14 471.11 731.61C513.48 858.38 539.5 993.32 627.32 1098.74C700.89 1187.04 803.25 1244.91 909.58 1284.89C965.54 1305.92 1023.12 1322.4 1081.18 1336.49C1140.47 1350.88 1200.48 1363.84 1260.64 1374.04C1293.73 1379.65 1327.68 1381.72 1359.49 1369.17C1384.55 1359.28 1406.08 1342.58 1426.05 1324.82C1448.34 1304.99 1469.1 1283.39 1492.74 1265.12C1518.12 1245.51 1546.81 1231.66 1578.36 1225.38C1642.71 1212.58 1711.19 1229.36 1766.99 1262.39C1826.46 1297.6 1872.84 1351.53 1910.85 1408.41C1929.1 1435.71 1945.66 1464.09 1961.55 1492.8C1962.33 1494.21 1964.49 1492.95 1963.71 1491.54C1900.02 1376.49 1816.07 1255.01 1679.31 1225C1618.94 1211.75 1554.51 1219.02 1502.89 1254.59C1453.35 1288.73 1417.07 1343.14 1360.11 1366.25C1323.36 1381.16 1284.34 1376.09 1246.44 1368.94C1215.65 1363.13 1184.91 1356.99 1154.26 1350.48C1093.22 1337.52 1032.47 1322.8 972.93 1304.05C857.24 1267.61 742.64 1214.82 656.51 1127.25C608.99 1078.94 573.66 1021.55 547.88 959.06C519.81 891 501.86 819.42 479.53 749.41C441.58 630.44 382.93 498.63 259.76 447.84C206.14 425.73 143.14 419.73 88.4198 441.57C34.6498 463.03 -1.3802 509.86 -19.6002 563.61C-39.3402 621.86 -41.2902 685.04 -41.1502 745.98C-41.0802 775.62 -39.1002 807.87 -16.9302 830.09C0.329796 847.39 25.2598 855.01 49.2698 855.18C111.48 855.6 155.13 806.8 185.48 757.83C223.8 695.99 255.58 629.3 283.76 562.31C341.56 424.91 380.81 279.75 400.05 131.93C404.84 95.1501 408.34 58.2201 410.66 21.2001C410.76 19.5901 408.26 19.6001 408.16 21.2001L408.18 21.1801Z" fill="#D55845"/>
<rect x="-498.5" y="-184" width="2558.63" height="940.47" stroke="black"/>
<path d="M-429.17 48.26C-377.32 17.62 -316.61 65.75 -299.02 114.61C-276.02 178.51 -298.4 247.47 -292.92 313.1C-289.21 357.54 -273.32 407.76 -232.68 431.75C-194.05 454.55 -141.58 443.36 -113.99 408.34C-81.5001 367.1 -96.0601 303.29 -139.34 275.92C-140.04 275.48 -140.95 275.92 -141.18 276.67C-164.78 353.36 -120.73 432.19 -58.0301 475.59C21.7899 530.84 126.38 521.46 214.05 492.07C263.4 475.53 308.76 450.31 356.78 430.62C401.92 412.11 454.48 396.12 502.5 413.41C552.56 431.44 577.73 480.52 602.08 524.15C624.06 563.53 646.48 603.04 674.88 638.24C700.92 670.52 733.36 700.74 772.17 716.79C803.04 729.56 837.91 732.49 870.7 726.59C901.58 721.03 932.24 707.03 953 682.91C978.42 653.37 978.76 617.6 977.5 580.49C976.64 555.28 976.4 528.48 991.36 506.86C1000.43 493.74 1013.66 484.73 1028.78 479.94C1058.22 470.61 1090.93 474.6 1121.05 477.74C1175.56 483.41 1249.05 496.37 1279.67 437.77C1285.01 427.55 1289.06 416.67 1296.51 407.71C1306.09 396.19 1319.78 390.6 1334.42 388.89C1358.88 386.03 1383.75 392.05 1407.79 395.76C1463.6 404.38 1519.7 411.1 1575.97 415.91C1690.65 425.71 1806.01 427.57 1920.95 421.43C1949.49 419.91 1977.99 417.86 2006.46 415.38C2008.05 415.24 2008.07 412.74 2006.46 412.88C1859.34 425.7 1711.19 425.64 1564.11 412.36C1526.27 408.94 1488.51 404.67 1450.88 399.52C1419.38 395.21 1387.66 387.91 1355.9 386.02C1332.08 384.6 1306.82 388.61 1292.02 409.27C1277.16 430.02 1272.41 454.14 1248.9 467.77C1214.61 487.66 1169.32 480.35 1131.92 476.38C1095.76 472.54 1054.24 465.63 1019.67 480.68C1003.8 487.59 991.02 499.78 983.5 515.4C971.4 540.53 974.9 569.61 975.56 596.54C976.23 623.65 973.41 650.2 957.57 672.98C944.24 692.15 924.44 706.03 902.98 714.75C859.34 732.48 806.63 731.36 764.27 710.48C710.05 683.76 671.21 634.15 639.84 583.99C624.33 559.19 610.25 533.53 595.97 508.01C582 483.04 567.34 457.62 546.34 437.81C502.7 396.62 443.33 398.6 389.52 415.89C326.68 436.08 270.1 471.44 207.2 491.7C142.52 512.54 71.9899 521.84 5.63989 503.02C-49.3301 487.42 -97.7301 448.4 -124.73 398.02C-137.63 373.96 -145.48 346.98 -145.4 319.55C-145.38 314.07 -145.06 308.58 -144.41 303.14C-144.06 300.22 -142.75 282.21 -139.75 280.57C-131.83 276.24 -113.2 305.03 -110.32 310.31C-96.6101 335.48 -94.3101 367.51 -107.38 393.42C-120.02 418.48 -145.75 435.34 -173.09 440.03C-236.37 450.88 -275.63 394.49 -286.7 339.51C-299.5 275.88 -279.7 211.29 -288.76 147.39C-295.46 100.12 -323.6 54.95 -371.16 39.94C-391.32 33.58 -412.14 35.29 -430.42 46.09C-431.8 46.91 -430.55 49.07 -429.16 48.25L-429.17 48.26Z" fill="#D55845"/>
</g>
<rect x="0.5" y="0.5" width="2435" height="1473.58" stroke="black"/>
<defs>
<clipPath id="clip0_311_86">
<rect width="2436" height="1474.58" fill="white"/>
</clipPath>
</defs>
</svg>
