<svg width="2436" height="1475" viewBox="0 0 2436 1475" fill="none" xmlns="http://www.w3.org/2000/svg">
<g clip-path="url(#clip0_311_68)">
<path d="M2130.42 5.47999C2140.07 156.01 2149.72 306.55 2159.37 457.08C2164.19 532.35 2169.02 607.61 2173.84 682.88C2178.66 758.15 2184.92 826.97 2183.87 899.08C2182.07 1023.7 2148.59 1159.42 2038.6 1232.68C1992.21 1263.58 1934.33 1280.3 1881.39 1256.3C1859.4 1246.33 1837.92 1230.27 1827.24 1208.05C1816.32 1185.35 1821.44 1156.84 1841.83 1141.14C1877.88 1113.39 1938.39 1137.93 1954.23 1177.64C1977.68 1236.44 1922.43 1297.37 1869.87 1314.54C1800.96 1337.06 1726.03 1313.46 1659.28 1294.1C1592.6 1274.75 1526.68 1252.91 1459.93 1233.82C1333.56 1197.67 1198.48 1169.32 1067.91 1200.17C952.73 1227.38 858.87 1302.56 754.48 1354.11C703.81 1379.13 649.13 1398.73 591.99 1399.01C525.56 1399.34 467.39 1369.39 407.2 1345.36C344.59 1320.36 280.46 1311.44 213.49 1320.38C147.15 1329.24 83.5099 1352.17 22.4499 1378.87C-9.27009 1392.74 -40.4401 1407.81 -71.4901 1423.1C-72.9301 1423.81 -71.6701 1425.97 -70.2301 1425.26C59.3799 1361.44 208.78 1290.67 356.36 1330.56C423.79 1348.78 484.15 1388.81 553.98 1398.88C609.41 1406.87 664.7 1395.16 716.04 1374.24C830.16 1327.72 926.19 1243.5 1045.52 1208.66C1186.27 1167.57 1334.11 1199.77 1471.17 1239.67C1541.02 1260 1610.07 1283.03 1680.13 1302.65C1743.81 1320.49 1817.61 1340.12 1881.61 1312.8C1928.82 1292.64 1971.01 1241.82 1959.81 1187.8C1951.75 1148.91 1909.05 1123.82 1870.89 1127.6C1830.94 1131.56 1807.58 1172.98 1825.1 1209.31C1845.08 1250.74 1899.7 1274.06 1943.85 1270.75C1997.43 1266.74 2047.94 1235.22 2084.48 1197.43C2124.76 1155.78 2152.49 1103.21 2167.68 1047.52C2186.79 977.47 2188.25 904.09 2185.3 831.98C2182.1 753.9 2175.9 675.89 2170.9 597.91C2160.73 439.18 2150.55 280.45 2140.38 121.72C2137.9 82.97 2135.41 44.22 2132.93 5.46999C2132.83 3.86999 2130.33 3.85999 2130.43 5.46999L2130.42 5.47999Z" fill="#D55845"/>
</g>
<rect x="0.5" y="0.5" width="2435" height="1473.58" stroke="black"/>
<defs>
<clipPath id="clip0_311_68">
<rect width="2436" height="1474.58" fill="white"/>
</clipPath>
</defs>
</svg>
