<svg width="2436" height="1475" viewBox="0 0 2436 1475" fill="none" xmlns="http://www.w3.org/2000/svg">
<g clip-path="url(#clip0_311_82)">
<path d="M-60.58 1292.77C89.7 1255.1 245.18 1239.82 399.93 1246.85C555.33 1253.91 709.74 1283.37 856.66 1334.54C930.52 1360.26 1001.63 1392.14 1071.35 1427.46C1138.37 1461.4 1204.88 1496.99 1275.36 1523.38C1338.68 1547.08 1406.41 1564.12 1474.47 1560.72C1530.97 1557.9 1587.55 1542.69 1636.77 1514.55C1682.97 1488.13 1722.91 1449.19 1743.74 1399.6C1763.3 1353.03 1767.53 1291.92 1733.41 1250.65C1725.1 1240.59 1714.7 1233.03 1702.76 1227.84C1701.98 1227.5 1701.23 1227.77 1700.92 1228.59C1681.35 1280.91 1730.27 1333.56 1780.64 1340.49C1845.6 1349.43 1902.17 1297.01 1935.96 1247.74C1957.6 1216.19 1974.82 1181.92 1995.17 1149.57C2014.25 1119.23 2036.73 1091.6 2063.92 1068.16C2114.02 1024.95 2175.63 997.39 2239.03 980.11C2312.22 960.17 2388.37 953.14 2464.01 951.56C2465.62 951.53 2465.62 949.03 2464.01 949.06C2371.2 951 2276.55 960.91 2189.02 993.5C2148.7 1008.51 2110.08 1028.55 2076.06 1055.02C2037.16 1085.28 2007.73 1123.07 1982.7 1165.25C1955.45 1211.17 1931.24 1260.22 1890.8 1296.34C1851.95 1331.04 1794.84 1354.22 1745.97 1325.67C1725.16 1313.51 1707.47 1293.62 1701.15 1270.03C1698.54 1260.31 1696.55 1245.16 1701.15 1235.63C1703.68 1230.39 1705.37 1231.48 1710.29 1234.28C1716.17 1237.63 1721.56 1241.82 1726.34 1246.59C1758.98 1279.2 1761.57 1332.38 1749.87 1374.45C1726.59 1458.22 1651.66 1514.44 1571.96 1540.33C1477.48 1571.02 1380.5 1558.25 1288.35 1525.47C1182.15 1487.69 1085.62 1428.09 983.06 1382.1C883.33 1337.38 778.91 1303.23 672.13 1279.95C457.83 1233.23 233.95 1230.12 18.67 1272.46C-8.11996 1277.73 -34.75 1283.73 -61.24 1290.37C-62.8 1290.76 -62.14 1293.17 -60.58 1292.78V1292.77Z" fill="#D55845"/>
</g>
<rect x="0.5" y="0.5" width="2435" height="1473.58" stroke="black"/>
<defs>
<clipPath id="clip0_311_82">
<rect width="2436" height="1474.58" fill="white"/>
</clipPath>
</defs>
</svg>
