<?xml version="1.0" encoding="UTF-8"?>
<svg id="Layer_2" data-name="Layer 2" xmlns="http://www.w3.org/2000/svg" width="346.77" height="202.47" viewBox="0 0 346.77 202.47">
  <defs>
    <style>
      .cls-1 {
        fill: none;
        stroke: #221f20;
        stroke-miterlimit: 10;
        stroke-width: .5px;
      }
    </style>
  </defs>
  <path class="cls-1" d="m150.42,177.58c-13.45-2.37-24.67-5.41-33.24-8.11-5.57-1.75-15.55-4.92-27.98-10.54-13.23-5.98-15.57-8.56-29.6-14.19-9.78-3.93-14.67-5.9-18.65-6.49-2.7-.4-10.45-1.32-19.06-4.46-1.9-.69-4.03-1.56-5.27-3.65-1.27-2.14-.57-3.86-.4-10.14.01-.24.01-.47.01-.68,0-.38.02-.73.02-1.05.01-3.97-.38-4.11-.03-6.37.17-1.13.48-2.52,1.08-4.11"/>
  <path class="cls-1" d="m16.23,119.32c.74.75,1.62,1.47,2.66,2.09,5.51,3.29,11.06,1.31,11.75,1.05"/>
  <path class="cls-1" d="m16.25,118.26h0c-1.24.91-2.49,2-3.67,3.32-2.17,2.44-1.65,2.88-4.38,6.14-3.72,4.43-5.89,5.04-7.19,8.59-.44,1.18-1.11,3.03-.53,5.08.62,2.17,2.22,3.05,5.79,5.79,4.66,3.57,3.48,3.25,7.19,5.96,0,0,4.45,3.26,9.64,5.96,12.3,6.41,28.22,10.17,28.22,10.17,18.12,4.28,12.44,4.98,44.36,14.02,10.86,3.08,25.45,7.19,45.05,11.22,11.85,2.44,22.57,3.79,44.01,6.49,10.24,1.29,17.73,2.08,26.99-.35,5.2-1.37,10.14-3.52,15.26-5.88.7-.31,1.4-.64,2.1-.96,5.28-2.44,6.48-3.32,16.3-8.41,10.09-5.24,15.13-7.85,18.24-9.12,7.46-3.04,10.56-3.32,15.61-4.84,2.12-.64,4.59-1.5,7.88-2.87,3.37-1.42,6.18-2.82,10.58-5.12,1.1-.57,2.29-1.2,3.62-1.9,10.15-5.33,15.23-8,19.11-11.04,6.37-5,10.15-9.95,16.02-17.64,4.1-5.36,7.27-10.21,9.58-13.99.58-.95.66-2.12.19-3.14-.35-.77-.75-1.69-1.17-2.73-1.69-4.23-1.65-5.47-2.87-7.41-1.27-2.01-2.37-2.35-5.5-4.78-1.56-1.22-3.6-3.21-7.69-7.18-1.1-1.07-2.27-2.23-3.51-3.49"/>
  <path class="cls-1" d="m24.57,71.6c-.17.9-.36,1.72-.55,2.44-.52,1.98-1.03,3.97-1.79,5.92-.82,2.13-1.92,4.23-3.62,6.25-3.15,3.74-5.08,3.37-6.77,6.76-.18.37-2.44,5.05-.67,9.47.47,1.2,1.51,3.03,6.13,5.35,1.9.95,4.4,1.99,7.73,3.1,4.9,1.64,8.1,2.28,18.6,4.4,14.9,3.01,16.32,3.32,18.93,4.06,4.04,1.13,10.13,3.07,16.91,6.08,8.54,3.81,13.33,7.17,18.26,10.15,10.51,6.34,19.15,9.35,32.12,13.86,8.15,2.84,18.34,5.16,37.48,9.36.02,0,.04,0,.06.01,1.62.36,3.31.72,5.06,1.11,6.29,1.38,22.43,4.8,34.57,1.91h0c.31-.06.62-.14.92-.22,4.55-1.22,8.46-3.38,8.46-3.38.86-.48,1.68-.98,2.45-1.49"/>
  <path class="cls-1" d="m22.23,79.96c2.85,2.84,6.26,5.9,10.24,8.95,10.01,7.67,19.02,11.7,27.05,15.22,17.81,7.83,21.33,5.95,35.16,13.86,6.37,3.65,7.53,5.13,13.53,7.78,8.89,3.92,14.18,4.11,24.34,6.76,5.31,1.39,13.06,3.73,22.32,7.78"/>
  <path class="cls-1" d="m167.33,158.8s.04,0,.06.01c19.29,3.06,30.51,3.24,36.68,1.83,3.73-.84,5.61-2.27,6.32-3.99,1.47-3.54-2.11-8.62-5.35-13.84-.13-.22-.26-.43-.39-.65-5.81-9.49-13.78-14.48-26.49-21.24-14-7.44-20.33-9.88-41.23-19.49-21.83-10.04-26.26-12.59-37.48-15.99-11.45-3.47-21.37-5.22-24.49-5.75-10.85-1.83-16.28-2.74-23.99-2.75-11.49,0-15.88,1.98-21.74-1.5-1.51-.9-3.24-2.23-4.66-3.84-1.81-2.04-3.11-4.53-2.83-7.15.38-3.58,3.56-5.88,6.5-8,2.19-1.58,5.08-3.2,15.49-5.99,7.85-2.11,8-1.67,15.49-3.75,7.44-2.06,7.28-2.49,12.74-3.75,6.05-1.39,7.78-1.22,12-2.75,4.85-1.76,5.47-3.04,8.56-4.45.22-.1.44-.2.68-.3,8.28-3.41,11.69,1.12,24.24-.25,3.69-.4,9.38-1.08,15.49-4.49,3.73-2.09,6.63-4.64,11-8.5,4.48-3.95,4.27-4.35,8.24-7.74.25-.22.57-.48.95-.8,1.96-1.63,5.54-4.46,10.3-7.45.27-.17.55-.35.84-.52,2.48-1.54,5.45-3.21,8.89-4.88.41-.2.83-.4,1.26-.6"/>
  <path class="cls-1" d="m205.03,142.8h.01c3.68,3,6.47,5.82,8.53,8.12,2.43,2.72,3.73,4.58,5.29,5.82.75.6,1.56,1.05,2.59,1.4,1.61.53,4.7,1.1,15.63-4.01,5.17-2.42,10.21-4.81,16.83-9.62,8.07-5.87,7.63-7.43,14.55-12.29,5.02-3.51,6.42-3.52,13.74-7.15,1.25-.62,2.66-1.34,4.3-2.2,10.13-5.35,16.71-9.78,21.77-13.22,9.54-6.48,14.35-9.81,16.03-14.03.7-1.77,1.08-3.62,1.19-5.46.36-5.85-1.9-11.76-4.53-15.64-1.5-2.22-4.19-4.55-9.57-9.22-4.39-3.8-7.9-6.46-10.25-8.23-10.12-7.64-15.18-11.46-18.7-13.81-6.01-4.01-7.91-4.4-34.06-15.8-16.49-7.2-24.74-10.79-28.27-12.47-7.13-3.39-11.95-5.45-21.59-9.57-6.82-2.92-9.21-3.84-12.47-4.45-4.73-.89-9.12-.74-12.9-.14-.01,0-.01.01-.01.01h-.02"/>
  <path class="cls-1" d="m153.12,13.68c2.58,2.62,5.06,6.22,6.2,10.98,1.59,6.68-.28,12.25-1.27,14.63-.45,1.09-4.01,9.26-12.88,13.04-7.36,3.13-14.22,1.47-20.99-.16-4.34-1.05-2.39-1.2-15.1-5.73-6.71-2.39-9.38-3.1-12.4-5.72-1.8-1.56-3.15-3.29-4.16-4.96"/>
  <path class="cls-1" d="m164.26,5.71c1.94,1.96,3.98,4.49,5.71,7.66,5.82,10.64,4.03,20.93,3.5,23.69-2.6,13.76-12.3,21.29-14.47,22.9-13.91,10.28-29.67,6.75-31.95,6.2"/>
  <path class="cls-1" d="m265.38,142.42c2.11.93,6.47,3.2,10,8,1.41,1.91,4.48,6.68,4.75,13.5.11,2.9-.3,5.45-.89,7.52"/>
  <path class="cls-1" d="m282.2,125.07c2.9.97,6.02,2.55,8.93,5.1,9.15,8.02,9.03,19.41,9.01,21.75-.05,4.62-1.17,8.54-2.44,11.53"/>
  <path class="cls-1" d="m282.74,139.33c-1.45,1.18-1.48,3.23-1.5,4.36-.01.78-.04,2.69,1.23,4.36,1.46,1.93,4.61,3.5,7.09,2.18,2.53-1.34,2.59-4.73,2.59-5.05,0-3.57-3.11-5.49-3.27-5.59-1.53-.91-4.35-1.73-6.14-.27Z"/>
  <path class="cls-1" d="m207.02,161.83h0c4.91,2.1,8.81,4.34,11.7,6.2,8.53,5.5,10.22,8.97,10.92,10.92,1.65,4.59.65,8.78.2,10.32-.63,2.14-1.65,3.96-2.86,5.5"/>
</svg>