<svg width="347" height="203" viewBox="0 0 347 203" fill="none" xmlns="http://www.w3.org/2000/svg">
<g clip-path="url(#clip0_289_222)">
<path d="M150.42 177.58C136.97 175.21 125.75 172.17 117.18 169.47C111.61 167.72 101.63 164.55 89.2 158.93C75.97 152.95 73.63 150.37 59.6 144.74C49.82 140.81 44.93 138.84 40.95 138.25C38.25 137.85 30.5 136.93 21.89 133.79C19.99 133.1 17.86 132.23 16.62 130.14C15.35 128 16.05 126.28 16.22 120C16.23 119.76 16.23 119.53 16.23 119.32C16.23 118.94 16.25 118.59 16.25 118.27C16.26 114.3 15.87 114.16 16.22 111.9C16.39 110.77 16.7 109.38 17.3 107.79" stroke="#221F20" stroke-width="0.5" stroke-miterlimit="10"/>
<path d="M16.23 119.32C16.97 120.07 17.85 120.79 18.89 121.41C24.4 124.7 29.95 122.72 30.64 122.46" stroke="#221F20" stroke-width="0.5" stroke-miterlimit="10"/>
<path d="M16.25 118.26C15.01 119.17 13.76 120.26 12.58 121.58C10.41 124.02 10.93 124.46 8.20001 127.72C4.48001 132.15 2.31001 132.76 1.01001 136.31C0.570006 137.49 -0.0999939 139.34 0.480006 141.39C1.10001 143.56 2.70001 144.44 6.27001 147.18C10.93 150.75 9.75001 150.43 13.46 153.14C13.46 153.14 17.91 156.4 23.1 159.1C35.4 165.51 51.32 169.27 51.32 169.27C69.44 173.55 63.76 174.25 95.68 183.29C106.54 186.37 121.13 190.48 140.73 194.51C152.58 196.95 163.3 198.3 184.74 201C194.98 202.29 202.47 203.08 211.73 200.65C216.93 199.28 221.87 197.13 226.99 194.77C227.69 194.46 228.39 194.13 229.09 193.81C234.37 191.37 235.57 190.49 245.39 185.4C255.48 180.16 260.52 177.55 263.63 176.28C271.09 173.24 274.19 172.96 279.24 171.44C281.36 170.8 283.83 169.94 287.12 168.57C290.49 167.15 293.3 165.75 297.7 163.45C298.8 162.88 299.99 162.25 301.32 161.55C311.47 156.22 316.55 153.55 320.43 150.51C326.8 145.51 330.58 140.56 336.45 132.87C340.55 127.51 343.72 122.66 346.03 118.88C346.61 117.93 346.69 116.76 346.22 115.74C345.87 114.97 345.47 114.05 345.05 113.01C343.36 108.78 343.4 107.54 342.18 105.6C340.91 103.59 339.81 103.25 336.68 100.82C335.12 99.6 333.08 97.61 328.99 93.64C327.89 92.57 326.72 91.41 325.48 90.15" stroke="#221F20" stroke-width="0.5" stroke-miterlimit="10"/>
<path d="M24.57 71.6C24.4 72.5 24.21 73.32 24.02 74.04C23.5 76.02 22.99 78.01 22.23 79.96C21.41 82.09 20.31 84.19 18.61 86.21C15.46 89.95 13.53 89.58 11.84 92.97C11.66 93.34 9.40001 98.02 11.17 102.44C11.64 103.64 12.68 105.47 17.3 107.79C19.2 108.74 21.7 109.78 25.03 110.89C29.93 112.53 33.13 113.17 43.63 115.29C58.53 118.3 59.95 118.61 62.56 119.35C66.6 120.48 72.69 122.42 79.47 125.43C88.01 129.24 92.8 132.6 97.73 135.58C108.24 141.92 116.88 144.93 129.85 149.44C138 152.28 148.19 154.6 167.33 158.8C167.35 158.8 167.37 158.8 167.39 158.81C169.01 159.17 170.7 159.53 172.45 159.92C178.74 161.3 194.88 164.72 207.02 161.83C207.33 161.77 207.64 161.69 207.94 161.61C212.49 160.39 216.4 158.23 216.4 158.23C217.26 157.75 218.08 157.25 218.85 156.74" stroke="#221F20" stroke-width="0.5" stroke-miterlimit="10"/>
<path d="M22.23 79.96C25.08 82.8 28.49 85.86 32.47 88.91C42.48 96.58 51.49 100.61 59.52 104.13C77.33 111.96 80.85 110.08 94.68 117.99C101.05 121.64 102.21 123.12 108.21 125.77C117.1 129.69 122.39 129.88 132.55 132.53C137.86 133.92 145.61 136.26 154.87 140.31" stroke="#221F20" stroke-width="0.5" stroke-miterlimit="10"/>
<path d="M167.33 158.8C167.33 158.8 167.37 158.8 167.39 158.81C186.68 161.87 197.9 162.05 204.07 160.64C207.8 159.8 209.68 158.37 210.39 156.65C211.86 153.11 208.28 148.03 205.04 142.81C204.91 142.59 204.78 142.38 204.65 142.16C198.84 132.67 190.87 127.68 178.16 120.92C164.16 113.48 157.83 111.04 136.93 101.43C115.1 91.39 110.67 88.84 99.45 85.44C88 81.97 78.08 80.22 74.96 79.69C64.11 77.86 58.68 76.95 50.97 76.94C39.48 76.94 35.09 78.92 29.23 75.44C27.72 74.54 25.99 73.21 24.57 71.6C22.76 69.56 21.46 67.07 21.74 64.45C22.12 60.87 25.3 58.57 28.24 56.45C30.43 54.87 33.32 53.25 43.73 50.46C51.58 48.35 51.73 48.79 59.22 46.71C66.66 44.65 66.5 44.22 71.96 42.96C78.01 41.57 79.74 41.74 83.96 40.21C88.81 38.45 89.43 37.17 92.52 35.76C92.74 35.66 92.96 35.56 93.2 35.46C101.48 32.05 104.89 36.58 117.44 35.21C121.13 34.81 126.82 34.13 132.93 30.72C136.66 28.63 139.56 26.08 143.93 22.22C148.41 18.27 148.2 17.87 152.17 14.48C152.42 14.26 152.74 14 153.12 13.68C155.08 12.05 158.66 9.22001 163.42 6.23001C163.69 6.06001 163.97 5.88001 164.26 5.71001C166.74 4.17001 169.71 2.50001 173.15 0.830011C173.56 0.630011 173.98 0.430011 174.41 0.230011" stroke="#221F20" stroke-width="0.5" stroke-miterlimit="10"/>
<path d="M205.03 142.8H205.04C208.72 145.8 211.51 148.62 213.57 150.92C216 153.64 217.3 155.5 218.86 156.74C219.61 157.34 220.42 157.79 221.45 158.14C223.06 158.67 226.15 159.24 237.08 154.13C242.25 151.71 247.29 149.32 253.91 144.51C261.98 138.64 261.54 137.08 268.46 132.22C273.48 128.71 274.88 128.7 282.2 125.07C283.45 124.45 284.86 123.73 286.5 122.87C296.63 117.52 303.21 113.09 308.27 109.65C317.81 103.17 322.62 99.84 324.3 95.62C325 93.85 325.38 92 325.49 90.16C325.85 84.31 323.59 78.4 320.96 74.52C319.46 72.3 316.77 69.97 311.39 65.3C307 61.5 303.49 58.84 301.14 57.07C291.02 49.43 285.96 45.61 282.44 43.26C276.43 39.25 274.53 38.86 248.38 27.46C231.89 20.26 223.64 16.67 220.11 14.99C212.98 11.6 208.16 9.54 198.52 5.42C191.7 2.5 189.31 1.58 186.05 0.970004C181.32 0.0800039 176.93 0.230004 173.15 0.830004C173.14 0.830004 173.14 0.840004 173.14 0.840004H173.12" stroke="#221F20" stroke-width="0.5" stroke-miterlimit="10"/>
<path d="M153.12 13.68C155.7 16.3 158.18 19.9 159.32 24.66C160.91 31.34 159.04 36.91 158.05 39.29C157.6 40.38 154.04 48.55 145.17 52.33C137.81 55.46 130.95 53.8 124.18 52.17C119.84 51.12 121.79 50.97 109.08 46.44C102.37 44.05 99.7 43.34 96.68 40.72C94.88 39.16 93.53 37.43 92.52 35.76" stroke="#221F20" stroke-width="0.5" stroke-miterlimit="10"/>
<path d="M164.26 5.70999C166.2 7.66999 168.24 10.2 169.97 13.37C175.79 24.01 174 34.3 173.47 37.06C170.87 50.82 161.17 58.35 159 59.96C145.09 70.24 129.33 66.71 127.05 66.16" stroke="#221F20" stroke-width="0.5" stroke-miterlimit="10"/>
<path d="M265.38 142.42C267.49 143.35 271.85 145.62 275.38 150.42C276.79 152.33 279.86 157.1 280.13 163.92C280.24 166.82 279.83 169.37 279.24 171.44" stroke="#221F20" stroke-width="0.5" stroke-miterlimit="10"/>
<path d="M282.2 125.07C285.1 126.04 288.22 127.62 291.13 130.17C300.28 138.19 300.16 149.58 300.14 151.92C300.09 156.54 298.97 160.46 297.7 163.45" stroke="#221F20" stroke-width="0.5" stroke-miterlimit="10"/>
<path d="M282.74 139.33C281.29 140.51 281.26 142.56 281.24 143.69C281.23 144.47 281.2 146.38 282.47 148.05C283.93 149.98 287.08 151.55 289.56 150.23C292.09 148.89 292.15 145.5 292.15 145.18C292.15 141.61 289.04 139.69 288.88 139.59C287.35 138.68 284.53 137.86 282.74 139.32V139.33Z" stroke="#221F20" stroke-width="0.5" stroke-miterlimit="10"/>
<path d="M207.02 161.83C211.93 163.93 215.83 166.17 218.72 168.03C227.25 173.53 228.94 177 229.64 178.95C231.29 183.54 230.29 187.73 229.84 189.27C229.21 191.41 228.19 193.23 226.98 194.77" stroke="#221F20" stroke-width="0.5" stroke-miterlimit="10"/>
</g>
<defs>
<clipPath id="clip0_289_222">
<rect width="346.77" height="202.47" fill="white"/>
</clipPath>
</defs>
</svg>
