<?xml version="1.0" encoding="utf-8"?>
<!-- Generator: Adobe Illustrator 27.9.3, SVG Export Plug-In . SVG Version: 9.03 Build 53313)  -->
<svg version="1.1" id="Layer_3" xmlns="http://www.w3.org/2000/svg" xmlns:xlink="http://www.w3.org/1999/xlink" x="0px" y="0px"
	 viewBox="0 0 346.3 201.5" style="enable-background:new 0 0 346.3 201.5;" xml:space="preserve">
<style type="text/css">
	.st0{fill:#C3ACB1;}
	.st1{fill:none;}
</style>
<path class="st0" d="M346.2,116.5c0,0.2,0,0.7-0.2,1.4c-0.4,1.2-1.1,1.9-1.2,2.1c-1.2,1.9-2.5,4-4.5,6.7c-1,1.4-3.7,5.2-8.8,11.3
	c-4,4.9-6,7.3-8.2,9.3c-3.3,3-6.3,4.9-8.2,6c-3.1,2-4.4,2.4-9.7,5.1c-9,4.6-8.5,4.9-14.2,7.5c-4.5,2.1-7.5,3.5-11.8,4.7
	c-3,0.9-4.9,1.1-9.2,2.5c-3.7,1.2-6.3,2.2-6.9,2.5c-3,1.2-4.8,2.2-10.4,5.1c-11.5,6-10.2,5.3-11.5,6c-4.6,2.5-6.7,3.6-10.7,5.6
	c-2.3,1.1-4.8,2.4-8.3,3.8c-4.3,1.8-6.5,2.7-9.7,3.6c-5.5,1.5-10,1.8-12.6,1.9c-2.7,0.1-4.7-0.1-8.5-0.4c-6.1-0.5-10.5-1.2-13.4-1.6
	c-11.6-1.7-9.8-1.1-19.7-2.6c-4.3-0.7-10.8-1.7-19.4-3.4c-2-0.4-7.2-1.5-13.9-3.1c-5.7-1.4-6.6-1.7-20.9-5.5
	c-10-2.7-10.7-2.8-14.6-4c-6.1-1.8-9.6-2.8-14.4-4.5c-5.5-2-6.7-2.7-12.2-4.5c-4-1.3-8-2.3-8.8-2.6c-4.3-1.2-4.7-1.1-8.4-2.2
	c-1.9-0.5-5-1.4-8.8-2.8c-1.8-0.6-4-1.4-7-2.6c-2-0.8-4.3-1.8-7.3-3.3c-3-1.6-5.5-3.1-7.2-4.3c-1.5-1-2.8-1.9-4.4-3.2
	c-1.8-1.5-1.8-1.7-3.7-3.2c-1.1-0.9-3.1-2.4-4-3c-1.4-1-1.7-1.3-2.2-1.9c-0.3-0.4-1.3-1.7-1.4-3.5c-0.1-1.2,0.2-2.2,0.6-3.1
	c0.2-0.4,0.7-1.8,1.9-3.4c0.6-0.8,0.8-0.9,3.4-3.4c2.2-2.1,2.5-2.5,2.8-2.9c0.9-1.2,0.7-1.4,1.8-3.1c0.7-1.1,1.6-2.4,2.9-3.6
	c1-0.9,2-1.5,2.8-2c-0.1-0.8-0.3-2-0.3-3.3c0-1.5,0.2-2.6,0.3-3.6c0.2-1,0.4-2.4,0.9-4c-0.9-0.3-2.2-0.8-3.5-1.9
	c-0.6-0.5-1.6-1.3-2.4-2.6c-1.5-2.6-1-5.4-0.7-6.7c0.1-0.7,0.7-3.3,2.8-5.7c1.3-1.5,1.8-1.2,3.5-2.7c3.2-2.8,4.6-6.3,5.2-7.9
	c0.8-1.8,1.2-3.7,1.7-5.5c0.3-1.2,0.5-2.2,0.7-2.8c-0.5-0.5-3.3-3.4-2.8-7.1c0.2-1.8,1.1-3,1.9-4.1c0.2-0.3,0.5-0.7,0.8-1l282.7,2.4
	c1.3,1.1,2.4,2,3.3,2.7c3.5,2.9,5.2,4.4,6.8,6c2.2,2.3,3.6,3.7,5,6.1c1.6,2.7,2.6,5.7,2.9,7.9c0.1,0.6,0.3,2.4,0.4,4.3
	c0,0.6,0.1,1.1,0.1,1.4c0.8,0.8,1.8,1.8,3,3c1.5,1.4,2.5,2.5,3.7,3.5c2.5,2.4,3.8,3.5,4.4,4c1.4,1,2.5,1.6,3.9,2.9
	c0,0,1.2,1.1,2,2.5c0.7,1.1,0.5,1.5,1.4,3.6c0.8,1.8,1.3,3.8,2.2,5.6C345.9,115.1,346.2,115.7,346.2,116.5z"/>
<line class="st1" x1="306.9" y1="61.4" x2="24.2" y2="59"/>
</svg>
