<?xml version="1.0" encoding="UTF-8"?>
<svg id="Layer_3" data-name="Layer 3" xmlns="http://www.w3.org/2000/svg" width="346.28" height="201.53" viewBox="0 0 346.28 201.53">
  <defs>
    <style>
      .cls-1 {
        fill: #c3acb1;
        stroke-width: 0px;
      }
    </style>
  </defs>
  <path class="cls-1" d="m34.26,52.96c-1.26.48-2.46.94-3.9,1.69-2.35,1.22-4.97,2.57-6.96,5.35-.8,1.12-1.67,2.33-1.9,4.1-.48,3.71,2.28,6.58,2.83,7.13-.14.69-.36,1.68-.66,2.85-.45,1.75-.93,3.64-1.68,5.49-.67,1.66-2.07,5.13-5.25,7.93-1.71,1.51-2.16,1.26-3.46,2.73-2.11,2.4-2.66,5.02-2.78,5.67-.25,1.32-.79,4.12.72,6.73.77,1.32,1.8,2.15,2.39,2.61,1.35,1.06,2.67,1.59,3.55,1.87-.49,1.58-.76,2.96-.93,4-.15.95-.32,2.07-.32,3.57,0,1.35.14,2.47.28,3.3-.8.44-1.77,1.07-2.76,1.95-1.35,1.22-2.17,2.47-2.91,3.61-1.12,1.71-.94,1.87-1.83,3.06-.32.42-.63.78-2.82,2.87-2.6,2.48-2.81,2.59-3.41,3.38-1.21,1.59-1.71,2.94-1.87,3.37-.34.98-.67,1.89-.58,3.14.13,1.86,1.09,3.13,1.39,3.52.45.58.79.82,2.16,1.86.84.63,2.88,2.17,3.97,3.03,1.89,1.5,1.84,1.71,3.66,3.21,1.61,1.33,2.87,2.17,4.41,3.2,1.77,1.18,4.22,2.71,7.25,4.3,2.97,1.55,5.29,2.52,7.26,3.35,2.91,1.21,5.14,2,6.95,2.63,3.8,1.33,6.91,2.25,8.77,2.77,3.67,1.04,4.08,1,8.37,2.16.86.23,4.78,1.29,8.81,2.58,5.51,1.76,6.71,2.49,12.23,4.47,4.86,1.74,8.36,2.76,14.42,4.52,3.96,1.15,4.64,1.28,14.63,3.95,14.34,3.83,15.23,4.17,20.92,5.54,6.74,1.62,11.9,2.68,13.9,3.08,8.56,1.72,15.1,2.72,19.39,3.37,9.86,1.49,8.05.89,19.65,2.59,2.95.43,7.38,1.1,13.45,1.61,3.79.32,5.75.48,8.47.4,2.54-.08,7.11-.4,12.59-1.89,3.18-.87,5.36-1.77,9.66-3.56,3.5-1.45,6.07-2.69,8.34-3.8,4.05-1.96,6.13-3.14,10.74-5.59,1.34-.71.05-.02,11.52-5.97,5.6-2.9,7.41-3.84,10.44-5.07.57-.23,3.2-1.29,6.85-2.45,4.4-1.4,6.23-1.67,9.25-2.53,4.34-1.24,7.28-2.6,11.82-4.71,5.69-2.64,5.21-2.95,14.18-7.53,5.29-2.7,6.55-3.14,9.68-5.11,1.87-1.18,4.87-3.07,8.18-6.03,2.17-1.94,4.22-4.42,8.22-9.28,5.03-6.11,7.79-9.92,8.77-11.3,1.96-2.73,3.32-4.84,4.47-6.74.09-.15.82-.9,1.23-2.09.23-.66.25-1.1.24-1.35-.02-.8-.33-1.38-.45-1.62-.92-1.78-1.43-3.73-2.18-5.58-.87-2.12-.7-2.49-1.36-3.61-.79-1.34-1.98-2.47-1.98-2.47-1.35-1.24-2.48-1.86-3.86-2.87-.65-.48-1.91-1.66-4.43-4.02-1.12-1.05-2.22-2.08-3.67-3.51-1.18-1.17-2.19-2.18-2.96-2.99-.02-.32-.05-.81-.09-1.41-.15-1.98-.35-3.71-.44-4.34-.31-2.2-1.31-5.19-2.87-7.92-1.38-2.4-2.76-3.82-5-6.13-1.56-1.6-3.32-3.07-6.79-5.95-1.59-1.32-3.75-3.12-6.81-5.51-1.5-1.18-2.25-1.73-7.82-5.9-7.35-5.5-7.55-5.65-8.34-6.21-3.08-2.18-5.94-4.21-9.34-6.17-2.95-1.7-4.37-2.23-12.42-5.66-5.46-2.32-10.89-4.7-16.33-7.05-.65-.28-6.91-2.98-13.11-5.71-7.62-3.35-14.25-6.27-22.33-10.02-5.89-2.74-13.63-6.42-22.07-9.43,0,0-3.37-1.2-12.23-2.32-1.17-.15-3.23-.37-5.65.36-.32.1-.88.3-2.78,1.25-1.62.81-2.98,1.53-4.46,2.38-2.16,1.23-3.6,2.05-5.44,3.24-.96.62-3.37,2.21-6.29,4.54-3.11,2.47-3.42,3.09-9.25,8.39-4.03,3.66-5.81,5.12-6.58,5.75-3.15,2.55-4.77,3.86-6.99,5.01-3.03,1.57-5.62,2.19-8.12,2.79-4.17,1-7.45,1.17-8.2,1.21-6.14.29-12.02-.76-12.02-.76-1.05-.19-2.39-.46-4.3-.43-2.75.05-4.79.72-5.5.97-1.06.37-1.81.77-3.3,1.56-2.28,1.2-2.82,1.72-4.3,2.49-.71.37-1.99.98-5.17,1.86-4.2,1.16-5.54,1.07-9.32,1.9-3.42.75-2.61.88-10.21,3.02-4.12,1.16-7.08,1.89-8.04,2.12-3.33.81-3.89.8-7.4,1.67-3,.74-5.07,1.35-6.5,1.77-3.33.98-4.71,1.49-5.3,1.72Z"/>
</svg>