<svg width="142" height="153" viewBox="0 0 142 153" fill="none" xmlns="http://www.w3.org/2000/svg">
<path d="M22.0373 1C30.6228 1.95394 39.8598 17.6631 44.2434 23.7255C56.3417 40.4571 67.9049 61.2648 72.0984 81.7081C75.0016 95.8611 74.9906 114.975 70.9297 128.782C66.6017 143.498 48.6403 148.013 35.4129 149.82C28.5522 150.757 13.6794 153.039 7.75273 147.482C1.57708 141.693 1 132.959 1 125.081C1 104.551 34.49 101.193 49.1781 99.1743C63.4314 97.2158 87.4859 94.0337 99.8885 103.46C108.695 110.153 117.725 115.907 125.536 123.718C129.62 127.802 132.83 132.231 135.925 137.093C137.512 139.587 137.859 145.982 140.08 147.093" stroke="#E74D3C" stroke-opacity="0.33" stroke-width="2" stroke-linecap="round"/>
</svg>
